<?xml version="1.0" standalone="no"?>
<!DOCTYPE svg PUBLIC "-//W3C//DTD SVG 1.1//EN" "http://www.w3.org/Graphics/SVG/1.1/DTD/svg11.dtd" >
<svg xmlns="http://www.w3.org/2000/svg" xmlns:xlink="http://www.w3.org/1999/xlink" version="1.1">
<metadata></metadata>
<defs>
<font id="swis721_wgl4_btbold_italic" horiz-adv-x="2048" >
<font-face units-per-em="2048" ascent="1556" descent="-492" />
<missing-glyph horiz-adv-x="582" />
<glyph unicode="&#xd;" horiz-adv-x="582" />
<glyph unicode=" "  horiz-adv-x="582" />
<glyph unicode="&#x09;" horiz-adv-x="582" />
<glyph unicode="&#xa0;" horiz-adv-x="582" />
<glyph unicode="!" horiz-adv-x="676" d="M201 453l102 1020h311l-260 -1020h-153zM59 0l50 297h305l-47 -297h-308z" />
<glyph unicode="&#x22;" horiz-adv-x="678" d="M406 1438h192v-559h-192v559zM80 1438h192v-559h-192v559z" />
<glyph unicode="#" horiz-adv-x="1575" d="M709 848l-88 -244h251l86 244h-249zM709 1464h221l-146 -415h242l148 415h221l-148 -415h283l-74 -201h-280l-84 -242h290l-71 -200h-291l-148 -416h-221l148 416h-244l-149 -416h-220l146 416h-287l76 200h282l86 242h-299l74 201h297z" />
<glyph unicode="$" horiz-adv-x="1161" d="M557 862l66 373h-11q-97 0 -153 -49t-56 -133q0 -64 35.5 -108.5t118.5 -82.5zM541 178h20q100 0 161.5 54.5t61.5 142.5q0 61 -38.5 105.5t-135.5 88.5zM367 -225l34 202q-174 26 -273 130t-99 260q0 10 3 40q0 8 1 13h254v-14q0 -95 37 -147.5t114 -68.5l74 424 q-187 80 -272.5 179t-85.5 235q0 193 125 304.5t342 111.5h36l21 112h104l-20 -120q166 -30 252 -133t86 -275v-22h-240q-2 99 -34.5 152t-100.5 67l-70 -396q207 -82 293 -180.5t86 -249.5q0 -196 -132 -315t-347 -119q-19 0 -30 0.5t-21 1.5l-33 -192h-104z" />
<glyph unicode="%" horiz-adv-x="1761" d="M1174 344q0 -66 44.5 -111t110.5 -45q64 0 110 46t46 110q0 65 -45.5 110.5t-110.5 45.5q-66 0 -110.5 -45t-44.5 -111zM958 344q0 157 107.5 265t263.5 108q153 0 263 -110t110 -263q0 -152 -110.5 -262.5t-262.5 -110.5q-156 0 -263.5 108.5t-107.5 264.5zM377 -29 l854 1473h160l-854 -1473h-160zM287 1071q0 -66 44.5 -111t110.5 -45q64 0 110 46.5t46 109.5q0 65 -45.5 111.5t-110.5 46.5t-110 -46t-45 -112zM72 1073q0 157 107 264t263 107q153 0 263 -109t110 -262q0 -152 -110.5 -262.5t-262.5 -110.5q-155 0 -262.5 108.5 t-107.5 264.5z" />
<glyph unicode="&#x26;" horiz-adv-x="1374" d="M487 645q-108 -48 -157 -102.5t-49 -126.5q0 -88 53 -143.5t139 -55.5q53 0 108 18.5t121 59.5zM885 0l-56 90q-90 -60 -191 -91.5t-206 -31.5q-191 0 -314.5 122t-123.5 308q0 143 86 246.5t287 198.5l-48 84q-33 55 -49 106t-16 101q0 147 107.5 243.5t273.5 96.5 q174 0 280.5 -92.5t106.5 -241.5q0 -122 -74 -216.5t-223 -164.5l170 -275q39 56 64 108.5t36 104.5h240q-26 -128 -75 -228.5t-132 -193.5l170 -274h-313zM605 955q83 41 121 88.5t38 109.5q0 51 -33 81t-90 30q-58 0 -93.5 -31t-35.5 -82q0 -55 75 -170q11 -17 18 -26z " />
<glyph unicode="'" horiz-adv-x="352" d="M80 1438h192v-559h-192v559z" />
<glyph unicode="(" horiz-adv-x="758" d="M281 -379q-106 213 -156.5 403t-50.5 373q0 271 108.5 517t372.5 556h233q-222 -309 -326 -601.5t-104 -608.5q0 -171 31.5 -327.5t95.5 -311.5h-204z" />
<glyph unicode=")" horiz-adv-x="758" d="M410 1470q104 -210 154 -399.5t50 -374.5q0 -273 -109 -520.5t-370 -554.5h-235q223 311 327.5 603.5t104.5 606.5q0 172 -31.5 328.5t-95.5 310.5h205z" />
<glyph unicode="*" horiz-adv-x="1024" d="M555 889l-174 -248l-172 119l192 241l-278 78l65 203l267 -96v287h200v-287l267 94l67 -203l-280 -76l190 -239l-172 -125z" />
<glyph unicode="+" horiz-adv-x="1706" d="M752 1221h202v-510h498v-199h-498v-512h-202v512h-498v199h498v510z" />
<glyph unicode="," horiz-adv-x="582" d="M-49 -336l24 106q81 4 130.5 61t68.5 169h-162l62 299h303l-60 -283q-37 -179 -123.5 -261.5t-242.5 -90.5z" />
<glyph unicode="-" horiz-adv-x="662" d="M25 412l49 264h495l-49 -264h-495z" />
<glyph unicode="." horiz-adv-x="582" d="M6 0l55 299h312l-54 -299h-313z" />
<glyph unicode="/" horiz-adv-x="649" d="M8 -190l496 1701h137l-498 -1701h-135z" />
<glyph unicode="0" horiz-adv-x="1161" d="M635 1208q-68 0 -113.5 -43t-79.5 -141q-41 -119 -66.5 -275.5t-25.5 -291.5q0 -134 44 -200.5t132 -66.5q59 0 104 34t70 98q46 109 78.5 284t32.5 318q0 150 -41.5 217t-134.5 67zM55 510q0 190 43.5 370t118.5 304q74 122 183.5 186t244.5 64q228 0 344.5 -144 t116.5 -426q0 -414 -160 -661.5t-426 -247.5q-228 0 -346.5 141.5t-118.5 413.5z" />
<glyph unicode="1" horiz-adv-x="1161" d="M371 0l178 1042q-94 -25 -183.5 -38t-177.5 -13l35 197q178 19 283 76.5t164 167.5h235l-248 -1432h-286z" />
<glyph unicode="2" horiz-adv-x="1161" d="M1008 240l-43 -240h-971q16 198 111 341.5t339 311.5l20 14q333 228 333 377q0 74 -50 118t-135 44q-95 0 -150.5 -57t-72.5 -172h-285q14 214 149 336.5t357 122.5q218 0 349 -111.5t131 -294.5q0 -258 -459 -548v-1q-126 -80 -189 -138t-73 -103h639z" />
<glyph unicode="3" horiz-adv-x="1161" d="M13 436h278q-1 -13 -1.5 -26t-0.5 -29q0 -90 53 -143.5t141 -53.5q110 0 177 66t67 170q0 92 -56.5 143t-158.5 51q-5 0 -15.5 -1t-17.5 -1l37 211q138 0 212.5 55.5t74.5 157.5q0 82 -49 128t-136 46t-137 -54t-65 -165h-283q26 216 153 329.5t343 113.5 q211 0 332.5 -103t121.5 -278q0 -122 -68.5 -210.5t-195.5 -129.5q99 -45 149 -120.5t50 -180.5q0 -205 -143.5 -329t-382.5 -124q-226 0 -354 110t-128 304q0 25 0.5 38t2.5 25z" />
<glyph unicode="4" horiz-adv-x="1161" d="M238 539h417l115 626zM563 0l51 313h-622l39 275l721 825h342l-158 -874h149l-34 -226h-154l-55 -313h-279z" />
<glyph unicode="5" horiz-adv-x="1161" d="M41 383h278v-14q0 -88 48.5 -137.5t134.5 -49.5q122 0 195 88.5t73 233.5q0 105 -56 165t-155 60q-65 0 -113 -25.5t-77 -76.5h-260l165 764h816l-41 -238h-588l-60 -262q42 31 98.5 46t131.5 15q202 0 315 -116t113 -324q0 -251 -155.5 -403t-416.5 -152 q-207 0 -327.5 104t-120.5 281q0 10 0.5 20t1.5 21z" />
<glyph unicode="6" horiz-adv-x="1161" d="M575 680q-98 0 -158.5 -76t-60.5 -201q0 -105 51.5 -164t143.5 -59q98 0 158.5 78t60.5 205q0 103 -51 160t-144 57zM834 1044q-4 82 -44 124t-114 42q-107 0 -175.5 -97.5t-86.5 -276.5q49 38 106.5 56.5t124.5 18.5q184 0 298 -118t114 -308q0 -236 -142.5 -383 t-373.5 -147t-349 141.5t-118 417.5q0 421 163.5 670.5t440.5 249.5q202 0 311 -101t111 -288z" />
<glyph unicode="7" horiz-adv-x="1161" d="M231 0q18 254 165 546t417 607h-680l45 238h979l-41 -215q-263 -315 -406.5 -603.5t-179.5 -572.5h-299z" />
<glyph unicode="8" horiz-adv-x="1161" d="M639 1206q-85 0 -137.5 -57.5t-52.5 -149.5q0 -82 47.5 -130t130.5 -48q84 0 136 58t52 149q0 85 -46 131.5t-130 46.5zM547 616q-91 0 -148 -66.5t-57 -170.5q0 -91 50 -146t134 -55q97 0 156 69t59 183q0 82 -53.5 134t-140.5 52zM338 770q-81 49 -121.5 119t-40.5 162 q0 170 127 278.5t330 108.5q214 0 339.5 -103t125.5 -276q0 -131 -63 -217t-189 -129q92 -53 137 -128t45 -177q0 -208 -134 -329.5t-364 -121.5q-217 0 -346 114t-129 306q0 149 71 247t212 146z" />
<glyph unicode="9" horiz-adv-x="1161" d="M580 711q97 0 158 76.5t61 201.5q0 106 -51.5 164.5t-143.5 58.5q-98 0 -158.5 -79t-60.5 -205q0 -103 51 -160t144 -57zM321 346q4 -81 44 -123.5t114 -42.5q107 0 175.5 97.5t86.5 277.5q-49 -38 -106.5 -57t-124.5 -19q-184 0 -298 118.5t-114 307.5q0 237 142.5 384 t373.5 147t349 -141.5t118 -417.5q0 -421 -163.5 -669.5t-440.5 -248.5q-203 0 -311.5 100t-109.5 287h265z" />
<glyph unicode=":" horiz-adv-x="629" d="M170 778l53 297h312l-54 -297h-311zM31 0l53 299h311l-53 -299h-311z" />
<glyph unicode=";" horiz-adv-x="629" d="M170 778l53 297h312l-54 -297h-311zM-28 -338l26 106q81 4 130.5 61.5t68.5 170.5h-164l61 295h303l-57 -281q-38 -178 -125 -261t-243 -91z" />
<glyph unicode="&#x3c;" horiz-adv-x="1706" d="M1442 1194v-219l-893 -365l893 -364v-219l-1178 485v199z" />
<glyph unicode="=" horiz-adv-x="1706" d="M254 496h1198v-199h-1198v199zM254 926h1198v-199h-1198v199z" />
<glyph unicode="&#x3e;" horiz-adv-x="1706" d="M264 1194l1178 -483v-199l-1178 -485v219l895 364l-895 365v219z" />
<glyph unicode="?" horiz-adv-x="1143" d="M276 0l52 283h301l-47 -283h-306zM369 467q6 128 53 213t156 160q23 16 66 44q163 105 163 224q0 76 -49.5 123t-130.5 47q-92 0 -148 -58.5t-71 -168.5h-275q20 217 149 337.5t341 120.5q218 0 352.5 -113t134.5 -292q0 -85 -34 -160.5t-97 -130.5q-56 -48 -147 -101.5 t-111 -68.5q-48 -33 -66.5 -71t-22.5 -105h-263z" />
<glyph unicode="@" d="M1167 272q-55 -84 -127 -123.5t-170 -39.5q-158 0 -240.5 86t-82.5 254q0 239 139.5 401t343.5 162q80 0 139 -33t97 -98l53 98h178l-147 -598q-3 -11 -5 -22.5t-2 -18.5q0 -35 24 -52.5t71 -17.5q39 0 81.5 20t79.5 56q86 80 130.5 187t44.5 235q0 240 -185.5 394.5 t-478.5 154.5q-141 0 -262.5 -34t-220.5 -101q-170 -114 -261.5 -285t-91.5 -375q0 -307 207 -490.5t553 -183.5q162 0 316.5 49t287.5 142l82 -117q-153 -115 -324.5 -173t-357.5 -58q-192 0 -353 48.5t-286 143.5q-155 121 -232 279t-77 358q0 167 52.5 318.5t154.5 275.5 q148 181 356 274t463 93q169 0 317.5 -45.5t258.5 -128.5q135 -105 201.5 -239.5t66.5 -303.5q0 -165 -65.5 -304.5t-188.5 -238.5q-70 -56 -152.5 -85.5t-171.5 -29.5q-106 0 -159.5 42t-55.5 124zM1217 700q-13 81 -57.5 123.5t-117.5 42.5q-114 0 -198 -124t-84 -298 q0 -92 40.5 -140t117.5 -48q83 0 151.5 63t93.5 164z" />
<glyph unicode="A" horiz-adv-x="1327" d="M455 543h387l-80 622zM-145 0l770 1473h356l233 -1473h-305l-35 287h-546l-146 -287h-327z" />
<glyph unicode="B" horiz-adv-x="1432" d="M373 254h340q140 0 208 55t68 168q0 84 -58 130t-163 46h-324zM487 893h330q123 0 181.5 44.5t58.5 137.5q0 73 -48 109.5t-143 36.5h-321zM23 0l264 1473h585q239 0 363.5 -97t124.5 -282q0 -127 -60.5 -216.5t-175.5 -132.5q87 -41 129.5 -112t42.5 -172 q0 -225 -142.5 -343t-414.5 -118h-716z" />
<glyph unicode="C" horiz-adv-x="1509" d="M1087 506h310q-43 -254 -223 -397.5t-455 -143.5q-296 0 -463.5 176.5t-167.5 489.5q0 385 216 630.5t558 245.5q275 0 426 -138.5t155 -393.5h-300v8q0 125 -78 196.5t-213 71.5q-196 0 -322.5 -177.5t-126.5 -452.5q0 -185 90 -283t259 -98q133 0 221 69.5t114 196.5z " />
<glyph unicode="D" horiz-adv-x="1505" d="M377 260h244q133 0 225 48t153 149q52 86 80.5 192t28.5 211q0 167 -78 253.5t-227 86.5h-258zM23 0l260 1473h526q290 0 451 -159t161 -444q0 -197 -65 -371.5t-182 -293.5q-109 -110 -254 -157.5t-394 -47.5h-503z" />
<glyph unicode="E" horiz-adv-x="1251" d="M23 0l264 1473h968l-45 -261h-663l-62 -313h623l-51 -262h-615l-65 -383h706l-47 -254h-1013z" />
<glyph unicode="F" horiz-adv-x="1139" d="M23 0l270 1473h883l-48 -265h-573l-61 -340h532l-47 -262h-539l-110 -606h-307z" />
<glyph unicode="G" horiz-adv-x="1593" d="M1128 0l-2 160q-80 -99 -194 -150t-256 -51q-267 0 -431.5 179t-164.5 468q0 175 57 341t162 296q104 129 247.5 194.5t321.5 65.5q277 0 435.5 -142t160.5 -392h-303q-8 132 -83.5 202t-211.5 70q-108 0 -191.5 -44.5t-142.5 -133.5q-61 -93 -96 -213.5t-35 -243.5 q0 -185 88.5 -288t245.5 -103q147 0 255.5 84.5t135.5 220.5h-368l43 240h667l-135 -760h-205z" />
<glyph unicode="H" horiz-adv-x="1491" d="M23 0l262 1473h309l-100 -566h569l102 566h303l-262 -1473h-305l113 647h-570l-114 -647h-307z" />
<glyph unicode="I" horiz-adv-x="633" d="M27 0l270 1473h309l-268 -1473h-311z" />
<glyph unicode="J" horiz-adv-x="1008" d="M-37 530h266q-12 -67 -18 -113t-6 -71q0 -64 31 -96.5t92 -32.5q63 0 102.5 43t54.5 129l191 1084h311l-180 -1031q-46 -266 -158 -374.5t-332 -108.5q-185 0 -285 92.5t-100 261.5q0 43 8 97t23 120z" />
<glyph unicode="K" horiz-adv-x="1284" d="M27 0l258 1473h305l-101 -590l558 590h370l-620 -629l430 -844h-332l-311 631l-168 -170l-82 -461h-307z" />
<glyph unicode="L" horiz-adv-x="1126" d="M27 0l260 1473h309l-213 -1213h682l-47 -260h-991z" />
<glyph unicode="M" horiz-adv-x="1794" d="M23 0l258 1473h450l111 -1061l487 1061h443l-267 -1473h-288l229 1196l-537 -1196h-282l-115 1171l-203 -1171h-286z" />
<glyph unicode="N" horiz-adv-x="1493" d="M20 0l269 1473h311l397 -1016l179 1016h297l-261 -1473h-309l-399 1022l-178 -1022h-306z" />
<glyph unicode="O" horiz-adv-x="1608" d="M856 1247q-206 0 -334.5 -177t-128.5 -456q0 -187 93 -289t264 -102q100 0 182 43t139 125q65 95 103 223t38 254q0 185 -91 282t-265 97zM82 612q0 196 67.5 373t190.5 305q104 109 242 166t295 57q307 0 477 -178.5t170 -500.5q0 -176 -65 -345.5t-181 -295.5 q-106 -117 -245 -176.5t-304 -59.5q-305 0 -476 174.5t-171 480.5z" />
<glyph unicode="P" horiz-adv-x="1358" d="M465 756h237q149 0 224 64t75 192q0 94 -57 144t-164 50h-237zM23 0l258 1473h505q247 0 380.5 -116t133.5 -329q0 -252 -157 -387t-453 -135h-272l-92 -506h-303z" />
<glyph unicode="Q" horiz-adv-x="1608" d="M727 401l176 150l150 -182q75 100 117 229.5t42 261.5q0 188 -91.5 287.5t-264.5 99.5q-205 0 -334 -177t-129 -456q0 -189 93.5 -290t269.5 -101q25 0 50 4t54 13zM1210 -190l-170 210q-76 -30 -158.5 -45.5t-170.5 -15.5q-294 0 -461.5 175.5t-167.5 481.5 q0 189 68 365t192 309q103 110 239.5 166.5t295.5 56.5q298 0 472.5 -173.5t174.5 -467.5q0 -219 -74 -403.5t-217 -321.5l153 -188z" />
<glyph unicode="R" horiz-adv-x="1417" d="M473 813h289q141 0 214 60t73 176q0 84 -55 124.5t-171 40.5h-278zM23 0l258 1473h563q256 0 387 -103.5t131 -306.5q0 -149 -73 -254t-204 -143q65 -24 91 -72t26 -156v-41l-4 -176q-1 -16 -1.5 -31t-0.5 -26q0 -47 15 -72.5t53 -44.5v-47h-357q-11 19 -15.5 39.5 t-4.5 58.5q0 27 0.5 49.5t1.5 47.5l8 174v18q0 98 -51.5 138t-179.5 40h-238l-98 -565h-307z" />
<glyph unicode="S" horiz-adv-x="1276" d="M33 467h299v-14q0 -112 68.5 -171t197.5 -59q115 0 176.5 50t61.5 143q0 57 -41 97.5t-189 104.5q-284 125 -365 216t-81 231q0 203 138.5 324.5t373.5 121.5q254 0 396 -117t142 -325v-20h-290q-2 99 -66 152.5t-182 53.5q-98 0 -152.5 -41.5t-54.5 -115.5 q0 -105 207 -192q36 -15 56 -24q233 -99 320 -198t87 -248q0 -223 -147 -350t-404 -127q-254 0 -402.5 129.5t-148.5 349.5v29z" />
<glyph unicode="T" horiz-adv-x="1159" d="M303 0l213 1212h-414l45 261h1113l-46 -261h-387l-213 -1212h-311z" />
<glyph unicode="U" horiz-adv-x="1497" d="M287 1473h313l-166 -923q-5 -28 -7.5 -51.5t-2.5 -41.5q0 -111 64.5 -168.5t189.5 -57.5q137 0 215.5 79t110.5 247l167 916h308l-166 -938q-51 -287 -216 -430.5t-444 -143.5q-245 0 -391.5 130.5t-146.5 348.5q0 38 5 86.5t15 106.5z" />
<glyph unicode="V" horiz-adv-x="1159" d="M311 0l-256 1473h305l158 -1074l473 1074h297l-682 -1473h-295z" />
<glyph unicode="W" horiz-adv-x="1767" d="M246 0l-109 1473h287l43 -979l381 979h303l33 -953l383 953h301l-633 -1473h-291l-18 1065l-414 -1065h-266z" />
<glyph unicode="X" horiz-adv-x="1120" d="M-141 0l542 754l-329 719h319l199 -457l301 457h338l-508 -719l350 -754h-323l-220 496l-333 -496h-336z" />
<glyph unicode="Y" horiz-adv-x="1145" d="M301 0l100 565l-364 908h328l221 -601l334 601h327l-547 -916l-92 -557h-307z" />
<glyph unicode="Z" horiz-adv-x="1223" d="M-51 0l39 223l831 1004h-678l43 246h1057l-41 -226l-829 -995h708l-45 -252h-1085z" />
<glyph unicode="[" horiz-adv-x="782" d="M-4 -379l326 1849h487l-35 -204h-219l-254 -1440h213l-35 -205h-483z" />
<glyph unicode="\" horiz-adv-x="649" d="M295 1511l190 -1701h-133l-188 1701h131z" />
<glyph unicode="]" horiz-adv-x="782" d="M725 1473l-326 -1852h-487l35 205h219l254 1440h-213l37 207h481z" />
<glyph unicode="^" d="M897 1460h252l481 -561h-235l-371 371l-373 -371h-235z" />
<glyph unicode="_" horiz-adv-x="1024" d="M0 -279h1024v-204h-1024v204z" />
<glyph unicode="`" horiz-adv-x="1024" d="M625 1219l-291 370h252l168 -370h-129z" />
<glyph unicode="a" horiz-adv-x="1139" d="M682 524q-65 -20 -178 -42q-217 -41 -217 -167q0 -49 34 -78.5t93 -29.5q92 0 161 54t84 138zM629 109q-72 -71 -144 -102.5t-159 -31.5q-150 0 -238 86t-88 228q0 183 105.5 275.5t355.5 119.5q24 3 65 7q197 19 197 114q0 44 -45 71t-121 27q-74 0 -114.5 -28 t-51.5 -87h-278q27 170 140 251t320 81q206 0 322.5 -82t116.5 -225q0 -15 -1.5 -30.5t-4.5 -32.5l-101 -578q-3 -21 -4.5 -37.5t-1.5 -30.5q0 -27 6.5 -44.5t22.5 -32.5v-27h-299v109z" />
<glyph unicode="b" horiz-adv-x="1247" d="M655 891q-122 0 -201 -119t-79 -301q0 -122 50 -184t150 -62q120 0 199.5 123.5t79.5 302.5q0 114 -52.5 177t-146.5 63zM4 0l258 1473h291l-90 -512q59 83 131.5 121t169.5 38q177 0 280 -123.5t103 -334.5q0 -297 -150.5 -496t-373.5 -199q-122 0 -198.5 58.5 t-115.5 181.5l-33 -207h-272z" />
<glyph unicode="c" horiz-adv-x="1176" d="M766 391h289q-36 -201 -171 -311.5t-347 -110.5q-237 0 -365.5 135t-128.5 383q0 284 157 459.5t414 175.5q218 0 338 -106t127 -305h-288q-2 85 -48 130.5t-133 45.5q-124 0 -201 -118t-77 -306q0 -122 56 -188t159 -66q82 0 139 47.5t80 134.5z" />
<glyph unicode="d" horiz-adv-x="1247" d="M598 874q-114 0 -194 -121t-80 -294q0 -122 51.5 -185t150.5 -63q124 0 199.5 118t75.5 310q0 115 -52 175t-151 60zM723 0l33 184q-68 -109 -149.5 -161t-186.5 -52q-179 0 -282 126t-103 343q0 289 144.5 485.5t359.5 196.5q125 0 200 -52t115 -167l104 570h283 l-258 -1473h-260z" />
<glyph unicode="e" horiz-adv-x="1190" d="M350 653h441q0 6 1 18.5t1 18.5q0 101 -48.5 153t-142.5 52q-98 0 -163.5 -63t-88.5 -179zM723 313h313q-44 -162 -184 -254t-340 -92q-224 0 -348.5 136t-124.5 380q0 280 157.5 458.5t405.5 178.5q225 0 352 -127.5t127 -351.5q0 -31 -3.5 -70.5t-14.5 -119.5h-739v-7 q0 -116 53 -178.5t151 -62.5q67 0 115 27t80 83z" />
<glyph unicode="f" horiz-adv-x="631" d="M20 0l154 887h-149l34 205h152l20 120q25 141 114 216t230 75q26 0 61.5 -4t86.5 -12l-39 -221q-29 6 -49.5 9t-36.5 3q-37 0 -56.5 -25t-31.5 -96l-12 -65h155l-35 -205h-155l-156 -887h-287z" />
<glyph unicode="g" horiz-adv-x="1249" d="M606 870q-121 0 -198.5 -113.5t-77.5 -289.5q0 -111 53.5 -171t151.5 -60q122 0 195 109.5t73 295.5q0 113 -50 171t-147 58zM-10 -102h290q2 -62 42 -92.5t122 -30.5q129 0 187 73t98 322q-60 -90 -135.5 -133t-171.5 -43q-177 0 -280 125.5t-103 343.5q0 285 146.5 470 t371.5 185q128 0 202 -58t109 -186l37 218h275l-195 -1088q-41 -238 -170.5 -341t-386.5 -103q-210 0 -321 85.5t-117 252.5z" />
<glyph unicode="h" horiz-adv-x="1237" d="M457 961q92 93 168.5 129t177.5 36q143 0 229 -82t86 -217q0 -26 -3.5 -57.5t-10.5 -68.5l-125 -701h-289l121 692q4 21 6 39.5t2 30.5q0 61 -34 92t-101 31q-110 0 -189 -79.5t-104 -217.5l-102 -588h-285l258 1473h287z" />
<glyph unicode="i" horiz-adv-x="545" d="M217 1217l45 256h287l-43 -256h-289zM4 0l191 1092h286l-190 -1092h-287z" />
<glyph unicode="j" horiz-adv-x="551" d="M221 1214l47 259h285l-45 -259h-287zM-194 -428l32 225h12q70 0 96.5 23t41.5 100l213 1172h284l-211 -1151q-39 -219 -119.5 -297t-263.5 -78q-14 0 -35.5 1.5t-49.5 4.5z" />
<glyph unicode="k" horiz-adv-x="1077" d="M4 0l260 1473h287l-139 -777l383 396h325l-411 -426l243 -666h-290l-164 467l-154 -158l-59 -309h-281z" />
<glyph unicode="l" horiz-adv-x="553" d="M4 0l256 1473h287l-256 -1473h-287z" />
<glyph unicode="m" horiz-adv-x="1808" d="M-2 0l195 1092h262l-33 -170q94 108 178 154t186 46q104 0 170 -47t95 -143q87 103 167.5 146.5t182.5 43.5q137 0 214 -80t77 -223q0 -24 -2.5 -50t-8.5 -59l-131 -710h-282l129 725q2 15 3 23t1 14q0 59 -31.5 89t-93.5 30q-90 0 -158 -83.5t-94 -228.5l-106 -569h-287 l129 725q2 11 3 21t1 26q0 52 -30 80.5t-85 28.5q-94 0 -162.5 -79.5t-95.5 -221.5l-110 -580h-283z" />
<glyph unicode="n" horiz-adv-x="1231" d="M-2 0l192 1092h263l-31 -168q88 107 175.5 154.5t195.5 47.5q146 0 232.5 -81t86.5 -218q0 -32 -3 -63t-9 -64l-125 -700h-289l121 692q4 21 6 39.5t2 30.5q0 60 -35 91.5t-102 31.5q-110 0 -188 -79t-103 -218l-104 -588h-285z" />
<glyph unicode="o" horiz-adv-x="1262" d="M643 889q-133 0 -226 -125.5t-93 -300.5q0 -121 60.5 -189.5t168.5 -68.5q134 0 224.5 121t90.5 301q0 123 -59.5 192.5t-165.5 69.5zM33 469q0 286 175.5 470.5t450.5 184.5q235 0 367.5 -133.5t132.5 -369.5q0 -285 -173.5 -469.5t-444.5 -184.5q-234 0 -371 136 t-137 366z" />
<glyph unicode="p" horiz-adv-x="1247" d="M653 893q-120 0 -201 -121t-81 -303q0 -116 53 -181t147 -65q123 0 201 122.5t78 318.5q0 109 -51.5 169t-145.5 60zM-74 -436l267 1528h258l-33 -179q66 110 147 160.5t191 50.5q180 0 284.5 -121t104.5 -331q0 -300 -146 -500.5t-362 -200.5q-120 0 -198.5 57 t-114.5 171l-113 -635h-285z" />
<glyph unicode="q" horiz-adv-x="1247" d="M608 877q-121 0 -200.5 -123t-79.5 -312q0 -111 53 -172t149 -61q124 0 199.5 119t75.5 315q0 114 -50.5 174t-146.5 60zM618 -436l107 577q-57 -87 -133 -129.5t-176 -42.5q-178 0 -278.5 126t-100.5 347q0 295 146 488.5t368 193.5q131 0 206 -57.5t113 -187.5l39 213 h269l-271 -1528h-289z" />
<glyph unicode="r" horiz-adv-x="770" d="M4 0l195 1092h260l-43 -213q66 129 145 186t193 57q17 0 27 -0.5t18 -1.5l-54 -303q-36 8 -59 11t-39 3q-104 0 -169 -77t-95 -238l-92 -516h-287z" />
<glyph unicode="s" horiz-adv-x="1057" d="M8 371h272q4 -88 56.5 -137.5t142.5 -49.5q81 0 121.5 29.5t40.5 87.5q0 73 -158 124l-10 3q-222 72 -296.5 149t-74.5 205q0 159 114 247.5t319 88.5q206 0 320 -95t116 -267h-272q-10 73 -56.5 112t-124.5 39q-68 0 -106.5 -26.5t-38.5 -73.5q0 -66 191 -125l7 -2 q203 -63 275 -138.5t72 -205.5q0 -169 -119.5 -269t-323.5 -100q-222 0 -344.5 104.5t-122.5 295.5v4z" />
<glyph unicode="t" horiz-adv-x="649" d="M485 -10q-37 -13 -74.5 -19t-76.5 -6q-145 0 -212 50t-67 157q0 22 1.5 44t5.5 45l108 624h-152l35 207h152l57 323h285l-58 -323h156l-33 -207h-155l-92 -522q-4 -23 -9.5 -51t-5.5 -31q0 -34 17 -49t55 -15q13 0 35 4t71 17z" />
<glyph unicode="u" horiz-adv-x="1231" d="M1167 1092l-194 -1092h-262l30 174q-90 -108 -177 -155.5t-193 -47.5q-147 0 -233.5 80.5t-86.5 216.5q0 33 3 65.5t9 63.5l123 695h293l-123 -686q-4 -19 -6 -37t-2 -33q0 -61 35.5 -93t101.5 -32q110 0 188 79.5t103 219.5l107 582h284z" />
<glyph unicode="v" horiz-adv-x="981" d="M190 0l-153 1092h285l75 -752l342 752h299l-536 -1092h-312z" />
<glyph unicode="w" horiz-adv-x="1565" d="M172 0l-117 1092h277l55 -756l295 756h281l41 -748l307 748h293l-500 -1092h-289l-47 737l-295 -737h-301z" />
<glyph unicode="x" horiz-adv-x="973" d="M-104 0l393 543l-273 549h306l139 -326l207 326h323l-393 -549l281 -543h-312l-135 313l-211 -313h-325z" />
<glyph unicode="y" horiz-adv-x="1044" d="M-33 -422l27 217q13 -1 42 -3.5t42 -2.5q75 0 112 39.5t37 118.5q0 24 -6 72q-1 8 -2 12l-170 1061h283l108 -797l361 797h299l-670 -1319q-59 -117 -127.5 -165t-173.5 -48q-29 0 -65 4t-97 14z" />
<glyph unicode="z" horiz-adv-x="1034" d="M-57 0l37 227l600 631h-523l41 234h899l-41 -226l-596 -624h558l-44 -242h-931z" />
<glyph unicode="{" horiz-adv-x="1024" d="M883 1477v-209q-9 0 -25 1t-22 1q-101 0 -136.5 -38.5t-35.5 -162.5v-240q0 -148 -45 -210t-162 -89q117 -27 162 -88t45 -209v-241q0 -123 35 -161t137 -38q6 0 22 1t25 1v-209q-14 0 -39 -1t-37 -1q-100 0 -167 12t-114 37q-57 34 -80.5 91.5t-23.5 199.5v252 q0 137 -51 194.5t-172 57.5q-6 0 -20 -1t-21 -1v209q7 0 21 -1t20 -1q120 0 171.5 58t51.5 196v250q0 143 23.5 201t80.5 92q47 25 114 37t167 12q12 0 37 -1t39 -1z" />
<glyph unicode="|" horiz-adv-x="1024" d="M410 1565h206v-2048h-206v2048z" />
<glyph unicode="}" horiz-adv-x="1024" d="M143 1477h68q110 0 177 -12t112 -38q57 -32 80.5 -91.5t23.5 -198.5v-252q0 -137 51 -194.5t172 -57.5q6 0 20 1t21 1v-209h-37q-125 0 -176 -56t-51 -194v-252q0 -143 -23.5 -201t-80.5 -90q-47 -25 -114 -37t-167 -12q-12 0 -37 1t-39 1v209q9 0 25 -1t22 -1 q101 0 136.5 38.5t35.5 160.5v239q0 150 45 211.5t162 87.5q-117 27 -162 89t-45 210v242q0 122 -35.5 160.5t-136.5 38.5q-6 0 -22 -1t-25 -1v209z" />
<glyph unicode="~" horiz-adv-x="1706" d="M1530 803v-221q-104 -71 -196.5 -104.5t-182.5 -33.5q-46 0 -92 8t-92 23q-24 8 -71 25q-219 75 -333 75q-85 0 -177.5 -37.5t-207.5 -119.5v221q107 72 204 107.5t183 35.5q117 0 291 -58l4 -1q18 -6 55 -19q155 -55 240 -55t175 37t200 117z" />
<glyph horiz-adv-x="1161" d="M92 901q61 297 202 451.5t351 154.5q214 0 337 -134.5t126 -372.5l-297 -1v43q0 116 -44.5 174t-131.5 58q-90 0 -145 -85.5t-93 -287.5h357l-49 -108h-328q-1 -8 -6 -45t-8 -68h290l-47 -109h-252q-2 -21 -3 -42.5t-1 -57.5q0 -137 44 -204.5t132 -67.5t147 72t79 204 h299q-41 -235 -186 -374.5t-347 -139.5q-225 0 -343 145.5t-118 423.5v41h-135l49 109h90q1 3 1 8q4 61 12 104l-164 1l49 108h133z" />
<glyph unicode="&#xa1;" horiz-adv-x="676" d="M616 1473l-49 -299h-305l47 299h307zM471 1020l-100 -1020h-314l260 1020h154z" />
<glyph unicode="&#xa2;" horiz-adv-x="1161" d="M641 887h-18q-118 0 -196.5 -120t-78.5 -304q0 -78 25.5 -138t68.5 -85zM291 -233l67 229q-141 48 -220 175.5t-79 309.5q0 283 155.5 462t395.5 179q24 0 46 -0.5t46 -1.5l58 191h114l-61 -211q134 -42 207.5 -143.5t75.5 -245.5h-289q0 53 -18 89t-58 62l-201 -653 q9 -1 17.5 -1.5t17.5 -0.5q84 0 138.5 46.5t78.5 137.5h289q-35 -200 -173.5 -312t-352.5 -112q-17 0 -36.5 1.5t-39.5 4.5l-61 -206h-117z" />
<glyph unicode="&#xa3;" horiz-adv-x="1161" d="M127 -35l-37 209q109 74 160 158.5t51 189.5q0 16 -1.5 40.5t-4.5 57.5l-193 1l25 147h139q-11 58 -16.5 112t-5.5 105q0 212 125 337.5t336 125.5q213 0 328.5 -95.5t115.5 -271.5q0 -29 -2 -55.5t-6 -54.5h-260q5 32 7.5 54.5t2.5 39.5q0 79 -45.5 124.5t-124.5 45.5 q-96 0 -145.5 -65.5t-49.5 -192.5q0 -44 5 -95t16 -114h313l-20 -147l-283 -1q1 -5 1.5 -13t0.5 -23q0 -95 -43.5 -182t-136.5 -177q51 16 94 23.5t80 7.5q47 0 142.5 -24.5t150.5 -24.5q56 0 108 22.5t95 65.5l-56 -262q-51 -35 -99 -51.5t-101 -16.5q-62 0 -199.5 44 t-231.5 44q-61 0 -120 -22t-115 -66z" />
<glyph unicode="&#xa4;" horiz-adv-x="1241" d="M623 1161q-113 0 -195 -82t-82 -194q0 -114 81 -194.5t196 -80.5q113 0 194.5 80.5t81.5 194.5q0 112 -81.5 194t-194.5 82zM172 1438l205 -203q54 39 114 58.5t130 19.5t131.5 -19.5t115.5 -58.5l203 203l105 -107l-203 -205q38 -53 57 -113.5t19 -127.5t-19 -127 t-57 -115l203 -205l-105 -104l-203 203q-54 -40 -115 -59t-130 -19q-72 0 -132.5 19t-113.5 59l-205 -203l-104 104l202 205q-38 54 -56.5 113.5t-18.5 128.5q0 67 18.5 127.5t56.5 113.5l-202 205z" />
<glyph unicode="&#xa5;" horiz-adv-x="1245" d="M375 0l96 537l-8 16h-469l20 111h404l-51 129h-330l20 110h265l-199 492h293l225 -592l328 592h303l-295 -492h274l-20 -110h-322l-80 -129h379l-18 -111h-424l-14 -25l-84 -528h-293z" />
<glyph unicode="&#xa6;" horiz-adv-x="1024" d="M410 408h206v-758h-206v758zM410 1432h206v-758h-206v758z" />
<glyph unicode="&#xa7;" horiz-adv-x="1024" d="M590 428q49 16 73.5 42t24.5 65q0 73 -190 221q-63 49 -99 78q-52 -11 -80 -38t-28 -67q0 -36 24 -70.5t88 -85.5zM14 109l230 -1q1 -63 38 -98t105 -35q65 0 105 31t40 80q0 33 -21.5 65t-72.5 72l-223 178q-90 73 -128 141.5t-38 157.5q0 92 62.5 158.5t173.5 93.5 q-42 50 -62 100.5t-20 106.5q0 142 102 234t262 92q175 0 268 -80.5t93 -230.5v-29h-228q0 72 -33 106.5t-102 34.5q-57 0 -92 -29t-35 -75q0 -34 35 -76.5t113 -101.5l162 -125q89 -69 138.5 -152.5t49.5 -165.5q0 -100 -67 -169t-177 -81q43 -47 62.5 -97t19.5 -112 q0 -142 -110 -238.5t-279 -96.5q-180 0 -275.5 82t-95.5 237v23z" />
<glyph unicode="&#xa8;" horiz-adv-x="1024" d="M674 1278l43 246h229l-45 -246h-227zM332 1278l43 246h223l-43 -246h-223z" />
<glyph unicode="&#xa9;" horiz-adv-x="1706" d="M1212 897h-188q-8 70 -53 108.5t-119 38.5q-91 0 -143 -81.5t-52 -227.5q0 -147 52 -224t151 -77q73 0 117 42t53 119l193 1q-8 -139 -109 -223t-260 -84q-186 0 -293.5 118t-107.5 322q0 206 109.5 328.5t293.5 122.5q152 0 250.5 -78t105.5 -205zM854 1356 q-128 0 -239.5 -46t-198.5 -134q-89 -90 -136 -203.5t-47 -237.5q0 -125 47 -237t136 -201q88 -88 201 -135t237 -47t237.5 47t204.5 137q88 86 133.5 197t45.5 239q0 126 -46.5 238.5t-134.5 200.5q-89 89 -201 135.5t-239 46.5zM852 1479q152 0 287.5 -56t242.5 -163 q105 -105 160 -240.5t55 -286.5q0 -152 -54.5 -284t-160.5 -236q-111 -108 -248 -165.5t-282 -57.5q-147 0 -280.5 56.5t-241.5 164.5q-107 106 -163 240.5t-56 281.5q0 149 56 284.5t163 244.5q105 106 238 161.5t284 55.5z" />
<glyph unicode="&#xaa;" horiz-adv-x="975" d="M102 551h721l-22 -123h-723zM627 1081q-49 -14 -134 -30q-167 -30 -167 -121q0 -36 26 -57t72 -21q69 0 120.5 39t63.5 100zM586 780q-53 -49 -108 -71.5t-122 -22.5q-113 0 -180 61t-67 162q0 132 78.5 198t271.5 87q16 2 42 4q156 15 156 84q0 33 -34 51.5t-97 18.5 q-53 0 -83 -21t-38 -61h-210q21 122 107.5 180.5t242.5 58.5t244 -59t88 -162q0 -14 -4 -42q0 -3 -1 -5l-75 -413q-2 -10 -3 -20.5t-1 -29.5q0 -22 4.5 -34t15.5 -23v-19h-227v78z" />
<glyph unicode="&#xab;" horiz-adv-x="913" d="M725 137l-279 316l43 213l402 286l-53 -247l-238 -166l168 -189zM297 137l-279 316l45 213l398 286l-49 -247l-238 -166l166 -189z" />
<glyph unicode="&#xac;" horiz-adv-x="1706" d="M254 864h1198v-502h-199v306h-999v196z" />
<glyph unicode="&#xad;" horiz-adv-x="662" d="M25 412l49 264h495l-49 -264h-495z" />
<glyph unicode="&#xae;" horiz-adv-x="1706" d="M745 1034v-239h99q88 0 129 28t41 88q0 63 -44 93t-136 30h-89zM545 1161h323q176 0 264.5 -59.5t88.5 -177.5q0 -82 -48 -140t-133 -79l185 -369h-224l-157 338h-99v-338h-200v825zM854 1356q-127 0 -236 -44.5t-196 -131.5q-91 -91 -140 -206.5t-49 -238.5 q0 -124 46 -235.5t133 -198.5q89 -91 203 -139.5t237 -48.5q120 0 233.5 47t206.5 135q87 84 135 196t48 232q0 133 -44.5 245t-132.5 201q-90 93 -202.5 140t-241.5 47zM852 1479q154 0 290.5 -57.5t243.5 -166.5q103 -104 157 -238t54 -284q0 -152 -56 -287.5t-163 -238.5 q-107 -105 -243.5 -161t-282.5 -56q-149 0 -285 58t-243 167q-104 105 -158.5 238.5t-54.5 279.5q0 102 27 198.5t81 188.5q101 170 267 264.5t366 94.5z" />
<glyph unicode="&#xaf;" horiz-adv-x="1024" d="M0 1565h1024v-205h-1024v205z" />
<glyph unicode="&#xb0;" horiz-adv-x="674" d="M338 1335q-73 0 -124.5 -51t-51.5 -123q0 -74 51 -125t125 -51q72 0 123 52t51 124t-51 123t-123 51zM338 1464q126 0 214.5 -89.5t88.5 -215.5q0 -125 -89 -214t-216 -89q-126 0 -213.5 88t-87.5 215t88.5 216t214.5 89z" />
<glyph unicode="&#xb1;" horiz-adv-x="1706" d="M254 197h1198v-199h-1198v199zM752 1223h202v-326h498v-199h-498v-325h-202v325h-498v199h498v326z" />
<glyph unicode="&#xb2;" horiz-adv-x="766" d="M666 711l-29 -144h-641q10 120 73 206t224 185l12 8q221 138 221 228q0 44 -33.5 70t-89.5 26q-62 0 -98.5 -33.5t-48.5 -103.5h-186q9 129 97.5 203t235.5 74q143 0 229.5 -67t86.5 -177q0 -86 -52.5 -151t-250.5 -179q-83 -47 -124.5 -82.5t-47.5 -62.5h422z" />
<glyph unicode="&#xb3;" horiz-adv-x="766" d="M8 829h184q0 -7 -1 -15t-1 -17q0 -55 35 -87t94 -32q73 0 116.5 39t43.5 102q0 55 -37.5 86t-103.5 31q-3 0 -10.5 -1t-12.5 -1l25 127q91 0 140.5 33.5t49.5 95.5q0 48 -33 76t-89 28q-57 0 -90 -32.5t-44 -100.5h-186q17 130 101 198t227 68q138 0 218.5 -62t80.5 -167 q0 -73 -45.5 -125.5t-128.5 -77.5q65 -28 98 -73t33 -107q0 -123 -95 -197.5t-253 -74.5q-149 0 -233.5 66t-84.5 182q0 15 0.5 22.5t1.5 15.5z" />
<glyph unicode="&#xb4;" horiz-adv-x="1024" d="M942 1589l-385 -370h-141l237 370h289z" />
<glyph unicode="&#xb5;" horiz-adv-x="1249" d="M205 1092h289l-76 -435q-15 -80 -23 -151.5t-8 -116.5q0 -93 42 -138.5t128 -45.5q100 0 155.5 82t92.5 291l90 514h289l-193 -1092h-268l18 117q-42 -78 -93.5 -114t-121.5 -36q-67 0 -119 29.5t-94 91.5l-90 -526h-286z" />
<glyph unicode="&#xb6;" horiz-adv-x="1024" d="M983 1479v-111h-113v-1368h-151v1368h-158v-1368h-153v784q-167 6 -267 101t-100 245q0 158 107 253.5t284 95.5h551z" />
<glyph unicode="&#xb7;" horiz-adv-x="582" d="M135 702q0 65 45.5 110.5t110.5 45.5t110 -45t45 -111q0 -64 -45 -109.5t-110 -45.5q-66 0 -111 44.5t-45 110.5z" />
<glyph unicode="&#xb8;" horiz-adv-x="1024" d="M88 -430l47 123q71 -26 128 -37.5t112 -11.5q44 0 70 22.5t26 59.5q0 39 -36.5 54t-159.5 17l69 203h100l-30 -90h8q109 0 167 -44t58 -126q0 -107 -70 -166t-198 -59q-54 0 -128.5 14t-162.5 41z" />
<glyph unicode="&#xb9;" horiz-adv-x="766" d="M246 567l116 625q-65 -16 -124 -23.5t-113 -7.5l22 119q116 11 186 45.5t109 99.5h156l-164 -858h-188z" />
<glyph unicode="&#xba;" horiz-adv-x="1069" d="M106 551h723l-24 -123h-721zM590 1339q-101 0 -171.5 -90t-70.5 -217q0 -87 46.5 -136.5t127.5 -49.5q102 0 171 88t69 217q0 88 -46 138t-126 50zM127 1036q0 206 134 339.5t343 133.5q178 0 278.5 -97t100.5 -267q0 -205 -132 -337t-339 -132q-178 0 -281.5 97.5 t-103.5 262.5z" />
<glyph unicode="&#xbb;" horiz-adv-x="913" d="M137 952l279 -315l-43 -213l-402 -287l52 248l239 166l-168 188zM563 952l281 -315l-45 -213l-400 -287l52 248l237 166l-168 188z" />
<glyph unicode="&#xbc;" horiz-adv-x="1806" d="M1223 301h264l72 352zM1427 0l33 176h-393l25 154l454 461h215l-98 -490h94l-22 -125h-97l-34 -176h-177zM385 -41l870 1493h164l-872 -1493h-162zM233 623l113 583q-57 -14 -114 -21t-113 -7l22 110q112 11 178.5 43t102.5 92h149l-155 -800h-183z" />
<glyph unicode="&#xbd;" horiz-adv-x="1806" d="M1708 135l-27 -135h-612q11 111 71 191.5t214 175.5l15 9q206 127 206 210q0 41 -31.5 65.5t-85.5 24.5q-59 0 -93.5 -32t-45.5 -97h-180q9 120 94.5 189t224.5 69q137 0 219 -62.5t82 -164.5q0 -80 -50 -141t-239 -167q-80 -46 -119 -78t-46 -57h403zM385 -41l870 1493 h164l-872 -1493h-162zM233 623l113 583q-57 -14 -114 -21t-113 -7l22 110q112 11 178.5 43t102.5 92h149l-155 -800h-183z" />
<glyph unicode="&#xbe;" horiz-adv-x="1804" d="M1223 301h264l72 352zM1427 0l33 176h-393l25 154l454 461h215l-98 -490h94l-22 -125h-97l-34 -176h-177zM385 -41l870 1493h164l-872 -1493h-162zM8 866h174v-30q0 -51 33.5 -81t89.5 -30q69 0 111.5 37t42.5 96q0 51 -35.5 80t-99.5 29q-5 0 -12 -1t-11 -1l25 118 q87 0 133.5 31t46.5 88q0 46 -31 72t-86 26t-86 -30t-41 -92h-178q17 120 97 183.5t214 63.5q133 0 210 -57.5t77 -155.5q0 -68 -43.5 -117.5t-122.5 -72.5q62 -25 93.5 -67.5t31.5 -100.5q0 -115 -90 -184.5t-242 -69.5q-142 0 -222.5 61.5t-80.5 169.5q0 15 0.5 21.5 t1.5 13.5z" />
<glyph unicode="&#xbf;" horiz-adv-x="1143" d="M864 1446l-51 -283h-301l47 283h305zM772 999q-6 -127 -53.5 -212.5t-155.5 -159.5q-23 -17 -66 -44q-163 -105 -163 -225q0 -76 49 -123t131 -47q92 0 148 58.5t71 169.5h273q-20 -217 -149 -338t-341 -121q-218 0 -351.5 113t-133.5 292q0 86 33.5 163t95.5 130 q55 48 146.5 100.5t113.5 67.5q47 34 66 72t22 104h264z" />
<glyph unicode="&#xc0;" horiz-adv-x="1327" d="M455 543h387l-80 622zM-145 0l770 1473h356l233 -1473h-305l-35 287h-546l-146 -287h-327zM852 1604l-291 370h252l168 -370h-129z" />
<glyph unicode="&#xc1;" horiz-adv-x="1327" d="M455 543h387l-80 622zM-145 0l770 1473h356l233 -1473h-305l-35 287h-546l-146 -287h-327zM1169 1974l-385 -370h-141l237 370h289z" />
<glyph unicode="&#xc2;" horiz-adv-x="1327" d="M455 543h387l-80 622zM-145 0l770 1473h356l233 -1473h-305l-35 287h-546l-146 -287h-327zM1130 1604h-129l-131 208l-229 -208h-142l267 370h235z" />
<glyph unicode="&#xc3;" horiz-adv-x="1327" d="M455 543h387l-80 622zM-145 0l770 1473h356l233 -1473h-305l-35 287h-546l-146 -287h-327zM1188 1933q-32 -123 -86.5 -181t-139.5 -58q-26 0 -47 3t-39 9l-61 20q-28 8 -41 10.5t-23 2.5q-34 0 -59.5 -24.5t-36.5 -67.5h-115q30 123 86 184t140 61q17 0 41 -4t51 -12 l62 -19q15 -4 29.5 -7t22.5 -3q38 0 61.5 20t39.5 66h115z" />
<glyph unicode="&#xc4;" horiz-adv-x="1327" d="M455 543h387l-80 622zM-145 0l770 1473h356l233 -1473h-305l-35 287h-546l-146 -287h-327zM901 1663l43 246h229l-45 -246h-227zM559 1663l43 246h223l-43 -246h-223z" />
<glyph unicode="&#xc5;" horiz-adv-x="1327" d="M700 1724q0 -46 33.5 -79t79.5 -33q48 0 81.5 32.5t33.5 79.5q0 50 -33 82.5t-82 32.5q-47 0 -80 -33.5t-33 -81.5zM567 1726q0 102 72 174t174 72t175 -72.5t73 -173.5q0 -102 -73 -174.5t-175 -72.5t-174 72t-72 175zM455 543h387l-80 622zM-145 0l753 1434h381 l225 -1434h-305l-35 287h-546l-146 -287h-327z" />
<glyph unicode="&#xc6;" horiz-adv-x="1894" d="M463 543h360l121 676h-100zM-186 0l874 1473h1210l-45 -261h-616l-55 -313h569l-51 -262h-567l-70 -383h663l-47 -254h-956l53 287h-459l-163 -287h-340z" />
<glyph unicode="&#xc7;" horiz-adv-x="1509" d="M1087 506h310q-47 -260 -224.5 -400t-463.5 -143l-21 -53q116 0 175 -44t59 -130q0 -104 -70.5 -162.5t-196.5 -58.5q-54 0 -127.5 14t-162.5 41l45 123q67 -26 126 -37.5t115 -11.5q43 0 68.5 21.5t25.5 55.5q0 43 -35.5 58.5t-160.5 17.5l59 164q-243 36 -381.5 214 t-138.5 456q0 386 216 631t558 245q275 0 426 -138.5t155 -393.5h-300v8q0 125 -77.5 196.5t-213.5 71.5q-196 0 -322.5 -177.5t-126.5 -452.5q0 -185 90 -283t259 -98q134 0 221.5 69.5t113.5 196.5z" />
<glyph unicode="&#xc8;" horiz-adv-x="1251" d="M23 0l264 1473h968l-45 -261h-663l-62 -313h623l-51 -262h-615l-65 -383h706l-47 -254h-1013zM815 1604l-291 370h252l168 -370h-129z" />
<glyph unicode="&#xc9;" horiz-adv-x="1251" d="M23 0l264 1473h968l-45 -261h-663l-62 -313h623l-51 -262h-615l-65 -383h706l-47 -254h-1013zM1132 1974l-385 -370h-141l237 370h289z" />
<glyph unicode="&#xca;" horiz-adv-x="1251" d="M23 0l264 1473h968l-45 -261h-663l-62 -313h623l-51 -262h-615l-65 -383h706l-47 -254h-1013zM1093 1604h-129l-131 208l-229 -208h-142l267 370h235z" />
<glyph unicode="&#xcb;" horiz-adv-x="1251" d="M23 0l264 1473h968l-45 -261h-663l-62 -313h623l-51 -262h-615l-65 -383h706l-47 -254h-1013zM864 1663l43 246h229l-45 -246h-227zM522 1663l43 246h223l-43 -246h-223z" />
<glyph unicode="&#xcc;" horiz-adv-x="633" d="M27 0l270 1473h309l-268 -1473h-311zM506 1604l-291 370h252l168 -370h-129z" />
<glyph unicode="&#xcd;" horiz-adv-x="633" d="M27 0l270 1473h309l-268 -1473h-311zM823 1974l-385 -370h-141l237 370h289z" />
<glyph unicode="&#xce;" horiz-adv-x="633" d="M27 0l270 1473h309l-268 -1473h-311zM784 1604h-129l-131 208l-229 -208h-142l267 370h235z" />
<glyph unicode="&#xcf;" horiz-adv-x="633" d="M27 0l270 1473h309l-268 -1473h-311zM555 1663l43 246h229l-45 -246h-227zM213 1663l43 246h223l-43 -246h-223z" />
<glyph unicode="&#xd0;" horiz-adv-x="1516" d="M31 0l123 696h-168l32 191h172l103 586h526q290 0 451.5 -159t161.5 -444q0 -197 -65.5 -371.5t-182.5 -293.5q-109 -110 -254 -157.5t-393 -47.5h-506zM385 260h246q133 0 225.5 48t153.5 149q50 85 78 191t28 212q0 168 -77 254t-226 86h-260l-55 -313h313l-35 -191 h-313z" />
<glyph unicode="&#xd1;" horiz-adv-x="1493" d="M20 0l269 1473h311l397 -1016l179 1016h297l-261 -1473h-309l-399 1022l-178 -1022h-306zM1272 1933q-32 -123 -86.5 -181t-139.5 -58q-26 0 -47 3t-39 9l-61 20q-28 8 -41 10.5t-23 2.5q-34 0 -59.5 -24.5t-36.5 -67.5h-115q30 123 86 184t140 61q17 0 41 -4t51 -12 l62 -19q15 -4 29.5 -7t22.5 -3q38 0 61.5 20t39.5 66h115z" />
<glyph unicode="&#xd2;" horiz-adv-x="1608" d="M856 1247q-206 0 -334.5 -177t-128.5 -456q0 -187 93 -289t264 -102q100 0 182 43t139 125q65 95 103 223t38 254q0 185 -91 282t-265 97zM82 612q0 196 67.5 373t190.5 305q104 109 242 166t295 57q307 0 477 -178.5t170 -500.5q0 -176 -65 -345.5t-181 -295.5 q-106 -117 -245 -176.5t-304 -59.5q-305 0 -476 174.5t-171 480.5zM949 1604l-291 370h252l168 -370h-129z" />
<glyph unicode="&#xd3;" horiz-adv-x="1608" d="M856 1247q-206 0 -334.5 -177t-128.5 -456q0 -187 93 -289t264 -102q100 0 182 43t139 125q65 95 103 223t38 254q0 185 -91 282t-265 97zM82 612q0 196 67.5 373t190.5 305q104 109 242 166t295 57q307 0 477 -178.5t170 -500.5q0 -176 -65 -345.5t-181 -295.5 q-106 -117 -245 -176.5t-304 -59.5q-305 0 -476 174.5t-171 480.5zM1266 1974l-385 -370h-141l237 370h289z" />
<glyph unicode="&#xd4;" horiz-adv-x="1608" d="M856 1247q-206 0 -334.5 -177t-128.5 -456q0 -187 93 -289t264 -102q100 0 182 43t139 125q65 95 103 223t38 254q0 185 -91 282t-265 97zM82 612q0 196 67.5 373t190.5 305q104 109 242 166t295 57q307 0 477 -178.5t170 -500.5q0 -176 -65 -345.5t-181 -295.5 q-106 -117 -245 -176.5t-304 -59.5q-305 0 -476 174.5t-171 480.5zM1227 1604h-129l-131 208l-229 -208h-142l267 370h235z" />
<glyph unicode="&#xd5;" horiz-adv-x="1608" d="M856 1247q-206 0 -334.5 -177t-128.5 -456q0 -187 93 -289t264 -102q100 0 182 43t139 125q65 95 103 223t38 254q0 185 -91 282t-265 97zM82 612q0 196 67.5 373t190.5 305q104 109 242 166t295 57q307 0 477 -178.5t170 -500.5q0 -176 -65 -345.5t-181 -295.5 q-106 -117 -245 -176.5t-304 -59.5q-305 0 -476 174.5t-171 480.5zM1285 1933q-32 -123 -86.5 -181t-139.5 -58q-26 0 -47 3t-39 9l-61 20q-28 8 -41 10.5t-23 2.5q-34 0 -59.5 -24.5t-36.5 -67.5h-115q30 123 86 184t140 61q17 0 41 -4t51 -12l62 -19q15 -4 29.5 -7 t22.5 -3q38 0 61.5 20t39.5 66h115z" />
<glyph unicode="&#xd6;" horiz-adv-x="1608" d="M856 1247q-206 0 -334.5 -177t-128.5 -456q0 -187 93 -289t264 -102q100 0 182 43t139 125q65 95 103 223t38 254q0 185 -91 282t-265 97zM82 612q0 196 67.5 373t190.5 305q104 109 242 166t295 57q307 0 477 -178.5t170 -500.5q0 -176 -65 -345.5t-181 -295.5 q-106 -117 -245 -176.5t-304 -59.5q-305 0 -476 174.5t-171 480.5zM998 1663l43 246h229l-45 -246h-227zM656 1663l43 246h223l-43 -246h-223z" />
<glyph unicode="&#xd7;" horiz-adv-x="1706" d="M416 1202l450 -450l451 450l141 -139l-450 -453l450 -450l-141 -140l-451 451l-450 -451l-140 140l451 450l-451 453z" />
<glyph unicode="&#xd8;" horiz-adv-x="1608" d="M426 403l700 756q-47 49 -114.5 73.5t-155.5 24.5q-212 0 -340.5 -181.5t-128.5 -477.5q0 -54 9.5 -101t29.5 -94zM53 8l156 176q-64 79 -94.5 183.5t-30.5 246.5q0 389 225.5 644t569.5 255q132 0 237.5 -33.5t192.5 -103.5l157 172l93 -92l-158 -176q61 -87 92 -194.5 t31 -233.5q0 -187 -64 -359t-182 -300q-106 -117 -245 -176.5t-304 -59.5q-137 0 -243.5 32t-186.5 97l-154 -170zM1188 1065l-699 -758q46 -47 110.5 -70.5t148.5 -23.5q207 0 340 188.5t133 479.5q0 54 -8 98.5t-25 85.5z" />
<glyph unicode="&#xd9;" horiz-adv-x="1497" d="M287 1473h313l-166 -923q-5 -28 -7.5 -51.5t-2.5 -41.5q0 -111 64.5 -168.5t189.5 -57.5q137 0 215.5 79t110.5 247l167 916h308l-166 -938q-51 -287 -216 -430.5t-444 -143.5q-245 0 -391.5 130.5t-146.5 348.5q0 38 5 86.5t15 106.5zM938 1604l-291 370h252l168 -370 h-129z" />
<glyph unicode="&#xda;" horiz-adv-x="1497" d="M287 1473h313l-166 -923q-5 -28 -7.5 -51.5t-2.5 -41.5q0 -111 64.5 -168.5t189.5 -57.5q137 0 215.5 79t110.5 247l167 916h308l-166 -938q-51 -287 -216 -430.5t-444 -143.5q-245 0 -391.5 130.5t-146.5 348.5q0 38 5 86.5t15 106.5zM1255 1974l-385 -370h-141l237 370 h289z" />
<glyph unicode="&#xdb;" horiz-adv-x="1497" d="M287 1473h313l-166 -923q-5 -28 -7.5 -51.5t-2.5 -41.5q0 -111 64.5 -168.5t189.5 -57.5q137 0 215.5 79t110.5 247l167 916h308l-166 -938q-51 -287 -216 -430.5t-444 -143.5q-245 0 -391.5 130.5t-146.5 348.5q0 38 5 86.5t15 106.5zM1216 1604h-129l-131 208 l-229 -208h-142l267 370h235z" />
<glyph unicode="&#xdc;" horiz-adv-x="1497" d="M287 1473h313l-166 -923q-5 -28 -7.5 -51.5t-2.5 -41.5q0 -111 64.5 -168.5t189.5 -57.5q137 0 215.5 79t110.5 247l167 916h308l-166 -938q-51 -287 -216 -430.5t-444 -143.5q-245 0 -391.5 130.5t-146.5 348.5q0 38 5 86.5t15 106.5zM987 1663l43 246h229l-45 -246 h-227zM645 1663l43 246h223l-43 -246h-223z" />
<glyph unicode="&#xdd;" horiz-adv-x="1145" d="M301 0l100 565l-364 908h328l221 -601l334 601h327l-547 -916l-92 -557h-307zM1079 1974l-385 -370h-141l237 370h289z" />
<glyph unicode="&#xde;" horiz-adv-x="1329" d="M428 592h244q150 0 226.5 56.5t76.5 168.5q0 85 -55 126.5t-168 41.5h-254zM23 0l258 1473h303l-43 -244h215q248 0 379 -103.5t131 -300.5q0 -232 -156.5 -357.5t-447.5 -125.5h-279l-59 -342h-301z" />
<glyph unicode="&#xdf;" horiz-adv-x="1214" d="M4 0l178 1010q46 256 161.5 369.5t328.5 113.5q205 0 334 -105.5t129 -265.5q0 -119 -56 -204t-164 -132q91 -49 134 -122.5t43 -178.5q0 -231 -130 -370.5t-348 -139.5q-38 0 -81.5 7.5t-104.5 23.5l41 236q33 -13 61 -19t54 -6q99 0 160 79t61 208q0 100 -59.5 150.5 t-188.5 60.5l37 200q9 -1 18.5 -1.5t28.5 -0.5q102 0 156.5 49t54.5 140q0 76 -47.5 119t-132.5 43q-87 0 -134.5 -56t-70.5 -188l-178 -1020h-285z" />
<glyph unicode="&#xe0;" horiz-adv-x="1139" d="M682 524q-65 -20 -178 -42q-217 -41 -217 -167q0 -49 34 -78.5t93 -29.5q92 0 161 54t84 138zM629 109q-72 -71 -144 -102.5t-159 -31.5q-150 0 -238 86t-88 228q0 183 105.5 275.5t355.5 119.5q24 3 65 7q197 19 197 114q0 44 -45 71t-121 27q-74 0 -114.5 -28 t-51.5 -87h-278q27 170 140 251t320 81q206 0 322.5 -82t116.5 -225q0 -15 -1.5 -30.5t-4.5 -32.5l-101 -578q-3 -21 -4.5 -37.5t-1.5 -30.5q0 -27 6.5 -44.5t22.5 -32.5v-27h-299v109zM654 1219l-291 370h252l168 -370h-129z" />
<glyph unicode="&#xe1;" horiz-adv-x="1139" d="M682 524q-65 -20 -178 -42q-217 -41 -217 -167q0 -49 34 -78.5t93 -29.5q92 0 161 54t84 138zM629 109q-72 -71 -144 -102.5t-159 -31.5q-150 0 -238 86t-88 228q0 183 105.5 275.5t355.5 119.5q24 3 65 7q197 19 197 114q0 44 -45 71t-121 27q-74 0 -114.5 -28 t-51.5 -87h-278q27 170 140 251t320 81q206 0 322.5 -82t116.5 -225q0 -15 -1.5 -30.5t-4.5 -32.5l-101 -578q-3 -21 -4.5 -37.5t-1.5 -30.5q0 -27 6.5 -44.5t22.5 -32.5v-27h-299v109zM971 1589l-385 -370h-141l237 370h289z" />
<glyph unicode="&#xe2;" horiz-adv-x="1139" d="M682 524q-65 -20 -178 -42q-217 -41 -217 -167q0 -49 34 -78.5t93 -29.5q92 0 161 54t84 138zM629 109q-72 -71 -144 -102.5t-159 -31.5q-150 0 -238 86t-88 228q0 183 105.5 275.5t355.5 119.5q24 3 65 7q197 19 197 114q0 44 -45 71t-121 27q-74 0 -114.5 -28 t-51.5 -87h-278q27 170 140 251t320 81q206 0 322.5 -82t116.5 -225q0 -15 -1.5 -30.5t-4.5 -32.5l-101 -578q-3 -21 -4.5 -37.5t-1.5 -30.5q0 -27 6.5 -44.5t22.5 -32.5v-27h-299v109zM932 1219h-129l-131 208l-229 -208h-142l267 370h235z" />
<glyph unicode="&#xe3;" horiz-adv-x="1139" d="M682 524q-65 -20 -178 -42q-217 -41 -217 -167q0 -49 34 -78.5t93 -29.5q92 0 161 54t84 138zM629 109q-72 -71 -144 -102.5t-159 -31.5q-150 0 -238 86t-88 228q0 183 105.5 275.5t355.5 119.5q24 3 65 7q197 19 197 114q0 44 -45 71t-121 27q-74 0 -114.5 -28 t-51.5 -87h-278q27 170 140 251t320 81q206 0 322.5 -82t116.5 -225q0 -15 -1.5 -30.5t-4.5 -32.5l-101 -578q-3 -21 -4.5 -37.5t-1.5 -30.5q0 -27 6.5 -44.5t22.5 -32.5v-27h-299v109zM990 1548q-32 -123 -86.5 -181t-139.5 -58q-26 0 -47 3t-39 9l-61 20q-28 8 -41 10.5 t-23 2.5q-34 0 -59.5 -24.5t-36.5 -67.5h-115q30 123 86 184t140 61q17 0 41 -4t51 -12l62 -19q15 -4 29.5 -7t22.5 -3q38 0 61.5 20t39.5 66h115z" />
<glyph unicode="&#xe4;" horiz-adv-x="1139" d="M682 524q-65 -20 -178 -42q-217 -41 -217 -167q0 -49 34 -78.5t93 -29.5q92 0 161 54t84 138zM629 109q-72 -71 -144 -102.5t-159 -31.5q-150 0 -238 86t-88 228q0 183 105.5 275.5t355.5 119.5q24 3 65 7q197 19 197 114q0 44 -45 71t-121 27q-74 0 -114.5 -28 t-51.5 -87h-278q27 170 140 251t320 81q206 0 322.5 -82t116.5 -225q0 -15 -1.5 -30.5t-4.5 -32.5l-101 -578q-3 -21 -4.5 -37.5t-1.5 -30.5q0 -27 6.5 -44.5t22.5 -32.5v-27h-299v109zM703 1278l43 246h229l-45 -246h-227zM361 1278l43 246h223l-43 -246h-223z" />
<glyph unicode="&#xe5;" horiz-adv-x="1139" d="M664 1528q-47 0 -80 -33.5t-33 -81.5q0 -46 33.5 -80.5t79.5 -34.5q48 0 81 33.5t33 81.5q0 49 -32.5 82t-81.5 33zM418 1413q0 103 71.5 174.5t174.5 71.5q101 0 173 -72.5t72 -173.5q0 -102 -71.5 -174t-173.5 -72q-103 0 -174.5 71.5t-71.5 174.5zM659 399l23 125 q-65 -20 -178 -42q-217 -41 -217 -167q0 -49 34 -78.5t93 -29.5q93 0 161.5 53.5t83.5 138.5zM113 788q27 170 140 251t320 81q206 0 322.5 -82t116.5 -225q0 -15 -1.5 -30.5t-4.5 -32.5l-101 -578q-3 -20 -4.5 -36t-1.5 -32q0 -27 6.5 -44.5t22.5 -32.5v-27h-299v109 q-71 -70 -142.5 -101t-160.5 -31q-151 0 -238.5 84t-87.5 226q0 184 105.5 277t355.5 120q24 3 65 7q197 19 197 114q0 44 -45 71t-121 27q-74 0 -114.5 -28t-51.5 -87h-278z" />
<glyph unicode="&#xe6;" horiz-adv-x="1835" d="M985 655h453v29q0 108 -52 164.5t-151 56.5q-102 0 -167 -64.5t-83 -185.5zM696 537q-43 -10 -120 -25q-289 -58 -289 -190q0 -63 36.5 -94t110.5 -31q91 0 155.5 52.5t80.5 139.5zM803 141q-90 -86 -202.5 -131t-240.5 -45q-163 0 -261.5 90.5t-98.5 237.5 q0 95 40.5 177t111.5 130q94 65 371 85q41 3 62 5q95 8 130 32.5t35 80.5q0 50 -46 79t-126 29q-83 0 -126.5 -29.5t-54.5 -93.5h-284q21 164 141.5 250t325.5 86q121 0 201.5 -31t127.5 -96q77 67 161 98t183 31q220 0 341.5 -136t121.5 -382q0 -44 -7 -141q-1 -8 -1 -12 h-741q-1 -8 -1.5 -18.5t-0.5 -28.5q0 -103 50.5 -155t151.5 -52q76 0 128.5 28t84.5 84h295q-44 -160 -184.5 -253t-339.5 -93q-120 0 -205 42.5t-143 131.5z" />
<glyph unicode="&#xe7;" horiz-adv-x="1176" d="M766 391h289q-37 -202 -164 -308t-348 -118l-21 -55h8q110 0 168 -44t58 -126q0 -107 -69.5 -166t-197.5 -59q-54 0 -127.5 14t-162.5 41l45 123q67 -26 126 -37.5t115 -11.5q43 0 69 21.5t26 55.5q0 43 -35.5 58.5t-161.5 17.5l59 168q-190 31 -294.5 166.5 t-104.5 353.5q0 285 157.5 461t413.5 176q218 0 338 -106t127 -305h-288q-2 85 -48 130.5t-133 45.5q-123 0 -200.5 -118.5t-77.5 -305.5q0 -123 55.5 -188.5t159.5 -65.5q81 0 138.5 48t80.5 134z" />
<glyph unicode="&#xe8;" horiz-adv-x="1190" d="M350 653h441q0 6 1 18.5t1 18.5q0 101 -48.5 153t-142.5 52q-98 0 -163.5 -63t-88.5 -179zM723 313h313q-44 -162 -184 -254t-340 -92q-224 0 -348.5 136t-124.5 380q0 280 157.5 458.5t405.5 178.5q225 0 352 -127.5t127 -351.5q0 -31 -3.5 -70.5t-14.5 -119.5h-739v-7 q0 -116 53 -178.5t151 -62.5q67 0 115 27t80 83zM680 1219l-291 370h252l168 -370h-129z" />
<glyph unicode="&#xe9;" horiz-adv-x="1190" d="M350 653h441q0 6 1 18.5t1 18.5q0 101 -48.5 153t-142.5 52q-98 0 -163.5 -63t-88.5 -179zM723 313h313q-44 -162 -184 -254t-340 -92q-224 0 -348.5 136t-124.5 380q0 280 157.5 458.5t405.5 178.5q225 0 352 -127.5t127 -351.5q0 -31 -3.5 -70.5t-14.5 -119.5h-739v-7 q0 -116 53 -178.5t151 -62.5q67 0 115 27t80 83zM997 1589l-385 -370h-141l237 370h289z" />
<glyph unicode="&#xea;" horiz-adv-x="1190" d="M350 653h441q0 6 1 18.5t1 18.5q0 101 -48.5 153t-142.5 52q-98 0 -163.5 -63t-88.5 -179zM723 313h313q-44 -162 -184 -254t-340 -92q-224 0 -348.5 136t-124.5 380q0 280 157.5 458.5t405.5 178.5q225 0 352 -127.5t127 -351.5q0 -31 -3.5 -70.5t-14.5 -119.5h-739v-7 q0 -116 53 -178.5t151 -62.5q67 0 115 27t80 83zM958 1219h-129l-131 208l-229 -208h-142l267 370h235z" />
<glyph unicode="&#xeb;" horiz-adv-x="1190" d="M350 653h441q0 6 1 18.5t1 18.5q0 101 -48.5 153t-142.5 52q-98 0 -163.5 -63t-88.5 -179zM723 313h313q-44 -162 -184 -254t-340 -92q-224 0 -348.5 136t-124.5 380q0 280 157.5 458.5t405.5 178.5q225 0 352 -127.5t127 -351.5q0 -31 -3.5 -70.5t-14.5 -119.5h-739v-7 q0 -116 53 -178.5t151 -62.5q67 0 115 27t80 83zM729 1278l43 246h229l-45 -246h-227zM387 1278l43 246h223l-43 -246h-223z" />
<glyph unicode="&#xec;" horiz-adv-x="545" d="M4 0l191 1092h286l-190 -1092h-287zM385 1219l-291 370h252l168 -370h-129z" />
<glyph unicode="&#xed;" horiz-adv-x="545" d="M4 0l191 1092h286l-190 -1092h-287zM702 1589l-385 -370h-141l237 370h289z" />
<glyph unicode="&#xee;" horiz-adv-x="545" d="M4 0l191 1092h286l-190 -1092h-287zM663 1219h-129l-131 208l-229 -208h-142l267 370h235z" />
<glyph unicode="&#xef;" horiz-adv-x="545" d="M4 0l191 1092h286l-190 -1092h-287zM434 1278l43 246h229l-45 -246h-227zM92 1278l43 246h223l-43 -246h-223z" />
<glyph unicode="&#xf0;" horiz-adv-x="1266" d="M846 977q-29 68 -71 125t-101 108l-279 -116l-53 110l215 90q-70 38 -113.5 57t-81.5 29l78 140q92 -23 176.5 -57.5t165.5 -82.5l299 131l56 -114l-234 -101q135 -119 201.5 -279t66.5 -362q0 -313 -170.5 -500.5t-457.5 -187.5q-237 0 -373.5 127.5t-136.5 345.5 q0 253 166.5 432t400.5 179q73 0 133 -18t113 -56zM643 834q-134 0 -226.5 -115t-92.5 -277q0 -113 59.5 -175t169.5 -62q133 0 224 112.5t91 276.5q0 113 -59.5 176.5t-165.5 63.5z" />
<glyph unicode="&#xf1;" horiz-adv-x="1231" d="M-2 0l192 1092h263l-31 -168q88 107 175.5 154.5t195.5 47.5q146 0 232.5 -81t86.5 -218q0 -32 -3 -63t-9 -64l-125 -700h-289l121 692q4 21 6 39.5t2 30.5q0 60 -35 91.5t-102 31.5q-110 0 -188 -79t-103 -218l-104 -588h-285zM1065 1548q-32 -123 -86.5 -181 t-139.5 -58q-26 0 -47 3t-39 9l-61 20q-28 8 -41 10.5t-23 2.5q-34 0 -59.5 -24.5t-36.5 -67.5h-115q30 123 86 184t140 61q17 0 41 -4t51 -12l62 -19q15 -4 29.5 -7t22.5 -3q38 0 61.5 20t39.5 66h115z" />
<glyph unicode="&#xf2;" horiz-adv-x="1262" d="M643 889q-133 0 -226 -125.5t-93 -300.5q0 -121 60.5 -189.5t168.5 -68.5q134 0 224.5 121t90.5 301q0 123 -59.5 192.5t-165.5 69.5zM33 469q0 286 175.5 470.5t450.5 184.5q235 0 367.5 -133.5t132.5 -369.5q0 -285 -173.5 -469.5t-444.5 -184.5q-234 0 -371 136 t-137 366zM736 1219l-291 370h252l168 -370h-129z" />
<glyph unicode="&#xf3;" horiz-adv-x="1262" d="M643 889q-133 0 -226 -125.5t-93 -300.5q0 -121 60.5 -189.5t168.5 -68.5q134 0 224.5 121t90.5 301q0 123 -59.5 192.5t-165.5 69.5zM33 469q0 286 175.5 470.5t450.5 184.5q235 0 367.5 -133.5t132.5 -369.5q0 -285 -173.5 -469.5t-444.5 -184.5q-234 0 -371 136 t-137 366zM1053 1589l-385 -370h-141l237 370h289z" />
<glyph unicode="&#xf4;" horiz-adv-x="1262" d="M643 889q-133 0 -226 -125.5t-93 -300.5q0 -121 60.5 -189.5t168.5 -68.5q134 0 224.5 121t90.5 301q0 123 -59.5 192.5t-165.5 69.5zM33 469q0 286 175.5 470.5t450.5 184.5q235 0 367.5 -133.5t132.5 -369.5q0 -285 -173.5 -469.5t-444.5 -184.5q-234 0 -371 136 t-137 366zM1014 1219h-129l-131 208l-229 -208h-142l267 370h235z" />
<glyph unicode="&#xf5;" horiz-adv-x="1262" d="M643 889q-133 0 -226 -125.5t-93 -300.5q0 -121 60.5 -189.5t168.5 -68.5q134 0 224.5 121t90.5 301q0 123 -59.5 192.5t-165.5 69.5zM33 469q0 286 175.5 470.5t450.5 184.5q235 0 367.5 -133.5t132.5 -369.5q0 -285 -173.5 -469.5t-444.5 -184.5q-234 0 -371 136 t-137 366zM1072 1548q-32 -123 -86.5 -181t-139.5 -58q-26 0 -47 3t-39 9l-61 20q-28 8 -41 10.5t-23 2.5q-34 0 -59.5 -24.5t-36.5 -67.5h-115q30 123 86 184t140 61q17 0 41 -4t51 -12l62 -19q15 -4 29.5 -7t22.5 -3q38 0 61.5 20t39.5 66h115z" />
<glyph unicode="&#xf6;" horiz-adv-x="1262" d="M643 889q-133 0 -226 -125.5t-93 -300.5q0 -121 60.5 -189.5t168.5 -68.5q134 0 224.5 121t90.5 301q0 123 -59.5 192.5t-165.5 69.5zM33 469q0 286 175.5 470.5t450.5 184.5q235 0 367.5 -133.5t132.5 -369.5q0 -285 -173.5 -469.5t-444.5 -184.5q-234 0 -371 136 t-137 366zM785 1278l43 246h229l-45 -246h-227zM443 1278l43 246h223l-43 -246h-223z" />
<glyph unicode="&#xf7;" horiz-adv-x="1706" d="M854 369q62 0 107 -45t45 -107q0 -61 -45 -105t-107 -44q-63 0 -107.5 43t-44.5 106t44.5 107.5t107.5 44.5zM254 711h1198v-199h-1198v199zM854 1155q62 0 107 -44.5t45 -106.5q0 -63 -44.5 -107.5t-107.5 -44.5t-107.5 44.5t-44.5 107.5t44.5 107t107.5 44z" />
<glyph unicode="&#xf8;" horiz-adv-x="1262" d="M397 260q40 -32 72.5 -44.5t71.5 -12.5q138 0 231.5 121.5t93.5 296.5q0 25 -4.5 56t-15.5 75zM788 838q-36 27 -69 39t-70 12q-137 0 -231 -122.5t-94 -295.5q0 -24 3.5 -54t12.5 -71zM-12 -29l151 168q-55 72 -80.5 149.5t-25.5 170.5q0 299 176 483t461 184 q84 0 155 -20t140 -64l143 158l84 -80l-141 -157q56 -77 82 -155.5t26 -172.5q0 -299 -174 -484.5t-459 -185.5q-91 0 -162 22t-141 70l-151 -166z" />
<glyph unicode="&#xf9;" horiz-adv-x="1231" d="M1167 1092l-194 -1092h-262l30 174q-90 -108 -177 -155.5t-193 -47.5q-147 0 -233.5 80.5t-86.5 216.5q0 33 3 65.5t9 63.5l123 695h293l-123 -686q-4 -19 -6 -37t-2 -33q0 -61 35.5 -93t101.5 -32q110 0 188 79.5t103 219.5l107 582h284zM729 1219l-291 370h252 l168 -370h-129z" />
<glyph unicode="&#xfa;" horiz-adv-x="1231" d="M1167 1092l-194 -1092h-262l30 174q-90 -108 -177 -155.5t-193 -47.5q-147 0 -233.5 80.5t-86.5 216.5q0 33 3 65.5t9 63.5l123 695h293l-123 -686q-4 -19 -6 -37t-2 -33q0 -61 35.5 -93t101.5 -32q110 0 188 79.5t103 219.5l107 582h284zM1046 1589l-385 -370h-141 l237 370h289z" />
<glyph unicode="&#xfb;" horiz-adv-x="1231" d="M1167 1092l-194 -1092h-262l30 174q-90 -108 -177 -155.5t-193 -47.5q-147 0 -233.5 80.5t-86.5 216.5q0 33 3 65.5t9 63.5l123 695h293l-123 -686q-4 -19 -6 -37t-2 -33q0 -61 35.5 -93t101.5 -32q110 0 188 79.5t103 219.5l107 582h284zM1007 1219h-129l-131 208 l-229 -208h-142l267 370h235z" />
<glyph unicode="&#xfc;" horiz-adv-x="1231" d="M1167 1092l-194 -1092h-262l30 174q-90 -108 -177 -155.5t-193 -47.5q-147 0 -233.5 80.5t-86.5 216.5q0 33 3 65.5t9 63.5l123 695h293l-123 -686q-4 -19 -6 -37t-2 -33q0 -61 35.5 -93t101.5 -32q110 0 188 79.5t103 219.5l107 582h284zM778 1278l43 246h229l-45 -246 h-227zM436 1278l43 246h223l-43 -246h-223z" />
<glyph unicode="&#xfd;" horiz-adv-x="1044" d="M-33 -422l27 217q13 -1 42 -3.5t42 -2.5q75 0 112 39.5t37 118.5q0 24 -6 72q-1 8 -2 12l-170 1061h283l108 -797l361 797h299l-670 -1319q-59 -117 -127.5 -165t-173.5 -48q-29 0 -65 4t-97 14zM952 1589l-385 -370h-141l237 370h289z" />
<glyph unicode="&#xfe;" horiz-adv-x="1247" d="M-74 -436l336 1909h285l-88 -510q69 83 143.5 122t163.5 39q172 0 275.5 -123t103.5 -329q0 -300 -146 -500.5t-362 -200.5q-120 0 -198.5 57t-114.5 171l-113 -635h-285zM653 893q-120 0 -201 -121t-81 -303q0 -116 53 -181t147 -65q123 0 201 122.5t78 318.5 q0 109 -51.5 169t-145.5 60z" />
<glyph unicode="&#xff;" horiz-adv-x="1044" d="M-33 -422l27 217q13 -1 42 -3.5t42 -2.5q75 0 112 39.5t37 118.5q0 24 -6 72q-1 8 -2 12l-170 1061h283l108 -797l361 797h299l-670 -1319q-59 -117 -127.5 -165t-173.5 -48q-29 0 -65 4t-97 14zM684 1278l43 246h229l-45 -246h-227zM342 1278l43 246h223l-43 -246h-223z " />
<glyph unicode="&#x100;" horiz-adv-x="1327" d="M455 543h387l-80 622zM-145 0l770 1473h356l233 -1473h-305l-35 287h-546l-146 -287h-327zM563 1708l26 156h576l-29 -156h-573z" />
<glyph unicode="&#x101;" horiz-adv-x="1139" d="M682 524q-65 -20 -178 -42q-217 -41 -217 -167q0 -49 34 -78.5t93 -29.5q92 0 161 54t84 138zM629 109q-72 -71 -144 -102.5t-159 -31.5q-150 0 -238 86t-88 228q0 183 105.5 275.5t355.5 119.5q24 3 65 7q197 19 197 114q0 44 -45 71t-121 27q-74 0 -114.5 -28 t-51.5 -87h-278q27 170 140 251t320 81q206 0 322.5 -82t116.5 -225q0 -15 -1.5 -30.5t-4.5 -32.5l-101 -578q-3 -21 -4.5 -37.5t-1.5 -30.5q0 -27 6.5 -44.5t22.5 -32.5v-27h-299v109zM365 1323l26 156h576l-29 -156h-573z" />
<glyph unicode="&#x102;" horiz-adv-x="1327" d="M455 543h387l-80 622zM-145 0l770 1473h356l233 -1473h-305l-35 287h-546l-146 -287h-327zM585 1941h121v-12q0 -70 37 -103.5t113 -33.5q83 0 138.5 37t84.5 112h127q-41 -151 -133.5 -228t-233.5 -77q-127 0 -191.5 64.5t-64.5 193.5q0 19 0.5 28.5t1.5 18.5z" />
<glyph unicode="&#x103;" horiz-adv-x="1139" d="M682 524q-65 -20 -178 -42q-217 -41 -217 -167q0 -49 34 -78.5t93 -29.5q92 0 161 54t84 138zM629 109q-72 -71 -144 -102.5t-159 -31.5q-150 0 -238 86t-88 228q0 183 105.5 275.5t355.5 119.5q24 3 65 7q197 19 197 114q0 44 -45 71t-121 27q-74 0 -114.5 -28 t-51.5 -87h-278q27 170 140 251t320 81q206 0 322.5 -82t116.5 -225q0 -15 -1.5 -30.5t-4.5 -32.5l-101 -578q-3 -21 -4.5 -37.5t-1.5 -30.5q0 -27 6.5 -44.5t22.5 -32.5v-27h-299v109zM387 1556h121v-12q0 -70 37 -103.5t113 -33.5q83 0 138.5 37t84.5 112h127 q-41 -151 -133.5 -228t-233.5 -77q-127 0 -191.5 64.5t-64.5 193.5q0 19 0.5 28.5t1.5 18.5z" />
<glyph unicode="&#x104;" horiz-adv-x="1327" d="M455 543h387l-80 622zM-145 0l770 1473h356l233 -1473h-30q-64 -52 -96.5 -103.5t-32.5 -101.5q0 -40 21.5 -61t62.5 -21h110l-28 -172h-88q-118 0 -178 46.5t-60 138.5q0 71 43.5 134t146.5 140h-176l-35 287h-546l-146 -287h-327z" />
<glyph unicode="&#x105;" horiz-adv-x="1139" d="M682 524q-65 -20 -178 -42q-217 -41 -217 -167q0 -49 34 -78.5t93 -29.5q92 0 161 54t84 138zM629 109q-72 -71 -144 -102.5t-159 -31.5q-150 0 -238 86t-88 228q0 183 105.5 275.5t355.5 119.5q24 3 65 7q197 19 197 114q0 44 -45 71t-121 27q-74 0 -114.5 -28 t-51.5 -87h-278q27 170 140 251t320 81q206 0 322.5 -82t116.5 -225q0 -15 -1.5 -30.5t-4.5 -32.5l-101 -578q-3 -21 -4.5 -37.5t-1.5 -30.5q0 -27 6.5 -44.5t22.5 -32.5v-27h-58q-63 -51 -96 -103.5t-33 -101.5q0 -40 21.5 -61t62.5 -21h115l-31 -172h-88q-118 0 -178.5 47 t-60.5 138q0 71 43 134t147 140h-143v109z" />
<glyph unicode="&#x106;" horiz-adv-x="1509" d="M1087 506h310q-43 -254 -223 -397.5t-455 -143.5q-296 0 -463.5 176.5t-167.5 489.5q0 385 216 630.5t558 245.5q275 0 426 -138.5t155 -393.5h-300v8q0 125 -78 196.5t-213 71.5q-196 0 -322.5 -177.5t-126.5 -452.5q0 -185 90 -283t259 -98q133 0 221 69.5t114 196.5z M1247 1974l-385 -370h-141l237 370h289z" />
<glyph unicode="&#x107;" horiz-adv-x="1176" d="M766 391h289q-36 -201 -171 -311.5t-347 -110.5q-237 0 -365.5 135t-128.5 383q0 284 157 459.5t414 175.5q218 0 338 -106t127 -305h-288q-2 85 -48 130.5t-133 45.5q-124 0 -201 -118t-77 -306q0 -122 56 -188t159 -66q82 0 139 47.5t80 134.5zM993 1589l-385 -370 h-141l237 370h289z" />
<glyph unicode="&#x108;" horiz-adv-x="1509" d="M1087 506h310q-43 -254 -223 -397.5t-455 -143.5q-296 0 -463.5 176.5t-167.5 489.5q0 385 216 630.5t558 245.5q275 0 426 -138.5t155 -393.5h-300v8q0 125 -78 196.5t-213 71.5q-196 0 -322.5 -177.5t-126.5 -452.5q0 -185 90 -283t259 -98q133 0 221 69.5t114 196.5z M1208 1604h-129l-131 208l-229 -208h-142l267 370h235z" />
<glyph unicode="&#x109;" horiz-adv-x="1176" d="M766 391h289q-36 -201 -171 -311.5t-347 -110.5q-237 0 -365.5 135t-128.5 383q0 284 157 459.5t414 175.5q218 0 338 -106t127 -305h-288q-2 85 -48 130.5t-133 45.5q-124 0 -201 -118t-77 -306q0 -122 56 -188t159 -66q82 0 139 47.5t80 134.5zM954 1219h-129l-131 208 l-229 -208h-142l267 370h235z" />
<glyph unicode="&#x10a;" horiz-adv-x="1509" d="M1087 506h310q-43 -254 -223 -397.5t-455 -143.5q-296 0 -463.5 176.5t-167.5 489.5q0 385 216 630.5t558 245.5q275 0 426 -138.5t155 -393.5h-300v8q0 125 -78 196.5t-213 71.5q-196 0 -322.5 -177.5t-126.5 -452.5q0 -185 90 -283t259 -98q133 0 221 69.5t114 196.5z M803 1659l45 256h237l-47 -256h-235z" />
<glyph unicode="&#x10b;" horiz-adv-x="1176" d="M766 391h289q-36 -201 -171 -311.5t-347 -110.5q-237 0 -365.5 135t-128.5 383q0 284 157 459.5t414 175.5q218 0 338 -106t127 -305h-288q-2 85 -48 130.5t-133 45.5q-124 0 -201 -118t-77 -306q0 -122 56 -188t159 -66q82 0 139 47.5t80 134.5zM549 1274l45 256h237 l-47 -256h-235z" />
<glyph unicode="&#x10c;" horiz-adv-x="1509" d="M1087 506h310q-43 -254 -223 -397.5t-455 -143.5q-296 0 -463.5 176.5t-167.5 489.5q0 385 216 630.5t558 245.5q275 0 426 -138.5t155 -393.5h-300v8q0 125 -78 196.5t-213 71.5q-196 0 -322.5 -177.5t-126.5 -452.5q0 -185 90 -283t259 -98q133 0 221 69.5t114 196.5z M655 1974h129l131 -209l230 209h141l-266 -370h-236z" />
<glyph unicode="&#x10d;" horiz-adv-x="1176" d="M766 391h289q-36 -201 -171 -311.5t-347 -110.5q-237 0 -365.5 135t-128.5 383q0 284 157 459.5t414 175.5q218 0 338 -106t127 -305h-288q-2 85 -48 130.5t-133 45.5q-124 0 -201 -118t-77 -306q0 -122 56 -188t159 -66q82 0 139 47.5t80 134.5zM401 1589h129l131 -209 l230 209h141l-266 -370h-236z" />
<glyph unicode="&#x10e;" horiz-adv-x="1505" d="M377 260h244q133 0 225 48t153 149q52 86 80.5 192t28.5 211q0 167 -78 253.5t-227 86.5h-258zM23 0l260 1473h526q290 0 451 -159t161 -444q0 -197 -65 -371.5t-182 -293.5q-109 -110 -254 -157.5t-394 -47.5h-503zM667 1974h129l131 -209l230 209h141l-266 -370h-236z " />
<glyph unicode="&#x10f;" horiz-adv-x="1636" d="M598 874q-114 0 -194 -121t-80 -294q0 -122 51.5 -185t150.5 -63q124 0 199.5 118t75.5 310q0 115 -52 175t-151 60zM723 0l33 184q-68 -109 -149.5 -161t-186.5 -52q-179 0 -282 126t-103 343q0 289 144.5 485.5t359.5 196.5q125 0 200 -52t115 -167l104 570h283 l-258 -1473h-260zM1712 1473l-47 -254q-23 -123 -106 -183.5t-234 -66.5l16 93q92 4 139 39t62 111h-154l49 261h275z" />
<glyph unicode="&#x110;" horiz-adv-x="1516" d="M31 0l123 696h-168l32 191h172l103 586h526q290 0 451.5 -159t161.5 -444q0 -197 -65.5 -371.5t-182.5 -293.5q-109 -110 -254 -157.5t-393 -47.5h-506zM385 260h246q133 0 225.5 48t153.5 149q50 85 78 191t28 212q0 168 -77 254t-226 86h-260l-55 -313h313l-35 -191 h-313z" />
<glyph unicode="&#x111;" horiz-adv-x="1255" d="M723 0l33 184q-68 -109 -149.5 -161t-186.5 -52q-179 0 -282 126t-103 343q0 289 144.5 485.5t359.5 196.5q125 0 200 -52t115 -167l55 299h-327l26 162h330l20 109h283l-18 -109h149l-29 -162h-149l-211 -1202h-260zM598 874q-114 0 -194 -121t-80 -294 q0 -122 51.5 -185t150.5 -63q124 0 199.5 118t75.5 310q0 115 -52 175t-151 60z" />
<glyph unicode="&#x112;" horiz-adv-x="1251" d="M23 0l264 1473h968l-45 -261h-663l-62 -313h623l-51 -262h-615l-65 -383h706l-47 -254h-1013zM526 1708l26 156h576l-29 -156h-573z" />
<glyph unicode="&#x113;" horiz-adv-x="1190" d="M350 653h441q0 6 1 18.5t1 18.5q0 101 -48.5 153t-142.5 52q-98 0 -163.5 -63t-88.5 -179zM723 313h313q-44 -162 -184 -254t-340 -92q-224 0 -348.5 136t-124.5 380q0 280 157.5 458.5t405.5 178.5q225 0 352 -127.5t127 -351.5q0 -31 -3.5 -70.5t-14.5 -119.5h-739v-7 q0 -116 53 -178.5t151 -62.5q67 0 115 27t80 83zM391 1323l26 156h576l-29 -156h-573z" />
<glyph unicode="&#x114;" horiz-adv-x="1251" d="M23 0l264 1473h968l-45 -261h-663l-62 -313h623l-51 -262h-615l-65 -383h706l-47 -254h-1013zM548 1941h121v-12q0 -70 37 -103.5t113 -33.5q83 0 138.5 37t84.5 112h127q-41 -151 -133.5 -228t-233.5 -77q-127 0 -191.5 64.5t-64.5 193.5q0 19 0.5 28.5t1.5 18.5z" />
<glyph unicode="&#x115;" horiz-adv-x="1190" d="M350 653h441q0 6 1 18.5t1 18.5q0 101 -48.5 153t-142.5 52q-98 0 -163.5 -63t-88.5 -179zM723 313h313q-44 -162 -184 -254t-340 -92q-224 0 -348.5 136t-124.5 380q0 280 157.5 458.5t405.5 178.5q225 0 352 -127.5t127 -351.5q0 -31 -3.5 -70.5t-14.5 -119.5h-739v-7 q0 -116 53 -178.5t151 -62.5q67 0 115 27t80 83zM413 1556h121v-12q0 -70 37 -103.5t113 -33.5q83 0 138.5 37t84.5 112h127q-41 -151 -133.5 -228t-233.5 -77q-127 0 -191.5 64.5t-64.5 193.5q0 19 0.5 28.5t1.5 18.5z" />
<glyph unicode="&#x116;" horiz-adv-x="1251" d="M23 0l264 1473h968l-45 -261h-663l-62 -313h623l-51 -262h-615l-65 -383h706l-47 -254h-1013zM688 1659l45 256h237l-47 -256h-235z" />
<glyph unicode="&#x117;" horiz-adv-x="1190" d="M350 653h441q0 6 1 18.5t1 18.5q0 101 -48.5 153t-142.5 52q-98 0 -163.5 -63t-88.5 -179zM723 313h313q-44 -162 -184 -254t-340 -92q-224 0 -348.5 136t-124.5 380q0 280 157.5 458.5t405.5 178.5q225 0 352 -127.5t127 -351.5q0 -31 -3.5 -70.5t-14.5 -119.5h-739v-7 q0 -116 53 -178.5t151 -62.5q67 0 115 27t80 83zM553 1274l45 256h237l-47 -256h-235z" />
<glyph unicode="&#x118;" horiz-adv-x="1251" d="M956 0q-63 -51 -96 -103.5t-33 -101.5q0 -40 21.5 -61t62.5 -21h111l-31 -172h-84q-118 0 -178.5 47t-60.5 138q0 71 43.5 134t146.5 140h-835l264 1473h968l-45 -261h-663l-62 -313h623l-51 -262h-615l-65 -383h706l-47 -254h-80z" />
<glyph unicode="&#x119;" horiz-adv-x="1190" d="M350 653h441q0 6 1 18.5t1 18.5q0 101 -48.5 153t-142.5 52q-98 0 -163.5 -63t-88.5 -179zM723 313h313q-48 -173 -244 -286q-35 -20 -53 -31q-73 -46 -109 -96t-36 -107q0 -40 21 -60t63 -20h113l-29 -172h-90q-118 0 -178 46.5t-60 138.5q0 68 41 130t123 117 q-23 -3 -45 -4.5t-41 -1.5q-223 0 -348 136.5t-125 379.5q0 280 157.5 458.5t405.5 178.5q225 0 352 -127.5t127 -351.5q0 -31 -3.5 -70.5t-14.5 -119.5h-739v-7q0 -116 53 -178.5t151 -62.5q67 0 115 27t80 83z" />
<glyph unicode="&#x11a;" horiz-adv-x="1251" d="M23 0l264 1473h968l-45 -261h-663l-62 -313h623l-51 -262h-615l-65 -383h706l-47 -254h-1013zM540 1974h129l131 -209l230 209h141l-266 -370h-236z" />
<glyph unicode="&#x11b;" horiz-adv-x="1190" d="M350 653h441q0 6 1 18.5t1 18.5q0 101 -48.5 153t-142.5 52q-98 0 -163.5 -63t-88.5 -179zM723 313h313q-44 -162 -184 -254t-340 -92q-224 0 -348.5 136t-124.5 380q0 280 157.5 458.5t405.5 178.5q225 0 352 -127.5t127 -351.5q0 -31 -3.5 -70.5t-14.5 -119.5h-739v-7 q0 -116 53 -178.5t151 -62.5q67 0 115 27t80 83zM405 1589h129l131 -209l230 209h141l-266 -370h-236z" />
<glyph unicode="&#x11c;" horiz-adv-x="1593" d="M1128 0l-2 160q-80 -99 -194 -150t-256 -51q-267 0 -431.5 179t-164.5 468q0 175 57 341t162 296q104 129 247.5 194.5t321.5 65.5q277 0 435.5 -142t160.5 -392h-303q-8 132 -83.5 202t-211.5 70q-108 0 -191.5 -44.5t-142.5 -133.5q-61 -93 -96 -213.5t-35 -243.5 q0 -185 88.5 -288t245.5 -103q147 0 255.5 84.5t135.5 220.5h-368l43 240h667l-135 -760h-205zM1263 1604h-129l-131 208l-229 -208h-142l267 370h235z" />
<glyph unicode="&#x11d;" horiz-adv-x="1249" d="M606 870q-121 0 -198.5 -113.5t-77.5 -289.5q0 -111 53.5 -171t151.5 -60q122 0 195 109.5t73 295.5q0 113 -50 171t-147 58zM-10 -102h290q2 -62 42 -92.5t122 -30.5q129 0 187 73t98 322q-60 -90 -135.5 -133t-171.5 -43q-177 0 -280 125.5t-103 343.5q0 285 146.5 470 t371.5 185q128 0 202 -58t109 -186l37 218h275l-195 -1088q-41 -238 -170.5 -341t-386.5 -103q-210 0 -321 85.5t-117 252.5zM1016 1219h-129l-131 208l-229 -208h-142l267 370h235z" />
<glyph unicode="&#x11e;" horiz-adv-x="1593" d="M1128 0l-2 160q-80 -99 -194 -150t-256 -51q-267 0 -431.5 179t-164.5 468q0 175 57 341t162 296q104 129 247.5 194.5t321.5 65.5q277 0 435.5 -142t160.5 -392h-303q-8 132 -83.5 202t-211.5 70q-108 0 -191.5 -44.5t-142.5 -133.5q-61 -93 -96 -213.5t-35 -243.5 q0 -185 88.5 -288t245.5 -103q147 0 255.5 84.5t135.5 220.5h-368l43 240h667l-135 -760h-205zM718 1941h121v-12q0 -70 37 -103.5t113 -33.5q83 0 138.5 37t84.5 112h127q-41 -151 -133.5 -228t-233.5 -77q-127 0 -191.5 64.5t-64.5 193.5q0 19 0.5 28.5t1.5 18.5z" />
<glyph unicode="&#x11f;" horiz-adv-x="1249" d="M606 870q-121 0 -198.5 -113.5t-77.5 -289.5q0 -111 53.5 -171t151.5 -60q122 0 195 109.5t73 295.5q0 113 -50 171t-147 58zM-10 -102h290q2 -62 42 -92.5t122 -30.5q129 0 187 73t98 322q-60 -90 -135.5 -133t-171.5 -43q-177 0 -280 125.5t-103 343.5q0 285 146.5 470 t371.5 185q128 0 202 -58t109 -186l37 218h275l-195 -1088q-41 -238 -170.5 -341t-386.5 -103q-210 0 -321 85.5t-117 252.5zM471 1556h121v-12q0 -70 37 -103.5t113 -33.5q83 0 138.5 37t84.5 112h127q-41 -151 -133.5 -228t-233.5 -77q-127 0 -191.5 64.5t-64.5 193.5 q0 19 0.5 28.5t1.5 18.5z" />
<glyph unicode="&#x120;" horiz-adv-x="1593" d="M1128 0l-2 160q-80 -99 -194 -150t-256 -51q-267 0 -431.5 179t-164.5 468q0 175 57 341t162 296q104 129 247.5 194.5t321.5 65.5q277 0 435.5 -142t160.5 -392h-303q-8 132 -83.5 202t-211.5 70q-108 0 -191.5 -44.5t-142.5 -133.5q-61 -93 -96 -213.5t-35 -243.5 q0 -185 88.5 -288t245.5 -103q147 0 255.5 84.5t135.5 220.5h-368l43 240h667l-135 -760h-205zM858 1659l45 256h237l-47 -256h-235z" />
<glyph unicode="&#x121;" horiz-adv-x="1249" d="M606 870q-121 0 -198.5 -113.5t-77.5 -289.5q0 -111 53.5 -171t151.5 -60q122 0 195 109.5t73 295.5q0 113 -50 171t-147 58zM-10 -102h290q2 -62 42 -92.5t122 -30.5q129 0 187 73t98 322q-60 -90 -135.5 -133t-171.5 -43q-177 0 -280 125.5t-103 343.5q0 285 146.5 470 t371.5 185q128 0 202 -58t109 -186l37 218h275l-195 -1088q-41 -238 -170.5 -341t-386.5 -103q-210 0 -321 85.5t-117 252.5zM611 1274l45 256h237l-47 -256h-235z" />
<glyph unicode="&#x122;" horiz-adv-x="1593" d="M1128 0l-2 160q-70 -90 -179.5 -142t-241.5 -59l-19 -49h8q110 0 168 -44t58 -126q0 -107 -69.5 -166t-197.5 -59q-54 0 -127.5 14t-163.5 41l48 123q68 -26 125.5 -37.5t113.5 -11.5q43 0 68.5 21.5t25.5 55.5q0 43 -35.5 58.5t-160.5 18.5l59 163q-242 29 -384 203.5 t-142 441.5q0 178 56.5 344t160.5 293q106 129 249.5 194.5t321.5 65.5q277 0 436 -143t160 -391h-303q-7 132 -83 202t-212 70q-108 0 -191.5 -44.5t-142.5 -133.5q-61 -93 -96 -213.5t-35 -243.5q0 -185 88.5 -288t245.5 -103q148 0 256 84t135 221h-368l43 240h667 l-135 -760h-205z" />
<glyph unicode="&#x123;" horiz-adv-x="1249" d="M606 870q-121 0 -198.5 -113.5t-77.5 -289.5q0 -111 53.5 -171t151.5 -60q122 0 195 109.5t73 295.5q0 113 -50 171t-147 58zM-10 -102h290q2 -62 42 -92.5t122 -30.5q129 0 187 73t98 322q-60 -90 -135.5 -133t-171.5 -43q-177 0 -280 125.5t-103 343.5q0 285 146.5 470 t371.5 185q128 0 202 -58t109 -186l37 218h275l-195 -1088q-41 -238 -170.5 -341t-386.5 -103q-210 0 -321 85.5t-117 252.5zM1055 1589l-385 -370h-141l237 370h289z" />
<glyph unicode="&#x124;" horiz-adv-x="1491" d="M23 0l262 1473h309l-100 -566h569l102 566h303l-262 -1473h-305l113 647h-570l-114 -647h-307zM1212 1604h-129l-131 208l-229 -208h-142l267 370h235z" />
<glyph unicode="&#x125;" horiz-adv-x="1237" d="M457 961q92 93 168.5 129t177.5 36q143 0 229 -82t86 -217q0 -26 -3.5 -57.5t-10.5 -68.5l-125 -701h-289l121 692q4 21 6 39.5t2 30.5q0 61 -34 92t-101 31q-110 0 -189 -79.5t-104 -217.5l-102 -588h-285l258 1473h287zM731 1567h-129l-131 208l-229 -208h-142l267 370 h235z" />
<glyph unicode="&#x126;" horiz-adv-x="1491" d="M524 1085l-30 -178h569l29 178h-568zM23 0l192 1085h-207l43 209h201l33 179h309l-33 -179h572l32 179h303l-32 -179h213l-45 -209h-203l-195 -1085h-305l113 647h-570l-114 -647h-307z" />
<glyph unicode="&#x127;" horiz-adv-x="1237" d="M457 961q87 90 166.5 127.5t179.5 37.5q143 0 229 -81t86 -216q0 -20 -3 -48.5t-11 -80.5l-125 -700h-289l121 692q4 21 6 38.5t2 31.5q0 61 -33.5 92t-101.5 31q-110 0 -189 -79.5t-104 -217.5l-102 -588h-285l213 1202h-205l37 174h197l16 97h287l-19 -99h379l-37 -172 h-372z" />
<glyph unicode="&#x128;" horiz-adv-x="633" d="M27 0l270 1473h309l-268 -1473h-311zM842 1933q-32 -123 -86.5 -181t-139.5 -58q-26 0 -47 3t-39 9l-61 20q-28 8 -41 10.5t-23 2.5q-34 0 -59.5 -24.5t-36.5 -67.5h-115q30 123 86 184t140 61q17 0 41 -4t51 -12l62 -19q15 -4 29.5 -7t22.5 -3q38 0 61.5 20t39.5 66h115 z" />
<glyph unicode="&#x129;" horiz-adv-x="545" d="M4 0l191 1092h286l-190 -1092h-287zM721 1548q-32 -123 -86.5 -181t-139.5 -58q-26 0 -47 3t-39 9l-61 20q-28 8 -41 10.5t-23 2.5q-34 0 -59.5 -24.5t-36.5 -67.5h-115q30 123 86 184t140 61q17 0 41 -4t51 -12l62 -19q15 -4 29.5 -7t22.5 -3q38 0 61.5 20t39.5 66h115z " />
<glyph unicode="&#x12a;" horiz-adv-x="633" d="M27 0l270 1473h309l-268 -1473h-311zM217 1708l26 156h576l-29 -156h-573z" />
<glyph unicode="&#x12b;" horiz-adv-x="545" d="M4 0l191 1092h286l-190 -1092h-287zM96 1323l26 156h576l-29 -156h-573z" />
<glyph unicode="&#x12c;" horiz-adv-x="633" d="M27 0l270 1473h309l-268 -1473h-311zM239 1941h121v-12q0 -70 37 -103.5t113 -33.5q83 0 138.5 37t84.5 112h127q-41 -151 -133.5 -228t-233.5 -77q-127 0 -191.5 64.5t-64.5 193.5q0 19 0.5 28.5t1.5 18.5z" />
<glyph unicode="&#x12d;" horiz-adv-x="545" d="M4 0l191 1092h286l-190 -1092h-287zM118 1556h121v-12q0 -70 37 -103.5t113 -33.5q83 0 138.5 37t84.5 112h127q-41 -151 -133.5 -228t-233.5 -77q-127 0 -191.5 64.5t-64.5 193.5q0 19 0.5 28.5t1.5 18.5z" />
<glyph unicode="&#x12e;" horiz-adv-x="633" d="M27 0l270 1473h309l-268 -1473h-311zM247 0q-63 -51 -96 -103.5t-33 -101.5q0 -40 21.5 -61t62.5 -21h113l-31 -172h-88q-117 0 -177 46.5t-60 138.5q0 71 44.5 136t145.5 138h98z" />
<glyph unicode="&#x12f;" horiz-adv-x="545" d="M217 1217l45 256h287l-43 -256h-289zM4 0l191 1092h286l-190 -1092h-287zM202 0q-63 -51 -96 -103.5t-33 -101.5q0 -40 21.5 -61t62.5 -21h113l-31 -172h-88q-117 0 -177 46.5t-60 138.5q0 71 44.5 136t145.5 138h98z" />
<glyph unicode="&#x130;" horiz-adv-x="633" d="M27 0l270 1473h309l-268 -1473h-311zM379 1659l45 256h237l-47 -256h-235z" />
<glyph unicode="&#x131;" horiz-adv-x="545" d="M4 0l191 1092h286l-190 -1092h-287z" />
<glyph unicode="&#x132;" horiz-adv-x="1538" d="M494 530h266q-12 -67 -18.5 -113t-6.5 -71q0 -64 31 -96.5t92 -32.5q63 0 103 43t55 129l190 1084h312l-181 -1031q-46 -266 -158 -374.5t-331 -108.5q-185 0 -285 92.5t-100 261.5q0 43 7.5 97t23.5 120zM27 0l270 1473h309l-268 -1473h-311z" />
<glyph unicode="&#x133;" horiz-adv-x="1096" d="M351 -428l32 225h12q70 0 96.5 23t40.5 100l213 1172h285l-209 -1151q-39 -219 -120 -297t-265 -78q-14 0 -35.5 1.5t-49.5 4.5zM770 1217l47 256h285l-43 -256h-289zM217 1217l45 256h287l-43 -256h-289zM4 0l191 1092h286l-190 -1092h-287z" />
<glyph unicode="&#x134;" horiz-adv-x="1008" d="M-37 530h266q-12 -67 -18 -113t-6 -71q0 -64 31 -96.5t92 -32.5q63 0 102.5 43t54.5 129l191 1084h311l-180 -1031q-46 -266 -158 -374.5t-332 -108.5q-185 0 -285 92.5t-100 261.5q0 43 8 97t23 120zM1159 1604h-129l-131 208l-229 -208h-142l267 370h235z" />
<glyph unicode="&#x135;" horiz-adv-x="551" d="M-194 -428l32 225h12q70 0 96.5 23t41.5 100l213 1172h284l-211 -1151q-39 -219 -119.5 -297t-263.5 -78q-14 0 -35.5 1.5t-49.5 4.5zM667 1219h-129l-131 208l-229 -208h-142l267 370h235z" />
<glyph unicode="&#x136;" horiz-adv-x="1284" d="M27 0l258 1473h305l-101 -590l558 590h370l-620 -629l430 -844h-332l-311 631l-168 -170l-82 -461h-307zM637 -90l-47 -254q-23 -122 -106 -182t-236 -66l18 92q92 4 138 38.5t61 111.5h-154l49 260h277z" />
<glyph unicode="&#x137;" horiz-adv-x="1077" d="M4 0l260 1473h287l-139 -777l383 396h325l-411 -426l243 -666h-290l-164 467l-154 -158l-59 -309h-281zM533 -90l-47 -254q-23 -122 -106 -182t-236 -66l18 92q92 4 138 38.5t61 111.5h-154l49 260h277z" />
<glyph unicode="&#x138;" horiz-adv-x="1077" d="M4 0l191 1092h282l-67 -396l385 396h325l-411 -426l243 -666h-290l-164 467l-154 -156l-53 -311h-287z" />
<glyph unicode="&#x139;" horiz-adv-x="1126" d="M27 0l260 1473h309l-213 -1213h682l-47 -260h-991zM815 1974l-385 -370h-141l237 370h289z" />
<glyph unicode="&#x13a;" horiz-adv-x="553" d="M4 0l256 1473h287l-256 -1473h-287zM770 1937l-385 -370h-141l237 370h289z" />
<glyph unicode="&#x13b;" horiz-adv-x="1126" d="M27 0l260 1473h309l-213 -1213h682l-47 -260h-991zM557 -90l-47 -254q-23 -122 -106 -182t-236 -66l18 92q92 4 138 38.5t61 111.5h-154l49 260h277z" />
<glyph unicode="&#x13c;" horiz-adv-x="553" d="M4 0l256 1473h287l-256 -1473h-287zM270 -90l-47 -254q-23 -122 -106 -182t-236 -66l18 92q92 4 138 38.5t61 111.5h-154l49 260h277z" />
<glyph unicode="&#x13d;" horiz-adv-x="1126" d="M1145 1473l-49 -254q-24 -123 -106 -183.5t-234 -66.5l17 94q90 3 137.5 38t62.5 111h-154l49 261h277zM27 0l260 1473h309l-213 -1213h682l-47 -260h-991z" />
<glyph unicode="&#x13e;" horiz-adv-x="942" d="M4 0l256 1473h287l-256 -1473h-287zM1018 1473l-47 -254q-23 -123 -106 -183.5t-234 -66.5l16 93q92 4 139 39t62 111h-154l49 261h275z" />
<glyph unicode="&#x13f;" horiz-adv-x="1708" d="M27 0l260 1473h309l-213 -1213h682l-47 -260h-991zM1261 702q0 65 45.5 110.5t110.5 45.5t110 -45t45 -111q0 -64 -45 -109.5t-110 -45.5q-66 0 -111 44.5t-45 110.5z" />
<glyph unicode="&#x140;" horiz-adv-x="1135" d="M4 0l256 1473h287l-256 -1473h-287zM688 702q0 65 45.5 110.5t110.5 45.5t110 -45t45 -111q0 -64 -45 -109.5t-110 -45.5q-66 0 -111 44.5t-45 110.5z" />
<glyph unicode="&#x141;" horiz-adv-x="1139" d="M39 0l98 559l-127 -76l-98 168l268 152l117 670h311l-92 -525l332 195l98 -168l-473 -270l-78 -445h680l-45 -260h-991z" />
<glyph unicode="&#x142;" horiz-adv-x="582" d="M18 0l103 592l-113 -66l-84 146l234 129l116 672h287l-94 -543l113 65l86 -147l-234 -125l-127 -723h-287z" />
<glyph unicode="&#x143;" horiz-adv-x="1493" d="M20 0l269 1473h311l397 -1016l179 1016h297l-261 -1473h-309l-399 1022l-178 -1022h-306zM1253 1974l-385 -370h-141l237 370h289z" />
<glyph unicode="&#x144;" horiz-adv-x="1231" d="M-2 0l192 1092h263l-31 -168q88 107 175.5 154.5t195.5 47.5q146 0 232.5 -81t86.5 -218q0 -32 -3 -63t-9 -64l-125 -700h-289l121 692q4 21 6 39.5t2 30.5q0 60 -35 91.5t-102 31.5q-110 0 -188 -79t-103 -218l-104 -588h-285zM1046 1589l-385 -370h-141l237 370h289z " />
<glyph unicode="&#x145;" horiz-adv-x="1493" d="M20 0l269 1473h311l397 -1016l179 1016h297l-261 -1473h-309l-399 1022l-178 -1022h-306zM742 -90l-47 -254q-23 -122 -106 -182t-236 -66l18 92q92 4 138 38.5t61 111.5h-154l49 260h277z" />
<glyph unicode="&#x146;" horiz-adv-x="1231" d="M-2 0l192 1092h263l-31 -168q88 107 175.5 154.5t195.5 47.5q146 0 232.5 -81t86.5 -218q0 -32 -3 -63t-9 -64l-125 -700h-289l121 692q4 21 6 39.5t2 30.5q0 60 -35 91.5t-102 31.5q-110 0 -188 -79t-103 -218l-104 -588h-285zM610 -90l-47 -254q-23 -122 -106 -182 t-236 -66l18 92q92 4 138 38.5t61 111.5h-154l49 260h277z" />
<glyph unicode="&#x147;" horiz-adv-x="1493" d="M20 0l269 1473h311l397 -1016l179 1016h297l-261 -1473h-309l-399 1022l-178 -1022h-306zM661 1974h129l131 -209l230 209h141l-266 -370h-236z" />
<glyph unicode="&#x148;" horiz-adv-x="1231" d="M-2 0l192 1092h263l-31 -168q88 107 175.5 154.5t195.5 47.5q146 0 232.5 -81t86.5 -218q0 -32 -3 -63t-9 -64l-125 -700h-289l121 692q4 21 6 39.5t2 30.5q0 60 -35 91.5t-102 31.5q-110 0 -188 -79t-103 -218l-104 -588h-285zM454 1589h129l131 -209l230 209h141 l-266 -370h-236z" />
<glyph unicode="&#x149;" horiz-adv-x="1620" d="M465 1473l-47 -254q-23 -123 -106 -183.5t-234 -66.5l16 93q92 4 139 39t62 111h-154l49 261h275zM387 0l192 1092h263l-31 -168q88 107 175.5 154.5t195.5 47.5q146 0 232.5 -81t86.5 -218q0 -32 -3 -63t-9 -64l-125 -700h-289l121 692q4 21 6 39.5t2 30.5 q0 60 -35 91.5t-102 31.5q-110 0 -188 -79t-103 -218l-104 -588h-285z" />
<glyph unicode="&#x14a;" horiz-adv-x="1493" d="M541 -387l39 231q32 -10 67 -15t74 -5q86 0 131 42t55 134l-403 1022l-178 -1022h-306l269 1473h311l397 -1016l179 1016h297l-261 -1473q-38 -218 -148.5 -312t-324.5 -94q-40 1 -89 5.5t-109 13.5z" />
<glyph unicode="&#x14b;" horiz-adv-x="1231" d="M-4 0l194 1092h263l-31 -168q88 107 177 154.5t200 47.5q143 0 228 -81t85 -216q0 -26 -3 -58t-9 -71l-148 -823q-32 -184 -126.5 -255t-313.5 -71q-24 0 -63 2t-88 5l40 192h33q112 0 166 44.5t74 154.5l133 743q4 21 6 38.5t2 31.5q0 61 -34.5 92t-102.5 31 q-110 0 -188 -79.5t-103 -217.5l-104 -588h-287z" />
<glyph unicode="&#x14c;" horiz-adv-x="1608" d="M856 1247q-206 0 -334.5 -177t-128.5 -456q0 -187 93 -289t264 -102q100 0 182 43t139 125q65 95 103 223t38 254q0 185 -91 282t-265 97zM82 612q0 196 67.5 373t190.5 305q104 109 242 166t295 57q307 0 477 -178.5t170 -500.5q0 -176 -65 -345.5t-181 -295.5 q-106 -117 -245 -176.5t-304 -59.5q-305 0 -476 174.5t-171 480.5zM660 1708l26 156h576l-29 -156h-573z" />
<glyph unicode="&#x14d;" horiz-adv-x="1262" d="M643 889q-133 0 -226 -125.5t-93 -300.5q0 -121 60.5 -189.5t168.5 -68.5q134 0 224.5 121t90.5 301q0 123 -59.5 192.5t-165.5 69.5zM33 469q0 286 175.5 470.5t450.5 184.5q235 0 367.5 -133.5t132.5 -369.5q0 -285 -173.5 -469.5t-444.5 -184.5q-234 0 -371 136 t-137 366zM447 1323l26 156h576l-29 -156h-573z" />
<glyph unicode="&#x14e;" horiz-adv-x="1608" d="M856 1247q-206 0 -334.5 -177t-128.5 -456q0 -187 93 -289t264 -102q100 0 182 43t139 125q65 95 103 223t38 254q0 185 -91 282t-265 97zM82 612q0 196 67.5 373t190.5 305q104 109 242 166t295 57q307 0 477 -178.5t170 -500.5q0 -176 -65 -345.5t-181 -295.5 q-106 -117 -245 -176.5t-304 -59.5q-305 0 -476 174.5t-171 480.5zM682 1941h121v-12q0 -70 37 -103.5t113 -33.5q83 0 138.5 37t84.5 112h127q-41 -151 -133.5 -228t-233.5 -77q-127 0 -191.5 64.5t-64.5 193.5q0 19 0.5 28.5t1.5 18.5z" />
<glyph unicode="&#x14f;" horiz-adv-x="1262" d="M643 889q-133 0 -226 -125.5t-93 -300.5q0 -121 60.5 -189.5t168.5 -68.5q134 0 224.5 121t90.5 301q0 123 -59.5 192.5t-165.5 69.5zM33 469q0 286 175.5 470.5t450.5 184.5q235 0 367.5 -133.5t132.5 -369.5q0 -285 -173.5 -469.5t-444.5 -184.5q-234 0 -371 136 t-137 366zM469 1556h121v-12q0 -70 37 -103.5t113 -33.5q83 0 138.5 37t84.5 112h127q-41 -151 -133.5 -228t-233.5 -77q-127 0 -191.5 64.5t-64.5 193.5q0 19 0.5 28.5t1.5 18.5z" />
<glyph unicode="&#x150;" horiz-adv-x="1608" d="M856 1247q-206 0 -334.5 -177t-128.5 -456q0 -187 93 -289t264 -102q100 0 182 43t139 125q65 95 103 223t38 254q0 185 -91 282t-265 97zM82 612q0 196 67.5 373t190.5 305q104 109 242 166t295 57q307 0 477 -178.5t170 -500.5q0 -176 -65 -345.5t-181 -295.5 q-106 -117 -245 -176.5t-304 -59.5q-305 0 -476 174.5t-171 480.5zM988 1604l200 370h260l-348 -370h-112zM701 1604l151 370h250l-309 -370h-92z" />
<glyph unicode="&#x151;" horiz-adv-x="1262" d="M643 889q-133 0 -226 -125.5t-93 -300.5q0 -121 60.5 -189.5t168.5 -68.5q134 0 224.5 121t90.5 301q0 123 -59.5 192.5t-165.5 69.5zM33 469q0 286 175.5 470.5t450.5 184.5q235 0 367.5 -133.5t132.5 -369.5q0 -285 -173.5 -469.5t-444.5 -184.5q-234 0 -371 136 t-137 366zM775 1219l200 370h260l-348 -370h-112zM488 1219l151 370h250l-309 -370h-92z" />
<glyph unicode="&#x152;" horiz-adv-x="2228" d="M1090 438l108 606q-52 105 -134 157t-196 52q-208 0 -339.5 -179t-131.5 -460q0 -182 91 -288.5t245 -106.5q112 0 203 56t154 163zM1012 0l20 119q-73 -84 -165 -123t-218 -39q-245 0 -404 184.5t-159 472.5q0 180 62 349.5t176 300.5q107 122 243 185.5t291 63.5 q133 0 228.5 -46t162.5 -142l27 148h956l-47 -261h-661l-62 -313h623l-51 -262h-617l-63 -383h706l-47 -254h-1001z" />
<glyph unicode="&#x153;" horiz-adv-x="1976" d="M1102 651l481 1q1 6 1.5 15.5t0.5 26.5q0 102 -58.5 157.5t-164.5 55.5q-103 0 -167 -63t-93 -193zM621 893q-125 0 -208 -121.5t-83 -308.5q0 -129 55 -198.5t156 -69.5q126 0 208 127t82 323q0 119 -55 183.5t-155 64.5zM901 135q-88 -86 -180 -127t-199 -41 q-226 0 -355.5 138t-129.5 376q0 279 164 463t417 184q132 0 220.5 -44.5t140.5 -137.5q78 92 177.5 137t223.5 45q224 0 355 -136t131 -369q0 -43 -14 -144q-2 -17 -3 -24h-768q-1 -17 -1.5 -32t-0.5 -28q0 -92 61 -149.5t160 -57.5q75 0 133.5 32t96.5 93h295 q-68 -172 -207.5 -262t-339.5 -90q-129 0 -217.5 41t-159.5 133z" />
<glyph unicode="&#x154;" horiz-adv-x="1417" d="M473 813h289q141 0 214 60t73 176q0 84 -55 124.5t-171 40.5h-278zM23 0l258 1473h563q256 0 387 -103.5t131 -306.5q0 -149 -73 -254t-204 -143q65 -24 91 -72t26 -156v-41l-4 -176q-1 -16 -1.5 -31t-0.5 -26q0 -47 15 -72.5t53 -44.5v-47h-357q-11 19 -15.5 39.5 t-4.5 58.5q0 27 0.5 49.5t1.5 47.5l8 174v18q0 98 -51.5 138t-179.5 40h-238l-98 -565h-307zM1214 1974l-385 -370h-141l237 370h289z" />
<glyph unicode="&#x155;" horiz-adv-x="770" d="M4 0l195 1092h260l-43 -213q66 129 145 186t193 57q17 0 27 -0.5t18 -1.5l-54 -303q-36 8 -59 11t-39 3q-104 0 -169 -77t-95 -238l-92 -516h-287zM815 1589l-385 -370h-141l237 370h289z" />
<glyph unicode="&#x156;" horiz-adv-x="1417" d="M473 813h289q141 0 214 60t73 176q0 84 -55 124.5t-171 40.5h-278zM23 0l258 1473h563q256 0 387 -103.5t131 -306.5q0 -149 -73 -254t-204 -143q65 -24 91 -72t26 -156v-41l-4 -176q-1 -16 -1.5 -31t-0.5 -26q0 -47 15 -72.5t53 -44.5v-47h-357q-11 19 -15.5 39.5 t-4.5 58.5q0 27 0.5 49.5t1.5 47.5l8 174v18q0 98 -51.5 138t-179.5 40h-238l-98 -565h-307zM703 -90l-47 -254q-23 -122 -106 -182t-236 -66l18 92q92 4 138 38.5t61 111.5h-154l49 260h277z" />
<glyph unicode="&#x157;" horiz-adv-x="770" d="M4 0l195 1092h260l-43 -213q66 129 145 186t193 57q17 0 27 -0.5t18 -1.5l-54 -303q-36 8 -59 11t-39 3q-104 0 -169 -77t-95 -238l-92 -516h-287zM275 -90l-47 -254q-23 -122 -106 -182t-236 -66l18 92q92 4 138 38.5t61 111.5h-154l49 260h277z" />
<glyph unicode="&#x158;" horiz-adv-x="1417" d="M473 813h289q141 0 214 60t73 176q0 84 -55 124.5t-171 40.5h-278zM23 0l258 1473h563q256 0 387 -103.5t131 -306.5q0 -149 -73 -254t-204 -143q65 -24 91 -72t26 -156v-41l-4 -176q-1 -16 -1.5 -31t-0.5 -26q0 -47 15 -72.5t53 -44.5v-47h-357q-11 19 -15.5 39.5 t-4.5 58.5q0 27 0.5 49.5t1.5 47.5l8 174v18q0 98 -51.5 138t-179.5 40h-238l-98 -565h-307zM622 1974h129l131 -209l230 209h141l-266 -370h-236z" />
<glyph unicode="&#x159;" horiz-adv-x="770" d="M4 0l195 1092h260l-43 -213q66 129 145 186t193 57q17 0 27 -0.5t18 -1.5l-54 -303q-36 8 -59 11t-39 3q-104 0 -169 -77t-95 -238l-92 -516h-287zM223 1589h129l131 -209l230 209h141l-266 -370h-236z" />
<glyph unicode="&#x15a;" horiz-adv-x="1276" d="M33 467h299v-14q0 -112 68.5 -171t197.5 -59q115 0 176.5 50t61.5 143q0 57 -41 97.5t-189 104.5q-284 125 -365 216t-81 231q0 203 138.5 324.5t373.5 121.5q254 0 396 -117t142 -325v-20h-290q-2 99 -66 152.5t-182 53.5q-98 0 -152.5 -41.5t-54.5 -115.5 q0 -105 207 -192q36 -15 56 -24q233 -99 320 -198t87 -248q0 -223 -147 -350t-404 -127q-254 0 -402.5 129.5t-148.5 349.5v29zM1145 1974l-385 -370h-141l237 370h289z" />
<glyph unicode="&#x15b;" horiz-adv-x="1057" d="M8 371h272q4 -88 56.5 -137.5t142.5 -49.5q81 0 121.5 29.5t40.5 87.5q0 73 -158 124l-10 3q-222 72 -296.5 149t-74.5 205q0 159 114 247.5t319 88.5q206 0 320 -95t116 -267h-272q-10 73 -56.5 112t-124.5 39q-68 0 -106.5 -26.5t-38.5 -73.5q0 -66 191 -125l7 -2 q203 -63 275 -138.5t72 -205.5q0 -169 -119.5 -269t-323.5 -100q-222 0 -344.5 104.5t-122.5 295.5v4zM958 1589l-385 -370h-141l237 370h289z" />
<glyph unicode="&#x15c;" horiz-adv-x="1276" d="M33 467h299v-14q0 -112 68.5 -171t197.5 -59q115 0 176.5 50t61.5 143q0 57 -41 97.5t-189 104.5q-284 125 -365 216t-81 231q0 203 138.5 324.5t373.5 121.5q254 0 396 -117t142 -325v-20h-290q-2 99 -66 152.5t-182 53.5q-98 0 -152.5 -41.5t-54.5 -115.5 q0 -105 207 -192q36 -15 56 -24q233 -99 320 -198t87 -248q0 -223 -147 -350t-404 -127q-254 0 -402.5 129.5t-148.5 349.5v29zM1106 1604h-129l-131 208l-229 -208h-142l267 370h235z" />
<glyph unicode="&#x15d;" horiz-adv-x="1057" d="M8 371h272q4 -88 56.5 -137.5t142.5 -49.5q81 0 121.5 29.5t40.5 87.5q0 73 -158 124l-10 3q-222 72 -296.5 149t-74.5 205q0 159 114 247.5t319 88.5q206 0 320 -95t116 -267h-272q-10 73 -56.5 112t-124.5 39q-68 0 -106.5 -26.5t-38.5 -73.5q0 -66 191 -125l7 -2 q203 -63 275 -138.5t72 -205.5q0 -169 -119.5 -269t-323.5 -100q-222 0 -344.5 104.5t-122.5 295.5v4zM919 1219h-129l-131 208l-229 -208h-142l267 370h235z" />
<glyph unicode="&#x15e;" horiz-adv-x="1276" d="M33 467h299v-14q0 -111 68.5 -170.5t197.5 -59.5q115 0 176.5 49.5t61.5 143.5q0 56 -39 95.5t-191 106.5q-287 127 -366.5 217.5t-79.5 229.5q0 203 138 324.5t372 121.5q254 0 397 -117t143 -325v-20h-290q-2 99 -66 152.5t-182 53.5q-98 0 -152.5 -41.5t-54.5 -115.5 q0 -105 207 -192q36 -15 56 -24q232 -99 319.5 -198.5t87.5 -249.5q0 -225 -142 -346.5t-415 -132.5l-15 -45h8q110 0 168 -44t58 -126q0 -107 -69.5 -166t-197.5 -59q-54 0 -127.5 14t-162.5 41l47 123q68 -26 125.5 -37.5t113.5 -11.5q43 0 69 21.5t26 55.5 q0 43 -35.5 58.5t-161.5 17.5l53 160q-209 35 -326.5 161t-117.5 316v33z" />
<glyph unicode="&#x15f;" horiz-adv-x="1057" d="M8 371h272q5 -90 57.5 -138.5t147.5 -48.5q77 0 116.5 30t39.5 87q0 74 -161 125l-7 2q-221 73 -296 150t-75 204q0 159 114 247.5t319 88.5q207 0 320.5 -94.5t115.5 -267.5h-272q-10 73 -56 112t-123 39q-69 0 -108 -26.5t-39 -73.5q0 -67 195 -126l3 -1 q201 -62 274 -138t73 -208q0 -171 -119 -270t-326 -99h-12l-17 -55h9q109 0 167 -44t58 -126q0 -107 -69.5 -166t-196.5 -59q-55 0 -128.5 14t-162.5 41l45 123q67 -26 126 -37.5t116 -11.5q43 0 68.5 21.5t25.5 55.5q0 43 -35.5 58.5t-160.5 17.5l54 172 q-171 33 -261.5 133t-90.5 258v11z" />
<glyph unicode="&#x160;" horiz-adv-x="1276" d="M33 467h299v-14q0 -112 68.5 -171t197.5 -59q115 0 176.5 50t61.5 143q0 57 -41 97.5t-189 104.5q-284 125 -365 216t-81 231q0 203 138.5 324.5t373.5 121.5q254 0 396 -117t142 -325v-20h-290q-2 99 -66 152.5t-182 53.5q-98 0 -152.5 -41.5t-54.5 -115.5 q0 -105 207 -192q36 -15 56 -24q233 -99 320 -198t87 -248q0 -223 -147 -350t-404 -127q-254 0 -402.5 129.5t-148.5 349.5v29zM553 1974h129l131 -209l230 209h141l-266 -370h-236z" />
<glyph unicode="&#x161;" horiz-adv-x="1057" d="M8 371h272q4 -88 56.5 -137.5t142.5 -49.5q81 0 121.5 29.5t40.5 87.5q0 73 -158 124l-10 3q-222 72 -296.5 149t-74.5 205q0 159 114 247.5t319 88.5q206 0 320 -95t116 -267h-272q-10 73 -56.5 112t-124.5 39q-68 0 -106.5 -26.5t-38.5 -73.5q0 -66 191 -125l7 -2 q203 -63 275 -138.5t72 -205.5q0 -169 -119.5 -269t-323.5 -100q-222 0 -344.5 104.5t-122.5 295.5v4zM366 1589h129l131 -209l230 209h141l-266 -370h-236z" />
<glyph unicode="&#x162;" horiz-adv-x="1159" d="M303 0l213 1212h-414l45 261h1113l-46 -261h-387l-213 -1212h-311zM574 -90l-47 -254q-23 -122 -106 -182t-236 -66l18 92q92 4 138 38.5t61 111.5h-154l49 260h277z" />
<glyph unicode="&#x163;" horiz-adv-x="649" d="M485 -10q-37 -13 -74.5 -19t-76.5 -6q-145 0 -212 50t-67 157q0 22 1.5 44t5.5 45l108 624h-152l35 207h152l57 323h285l-58 -323h156l-33 -207h-155l-92 -522q-4 -23 -9.5 -51t-5.5 -31q0 -34 17 -49t55 -15q13 0 35 4t71 17zM414 -90l-47 -254q-23 -122 -106 -182 t-236 -66l18 92q92 4 138 38.5t61 111.5h-154l49 260h277z" />
<glyph unicode="&#x164;" horiz-adv-x="1159" d="M303 0l213 1212h-414l45 261h1113l-46 -261h-387l-213 -1212h-311zM493 1974h129l131 -209l230 209h141l-266 -370h-236z" />
<glyph unicode="&#x165;" horiz-adv-x="1038" d="M485 -10q-37 -13 -74.5 -19t-76.5 -6q-145 0 -212 50t-67 157q0 22 1.5 44t5.5 45l108 624h-152l35 207h152l57 323h285l-58 -323h156l-33 -207h-155l-92 -522q-4 -23 -9.5 -51t-5.5 -31q0 -34 17 -49t55 -15q13 0 35 4t71 17zM1114 1473l-47 -254q-23 -123 -106 -183.5 t-234 -66.5l16 93q92 4 139 39t62 111h-154l49 261h275z" />
<glyph unicode="&#x166;" horiz-adv-x="1159" d="M303 0l119 678h-352l43 209h346l57 325h-414l45 261h1113l-46 -261h-387l-57 -325h371l-45 -209h-363l-119 -678h-311z" />
<glyph unicode="&#x167;" horiz-adv-x="649" d="M485 -10q-35 -12 -73 -18.5t-78 -6.5q-143 0 -211 50.5t-68 156.5q0 22 1.5 44t5.5 45l47 269h-164l43 199h155l27 156h-152l35 207h152l57 323h285l-58 -323h156l-33 -207h-155l-25 -156h182l-43 -199h-180l-26 -168q-5 -26 -10 -53t-5 -28q0 -34 17.5 -49t54.5 -15 q15 0 38 4.5t68 16.5z" />
<glyph unicode="&#x168;" horiz-adv-x="1497" d="M287 1473h313l-166 -923q-5 -28 -7.5 -51.5t-2.5 -41.5q0 -111 64.5 -168.5t189.5 -57.5q137 0 215.5 79t110.5 247l167 916h308l-166 -938q-51 -287 -216 -430.5t-444 -143.5q-245 0 -391.5 130.5t-146.5 348.5q0 38 5 86.5t15 106.5zM1274 1933q-32 -123 -86.5 -181 t-139.5 -58q-26 0 -47 3t-39 9l-61 20q-28 8 -41 10.5t-23 2.5q-34 0 -59.5 -24.5t-36.5 -67.5h-115q30 123 86 184t140 61q17 0 41 -4t51 -12l62 -19q15 -4 29.5 -7t22.5 -3q38 0 61.5 20t39.5 66h115z" />
<glyph unicode="&#x169;" horiz-adv-x="1231" d="M1167 1092l-194 -1092h-262l30 174q-90 -108 -177 -155.5t-193 -47.5q-147 0 -233.5 80.5t-86.5 216.5q0 33 3 65.5t9 63.5l123 695h293l-123 -686q-4 -19 -6 -37t-2 -33q0 -61 35.5 -93t101.5 -32q110 0 188 79.5t103 219.5l107 582h284zM1065 1548q-32 -123 -86.5 -181 t-139.5 -58q-26 0 -47 3t-39 9l-61 20q-28 8 -41 10.5t-23 2.5q-34 0 -59.5 -24.5t-36.5 -67.5h-115q30 123 86 184t140 61q17 0 41 -4t51 -12l62 -19q15 -4 29.5 -7t22.5 -3q38 0 61.5 20t39.5 66h115z" />
<glyph unicode="&#x16a;" horiz-adv-x="1497" d="M287 1473h313l-166 -923q-5 -28 -7.5 -51.5t-2.5 -41.5q0 -111 64.5 -168.5t189.5 -57.5q137 0 215.5 79t110.5 247l167 916h308l-166 -938q-51 -287 -216 -430.5t-444 -143.5q-245 0 -391.5 130.5t-146.5 348.5q0 38 5 86.5t15 106.5zM649 1708l26 156h576l-29 -156 h-573z" />
<glyph unicode="&#x16b;" horiz-adv-x="1231" d="M1167 1092l-194 -1092h-262l30 174q-90 -108 -177 -155.5t-193 -47.5q-147 0 -233.5 80.5t-86.5 216.5q0 33 3 65.5t9 63.5l123 695h293l-123 -686q-4 -19 -6 -37t-2 -33q0 -61 35.5 -93t101.5 -32q110 0 188 79.5t103 219.5l107 582h284zM440 1323l26 156h576l-29 -156 h-573z" />
<glyph unicode="&#x16c;" horiz-adv-x="1497" d="M287 1473h313l-166 -923q-5 -28 -7.5 -51.5t-2.5 -41.5q0 -111 64.5 -168.5t189.5 -57.5q137 0 215.5 79t110.5 247l167 916h308l-166 -938q-51 -287 -216 -430.5t-444 -143.5q-245 0 -391.5 130.5t-146.5 348.5q0 38 5 86.5t15 106.5zM671 1941h121v-12q0 -70 37 -103.5 t113 -33.5q83 0 138.5 37t84.5 112h127q-41 -151 -133.5 -228t-233.5 -77q-127 0 -191.5 64.5t-64.5 193.5q0 19 0.5 28.5t1.5 18.5z" />
<glyph unicode="&#x16d;" horiz-adv-x="1231" d="M1167 1092l-194 -1092h-262l30 174q-90 -108 -177 -155.5t-193 -47.5q-147 0 -233.5 80.5t-86.5 216.5q0 33 3 65.5t9 63.5l123 695h293l-123 -686q-4 -19 -6 -37t-2 -33q0 -61 35.5 -93t101.5 -32q110 0 188 79.5t103 219.5l107 582h284zM462 1556h121v-12 q0 -70 37 -103.5t113 -33.5q83 0 138.5 37t84.5 112h127q-41 -151 -133.5 -228t-233.5 -77q-127 0 -191.5 64.5t-64.5 193.5q0 19 0.5 28.5t1.5 18.5z" />
<glyph unicode="&#x16e;" horiz-adv-x="1497" d="M287 1473h313l-166 -923q-5 -28 -7.5 -51.5t-2.5 -41.5q0 -111 64.5 -168.5t189.5 -57.5q137 0 215.5 79t110.5 247l167 916h308l-166 -938q-51 -287 -216 -430.5t-444 -143.5q-245 0 -391.5 130.5t-146.5 348.5q0 38 5 86.5t15 106.5zM835 1849q0 -53 38 -90t93 -37 q54 0 90.5 37t36.5 90q0 56 -36.5 93.5t-90.5 37.5q-55 0 -93 -37.5t-38 -93.5zM700 1851q0 111 77 189t187 78q111 0 189 -78t78 -189t-78 -188.5t-189 -77.5q-110 0 -187 77t-77 189z" />
<glyph unicode="&#x16f;" horiz-adv-x="1231" d="M1167 1092l-194 -1092h-262l30 174q-90 -108 -177 -155.5t-193 -47.5q-147 0 -233.5 80.5t-86.5 216.5q0 33 3 65.5t9 63.5l123 695h293l-123 -686q-4 -19 -6 -37t-2 -33q0 -61 35.5 -93t101.5 -32q110 0 188 79.5t103 219.5l107 582h284zM626 1464q0 -53 38 -90t93 -37 q54 0 90.5 37t36.5 90q0 56 -36.5 93.5t-90.5 37.5q-55 0 -93 -37.5t-38 -93.5zM491 1466q0 111 77 189t187 78q111 0 189 -78t78 -189t-78 -188.5t-189 -77.5q-110 0 -187 77t-77 189z" />
<glyph unicode="&#x170;" horiz-adv-x="1497" d="M287 1473h313l-166 -923q-5 -28 -7.5 -51.5t-2.5 -41.5q0 -111 64.5 -168.5t189.5 -57.5q137 0 215.5 79t110.5 247l167 916h308l-166 -938q-51 -287 -216 -430.5t-444 -143.5q-245 0 -391.5 130.5t-146.5 348.5q0 38 5 86.5t15 106.5zM977 1604l200 370h260l-348 -370 h-112zM690 1604l151 370h250l-309 -370h-92z" />
<glyph unicode="&#x171;" horiz-adv-x="1231" d="M1167 1092l-194 -1092h-262l30 174q-90 -108 -177 -155.5t-193 -47.5q-147 0 -233.5 80.5t-86.5 216.5q0 33 3 65.5t9 63.5l123 695h293l-123 -686q-4 -19 -6 -37t-2 -33q0 -61 35.5 -93t101.5 -32q110 0 188 79.5t103 219.5l107 582h284zM768 1219l200 370h260 l-348 -370h-112zM481 1219l151 370h250l-309 -370h-92z" />
<glyph unicode="&#x172;" horiz-adv-x="1497" d="M287 1473h313l-166 -923q-5 -28 -7.5 -51.5t-2.5 -41.5q0 -111 64.5 -168.5t189.5 -57.5q137 0 215.5 79t110.5 247l167 916h308l-166 -938q-33 -186 -99 -295t-184 -177q-93 -76 -142.5 -148t-49.5 -128q0 -37 22 -57.5t62 -20.5h110l-31 -174h-83q-117 0 -178.5 47 t-61.5 135q0 70 44.5 135.5t147.5 143.5q-52 -17 -105 -25t-108 -8q-249 0 -395.5 129.5t-146.5 347.5q0 38 5 86.5t15 106.5z" />
<glyph unicode="&#x173;" horiz-adv-x="1231" d="M1167 1092l-194 -1092h-60q-62 -50 -94.5 -102.5t-32.5 -102.5q0 -41 21 -61.5t61 -20.5h115l-31 -172h-88q-117 0 -177 46.5t-60 138.5q0 71 43.5 134t146.5 140h-106l30 174q-90 -108 -177 -155.5t-193 -47.5q-147 0 -233.5 80.5t-86.5 216.5q0 33 3 65.5t9 63.5 l123 695h293l-123 -686q-4 -19 -6 -37t-2 -33q0 -61 35.5 -93t101.5 -32q110 0 188 79.5t103 219.5l107 582h284z" />
<glyph unicode="&#x174;" horiz-adv-x="1767" d="M246 0l-109 1473h287l43 -979l381 979h303l33 -953l383 953h301l-633 -1473h-291l-18 1065l-414 -1065h-266zM1352 1604h-129l-131 208l-229 -208h-142l267 370h235z" />
<glyph unicode="&#x175;" horiz-adv-x="1565" d="M172 0l-117 1092h277l55 -756l295 756h281l41 -748l307 748h293l-500 -1092h-289l-47 737l-295 -737h-301zM1173 1219h-129l-131 208l-229 -208h-142l267 370h235z" />
<glyph unicode="&#x176;" horiz-adv-x="1145" d="M301 0l100 565l-364 908h328l221 -601l334 601h327l-547 -916l-92 -557h-307zM1040 1604h-129l-131 208l-229 -208h-142l267 370h235z" />
<glyph unicode="&#x177;" horiz-adv-x="1044" d="M-33 -422l27 217q13 -1 42 -3.5t42 -2.5q75 0 112 39.5t37 118.5q0 24 -6 72q-1 8 -2 12l-170 1061h283l108 -797l361 797h299l-670 -1319q-59 -117 -127.5 -165t-173.5 -48q-29 0 -65 4t-97 14zM913 1219h-129l-131 208l-229 -208h-142l267 370h235z" />
<glyph unicode="&#x178;" horiz-adv-x="1145" d="M301 0l100 565l-364 908h328l221 -601l334 601h327l-547 -916l-92 -557h-307zM811 1663l43 246h229l-45 -246h-227zM469 1663l43 246h223l-43 -246h-223z" />
<glyph unicode="&#x179;" horiz-adv-x="1223" d="M-51 0l39 223l831 1004h-678l43 246h1057l-41 -226l-829 -995h708l-45 -252h-1085zM1118 1974l-385 -370h-141l237 370h289z" />
<glyph unicode="&#x17a;" horiz-adv-x="1034" d="M-57 0l37 227l600 631h-523l41 234h899l-41 -226l-596 -624h558l-44 -242h-931zM948 1589l-385 -370h-141l237 370h289z" />
<glyph unicode="&#x17b;" horiz-adv-x="1223" d="M-51 0l39 223l831 1004h-678l43 246h1057l-41 -226l-829 -995h708l-45 -252h-1085zM674 1659l45 256h237l-47 -256h-235z" />
<glyph unicode="&#x17c;" horiz-adv-x="1034" d="M-57 0l37 227l600 631h-523l41 234h899l-41 -226l-596 -624h558l-44 -242h-931zM504 1274l45 256h237l-47 -256h-235z" />
<glyph unicode="&#x17d;" horiz-adv-x="1223" d="M-51 0l39 223l831 1004h-678l43 246h1057l-41 -226l-829 -995h708l-45 -252h-1085zM526 1974h129l131 -209l230 209h141l-266 -370h-236z" />
<glyph unicode="&#x17e;" horiz-adv-x="1034" d="M-57 0l37 227l600 631h-523l41 234h899l-41 -226l-596 -624h558l-44 -242h-931zM356 1589h129l131 -209l230 209h141l-266 -370h-236z" />
<glyph unicode="&#x17f;" horiz-adv-x="631" d="M20 0l154 887h-149l34 205h152l20 120q25 142 113.5 216.5t230.5 74.5q28 0 62.5 -3.5t85.5 -12.5l-39 -221q-26 6 -47.5 9t-38.5 3q-37 0 -56 -23.5t-32 -97.5l-203 -1157h-287z" />
<glyph unicode="&#x192;" horiz-adv-x="1161" d="M23 -391l43 239q30 -19 57.5 -28.5t50.5 -9.5q60 0 90 38.5t47 145.5l127 790h-248l29 197h254l23 125q41 221 127.5 313t246.5 92q50 0 100 -9.5t107 -31.5l-47 -229q-35 20 -62.5 29.5t-49.5 9.5q-63 0 -96 -41.5t-48 -142.5l-18 -115h248l-31 -197h-242l-96 -602 q-63 -392 -151 -505t-267 -113q-55 0 -102.5 11t-91.5 34z" />
<glyph unicode="&#x1fa;" horiz-adv-x="1327" d="M811 1929q89 0 152 -63t63 -152q0 -90 -63 -153.5t-152 -63.5t-152 63.5t-63 153.5q0 89 63 152t152 63zM811 1798q-37 0 -61.5 -24.5t-24.5 -61.5q0 -36 25 -61t61 -25t60 25t24 61q0 38 -23.5 62t-60.5 24zM694 1972l109 199h264l-240 -199h-133zM455 543h387l-80 622z M-145 0l757 1448h369l233 -1448h-305l-35 287h-546l-146 -287h-327z" />
<glyph unicode="&#x1fb;" horiz-adv-x="1139" d="M569 1642l109 197h264l-240 -197h-133zM686 1466q-37 0 -61.5 -24.5t-24.5 -61.5q0 -35 25 -59.5t61 -24.5t60 24t24 60q0 38 -23.5 62t-60.5 24zM686 1597q89 0 152 -63t63 -152t-63 -153t-152 -64t-152 64t-63 153t63 152t152 63zM629 109q-69 -69 -141 -100.5 t-162 -31.5q-149 0 -234.5 83.5t-85.5 226.5q0 184 104 277t351 120q24 3 65 7q197 19 197 114q0 44 -45 71t-121 27q-74 0 -114.5 -28t-51.5 -87h-278q27 170 140 251t320 81q206 0 322.5 -82t116.5 -225q0 -15 -1.5 -30.5t-4.5 -32.5l-101 -578q-3 -20 -4.5 -36t-1.5 -32 q0 -27 6.5 -44.5t22.5 -32.5v-27h-299v109zM682 524q-65 -20 -179 -42q-216 -41 -216 -165q0 -51 34 -80.5t93 -29.5q92 0 161 54t84 138z" />
<glyph unicode="&#x1fc;" horiz-adv-x="1894" d="M463 543h360l121 676h-100zM-186 0l874 1473h1210l-45 -261h-616l-55 -313h569l-51 -262h-567l-70 -383h663l-47 -254h-956l53 287h-459l-163 -287h-340zM1454 1974l-385 -370h-141l237 370h289z" />
<glyph unicode="&#x1fd;" horiz-adv-x="1835" d="M985 655h453v29q0 108 -52 164.5t-151 56.5q-102 0 -167 -64.5t-83 -185.5zM696 537q-43 -10 -120 -25q-289 -58 -289 -190q0 -63 36.5 -94t110.5 -31q91 0 155.5 52.5t80.5 139.5zM803 141q-90 -86 -202.5 -131t-240.5 -45q-163 0 -261.5 90.5t-98.5 237.5 q0 95 40.5 177t111.5 130q94 65 371 85q41 3 62 5q95 8 130 32.5t35 80.5q0 50 -46 79t-126 29q-83 0 -126.5 -29.5t-54.5 -93.5h-284q21 164 141.5 250t325.5 86q121 0 201.5 -31t127.5 -96q77 67 161 98t183 31q220 0 341.5 -136t121.5 -382q0 -44 -7 -141q-1 -8 -1 -12 h-741q-1 -8 -1.5 -18.5t-0.5 -28.5q0 -103 50.5 -155t151.5 -52q76 0 128.5 28t84.5 84h295q-44 -160 -184.5 -253t-339.5 -93q-120 0 -205 42.5t-143 131.5zM1348 1589l-385 -370h-141l237 370h289z" />
<glyph unicode="&#x1fe;" horiz-adv-x="1608" d="M426 403l700 756q-47 49 -114.5 73.5t-155.5 24.5q-212 0 -340.5 -181.5t-128.5 -477.5q0 -54 9.5 -101t29.5 -94zM53 8l156 176q-64 79 -94.5 183.5t-30.5 246.5q0 389 225.5 644t569.5 255q132 0 237.5 -33.5t192.5 -103.5l157 172l93 -92l-158 -176q61 -87 92 -194.5 t31 -233.5q0 -187 -64 -359t-182 -300q-106 -117 -245 -176.5t-304 -59.5q-137 0 -243.5 32t-186.5 97l-154 -170zM1188 1065l-699 -758q46 -47 110.5 -70.5t148.5 -23.5q207 0 340 188.5t133 479.5q0 54 -8 98.5t-25 85.5zM1311 1974l-385 -370h-141l237 370h289z" />
<glyph unicode="&#x1ff;" horiz-adv-x="1262" d="M397 260q40 -32 72.5 -44.5t71.5 -12.5q138 0 231.5 121.5t93.5 296.5q0 25 -4.5 56t-15.5 75zM788 838q-36 27 -69 39t-70 12q-137 0 -231 -122.5t-94 -295.5q0 -24 3.5 -54t12.5 -71zM-12 -29l151 168q-55 72 -80.5 149.5t-25.5 170.5q0 299 176 483t461 184 q84 0 155 -20t140 -64l143 158l84 -80l-141 -157q56 -77 82 -155.5t26 -172.5q0 -299 -174 -484.5t-459 -185.5q-91 0 -162 22t-141 70l-151 -166zM1061 1589l-385 -370h-141l237 370h289z" />
<glyph unicode="&#x2c6;" horiz-adv-x="1024" d="M903 1219h-129l-131 208l-229 -208h-142l267 370h235z" />
<glyph unicode="&#x2c7;" horiz-adv-x="1024" d="M350 1589h129l131 -209l230 209h141l-266 -370h-236z" />
<glyph unicode="&#x2c9;" horiz-adv-x="1024" d="M336 1323l26 156h576l-29 -156h-573z" />
<glyph unicode="&#x2d8;" horiz-adv-x="1024" d="M358 1556h121v-12q0 -70 37 -103.5t113 -33.5q83 0 138.5 37t84.5 112h127q-41 -151 -133.5 -228t-233.5 -77q-127 0 -191.5 64.5t-64.5 193.5q0 19 0.5 28.5t1.5 18.5z" />
<glyph unicode="&#x2d9;" horiz-adv-x="1024" d="M498 1274l45 256h237l-47 -256h-235z" />
<glyph unicode="&#x2da;" horiz-adv-x="1024" d="M522 1464q0 -53 38 -90t93 -37q54 0 90.5 37t36.5 90q0 56 -36.5 93.5t-90.5 37.5q-55 0 -93 -37.5t-38 -93.5zM387 1466q0 111 77 189t187 78q111 0 189 -78t78 -189t-78 -188.5t-189 -77.5q-110 0 -187 77t-77 189z" />
<glyph unicode="&#x2db;" horiz-adv-x="1024" d="M442 0q-63 -51 -96 -103.5t-33 -101.5q0 -40 21.5 -61t62.5 -21h113l-31 -172h-88q-117 0 -177 46.5t-60 138.5q0 71 44.5 136t145.5 138h98z" />
<glyph unicode="&#x2dc;" horiz-adv-x="1024" d="M961 1548q-32 -123 -86.5 -181t-139.5 -58q-26 0 -47 3t-39 9l-61 20q-28 8 -41 10.5t-23 2.5q-34 0 -59.5 -24.5t-36.5 -67.5h-115q30 123 86 184t140 61q17 0 41 -4t51 -12l62 -19q15 -4 29.5 -7t22.5 -3q38 0 61.5 20t39.5 66h115z" />
<glyph unicode="&#x2dd;" horiz-adv-x="1024" d="M664 1219l200 370h260l-348 -370h-112zM377 1219l151 370h250l-309 -370h-92z" />
<glyph unicode="&#x37e;" horiz-adv-x="629" d="M170 778l53 297h312l-54 -297h-311zM-28 -338l26 106q82 4 131 61t68 171h-164l61 295h303l-57 -281q-38 -178 -125 -261t-243 -91z" />
<glyph unicode="&#x384;" horiz-adv-x="811" d="M942 1589l-387 -370h-139l237 370h289z" />
<glyph unicode="&#x385;" horiz-adv-x="883" d="M758 1419h186l-43 -202h-186zM211 1419h186l-43 -202h-186zM719 1587l-113 -370h-143l45 370h211z" />
<glyph unicode="&#x386;" horiz-adv-x="1327" d="M455 543h387l-80 622zM-145 0l770 1473h356l233 -1473h-305l-35 287h-546l-146 -287h-327zM400 1473l-385 -371h-142l238 371h289z" />
<glyph unicode="&#x387;" horiz-adv-x="582" d="M135 702q0 65 45.5 110.5t110.5 45.5t110 -45t45 -111q0 -64 -45 -109.5t-110 -45.5q-66 0 -111 44.5t-45 110.5z" />
<glyph unicode="&#x388;" horiz-adv-x="1706" d="M543 1473l-385 -371h-142l238 371h289zM478 0l264 1473h968l-45 -261h-663l-62 -313h623l-51 -262h-615l-65 -383h706l-47 -254h-1013z" />
<glyph unicode="&#x389;" horiz-adv-x="1946" d="M543 1473l-385 -371h-142l238 371h289zM478 0l262 1473h309l-100 -566h569l102 566h303l-262 -1473h-305l113 647h-570l-114 -647h-307z" />
<glyph unicode="&#x38a;" horiz-adv-x="1087" d="M543 1473l-385 -371h-142l238 371h289zM482 0l270 1473h309l-268 -1473h-311z" />
<glyph unicode="&#x38c;" horiz-adv-x="1944" d="M543 1473l-385 -371h-142l238 371h289zM1190 1247q-205 0 -333 -176.5t-128 -456.5q0 -187 93 -289t264 -102q99 0 181.5 43t139.5 125q65 95 103 223t38 252q0 185 -92 283t-266 98zM418 612q0 195 67 371.5t191 306.5q104 109 241.5 166t295.5 57q302 0 474.5 -176.5 t172.5 -486.5q0 -186 -64 -357.5t-182 -299.5q-106 -117 -245 -176.5t-304 -59.5q-305 0 -476 174.5t-171 480.5z" />
<glyph unicode="&#x38e;" horiz-adv-x="1694" d="M543 1473l-385 -371h-142l238 371h289zM850 0l100 565l-364 908h328l221 -601l334 601h327l-547 -916l-92 -557h-307z" />
<glyph unicode="&#x38f;" horiz-adv-x="1948" d="M543 1473l-385 -371h-142l238 371h289zM305 0l45 254h293q-99 126 -143.5 247t-44.5 261q0 131 41.5 254t120.5 227q102 135 243 202.5t320 67.5q295 0 480 -175.5t185 -454.5q0 -172 -75 -330t-224 -299h285l-45 -254h-641l45 254q187 151 267.5 293t80.5 315 q0 178 -96 282.5t-260 104.5q-194 0 -307 -148.5t-113 -404.5q0 -137 48 -246.5t147 -195.5l-46 -254h-606z" />
<glyph unicode="&#x390;" horiz-adv-x="545" d="M4 0l191 1092h286l-190 -1092h-287zM590 1419h186l-43 -202h-186zM43 1419h186l-43 -202h-186zM551 1587l-113 -370h-143l45 370h211z" />
<glyph unicode="&#x391;" horiz-adv-x="1327" d="M455 543h387l-80 622zM-145 0l770 1473h356l233 -1473h-305l-35 287h-546l-146 -287h-327z" />
<glyph unicode="&#x392;" horiz-adv-x="1432" d="M373 254h340q140 0 208 55t68 168q0 84 -58 130t-163 46h-324zM487 893h330q122 0 181 45t59 137q0 73 -48 109.5t-143 36.5h-321zM23 0l264 1473h585q239 0 363.5 -97t124.5 -282q0 -126 -60 -215t-176 -134q87 -41 129.5 -111.5t42.5 -172.5q0 -225 -142.5 -343 t-414.5 -118h-716z" />
<glyph unicode="&#x393;" horiz-adv-x="1161" d="M25 0l258 1473h1017l-45 -256h-708l-215 -1217h-307z" />
<glyph unicode="&#x394;" horiz-adv-x="1389" d="M-109 0l750 1473h307l371 -1473h-1428zM322 254h647l-213 852z" />
<glyph unicode="&#x395;" horiz-adv-x="1251" d="M23 0l264 1473h968l-45 -261h-663l-62 -313h623l-51 -262h-615l-65 -383h706l-47 -254h-1013z" />
<glyph unicode="&#x396;" horiz-adv-x="1223" d="M-51 0l39 223l831 1004h-678l43 246h1057l-41 -226l-829 -995h708l-45 -252h-1085z" />
<glyph unicode="&#x397;" horiz-adv-x="1491" d="M23 0l262 1473h309l-100 -566h569l102 566h303l-262 -1473h-305l113 647h-570l-114 -647h-307z" />
<glyph unicode="&#x398;" horiz-adv-x="1608" d="M82 612q0 195 67 371.5t191 306.5q104 109 241.5 166t295.5 57q302 0 474.5 -176.5t172.5 -486.5q0 -186 -64 -357.5t-182 -299.5q-106 -117 -245 -176.5t-304 -59.5q-305 0 -476 174.5t-171 480.5zM854 1247q-205 0 -333 -176.5t-128 -456.5q0 -187 93 -289t264 -102 q99 0 181.5 43t139.5 125q65 95 103 223t38 252q0 185 -92 283t-266 98zM516 627l41 233h533l-41 -233h-533z" />
<glyph unicode="&#x399;" horiz-adv-x="633" d="M27 0l270 1473h309l-268 -1473h-311z" />
<glyph unicode="&#x39a;" horiz-adv-x="1284" d="M27 0l258 1473h305l-101 -590l558 590h370l-620 -629l430 -844h-332l-311 631l-168 -170l-82 -461h-307z" />
<glyph unicode="&#x39b;" horiz-adv-x="1159" d="M844 1473l256 -1473h-307l-156 1071l-473 -1071h-297l682 1473h295z" />
<glyph unicode="&#x39c;" horiz-adv-x="1794" d="M23 0l258 1473h450l111 -1061l487 1061h443l-267 -1473h-288l229 1196l-537 -1196h-282l-115 1171l-203 -1171h-286z" />
<glyph unicode="&#x39d;" horiz-adv-x="1493" d="M20 0l269 1473h311l397 -1016l179 1016h297l-261 -1473h-309l-399 1022l-178 -1022h-306z" />
<glyph unicode="&#x39e;" horiz-adv-x="1255" d="M154 1210l45 263h1079l-47 -263h-1077zM145 629l45 260h936l-47 -260h-934zM-23 0l46 260h1114l-47 -260h-1113z" />
<glyph unicode="&#x39f;" horiz-adv-x="1608" d="M854 1247q-205 0 -333 -176.5t-128 -456.5q0 -187 93 -289t264 -102q99 0 181.5 43t139.5 125q65 95 103 223t38 252q0 185 -92 283t-266 98zM82 612q0 195 67 371.5t191 306.5q104 109 241.5 166t295.5 57q302 0 474.5 -176.5t172.5 -486.5q0 -186 -64 -357.5 t-182 -299.5q-106 -117 -245 -176.5t-304 -59.5q-305 0 -476 174.5t-171 480.5z" />
<glyph unicode="&#x3a0;" horiz-adv-x="1499" d="M25 0l258 1473h1192l-258 -1473h-310l215 1217h-575l-215 -1217h-307z" />
<glyph unicode="&#x3a1;" horiz-adv-x="1358" d="M465 756h237q149 0 224 64t75 192q0 94 -57 144t-164 50h-237zM23 0l258 1473h505q246 0 380 -116t134 -329q0 -252 -157 -387t-453 -135h-272l-92 -506h-303z" />
<glyph unicode="&#x3a3;" horiz-adv-x="1190" d="M-70 0l39 221l537 563l-354 469l36 220h1037l-45 -254h-648l353 -447l-488 -518h711l-45 -254h-1133z" />
<glyph unicode="&#x3a4;" horiz-adv-x="1159" d="M303 0l213 1212h-414l45 261h1113l-46 -261h-387l-213 -1212h-311z" />
<glyph unicode="&#x3a5;" horiz-adv-x="1145" d="M301 0l100 565l-364 908h328l221 -601l334 601h327l-547 -916l-92 -557h-307z" />
<glyph unicode="&#x3a6;" horiz-adv-x="1479" d="M473 0l37 188q-224 42 -338.5 167.5t-114.5 328.5q0 270 181 444.5t467 174.5l28 170h264l-30 -170q208 -37 330 -173.5t122 -332.5q0 -260 -178.5 -430t-468.5 -179l-33 -188h-266zM811 418q152 0 244 104t92 275q0 122 -54.5 190.5t-164.5 83.5zM549 418l114 653 q-150 -3 -239.5 -106t-89.5 -273q0 -113 54.5 -182.5t160.5 -91.5z" />
<glyph unicode="&#x3a7;" horiz-adv-x="1120" d="M-141 0l542 754l-329 719h319l199 -457l301 457h338l-508 -719l350 -754h-323l-220 496l-333 -496h-336z" />
<glyph unicode="&#x3a8;" horiz-adv-x="1743" d="M586 0l51 289q-256 29 -371.5 147.5t-115.5 349.5q0 64 4.5 123.5t13.5 112.5l80 451h297l-82 -467q-15 -82 -22 -139t-7 -95q0 -109 61.5 -166.5t186.5 -64.5l164 932h297l-164 -932h6q165 0 245 90t132 381l80 461h297l-82 -465q-45 -250 -92 -367.5t-123 -189.5 q-83 -78 -202.5 -117t-305.5 -49l-51 -285h-297z" />
<glyph unicode="&#x3a9;" horiz-adv-x="1612" d="M-31 0l45 254h293q-99 126 -143.5 247t-44.5 261q0 131 41.5 254t120.5 227q102 135 243 202.5t320 67.5q295 0 480 -175.5t185 -454.5q0 -172 -75 -330t-224 -299h285l-45 -254h-641l45 254q187 151 267.5 293t80.5 315q0 178 -96 282.5t-260 104.5q-194 0 -307 -148.5 t-113 -404.5q0 -137 48 -246.5t147 -195.5l-46 -254h-606z" />
<glyph unicode="&#x3aa;" horiz-adv-x="633" d="M27 0l270 1473h309l-268 -1473h-311zM527 1663l45 246h227l-45 -246h-227zM185 1663l43 246h223l-43 -246h-223z" />
<glyph unicode="&#x3ab;" horiz-adv-x="1145" d="M301 0l100 565l-364 908h328l221 -601l334 601h327l-547 -916l-92 -557h-307zM783 1663l45 246h227l-45 -246h-227zM441 1663l43 246h223l-43 -246h-223z" />
<glyph unicode="&#x3ac;" horiz-adv-x="1247" d="M987 0h-282l20 141q-57 -87 -133 -129.5t-176 -42.5q-178 0 -278.5 126t-100.5 347q0 295 146 488.5t368 193.5q127 0 210.5 -53t117.5 -156l30 177h269zM608 877q-121 0 -200.5 -123t-79.5 -312q0 -111 53 -172t149 -61q125 0 200 118t75 316q0 114 -50.5 174t-146.5 60 zM1161 1589l-387 -370h-139l237 370h289z" />
<glyph unicode="&#x3ad;" horiz-adv-x="1073" d="M950 338q-8 -179 -137.5 -276t-361.5 -97q-207 0 -327 89.5t-120 242.5q0 102 63.5 179t182.5 118q-63 42 -95 98t-32 125q0 142 112.5 225.5t305.5 83.5q213 0 332 -94.5t126 -269.5h-272q-2 68 -46 108.5t-116 40.5q-77 0 -121.5 -35.5t-44.5 -97.5q0 -57 43.5 -85.5 t128.5 -28.5h101l-35 -211h-100q-128 0 -191 -36.5t-63 -109.5q0 -62 49 -94.5t143 -32.5q86 0 135 38.5t66 119.5h274zM1073 1589l-387 -370h-139l237 370h289z" />
<glyph unicode="&#x3ae;" horiz-adv-x="1233" d="M-2 0l192 1092h263l-31 -168q90 109 177.5 155.5t199.5 46.5q142 0 227.5 -81t85.5 -216q0 -29 -3 -62t-9 -67l-201 -1138h-289l197 1130q4 21 6 39.5t2 30.5q0 60 -35 91.5t-102 31.5q-110 0 -188 -79t-103 -218l-104 -588h-285zM1153 1589l-387 -370h-139l237 370h289z " />
<glyph unicode="&#x3af;" horiz-adv-x="545" d="M4 0l191 1092h286l-190 -1092h-287zM809 1589l-387 -370h-139l237 370h289z" />
<glyph unicode="&#x3b0;" horiz-adv-x="1200" d="M180 1092h287l-98 -549q-11 -57 -17 -105.5t-6 -81.5q0 -74 43.5 -111.5t130.5 -37.5q101 0 151.5 62.5t82.5 248.5l98 574h291l-127 -701q-38 -215 -165 -319.5t-351 -104.5q-221 0 -332 87t-111 259q0 32 4 72.5t11 81.5zM918 1419h186l-43 -202h-186zM371 1419h186 l-43 -202h-186zM879 1587l-113 -370h-143l45 370h211z" />
<glyph unicode="&#x3b1;" horiz-adv-x="1247" d="M987 0h-282l20 141q-57 -87 -133 -129.5t-176 -42.5q-178 0 -278.5 126t-100.5 347q0 295 146 488.5t368 193.5q127 0 210.5 -53t117.5 -156l30 177h269zM608 877q-121 0 -200.5 -123t-79.5 -312q0 -111 53 -172t149 -61q125 0 200 118t75 316q0 114 -50.5 174t-146.5 60 z" />
<glyph unicode="&#x3b2;" horiz-adv-x="1247" d="M584 676l37 211h6q114 0 175.5 55.5t61.5 159.5q0 75 -47.5 121.5t-126.5 46.5q-89 0 -136 -54.5t-87 -261.5l-55 -282q-14 -69 -20.5 -126.5t-6.5 -101.5q0 -112 54 -171.5t155 -59.5q102 0 166.5 68.5t64.5 177.5q0 87 -46.5 142.5t-129.5 66.5zM-70 -438l236 1331 q60 339 180 474.5t348 135.5q208 0 326.5 -101.5t118.5 -279.5q0 -123 -62 -211t-180 -133q114 -73 164.5 -156t50.5 -196q0 -190 -127.5 -320.5t-312.5 -130.5q-97 0 -185.5 38t-167.5 112l-98 -563h-291z" />
<glyph unicode="&#x3b3;" horiz-adv-x="1034" d="M131 -438l94 532l-209 998h283l123 -697l352 697h303l-573 -1016l-90 -514h-283z" />
<glyph unicode="&#x3b4;" horiz-adv-x="1217" d="M678 811q-6 1 -14.5 1.5t-24.5 0.5q-138 0 -231 -100.5t-93 -249.5q0 -115 69 -187.5t177 -72.5q116 0 184 80t68 215q0 92 -33 169t-102 144zM543 1024q-80 72 -246 221l-35 31l35 197h856l-39 -224h-477q262 -225 360.5 -385t98.5 -344q0 -244 -152 -399.5t-391 -155.5 q-229 0 -372.5 139.5t-143.5 360.5q0 225 138 378t368 181z" />
<glyph unicode="&#x3b5;" horiz-adv-x="1073" d="M950 338q-8 -179 -137.5 -276t-361.5 -97q-207 0 -327 89.5t-120 242.5q0 102 63.5 179t182.5 118q-63 42 -95 98t-32 125q0 142 112.5 225.5t305.5 83.5q213 0 332 -94.5t126 -269.5h-272q-2 68 -46 108.5t-116 40.5q-77 0 -121.5 -35.5t-44.5 -97.5q0 -57 43.5 -85.5 t128.5 -28.5h101l-35 -211h-100q-128 0 -191 -36.5t-63 -109.5q0 -62 49 -94.5t143 -32.5q86 0 135 38.5t66 119.5h274z" />
<glyph unicode="&#x3b6;" horiz-adv-x="991" d="M489 -438q85 118 129 208t44 144q0 74 -153 80q-23 1 -36 2q-227 8 -319.5 100.5t-92.5 300.5q0 234 118.5 441.5t369.5 410.5h-338l39 224h766l-29 -162q-312 -185 -477.5 -406t-165.5 -450q0 -113 45 -158.5t168 -50.5q219 -8 293 -62.5t74 -181.5q0 -97 -46.5 -209 t-136.5 -231h-252z" />
<glyph unicode="&#x3b7;" horiz-adv-x="1233" d="M-2 0l192 1092h263l-31 -168q90 109 177.5 155.5t199.5 46.5q142 0 227.5 -81t85.5 -216q0 -29 -3 -62t-9 -67l-201 -1138h-289l197 1130q4 21 6 39.5t2 30.5q0 60 -35 91.5t-102 31.5q-110 0 -188 -79t-103 -218l-104 -588h-285z" />
<glyph unicode="&#x3b8;" horiz-adv-x="1214" d="M510 -33q-208 0 -319 143t-111 412q0 177 35.5 356t97.5 314q69 152 189 231.5t280 79.5q198 0 315 -136.5t117 -369.5q0 -176 -29.5 -353.5t-78.5 -309.5q-71 -187 -192.5 -277t-303.5 -90zM805 659h-438q-9 -65 -13 -114t-4 -86q0 -132 46 -193t145 -61q118 0 176 97 t88 357zM397 879h436q6 57 8.5 93.5t2.5 63.5q0 118 -44.5 177t-133.5 59q-110 0 -171.5 -89.5t-97.5 -303.5z" />
<glyph unicode="&#x3b9;" horiz-adv-x="545" d="M4 0l191 1092h286l-190 -1092h-287z" />
<glyph unicode="&#x3ba;" horiz-adv-x="1071" d="M283 0h-279l191 1092h278l-76 -400l371 400h356l-434 -418l244 -674h-295l-174 467l-125 -109z" />
<glyph unicode="&#x3bb;" horiz-adv-x="952" d="M-147 0l540 981l-78 492h279l268 -1473h-280l-95 641l-333 -641h-301z" />
<glyph unicode="&#x3bc;" horiz-adv-x="1249" d="M-63 -438l268 1530h289l-76 -435q-15 -81 -23 -154t-8 -114q0 -93 42 -138.5t128 -45.5q100 0 155.5 82t92.5 291l90 514h289l-193 -1092h-268l18 117q-44 -79 -95 -114.5t-120 -35.5q-68 0 -119 29t-94 92l-90 -526h-286z" />
<glyph unicode="&#x3bd;" horiz-adv-x="981" d="M190 0l-153 1092h285l75 -752l342 752h299l-536 -1092h-312z" />
<glyph unicode="&#x3be;" horiz-adv-x="1081" d="M524 -438q83 115 129.5 210t46.5 148q0 73 -165 75q-35 0 -54 1l-7 1q-183 24 -249 64q-79 50 -121.5 135.5t-42.5 194.5q0 164 92 270t273 152q-88 42 -130 98t-42 131q0 62 30 112.5t93 94.5h-201l39 224h803l-39 -224h-111q-195 0 -267.5 -43t-72.5 -143 q0 -89 71.5 -135.5t209.5 -46.5h117l-39 -219h-99q-265 0 -356.5 -50.5t-91.5 -175.5q0 -44 16 -79t47 -58q64 -48 237 -50q64 -1 99 -3q112 -6 170 -62t58 -157q0 -97 -47.5 -219t-135.5 -246h-260z" />
<glyph unicode="&#x3bf;" horiz-adv-x="1262" d="M33 469q0 285 176 470t450 185q236 0 368 -133t132 -370q0 -285 -173.5 -469.5t-444.5 -184.5q-234 0 -371 136t-137 366zM643 889q-133 0 -226 -125t-93 -301q0 -121 60.5 -189.5t168.5 -68.5q134 0 224.5 121t90.5 301q0 123 -59.5 192.5t-165.5 69.5z" />
<glyph unicode="&#x3c0;" horiz-adv-x="1313" d="M338 0h-287l152 868h-133l39 224h1210l-41 -224h-133l-154 -868h-286l153 868h-369z" />
<glyph unicode="&#x3c1;" horiz-adv-x="1241" d="M578 215q123 0 199.5 121.5t76.5 316.5q0 111 -52.5 171.5t-148.5 60.5q-122 0 -198 -117.5t-76 -304.5q0 -114 53.5 -181t145.5 -67zM-72 -438l144 823q44 254 81 361t93 184q71 97 171 145.5t228 48.5q229 0 361.5 -129t132.5 -352q0 -293 -144.5 -485.5t-361.5 -192.5 q-98 0 -176.5 42.5t-139.5 127.5l-100 -573h-289z" />
<glyph unicode="&#x3c2;" horiz-adv-x="1071" d="M459 -438q82 129 118.5 209.5t36.5 130.5q0 61 -139 122q-73 32 -115 54q-181 97 -248 199t-67 264q0 262 145.5 422.5t380.5 160.5q202 0 324.5 -114.5t122.5 -304.5v-29h-272q-5 108 -45.5 159.5t-120.5 51.5q-107 0 -174.5 -89.5t-67.5 -230.5q0 -107 50 -172 t198 -133q11 -5 34 -16q275 -127 275 -293q0 -65 -35 -155.5t-119 -235.5h-282z" />
<glyph unicode="&#x3c3;" horiz-adv-x="1325" d="M1327 868h-217q25 -55 37 -117t12 -130q0 -286 -173 -470t-445 -184q-234 0 -371 137t-137 367q0 285 176 469t450 184q56 0 112.5 -7.5t123.5 -24.5h471zM643 889q-133 0 -226 -125t-93 -301q0 -121 60.5 -189.5t168.5 -68.5q134 0 224.5 121t90.5 301 q0 123 -59.5 192.5t-165.5 69.5z" />
<glyph unicode="&#x3c4;" horiz-adv-x="924" d="M621 868l-152 -868h-287l152 868h-305l39 224h895l-39 -224h-303z" />
<glyph unicode="&#x3c5;" horiz-adv-x="1200" d="M180 1092h287l-98 -549q-11 -57 -17 -105.5t-6 -81.5q0 -74 43.5 -111.5t130.5 -37.5q101 0 151.5 62.5t82.5 248.5l98 574h291l-127 -701q-38 -215 -165 -319.5t-351 -104.5q-221 0 -332 87t-111 259q0 32 4 72.5t11 81.5z" />
<glyph unicode="&#x3c6;" horiz-adv-x="1442" d="M385 -438l80 438q-211 62 -317.5 187.5t-106.5 312.5q0 254 138 423.5t356 180.5l-41 -221q-91 -55 -139 -155t-48 -234q0 -100 55 -173t144 -92l156 893h26q312 0 479.5 -132.5t167.5 -379.5q0 -276 -168.5 -441.5t-453.5 -168.5l-78 -438h-250zM752 229q2 -1 4 -1.5 t6 -0.5q3 0 9 1t9 1q125 0 207 105t82 266q0 119 -49.5 189t-153.5 96z" />
<glyph unicode="&#x3c7;" horiz-adv-x="1008" d="M-201 -438l447 788l-193 742h281l127 -543l319 543h281l-461 -768l248 -762h-277l-182 571l-303 -571h-287z" />
<glyph unicode="&#x3c8;" horiz-adv-x="1507" d="M412 -438l73 420q-205 32 -307 146t-102 310q0 41 4.5 91t13.5 104l80 459h275l-91 -521q-8 -51 -12 -86.5t-4 -60.5q0 -96 43.5 -142.5t140.5 -54.5l203 1129h260l-201 -1143h27q114 0 170.5 65t89.5 254l99 560h274l-92 -527q-60 -337 -193 -462t-415 -130l-74 -411 h-262z" />
<glyph unicode="&#x3c9;" horiz-adv-x="1554" d="M698 150q-55 -98 -124 -143.5t-160 -45.5q-177 0 -275 119.5t-98 337.5q0 175 65.5 357t178.5 317h284q-123 -163 -191.5 -347t-68.5 -350q0 -92 32.5 -139t96.5 -47q66 0 101 60.5t75 291.5l35 205h269l-37 -207q-13 -73 -19 -127t-6 -92q0 -63 30.5 -100t82.5 -37 q93 0 143.5 106t50.5 303q0 147 -24.5 264t-75.5 216h274q49 -92 74 -217t25 -275q0 -284 -128.5 -461.5t-330.5 -177.5q-91 0 -160 46.5t-119 142.5z" />
<glyph unicode="&#x3ca;" horiz-adv-x="545" d="M4 0l191 1092h286l-190 -1092h-287zM408 1278l45 246h227l-45 -246h-227zM66 1278l43 246h223l-43 -246h-223z" />
<glyph unicode="&#x3cb;" horiz-adv-x="1200" d="M180 1092h287l-98 -549q-11 -57 -17 -105.5t-6 -81.5q0 -74 43.5 -111.5t130.5 -37.5q101 0 151.5 62.5t82.5 248.5l98 574h291l-127 -701q-38 -215 -165 -319.5t-351 -104.5q-221 0 -332 87t-111 259q0 32 4 72.5t11 81.5zM736 1278l45 246h227l-45 -246h-227zM394 1278 l43 246h223l-43 -246h-223z" />
<glyph unicode="&#x3cc;" horiz-adv-x="1262" d="M33 469q0 285 176 470t450 185q236 0 368 -133t132 -370q0 -285 -173.5 -469.5t-444.5 -184.5q-234 0 -371 136t-137 366zM643 889q-133 0 -226 -125t-93 -301q0 -121 60.5 -189.5t168.5 -68.5q134 0 224.5 121t90.5 301q0 123 -59.5 192.5t-165.5 69.5zM1167 1589 l-387 -370h-139l237 370h289z" />
<glyph unicode="&#x3cd;" horiz-adv-x="1200" d="M180 1092h287l-98 -549q-11 -57 -17 -105.5t-6 -81.5q0 -74 43.5 -111.5t130.5 -37.5q101 0 151.5 62.5t82.5 248.5l98 574h291l-127 -701q-38 -215 -165 -319.5t-351 -104.5q-221 0 -332 87t-111 259q0 32 4 72.5t11 81.5zM1137 1589l-387 -370h-139l237 370h289z" />
<glyph unicode="&#x3ce;" horiz-adv-x="1554" d="M698 150q-55 -98 -124 -143.5t-160 -45.5q-177 0 -275 119.5t-98 337.5q0 175 65.5 357t178.5 317h284q-123 -163 -191.5 -347t-68.5 -350q0 -92 32.5 -139t96.5 -47q66 0 101 60.5t75 291.5l35 205h269l-37 -207q-13 -73 -19 -127t-6 -92q0 -63 30.5 -100t82.5 -37 q93 0 143.5 106t50.5 303q0 147 -24.5 264t-75.5 216h274q49 -92 74 -217t25 -275q0 -284 -128.5 -461.5t-330.5 -177.5q-91 0 -160 46.5t-119 142.5zM1315 1589l-387 -370h-139l237 370h289z" />
<glyph unicode="&#x401;" horiz-adv-x="1251" d="M883 1913h227l-43 -246h-227zM539 1913h225l-45 -246h-223zM287 1473h968l-45 -261h-663l-62 -313h623l-51 -262h-615l-65 -383h706l-47 -254h-1013z" />
<glyph unicode="&#x402;" horiz-adv-x="1651" d="M766 883q78 75 174.5 113t208.5 38q180 0 276.5 -99.5t96.5 -285.5q0 -135 -41.5 -270t-110.5 -229q-69 -96 -163 -143.5t-214 -47.5q-35 0 -73.5 6t-75.5 17l45 247q25 -3 45 -4.5t35 -1.5q107 0 176 105t69 266q0 100 -48 149.5t-146 49.5q-128 0 -210.5 -62.5 t-102.5 -173.5l-97 -557h-307l213 1212h-414l45 261h1108l-45 -261h-387z" />
<glyph unicode="&#x403;" horiz-adv-x="1038" d="M1165 1473l-45 -261h-571l-219 -1212h-307l262 1473h880zM641 1604h-141l237 370h289z" />
<glyph unicode="&#x404;" horiz-adv-x="1554" d="M1442 506q-47 -260 -226.5 -400.5t-465.5 -140.5q-322 0 -492 171.5t-170 494.5q0 392 218.5 635t576.5 243q291 0 446.5 -136.5t161.5 -397.5h-303v4q0 133 -80 203.5t-229 70.5q-164 0 -274 -89t-152 -257h569l-49 -260h-570v-20q0 -197 91.5 -291t281.5 -94 q152 0 240.5 65t118.5 199h307z" />
<glyph unicode="&#x405;" horiz-adv-x="1276" d="M332 467v-14q0 -111 68.5 -170.5t197.5 -59.5q115 0 176.5 49.5t61.5 143.5q0 99 -227 201l-2 1q-288 127 -367.5 217.5t-79.5 229.5q0 203 138 324.5t372 121.5q254 0 397 -117t143 -325v-20h-290q-2 99 -66 152.5t-182 53.5q-98 0 -152.5 -41.5t-54.5 -115.5 q0 -105 207 -192q36 -15 56 -24q234 -101 320.5 -200t86.5 -248q0 -223 -146 -349t-405 -126q-254 0 -402.5 129.5t-148.5 349.5v29h299z" />
<glyph unicode="&#x406;" horiz-adv-x="633" d="M297 1473h309l-268 -1473h-311z" />
<glyph unicode="&#x407;" horiz-adv-x="633" d="M594 1913h227l-43 -246h-227zM252 1913h223l-43 -246h-225zM297 1473h309l-268 -1473h-311z" />
<glyph unicode="&#x408;" horiz-adv-x="1008" d="M229 530q-12 -64 -18 -110t-6 -74q0 -64 31 -96.5t92 -32.5q63 0 102.5 43t54.5 129l191 1084h311l-180 -1031q-46 -265 -158.5 -374t-331.5 -109q-185 0 -285 92.5t-100 261.5q0 43 8 97t23 120h266z" />
<glyph unicode="&#x409;" horiz-adv-x="2130" d="M1264 676l-74 -422h270q143 0 211 57.5t68 177.5q0 93 -55 140t-164 47h-256zM334 1473h1069l-98 -558h264q243 0 363 -106.5t120 -323.5q0 -236 -145.5 -360.5t-421.5 -124.5h-649l213 1212h-451l-156 -864q-35 -201 -128.5 -299t-247.5 -98q-52 0 -102 9t-101 28 l55 243q25 -6 43.5 -9t30.5 -3q67 0 102 46t58 169z" />
<glyph unicode="&#x40a;" horiz-adv-x="2161" d="M1292 651l-71 -397h270q141 0 209.5 57t68.5 174q0 79 -57 122.5t-162 43.5h-258zM285 1473h309l-102 -570h532l102 570h308l-101 -570h266q241 0 363.5 -106.5t122.5 -315.5q0 -231 -146.5 -356t-420.5 -125h-652l113 651h-535l-114 -651h-307z" />
<glyph unicode="&#x40b;" horiz-adv-x="1677" d="M303 0l213 1212h-414l45 261h1108l-45 -261h-387l-61 -352q74 88 170.5 130t222.5 42q172 0 265 -77.5t93 -221.5q0 -27 -3.5 -59.5t-10.5 -69.5l-108 -604h-308l103 580q4 19 6 37t2 30q0 65 -42 99t-122 34q-137 0 -221.5 -77t-112.5 -228l-86 -475h-307z" />
<glyph unicode="&#x40c;" horiz-adv-x="1284" d="M285 1473h305l-103 -590l560 590h370l-620 -629l428 -844h-330l-313 631l-168 -170l-82 -461h-307zM764 1604h-141l237 370h289z" />
<glyph unicode="&#x40e;" horiz-adv-x="1249" d="M-76 -2l60 248q58 -19 102 -28t78 -9q76 0 131.5 36t105.5 120l54 88l-320 1020h301l211 -728l406 728h331l-727 -1233q-87 -149 -207.5 -220t-285.5 -71q-57 0 -117 12t-123 37zM542 1939h181v-18q0 -77 25 -116.5t75 -39.5q59 0 104 46t66 128h176 q-46 -155 -136.5 -229t-234.5 -74q-130 0 -194 62.5t-64 191.5q0 21 0.5 30.5t1.5 18.5z" />
<glyph unicode="&#x40f;" horiz-adv-x="1530" d="M977 270l219 1203h307l-260 -1473h-475l-53 -301h-264l53 301h-481l260 1473h307l-215 -1203h602z" />
<glyph unicode="&#x410;" horiz-adv-x="1327" d="M762 1165l-307 -622h387zM625 1473h356l233 -1473h-305l-35 287h-546l-146 -287h-327z" />
<glyph unicode="&#x411;" horiz-adv-x="1329" d="M375 254h284q143 0 211 57.5t68 177.5q0 93 -55 140t-164 47h-266zM23 0l264 1473h983l-45 -261h-674l-55 -297h272q243 0 363 -106.5t120 -323.5q0 -236 -145.5 -360.5t-421.5 -124.5h-661z" />
<glyph unicode="&#x412;" horiz-adv-x="1432" d="M444 653l-71 -399h340q140 0 208 55t68 168q0 84 -58 130t-163 46h-324zM545 1221l-58 -328h330q122 0 181 45t59 137q0 73 -48 109.5t-143 36.5h-321zM287 1473h585q239 0 363.5 -97t124.5 -282q0 -126 -60 -215t-176 -134q87 -41 129.5 -111.5t42.5 -172.5 q0 -225 -142.5 -343t-414.5 -118h-716z" />
<glyph unicode="&#x413;" horiz-adv-x="1038" d="M1165 1473l-45 -261h-571l-219 -1212h-307l262 1473h880z" />
<glyph unicode="&#x414;" horiz-adv-x="1729" d="M1208 1212h-420q-80 -346 -155 -562.5t-168 -379.5h577zM-41 270h193q123 203 217 478t188 725h1008l-213 -1203h264l-100 -571h-265l54 301h-1129l-51 -301h-266z" />
<glyph unicode="&#x415;" horiz-adv-x="1251" d="M287 1473h968l-45 -261h-663l-62 -313h623l-51 -262h-615l-65 -383h706l-47 -254h-1013z" />
<glyph unicode="&#x416;" horiz-adv-x="1878" d="M754 457l-97 174l-501 -631h-334l702 864l-340 609h342l299 -613l105 613h287l-109 -623l530 623h347l-584 -629l385 -844h-305l-281 629l-160 -172l-79 -457h-289z" />
<glyph unicode="&#x417;" horiz-adv-x="1329" d="M-45 440h307v-4q0 -102 74 -160.5t205 -58.5q150 0 246 71t96 179q0 84 -67.5 128t-197.5 44q-8 0 -35.5 2t-47.5 2h-35l39 236q13 0 33.5 -1t27.5 -1q174 0 272.5 60.5t98.5 166.5q0 73 -58.5 112t-169.5 39q-134 0 -222.5 -62.5t-104.5 -170.5h-293q31 226 211.5 357.5 t460.5 131.5q222 0 349.5 -91t127.5 -249q0 -139 -87.5 -244t-246.5 -157q124 -31 187 -99t63 -171q0 -230 -196.5 -383.5t-506.5 -153.5q-261 0 -396.5 106t-135.5 310q0 16 0.5 31t1.5 30z" />
<glyph unicode="&#x418;" horiz-adv-x="1491" d="M23 0l262 1473h309l-166 -918l721 823l16 95h303l-262 -1473h-305l160 918l-713 -809l-18 -109h-307z" />
<glyph unicode="&#x419;" horiz-adv-x="1491" d="M633 1943l180 1v-19q0 -78 25.5 -118t74.5 -40q59 0 104.5 46.5t65.5 130.5h179q-47 -156 -138 -231t-235 -75q-131 0 -194.5 64t-63.5 194q0 19 0.5 29.5t1.5 17.5zM23 0l262 1473h309l-166 -918l721 823l16 95h303l-262 -1473h-305l160 918l-713 -809l-18 -109h-307z " />
<glyph unicode="&#x41a;" horiz-adv-x="1284" d="M285 1473h305l-103 -590l560 590h370l-620 -629l428 -844h-330l-313 631l-168 -170l-82 -461h-307z" />
<glyph unicode="&#x41b;" horiz-adv-x="1464" d="M442 348q-35 -201 -128.5 -299t-247.5 -98q-52 0 -102 9t-101 28l55 243q25 -6 43.5 -9t30.5 -3q67 0 102 46t58 169l182 1039h1106l-260 -1473h-308l215 1212h-489z" />
<glyph unicode="&#x41c;" horiz-adv-x="1794" d="M281 1473h450l111 -1061l487 1061h443l-267 -1473h-288l229 1196l-537 -1196h-282l-115 1171l-203 -1171h-286z" />
<glyph unicode="&#x41d;" horiz-adv-x="1491" d="M285 1473h309l-100 -566h569l102 566h303l-262 -1473h-305l113 647h-570l-114 -647h-307z" />
<glyph unicode="&#x41e;" horiz-adv-x="1608" d="M854 1247q-205 0 -333 -177.5t-128 -459.5q0 -185 93 -286t264 -101q99 0 181.5 43t139.5 125q65 95 103 223t38 252q0 185 -92 283t-266 98zM84 610q0 391 225 647t568 256q303 0 475 -176t172 -487q0 -186 -64 -357.5t-182 -299.5q-106 -117 -245 -176.5t-304 -59.5 q-305 0 -475 173.5t-170 479.5z" />
<glyph unicode="&#x41f;" horiz-adv-x="1505" d="M23 0l262 1473h1198l-262 -1473h-306l213 1212h-581l-217 -1212h-307z" />
<glyph unicode="&#x420;" horiz-adv-x="1358" d="M543 1206l-78 -450h237q149 0 224 64t75 192q0 94 -57 144t-164 50h-237zM281 1473h505q246 0 380 -116t134 -329q0 -252 -157 -387t-453 -135h-272l-92 -506h-303z" />
<glyph unicode="&#x421;" horiz-adv-x="1509" d="M1397 506q-43 -254 -223 -397.5t-455 -143.5q-296 0 -463.5 176.5t-167.5 489.5q0 386 216 631t558 245q274 0 425.5 -139t155.5 -393h-300v8q0 125 -77.5 196.5t-213.5 71.5q-197 0 -323 -177t-126 -453q0 -185 90 -283t259 -98q134 0 221.5 69.5t113.5 196.5h310z" />
<glyph unicode="&#x422;" horiz-adv-x="1159" d="M516 1212h-414l45 261h1113l-46 -261h-387l-213 -1212h-311z" />
<glyph unicode="&#x423;" horiz-adv-x="1249" d="M-76 -2l60 248q58 -19 102 -28t78 -9q76 0 131.5 36t105.5 120l54 88l-320 1020h301l211 -728l406 728h331l-727 -1233q-87 -149 -207.5 -220t-285.5 -71q-57 0 -117 12t-123 37z" />
<glyph unicode="&#x424;" horiz-adv-x="1731" d="M954 422q198 26 302 122.5t104 254.5q0 114 -74 183t-217 89zM662 426l112 645q-202 -25 -301.5 -123t-99.5 -272q0 -101 74.5 -165.5t214.5 -84.5zM610 193q-258 28 -394 147.5t-136 316.5q0 282 193 453.5t536 194.5l35 206h309l-35 -208q261 -31 397 -151t136 -318 q0 -278 -194 -451t-535 -197l-43 -229h-312z" />
<glyph unicode="&#x425;" horiz-adv-x="1120" d="M401 754l-329 719h319l199 -457l301 457h338l-508 -719l350 -754h-323l-220 496l-333 -496h-336z" />
<glyph unicode="&#x426;" horiz-adv-x="1599" d="M1532 270l-98 -571h-265l52 301h-1198l260 1473h307l-215 -1203h581l218 1203h309l-215 -1203h264z" />
<glyph unicode="&#x427;" horiz-adv-x="1389" d="M926 727l131 746h309l-260 -1473h-307l84 475q-108 -43 -205.5 -65.5t-179.5 -22.5q-180 0 -295 100t-115 258q0 24 2.5 51t7.5 55l109 622h307l-94 -526q-9 -56 -11.5 -77.5t-2.5 -38.5q0 -91 54 -141.5t152 -50.5q67 0 145.5 22t168.5 66z" />
<glyph unicode="&#x428;" horiz-adv-x="2116" d="M23 0l260 1473h309l-215 -1203h442l213 1203h307l-213 -1203h441l215 1203h307l-260 -1473h-1806z" />
<glyph unicode="&#x429;" horiz-adv-x="2212" d="M23 0l260 1473h309l-215 -1203h442l213 1203h307l-213 -1203h441l215 1203h307l-213 -1203h264l-100 -571h-264l53 301h-1806z" />
<glyph unicode="&#x42a;" horiz-adv-x="1616" d="M662 254h284q143 0 211 57.5t68 177.5q0 93 -55 140t-164 47h-267zM309 0l219 1212h-469l45 261h777l-99 -558h273q243 0 363 -106.5t120 -323.5q0 -236 -145.5 -360.5t-421.5 -124.5h-662z" />
<glyph unicode="&#x42b;" horiz-adv-x="1960" d="M23 0l264 1473h307l-98 -558h272q243 0 363 -106.5t120 -323.5q0 -236 -145.5 -360.5t-421.5 -124.5h-661zM375 254h284q143 0 211 57.5t68 177.5q0 93 -55 140t-164 47h-266zM1933 1473l-268 -1473h-309l270 1473h307z" />
<glyph unicode="&#x42c;" horiz-adv-x="1329" d="M23 0l264 1473h307l-98 -558h272q243 0 363 -106.5t120 -323.5q0 -236 -145.5 -360.5t-421.5 -124.5h-661zM375 254h284q143 0 211 57.5t68 177.5q0 93 -55 140t-164 47h-266z" />
<glyph unicode="&#x42d;" horiz-adv-x="1526" d="M17 506h305q6 -126 84.5 -196t211.5 -70q171 0 295 106t177 299h-574l43 260h569q0 167 -86.5 257.5t-246.5 90.5q-148 0 -249.5 -71t-133.5 -197h-306q59 253 251 389.5t489 136.5q286 0 446 -147.5t160 -411.5q0 -186 -55.5 -367.5t-151.5 -310.5 q-111 -150 -282 -232.5t-369 -82.5q-266 0 -423 126.5t-157 338.5q0 36 0.5 52t2.5 30z" />
<glyph unicode="&#x42e;" horiz-adv-x="2150" d="M1397 1247q-205 0 -333 -177.5t-128 -459.5q0 -185 93 -286t263 -101q100 0 182.5 43t139.5 125q65 95 103 223t38 252q0 185 -92.5 283t-265.5 98zM627 647h-183l-114 -647h-307l262 1473h309l-100 -566h174q85 287 283.5 446.5t469.5 159.5q302 0 473.5 -176 t171.5 -487q0 -186 -64 -357.5t-181 -299.5q-106 -117 -245 -176.5t-304 -59.5q-314 0 -479.5 177t-165.5 513z" />
<glyph unicode="&#x42f;" horiz-adv-x="1417" d="M946 825l68 389h-326q-120 0 -186 -63.5t-66 -179.5q0 -75 47.5 -110.5t149.5 -35.5h313zM901 578h-285q-120 0 -176 -48.5t-84 -185.5l-32 -160q-14 -62 -30 -105.5t-38 -78.5h-332l8 45q59 27 84 154q2 9 2 12l39 174q32 150 85.5 219t154.5 103q-85 23 -130.5 92 t-45.5 176q0 98 38 193t105 165q69 73 171.5 106.5t266.5 33.5h666l-260 -1473h-309z" />
<glyph unicode="&#x430;" horiz-adv-x="1139" d="M659 399l23 125q-65 -20 -178 -42q-217 -41 -217 -167q0 -49 34 -78.5t93 -29.5q93 0 161.5 53.5t83.5 138.5zM391 788h-278q27 170 140 251t320 81q206 0 322.5 -82t116.5 -225q0 -15 -1.5 -30.5t-4.5 -32.5l-101 -578q-3 -20 -4.5 -36t-1.5 -32q0 -27 6.5 -44.5 t22.5 -32.5v-27h-299v109q-71 -70 -142.5 -101t-160.5 -31q-151 0 -238.5 84t-87.5 226q0 184 105.5 277t355.5 120q24 3 65 7q197 19 197 114q0 44 -45 71t-121 27q-74 0 -114.5 -28t-51.5 -87z" />
<glyph unicode="&#x431;" horiz-adv-x="1262" d="M643 889q-134 0 -225.5 -124.5t-91.5 -303.5q0 -121 59.5 -188.5t167.5 -67.5q134 0 224.5 121t90.5 301q0 123 -59.5 192.5t-165.5 69.5zM225 907q102 111 213.5 164t243.5 53q220 0 348.5 -136t128.5 -367q0 -285 -173.5 -469.5t-444.5 -184.5q-236 0 -371 135 t-135 369q0 135 35 278.5t98 268.5q80 158 185 253.5t249 139.5q89 27 259 36.5t224 63.5h195q-39 -145 -144 -208t-440 -78q-169 -8 -289 -89t-182 -229z" />
<glyph unicode="&#x432;" horiz-adv-x="1124" d="M10 0l189 1090h479q177 0 269.5 -72t92.5 -209q0 -93 -44.5 -159.5t-129.5 -98.5q65 -29 96 -81t31 -130q0 -165 -106 -252.5t-307 -87.5h-570zM324 238h213q107 0 147.5 27.5t40.5 92.5q0 60 -33.5 84.5t-126.5 24.5h-198zM403 676h201q98 0 132 22t34 76 q0 51 -27.5 71.5t-109.5 20.5h-199z" />
<glyph unicode="&#x433;" horiz-adv-x="860" d="M899 1090l-37 -224h-426l-153 -866h-287l192 1090h711z" />
<glyph unicode="&#x434;" horiz-adv-x="1399" d="M408 238h360l111 628h-258q-49 -219 -101 -373t-112 -255zM125 -2l-37 -223h-244l82 463h201q80 125 144.5 317t136.5 535h794l-151 -852h243l-77 -463h-246l39 223h-885z" />
<glyph unicode="&#x435;" horiz-adv-x="1190" d="M791 653q0 6 1 18.5t1 18.5q0 102 -48 153.5t-143 51.5q-98 0 -163.5 -63t-88.5 -179h441zM1036 313q-44 -162 -184 -254t-340 -92q-224 0 -348.5 136.5t-124.5 379.5q0 280 157.5 458.5t405.5 178.5q224 0 351.5 -127t127.5 -350q0 -35 -4 -78.5t-14 -113.5h-739v-7 q0 -116 53 -178.5t151 -62.5q67 0 115 27t80 83h313z" />
<glyph unicode="&#x436;" horiz-adv-x="1694" d="M643 324l-76 100l-379 -424h-340l566 618l-340 469h332l296 -434l76 437h252l-78 -445l412 445h328l-457 -459l313 -631h-305l-213 436l-139 -133l-51 -303h-254z" />
<glyph unicode="&#x437;" horiz-adv-x="1069" d="M-31 317h277q13 -61 56.5 -90.5t117.5 -29.5q98 0 162.5 45.5t64.5 111.5q0 53 -42 81t-122 28h-12q-42 2 -78 2l35 199h37q125 0 185.5 35t60.5 108q0 43 -33 65.5t-96 22.5q-94 0 -152 -36.5t-72 -104.5h-270q27 180 164 276t369 96q176 0 271 -65.5t95 -186.5 q0 -105 -63 -183t-179 -118q95 -23 142 -73.5t47 -130.5q0 -175 -149.5 -288.5t-393.5 -113.5q-214 0 -318 75t-104 228v47z" />
<glyph unicode="&#x438;" horiz-adv-x="1217" d="M-4 0l197 1090h282l-106 -605l483 533l14 72h285l-195 -1090h-282l112 625l-489 -541l-14 -84h-287z" />
<glyph unicode="&#x439;" horiz-adv-x="1217" d="M424 1554h180v-18q0 -77 25.5 -116.5t75.5 -39.5q59 0 104 46t65 128h179q-46 -155 -137.5 -229t-235.5 -74q-131 0 -194.5 62.5t-63.5 191.5q0 21 0.5 31t1.5 18zM-4 0l197 1090h282l-106 -605l483 533l14 72h285l-195 -1090h-282l112 625l-489 -541l-14 -84h-287z" />
<glyph unicode="&#x43a;" horiz-adv-x="1081" d="M473 1090l-76 -439l406 439h332l-457 -459l313 -631h-309l-211 426l-137 -135l-51 -291h-287l192 1090h285z" />
<glyph unicode="&#x43b;" horiz-adv-x="1157" d="M-66 242q15 -5 29 -7t31 -2q40 0 63.5 36.5t38.5 121.5l121 699h873l-195 -1090h-287l156 866h-299l-107 -606q-27 -155 -100.5 -224t-212.5 -69q-39 0 -76.5 6.5t-77.5 20.5z" />
<glyph unicode="&#x43c;" horiz-adv-x="1419" d="M485 0l-86 879l-149 -879h-254l192 1090h381l74 -771l350 771h363l-197 -1090h-250l172 887l-399 -887h-197z" />
<glyph unicode="&#x43d;" horiz-adv-x="1180" d="M479 1090l-69 -388h350l71 388h283l-192 -1090h-287l82 463h-352l-82 -463h-287l197 1090h286z" />
<glyph unicode="&#x43e;" horiz-adv-x="1262" d="M643 889q-134 0 -225.5 -124.5t-91.5 -303.5q0 -121 59.5 -188.5t167.5 -67.5q134 0 224.5 121t90.5 301q0 123 -59.5 192.5t-165.5 69.5zM33 469q0 287 176 471t450 184q236 0 368 -133t132 -370q0 -285 -173.5 -469.5t-444.5 -184.5q-233 0 -370.5 136.5t-137.5 365.5z " />
<glyph unicode="&#x43f;" horiz-adv-x="1208" d="M-4 0l192 1090h955l-195 -1090h-286l155 866h-381l-155 -866h-285z" />
<glyph unicode="&#x440;" horiz-adv-x="1247" d="M653 893q-120 0 -201 -121t-81 -305q0 -115 53.5 -179.5t146.5 -64.5q123 0 201 122.5t78 318.5q0 109 -51.5 169t-145.5 60zM193 1092h258l-33 -179q65 109 146.5 160t189.5 51q180 0 285.5 -121.5t105.5 -330.5q0 -300 -146 -500.5t-362 -200.5q-121 0 -199.5 57.5 t-113.5 170.5l-113 -635h-285z" />
<glyph unicode="&#x441;" horiz-adv-x="1176" d="M1055 391q-35 -202 -170.5 -312t-347.5 -110q-237 0 -365.5 135t-128.5 383q0 284 157 459.5t414 175.5q219 0 338.5 -105.5t126.5 -305.5h-288q-2 85 -48 130.5t-133 45.5q-123 0 -200.5 -118.5t-77.5 -305.5q0 -122 56 -188t159 -66q82 0 139 47.5t80 134.5h289z" />
<glyph unicode="&#x442;" horiz-adv-x="922" d="M629 866l-154 -866h-287l154 866h-309l37 224h905l-37 -224h-309z" />
<glyph unicode="&#x443;" horiz-adv-x="1044" d="M-6 -205q8 0 25 -2q39 -4 59 -4q75 0 112 38.5t37 117.5q0 25 -7 80l-1 6l-170 1061h283l108 -797l361 797h299l-670 -1319q-59 -117 -127.5 -165t-173.5 -48q-35 0 -75.5 4.5t-85.5 13.5z" />
<glyph unicode="&#x444;" horiz-adv-x="1870" d="M1020 383q33 -77 82 -117.5t108 -40.5q112 0 187.5 125t75.5 316q0 107 -47.5 166t-133.5 59q-61 0 -114 -33t-97 -98zM723 383l65 375q-42 71 -89.5 105t-104.5 34q-111 0 -187.5 -123.5t-76.5 -300.5q0 -113 47 -179.5t125 -66.5q57 0 114.5 40.5t106.5 115.5zM686 154 q-73 -91 -148 -134t-159 -43q-150 0 -244 128.5t-94 336.5q0 296 143.5 489t362.5 193q95 0 167.5 -43.5t112.5 -126.5l91 519h286l-86 -508q56 81 132 120t175 39q152 0 248 -120.5t96 -317.5q0 -304 -142.5 -507.5t-350.5 -203.5q-113 0 -188 57.5t-105 166.5l-111 -635 h-290z" />
<glyph unicode="&#x445;" horiz-adv-x="973" d="M289 543l-273 549h306l139 -326l207 326h323l-393 -549l281 -543h-312l-135 313l-211 -313h-325z" />
<glyph unicode="&#x446;" horiz-adv-x="1305" d="M479 1090l-153 -852h381l151 852h285l-150 -852h248l-80 -463h-246l37 225h-956l197 1090h286z" />
<glyph unicode="&#x447;" horiz-adv-x="1108" d="M1040 1090l-190 -1090h-289l57 342q-108 -38 -167 -50.5t-113 -12.5q-147 0 -234.5 72t-87.5 194q0 14 2 32t7 46l84 467h288l-65 -371q-5 -31 -7.5 -54t-2.5 -40q0 -63 32.5 -94t98.5 -31q45 0 95.5 14t108.5 43l95 533h288z" />
<glyph unicode="&#x448;" horiz-adv-x="1876" d="M1374 238l150 852h286l-192 -1090h-1622l197 1090h286l-153 -852h381l151 852h285l-150 -852h381z" />
<glyph unicode="&#x449;" horiz-adv-x="1970" d="M1374 238l150 852h286l-149 -852h248l-80 -463h-248l37 225h-1622l197 1090h286l-153 -852h381l151 852h285l-150 -852h381z" />
<glyph unicode="&#x44a;" horiz-adv-x="1323" d="M539 240h239q111 0 150 28.5t39 98.5q0 55 -37 79.5t-123 24.5h-227zM221 0l146 866h-365l37 224h647l-70 -396h228q203 0 296 -76t93 -241q0 -189 -104.5 -283t-313.5 -94h-594z" />
<glyph unicode="&#x44b;" horiz-adv-x="1634" d="M1288 1092h283l-191 -1092h-284zM328 240h239q111 0 150 28.5t39 98.5q0 55 -37 79.5t-123 24.5h-227zM10 0l189 1090h276l-69 -396h227q203 0 296 -76t93 -241q0 -189 -104.5 -283t-313.5 -94h-594z" />
<glyph unicode="&#x44c;" horiz-adv-x="1112" d="M10 0l189 1090h276l-69 -396h227q203 0 296 -76t93 -241q0 -189 -104.5 -283t-313.5 -94h-594zM328 240h239q111 0 150 28.5t39 98.5q0 55 -37 79.5t-123 24.5h-227z" />
<glyph unicode="&#x44d;" horiz-adv-x="1204" d="M2 411l291 1v-13q0 -94 50 -143t146 -49q118 0 196.5 70.5t107.5 201.5h-369l35 207h362v29q0 77 -55.5 124.5t-151.5 47.5q-104 0 -171 -46t-95 -136h-289q51 202 202 310.5t380 108.5q227 0 347 -111.5t120 -322.5q0 -325 -180.5 -526t-476.5 -201q-212 0 -331.5 101.5 t-119.5 279.5q0 28 0.5 42t1.5 25z" />
<glyph unicode="&#x44e;" horiz-adv-x="1753" d="M1137 889q-134 0 -227 -125t-93 -303q0 -121 60.5 -188.5t169.5 -67.5q133 0 224 121t91 301q0 123 -60 192.5t-165 69.5zM524 463h-159l-82 -463h-287l197 1090h286l-69 -388h153q71 202 224 312t364 110q236 0 369 -133.5t133 -369.5q0 -285 -173.5 -469.5 t-445.5 -184.5q-232 0 -364.5 129t-145.5 367z" />
<glyph unicode="&#x44f;" horiz-adv-x="1094" d="M705 870h-197q-90 0 -133 -33.5t-43 -103.5q0 -55 36.5 -80.5t116.5 -25.5h177zM1028 1090l-192 -1090h-285l72 410h-156q-90 0 -132 -37.5t-61 -134.5l-18 -100q-7 -40 -20.5 -75.5t-30.5 -62.5h-285l6 34q25 12 39 34t27 88l26 131q23 108 62.5 159.5t116.5 77.5 q-65 19 -98 68.5t-33 128.5q0 177 111 273t319 96h532z" />
<glyph unicode="&#x451;" horiz-adv-x="1190" d="M719 1524h227l-43 -246h-225zM377 1524h223l-43 -246h-225zM350 653h441q0 6 1 18.5t1 18.5q0 102 -48 153.5t-143 51.5q-98 0 -163.5 -63t-88.5 -179zM1036 313q-44 -162 -184 -254t-340 -92q-224 0 -348.5 136.5t-124.5 379.5q0 280 157.5 458.5t405.5 178.5 q224 0 351.5 -127t127.5 -350q0 -35 -4 -78.5t-14 -113.5h-739v-7q0 -116 53 -178.5t151 -62.5q67 0 115 27t80 83h313z" />
<glyph unicode="&#x452;" horiz-adv-x="1229" d="M4 0l207 1174h-150l29 161h150l22 138h287l-25 -138h328l-27 -161h-329l-52 -283q83 89 162.5 128.5t175.5 39.5q144 0 230 -81t86 -216q0 -24 -4 -57t-11 -71l-125 -693q-38 -215 -118 -294t-254 -79q-40 0 -61.5 1t-41.5 3l33 225h12q71 0 97.5 23.5t40.5 99.5l125 707 q4 22 6 38.5t2 28.5q0 59 -34 92t-93 33q-110 0 -188 -79.5t-103 -217.5l-92 -522h-285z" />
<glyph unicode="&#x453;" horiz-adv-x="860" d="M899 1090l-37 -224h-426l-153 -866h-287l192 1090h711zM475 1219h-141l237 370h289z" />
<glyph unicode="&#x454;" horiz-adv-x="1204" d="M711 686l-37 -207h-352v-6q0 -132 56 -199t167 -67q97 0 160.5 47t87.5 137h288q-35 -206 -173 -314t-365 -108q-242 0 -371 134t-129 384q0 290 160.5 463.5t429.5 173.5q224 0 345.5 -105.5t129.5 -307.5h-289q-2 87 -49.5 131.5t-138.5 44.5q-108 0 -172 -48t-97 -153 h349z" />
<glyph unicode="&#x455;" horiz-adv-x="1057" d="M280 371q5 -90 57.5 -138.5t145.5 -48.5q77 0 117.5 30t40.5 87q0 71 -149 121q-13 4 -19 6q-220 71 -295.5 148t-75.5 206q0 159 114 247.5t319 88.5q206 0 320 -95t116 -267h-272q-10 73 -56 112t-125 39q-69 0 -107 -26.5t-38 -73.5q0 -66 191 -125l7 -2 q203 -63 275 -138.5t72 -205.5q0 -169 -119.5 -269t-323.5 -100q-222 0 -344.5 104.5t-122.5 295.5v4h272z" />
<glyph unicode="&#x456;" horiz-adv-x="545" d="M262 1473h287l-43 -256h-289zM195 1092h286l-190 -1092h-287z" />
<glyph unicode="&#x457;" horiz-adv-x="545" d="M471 1524h227l-43 -246h-227zM127 1524h225l-45 -246h-223zM195 1092h286l-190 -1092h-287z" />
<glyph unicode="&#x458;" horiz-adv-x="551" d="M268 1473h285l-45 -259h-287zM-162 -203h12q71 0 97.5 23t40.5 100l213 1172h284l-211 -1151q-39 -217 -118.5 -296t-247.5 -79q-25 0 -50 1.5t-52 4.5z" />
<glyph unicode="&#x459;" horiz-adv-x="1747" d="M1231 471h-248l-41 -231h262q111 0 149 28t38 99q0 55 -37 79.5t-123 24.5zM-66 242q15 -5 29 -7t31 -2q40 0 63.5 36.5t38.5 121.5l121 699h873l-70 -396h250q203 0 296 -76t93 -241q0 -189 -104.5 -283t-313.5 -94h-633l156 866h-297l-109 -606q-27 -155 -100.5 -224 t-212.5 -69q-39 0 -76.5 6.5t-77.5 20.5z" />
<glyph unicode="&#x45a;" horiz-adv-x="1751" d="M1008 467l-41 -227h239q105 0 147 28t42 92q0 58 -36 82.5t-124 24.5h-227zM479 1090l-71 -392h350l73 392h283l-70 -392h228q203 0 296 -76t93 -241q0 -191 -104.5 -286t-313.5 -95h-608l82 467h-352l-82 -467h-287l197 1090h286z" />
<glyph unicode="&#x45b;" horiz-adv-x="1237" d="M4 0l207 1174h-150l29 161h150l22 138h287l-25 -138h328l-27 -161h-329l-52 -279q92 92 169.5 128t179.5 36q143 0 228 -81t85 -216q0 -30 -3 -62t-9 -65l-115 -635h-289l111 627q4 22 6 38.5t2 28.5q0 61 -35.5 93t-101.5 32q-110 0 -188 -79t-103 -218l-92 -522h-285z " />
<glyph unicode="&#x45c;" horiz-adv-x="1081" d="M473 1090l-76 -439l406 439h332l-457 -459l313 -631h-309l-211 426l-137 -135l-51 -291h-287l192 1090h285zM586 1219h-141l237 370h289z" />
<glyph unicode="&#x45e;" horiz-adv-x="1044" d="M-6 -205q8 0 25 -2q39 -4 59 -4q75 0 112 38.5t37 117.5q0 25 -7 80l-1 6l-170 1061h283l108 -797l361 797h299l-670 -1319q-59 -117 -127.5 -165t-173.5 -48q-35 0 -75.5 4.5t-85.5 13.5zM364 1554h181v-18q0 -77 25 -116.5t75 -39.5q59 0 104 46t66 128h176 q-46 -155 -136.5 -229t-234.5 -74q-130 0 -194 62.5t-64 191.5q0 21 0.5 30.5t1.5 18.5z" />
<glyph unicode="&#x45f;" horiz-adv-x="1180" d="M479 1090l-153 -852h352l151 852h285l-190 -1090h-340l-39 -225h-246l39 225h-342l197 1090h286z" />
<glyph unicode="&#x490;" horiz-adv-x="1038" d="M901 1473l41 235h266l-88 -496h-571l-219 -1212h-307l262 1473h616z" />
<glyph unicode="&#x491;" horiz-adv-x="885" d="M686 1090l37 202h246l-74 -426h-459l-153 -866h-287l192 1090h498z" />
<glyph unicode="&#x1e80;" horiz-adv-x="1767" d="M246 0l-109 1473h287l43 -979l381 979h303l33 -953l383 953h301l-633 -1473h-291l-18 1065l-414 -1065h-266zM1074 1604l-291 370h252l168 -370h-129z" />
<glyph unicode="&#x1e81;" horiz-adv-x="1565" d="M172 0l-117 1092h277l55 -756l295 756h281l41 -748l307 748h293l-500 -1092h-289l-47 737l-295 -737h-301zM895 1219l-291 370h252l168 -370h-129z" />
<glyph unicode="&#x1e82;" horiz-adv-x="1767" d="M246 0l-109 1473h287l43 -979l381 979h303l33 -953l383 953h301l-633 -1473h-291l-18 1065l-414 -1065h-266zM1391 1974l-385 -370h-141l237 370h289z" />
<glyph unicode="&#x1e83;" horiz-adv-x="1565" d="M172 0l-117 1092h277l55 -756l295 756h281l41 -748l307 748h293l-500 -1092h-289l-47 737l-295 -737h-301zM1212 1589l-385 -370h-141l237 370h289z" />
<glyph unicode="&#x1e84;" horiz-adv-x="1767" d="M246 0l-109 1473h287l43 -979l381 979h303l33 -953l383 953h301l-633 -1473h-291l-18 1065l-414 -1065h-266zM1123 1663l43 246h229l-45 -246h-227zM781 1663l43 246h223l-43 -246h-223z" />
<glyph unicode="&#x1e85;" horiz-adv-x="1565" d="M172 0l-117 1092h277l55 -756l295 756h281l41 -748l307 748h293l-500 -1092h-289l-47 737l-295 -737h-301zM944 1278l43 246h229l-45 -246h-227zM602 1278l43 246h223l-43 -246h-223z" />
<glyph unicode="&#x1ef2;" horiz-adv-x="1145" d="M301 0l100 565l-364 908h328l221 -601l334 601h327l-547 -916l-92 -557h-307zM762 1604l-291 370h252l168 -370h-129z" />
<glyph unicode="&#x1ef3;" horiz-adv-x="1044" d="M-33 -422l27 217q13 -1 42 -3.5t42 -2.5q75 0 112 39.5t37 118.5q0 24 -6 72q-1 8 -2 12l-170 1061h283l108 -797l361 797h299l-670 -1319q-59 -117 -127.5 -165t-173.5 -48q-29 0 -65 4t-97 14zM635 1219l-291 370h252l168 -370h-129z" />
<glyph unicode="&#x2013;" horiz-adv-x="1024" d="M-53 436l39 217h1024l-39 -217h-1024z" />
<glyph unicode="&#x2014;" d="M-14 653h2048l-39 -217h-2048z" />
<glyph unicode="&#x2015;" d="M344 653h1327l-39 -217h-1325z" />
<glyph unicode="&#x2017;" horiz-adv-x="1024" d="M0 -330h1024v-153h-1024v153zM0 -61h1024v-154h-1024v154z" />
<glyph unicode="&#x2018;" horiz-adv-x="532" d="M166 956l47 248q26 139 118 221.5t224 85.5l-16 -94q-82 -12 -130 -59.5t-63 -128.5h156l-53 -273h-283z" />
<glyph unicode="&#x2019;" horiz-adv-x="532" d="M549 1473l-47 -250q-26 -139 -118 -221.5t-224 -85.5l16 96q81 12 128 59t63 129h-156l53 273h285z" />
<glyph unicode="&#x201a;" horiz-adv-x="532" d="M334 272l-47 -249q-26 -139 -118 -221.5t-224 -85.5l16 96q81 12 129 59t64 129h-154l51 272h283z" />
<glyph unicode="&#x201b;" horiz-adv-x="532" d="M166 956l47 248q26 139 118 221.5t224 85.5l-16 -94q-82 -12 -130 -59.5t-63 -128.5h156l-53 -273h-283z" />
<glyph unicode="&#x201c;" horiz-adv-x="920" d="M166 956l47 248q26 139 118 221.5t224 85.5l-16 -94q-82 -12 -130 -59.5t-63 -128.5h156l-53 -273h-283zM551 956l47 248q26 139 118 221.5t224 85.5l-16 -94q-81 -12 -128 -58.5t-63 -129.5h156l-53 -273h-285z" />
<glyph unicode="&#x201d;" horiz-adv-x="920" d="M934 1473l-47 -250q-26 -139 -118 -221.5t-224 -85.5l16 96q82 12 129.5 58.5t63.5 129.5h-156l53 273h283zM549 1473l-47 -250q-26 -139 -118 -221.5t-224 -85.5l16 96q81 12 128 59t63 129h-156l53 273h285z" />
<glyph unicode="&#x201e;" horiz-adv-x="920" d="M721 272l-47 -249q-26 -139 -118 -221.5t-224 -85.5l16 96q81 12 129.5 59t63.5 129h-156l53 272h283zM334 272l-47 -249q-26 -139 -118 -221.5t-224 -85.5l16 96q81 12 129 59t64 129h-154l51 272h283z" />
<glyph unicode="&#x2020;" horiz-adv-x="1024" d="M217 -213l191 1073h-326l31 178h331l74 432h234l-76 -432h338l-27 -178h-338l-182 -1073h-250z" />
<glyph unicode="&#x2021;" horiz-adv-x="1024" d="M211 -213l70 379h-326l29 178h331l95 567h-326l31 179h331l66 380h233l-67 -380h340l-27 -179h-340l-104 -567h340l-27 -178h-340l-59 -379h-250z" />
<glyph unicode="&#x2022;" horiz-adv-x="1208" d="M307 762q0 123 87 209t210 86q122 0 208.5 -86.5t86.5 -208.5t-87.5 -209.5t-209.5 -87.5q-123 0 -209 87t-86 210z" />
<glyph unicode="&#x2026;" d="M57 0l55 299h312l-54 -299h-313zM739 0l55 299h312l-54 -299h-313zM1423 0l55 299h312l-54 -299h-313z" />
<glyph unicode="&#x2030;" horiz-adv-x="2632" d="M2044 344q0 -66 45 -111t111 -45q63 0 109 46t46 110q0 65 -45.5 110.5t-109.5 45.5q-66 0 -111 -45t-45 -111zM1829 344q0 157 107 265t264 108q152 0 262 -110t110 -263q0 -152 -110 -262.5t-262 -110.5q-156 0 -263.5 108.5t-107.5 264.5zM1174 344q0 -66 44.5 -111 t110.5 -45q64 0 110 46t46 110q0 65 -45.5 110.5t-110.5 45.5q-66 0 -110.5 -45t-44.5 -111zM958 344q0 157 107.5 265t263.5 108q153 0 263 -110t110 -263q0 -152 -110.5 -262.5t-262.5 -110.5q-156 0 -263.5 108.5t-107.5 264.5zM377 -29l854 1473h160l-854 -1473h-160z M287 1071q0 -66 44.5 -111t110.5 -45q64 0 110 46.5t46 109.5q0 65 -45.5 111.5t-110.5 46.5t-110 -46t-45 -112zM72 1073q0 157 107 264t263 107q153 0 263 -109t110 -262q0 -152 -110.5 -262.5t-262.5 -110.5q-155 0 -262.5 108.5t-107.5 264.5z" />
<glyph unicode="&#x2032;" horiz-adv-x="674" d="M283 1430h219l-209 -547h-111z" />
<glyph unicode="&#x2033;" horiz-adv-x="872" d="M575 1430h218l-209 -547h-109zM221 1430h219l-211 -547h-108z" />
<glyph unicode="&#x2039;" horiz-adv-x="483" d="M297 137l-279 316l45 213l398 286l-51 -247l-236 -166l166 -189z" />
<glyph unicode="&#x203a;" horiz-adv-x="483" d="M135 952l279 -315l-43 -213l-400 -287l52 248l235 166l-166 188z" />
<glyph unicode="&#x203c;" horiz-adv-x="1352" d="M201 453l102 1020h311l-260 -1020h-153zM59 0l50 297h305l-47 -297h-308zM877 453l102 1020h311l-260 -1020h-153zM735 0l50 297h305l-47 -297h-308z" />
<glyph unicode="&#x203e;" horiz-adv-x="887" d="M242 1323l26 156h576l-29 -156h-573z" />
<glyph unicode="&#x2044;" horiz-adv-x="342" d="M-346 -41l870 1493h164l-872 -1493h-162z" />
<glyph unicode="&#x207f;" horiz-adv-x="924" d="M-2 709l145 764h197l-23 -117q68 75 132.5 108t144.5 33q110 0 175 -56.5t65 -152.5q0 -30 -2 -50t-7 -40l-94 -489h-217l92 484q3 17 4.5 29t1.5 19q0 42 -26.5 64t-77.5 22q-82 0 -140 -55t-77 -152l-78 -411h-215z" />
<glyph unicode="&#x20a3;" horiz-adv-x="1909" d="M23 0l270 1473h883l-48 -265h-573l-61 -340h532l-47 -262h-539l-110 -606h-307zM1143 0l195 1092h260l-43 -213q66 129 145 186t193 57q17 0 27 -0.5t18 -1.5l-54 -303q-36 8 -59 11t-39 3q-104 0 -169 -77t-95 -238l-92 -516h-287z" />
<glyph unicode="&#x20a4;" horiz-adv-x="1161" d="M127 -35l-37 209q90 52 144.5 128t72.5 175h-239l24 109h203l-21 110h-172l25 109h131q-7 52 -10.5 98t-3.5 84q0 217 124.5 338t350.5 121q205 0 317.5 -95.5t112.5 -269.5q0 -25 -2 -53.5t-6 -56.5h-258q4 23 6 46.5t2 47.5q0 77 -46 124.5t-122 47.5q-101 0 -150 -71 t-49 -218q0 -24 1.5 -59t5.5 -84h329l-20 -109h-291l8 -110h270l-22 -109h-250q-17 -83 -59 -142.5t-117 -109.5q72 19 111.5 26t70.5 7q37 0 131 -25.5t154 -25.5q55 0 107.5 23t95.5 65l-56 -262q-50 -35 -99.5 -51.5t-102.5 -16.5q-64 0 -198.5 45t-217.5 45 q-68 0 -129 -22t-119 -68z" />
<glyph unicode="&#x20a7;" horiz-adv-x="1497" d="M322 1221v-465h71q148 0 203 54.5t55 186.5q0 123 -54.5 173.5t-195.5 50.5h-79zM1042 1313h242v-269h137v-157h-137v-602q0 -67 25.5 -90t95.5 -23h33l-1 -174q-60 -2 -94 -3t-65 -1q-132 0 -184 49.5t-52 212.5v631h-106v157h106v269zM80 1391h373q221 0 318 -92.5 t97 -297.5q0 -204 -107.5 -308.5t-316.5 -104.5h-122v-588h-242v1391z" />
<glyph unicode="&#x20ac;" horiz-adv-x="1161" d="M92 901q61 297 202 451.5t351 154.5q214 0 337 -134.5t126 -372.5l-297 -1v43q0 116 -44.5 174t-131.5 58q-90 0 -145 -85.5t-93 -287.5h357l-49 -108h-328q-1 -8 -6 -45t-8 -68h290l-47 -109h-252q-2 -21 -3 -42.5t-1 -57.5q0 -137 44 -204.5t132 -67.5t147 72t79 204 h299q-41 -235 -186 -374.5t-347 -139.5q-225 0 -343 145.5t-118 423.5v41h-135l49 109h90q1 3 1 8q4 61 12 104l-164 1l49 108h133z" />
<glyph unicode="&#x2105;" horiz-adv-x="1878" d="M1489 498q-84 0 -142.5 -70t-58.5 -168q0 -69 38 -107t106 -38q84 0 141 67.5t57 167.5q0 70 -37 109t-104 39zM1104 262q0 160 111 263.5t284 103.5q148 0 232 -74.5t84 -206.5q0 -160 -110 -263t-282 -103q-146 0 -232.5 76t-86.5 204zM395 -41l871 1493h164 l-873 -1493h-162zM483 842h181q-22 -112 -107 -174t-219 -62q-150 0 -230.5 75t-80.5 214q0 159 99.5 257.5t260.5 98.5q137 0 212.5 -59.5t80.5 -171.5h-182q0 47 -29.5 72.5t-83.5 25.5q-78 0 -127 -65.5t-49 -169.5q0 -68 35.5 -106t99.5 -38q52 0 88 26.5t51 76.5z" />
<glyph unicode="&#x2113;" horiz-adv-x="1161" d="M539 332q16 -81 32 -104t47 -23q37 0 73.5 33.5t90.5 121.5l172 -124q-71 -137 -161.5 -202t-210.5 -65q-87 0 -145 45t-83 131q-52 -51 -118.5 -104.5t-149.5 -112.5l-111 191q80 55 157.5 122.5t156.5 151.5q0 1 -1 4t-1 4q0 8 -5 43q-22 147 -22 281q0 344 125 556 t320 212q110 0 177.5 -80.5t67.5 -210.5q0 -190 -108 -419t-303 -451zM494 618q102 163 162.5 327t60.5 261q0 33 -12.5 55.5t-28.5 22.5q-53 0 -118.5 -186t-65.5 -402q0 -13 1 -39t1 -39z" />
<glyph unicode="&#x2116;" horiz-adv-x="2189" d="M1980 137h-704l37 191h702zM1929 963q0 70 -37.5 114.5t-97.5 44.5q-82 0 -141.5 -83.5t-59.5 -200.5q0 -70 37.5 -113t98.5 -43q84 0 142 80.5t58 200.5zM1808 1305q158 0 249 -92t91 -250q0 -205 -119 -336t-307 -131q-160 0 -253 92.5t-93 253.5q0 202 121.5 332.5 t310.5 130.5zM289 1473h311l274 -994l177 994h276l-260 -1473h-309l-279 1006l-178 -1006h-281z" />
<glyph unicode="&#x2122;" horiz-adv-x="1706" d="M803 1462h196l127 -332l123 332h197v-547h-135v410l-154 -410h-61l-158 410v-410h-135v547zM207 1462h485v-112h-168v-435h-149v435h-168v112z" />
<glyph unicode="&#x2126;" horiz-adv-x="1575" d="M1227 256h291v-256h-609v291q126 86 192 217.5t66 296.5q0 203 -101.5 319.5t-279.5 116.5q-177 0 -278.5 -116.5t-101.5 -319.5q0 -164 66 -296.5t192 -217.5v-291h-609v256h291q-126 121 -187 260t-61 303q0 313 188 501.5t500 188.5q313 0 501 -188.5t188 -501.5 q0 -164 -61 -303t-187 -260z" />
<glyph unicode="&#x212e;" horiz-adv-x="1561" d="M397 606v-47q0 -239 105 -365t303 -126q172 0 276 94.5t113 258.5l225 1q-15 -222 -179.5 -342.5t-451.5 -120.5q-330 0 -498.5 165.5t-168.5 489.5q0 332 168 497t508 165q322 0 482.5 -155.5t160.5 -467.5v-47h-1043zM1163 715v33q0 208 -94.5 313.5t-280.5 105.5 q-194 0 -287 -107.5t-104 -344.5h766z" />
<glyph unicode="&#x215b;" horiz-adv-x="1806" d="M1477 676q-54 0 -87.5 -32.5t-33.5 -84.5q0 -46 30 -72t82 -26q53 0 86 32t33 82q0 48 -29 74.5t-81 26.5zM1417 346q-57 0 -93 -37.5t-36 -95.5q0 -51 32 -82t85 -31q61 0 98 39t37 103q0 46 -34 75t-89 29zM1286 432q-50 26 -76 65.5t-26 90.5q0 96 80 156.5t209 60.5 q134 0 213 -57.5t79 -153.5q0 -73 -39.5 -121.5t-119.5 -73.5q58 -29 86 -71t28 -101q0 -116 -84 -184t-229 -68q-137 0 -218 64.5t-81 171.5q0 83 44.5 138t133.5 83zM385 -41l870 1493h164l-872 -1493h-162zM233 623l113 583q-57 -14 -114 -21t-113 -7l22 110 q112 11 178.5 43t102.5 92h149l-155 -800h-183z" />
<glyph unicode="&#x215c;" horiz-adv-x="1804" d="M1477 676q-54 0 -87.5 -32.5t-33.5 -84.5q0 -46 30 -72t82 -26q53 0 86 32t33 82q0 48 -29 74.5t-81 26.5zM1417 346q-57 0 -93 -37.5t-36 -95.5q0 -51 32 -82t85 -31q61 0 98 39t37 103q0 46 -34 75t-89 29zM1286 432q-50 26 -76 65.5t-26 90.5q0 96 80 156.5t209 60.5 q134 0 213 -57.5t79 -153.5q0 -73 -39.5 -121.5t-119.5 -73.5q58 -29 86 -71t28 -101q0 -116 -84 -184t-229 -68q-137 0 -218 64.5t-81 171.5q0 83 44.5 138t133.5 83zM385 -41l870 1493h164l-872 -1493h-162zM8 866h174v-30q0 -51 33.5 -81t89.5 -30q69 0 111.5 37t42.5 96 q0 51 -35.5 80t-99.5 29q-5 0 -12 -1t-11 -1l25 118q87 0 133.5 31t46.5 88q0 46 -31 72t-86 26t-86 -30t-41 -92h-178q17 120 97 183.5t214 63.5q133 0 210 -57.5t77 -155.5q0 -68 -43.5 -117.5t-122.5 -72.5q62 -25 93.5 -67.5t31.5 -100.5q0 -115 -90 -184.5t-242 -69.5 q-142 0 -222.5 61.5t-80.5 169.5q0 15 0.5 21.5t1.5 13.5z" />
<glyph unicode="&#x215d;" horiz-adv-x="1804" d="M1477 676q-54 0 -87.5 -32.5t-33.5 -84.5q0 -46 30 -72t82 -26q53 0 86 32t33 82q0 48 -29 74.5t-81 26.5zM1417 346q-57 0 -93 -37.5t-36 -95.5q0 -51 32 -82t85 -31q61 0 98 39t37 103q0 46 -34 75t-89 29zM1286 432q-50 26 -76 65.5t-26 90.5q0 96 80 156.5t209 60.5 q134 0 213 -57.5t79 -153.5q0 -73 -39.5 -121.5t-119.5 -73.5q58 -29 86 -71t28 -101q0 -116 -84 -184t-229 -68q-137 0 -218 64.5t-81 171.5q0 83 44.5 138t133.5 83zM385 -41l870 1493h164l-872 -1493h-162zM27 838h174v-9q0 -49 30.5 -76.5t83.5 -27.5q78 0 124 49 t46 131q0 59 -35 92t-98 33q-42 0 -72 -14.5t-49 -42.5h-163l104 428h514l-24 -133h-371l-39 -146q27 17 63 25t82 8q128 0 199.5 -64.5t71.5 -181.5q0 -139 -98.5 -225t-262.5 -86q-131 0 -206.5 58.5t-75.5 158.5q0 6 0.5 11.5t1.5 11.5z" />
<glyph unicode="&#x215e;" horiz-adv-x="1804" d="M1477 676q-54 0 -87.5 -32.5t-33.5 -84.5q0 -46 30 -72t82 -26q53 0 86 32t33 82q0 48 -29 74.5t-81 26.5zM1417 346q-57 0 -93 -37.5t-36 -95.5q0 -51 32 -82t85 -31q61 0 98 39t37 103q0 46 -34 75t-89 29zM1286 432q-50 26 -76 65.5t-26 90.5q0 96 80 156.5t209 60.5 q134 0 213 -57.5t79 -153.5q0 -73 -39.5 -121.5t-119.5 -73.5q58 -29 86 -71t28 -101q0 -116 -84 -184t-229 -68q-137 0 -218 64.5t-81 171.5q0 83 44.5 138t133.5 83zM385 -41l870 1493h164l-872 -1493h-162zM145 623q11 142 104 305t263 340h-428l29 133h616l-27 -121 q-164 -176 -255 -337.5t-113 -319.5h-189z" />
<glyph unicode="&#x2190;" d="M797 1061l71 -176l-428 -168h1479v-193h-1479l424 -166l-71 -176l-664 340v195z" />
<glyph unicode="&#x2191;" horiz-adv-x="1024" d="M410 1438h194l340 -664l-174 -69l-168 423v-1480h-190v1478l-170 -428l-174 74z" />
<glyph unicode="&#x2192;" d="M1253 1061l666 -344v-195l-664 -340l-71 176l426 166h-1481v193h1481l-430 168z" />
<glyph unicode="&#x2193;" horiz-adv-x="1024" d="M412 1434h190v-1479l168 424l174 -72l-340 -661h-194l-342 665l174 72l170 -428v1479z" />
<glyph unicode="&#x2194;" d="M797 1061l71 -176l-428 -168h1170l-430 168l73 176l666 -344v-195l-664 -340l-71 176l426 166h-1170l424 -166l-71 -176l-664 340v195z" />
<glyph unicode="&#x2195;" horiz-adv-x="1024" d="M401 1470h222l280 -632l-149 -72l-158 405v-1261l158 405l149 -71l-280 -633h-222l-278 633l149 71l156 -405v1261l-156 -405l-149 72z" />
<glyph unicode="&#x21a8;" horiz-adv-x="1024" d="M90 -297h846v-162h-846v162zM401 1540h222l280 -569l-149 -70l-158 369v-1198l156 368l151 -71l-280 -568h-222l-280 568l149 71l158 -368v1198l-156 -369l-151 70z" />
<glyph unicode="&#x2202;" horiz-adv-x="1094" d="M762 662q19 99 29 188.5t10 155.5q0 100 -26 157.5t-70 57.5t-146 -73t-160 -73q-42 0 -71 30t-29 73q0 64 86.5 118t210.5 54q192 0 309 -161.5t117 -432.5q0 -339 -156.5 -560t-396.5 -221q-171 0 -282 114.5t-111 291.5q0 198 116 329.5t287 131.5q102 0 170 -43.5 t113 -136.5zM700 518q0 116 -38.5 178t-110.5 62q-101 0 -167.5 -134t-66.5 -341q0 -117 38.5 -177.5t111.5 -60.5q101 0 167 133.5t66 339.5z" />
<glyph unicode="&#x2206;" horiz-adv-x="1427" d="M713 1110l-326 -854h653zM563 1473h301l563 -1473h-1427z" />
<glyph unicode="&#x220f;" horiz-adv-x="1612" d="M150 1473h1308v-1866h-344v1577h-620v-1577h-344v1866z" />
<glyph unicode="&#x2211;" horiz-adv-x="1470" d="M66 1473h1308v-265h-878l620 -645l-622 -690h933v-266h-1386v172l698 772l-673 690v232z" />
<glyph unicode="&#x2212;" horiz-adv-x="1706" d="M254 713h1198v-203h-1198v203z" />
<glyph unicode="&#x2215;" horiz-adv-x="342" d="M-346 -41l870 1493h164l-872 -1493h-162z" />
<glyph unicode="&#x2219;" horiz-adv-x="582" d="M135 702q0 65 45.5 110.5t110.5 45.5t110 -45t45 -111q0 -64 -45 -109.5t-110 -45.5q-66 0 -111 44.5t-45 110.5z" />
<glyph unicode="&#x221a;" horiz-adv-x="1346" d="M1141 1694h207v-129h-103l-592 -1606h-100l-311 858l-140 -51l-30 113l331 116l236 -661z" />
<glyph unicode="&#x221e;" horiz-adv-x="1706" d="M942 561q45 -75 106.5 -113t139.5 -38q94 0 152.5 55.5t58.5 144.5q0 87 -54 143t-135 56q-75 0 -138 -57.5t-130 -190.5zM766 659q-44 75 -105.5 112.5t-140.5 37.5q-94 0 -152.5 -56t-58.5 -145q0 -85 54 -141.5t135 -56.5q75 0 138 58t130 191zM858 457 q-68 -132 -146.5 -195t-174.5 -63q-140 0 -236 117.5t-96 293.5q0 184 85.5 297t223.5 113q92 0 170 -60t164 -198q68 132 148 196t175 64q139 0 235.5 -118.5t96.5 -293.5q0 -183 -86 -296t-223 -113q-93 0 -170.5 58.5t-165.5 197.5z" />
<glyph unicode="&#x221f;" horiz-adv-x="1706" d="M225 1300h197v-1105h1059v-195h-1256v1300z" />
<glyph unicode="&#x2229;" horiz-adv-x="1706" d="M1489 0h-207v684q0 229 -111.5 351t-318.5 122q-203 0 -314.5 -123.5t-111.5 -351.5v-682h-209v690q0 138 23.5 236.5t72.5 171.5q80 119 223.5 186.5t317.5 67.5q156 0 286 -53.5t216 -151.5q70 -82 101.5 -187.5t31.5 -269.5v-690z" />
<glyph unicode="&#x222b;" horiz-adv-x="1186" d="M342 -252q102 0 121 639q3 136 6 211q16 508 123 732t328 224q98 0 157.5 -49t59.5 -129q0 -60 -38 -96.5t-100 -36.5q-46 0 -77 24t-41 68q-5 20 -7 54q-3 46 -30 47q-99 0 -119 -633q-4 -116 -6 -178q-11 -296 -31 -444.5t-59 -250.5q-56 -148 -148.5 -225.5 t-214.5 -77.5q-96 0 -156.5 49t-60.5 127q0 62 39 99t105 37q50 0 85 -31.5t35 -71.5q0 -58 6 -73t23 -15z" />
<glyph unicode="&#x2248;" horiz-adv-x="1706" d="M1530 596v-219q-106 -72 -198 -105.5t-181 -33.5q-95 0 -286.5 66.5t-301.5 66.5q-84 0 -174.5 -37t-210.5 -121v219q111 73 206.5 108t180.5 35q124 0 315.5 -65.5t274.5 -65.5q86 0 174 35.5t201 116.5zM1530 1008v-220q-106 -71 -196.5 -104t-180.5 -33 q-94 0 -286 65.5t-304 65.5q-82 0 -170 -35t-215 -122v219q107 71 204 107t183 36q125 0 316.5 -65.5t273.5 -65.5q84 0 171 35t204 117z" />
<glyph unicode="&#x2260;" horiz-adv-x="1706" d="M1198 1233l148 -119l-154 -192h260v-191h-389l-191 -239h580v-193h-707l-245 -309l-148 119l154 190h-252v193h377l190 239h-567v191h696z" />
<glyph unicode="&#x2261;" horiz-adv-x="1706" d="M254 322h1198v-187h-1198v187zM254 705h1198v-189h-1198v189zM254 1085h1198v-186h-1198v186z" />
<glyph unicode="&#x2264;" horiz-adv-x="1706" d="M258 195h1192v-197h-1192v197zM1448 1241v-209l-834 -264l834 -262v-209l-1190 385v174z" />
<glyph unicode="&#x2265;" horiz-adv-x="1706" d="M258 195h1192v-197h-1192v197zM260 1241l1188 -385v-174l-1188 -385v209l832 262l-832 264v209z" />
<glyph unicode="&#x2302;" horiz-adv-x="1778" d="M160 98h1460v674l-731 625l-729 -625v-674zM59 0v819l830 703l829 -703v-819h-1659z" />
<glyph unicode="&#x2310;" horiz-adv-x="1706" d="M254 864h1198v-196h-999v-306h-199v502z" />
<glyph unicode="&#x2320;" horiz-adv-x="1298" d="M772 -483h-252v336q0 932 117.5 1317.5t390.5 385.5q95 0 153 -50t58 -130q0 -63 -40.5 -103t-104.5 -40q-65 0 -97 33.5t-32 101.5v27q0 24 -8 36.5t-23 12.5q-87 0 -124.5 -367t-37.5 -1247v-313z" />
<glyph unicode="&#x2321;" horiz-adv-x="1298" d="M520 1565h252v-336q0 -926 -118.5 -1315t-391.5 -389q-95 0 -153 49.5t-58 128.5q0 63 41.5 103t106.5 40q64 0 95.5 -33.5t31.5 -101.5v-24q0 -23 8.5 -36t23.5 -13q88 0 125 362t37 1251v314z" />
<glyph unicode="&#x2500;" d="M-39 598h2126v-117h-2126v117z" />
<glyph unicode="&#x2502;" d="M965 1599h118v-2123h-118v2123z" />
<glyph unicode="&#x250c;" d="M965 598h1122v-117h-1004v-1005h-118v1122z" />
<glyph unicode="&#x2510;" d="M965 481h-1002v117h1120v-1122h-118v1005z" />
<glyph unicode="&#x2514;" d="M965 1599h118v-1001h1004v-117h-1122v1118z" />
<glyph unicode="&#x2518;" d="M-39 598h1004v1001h118v-1118h-1122v117z" />
<glyph unicode="&#x251c;" d="M965 1599h118v-1001h1004v-117h-1004v-1005h-118v2123z" />
<glyph unicode="&#x2524;" d="M965 481h-1004v117h1004v1001h118v-2123h-118v1005z" />
<glyph unicode="&#x252c;" d="M965 481h-1004v117h2126v-117h-1004v-1005h-118v1005z" />
<glyph unicode="&#x2534;" d="M-39 598h1004v1001h118v-1001h1004v-117h-2126v117z" />
<glyph unicode="&#x253c;" d="M965 481h-1004v117h1004v1001h118v-1001h1004v-117h-1004v-1005h-118v1005z" />
<glyph unicode="&#x2550;" d="M-39 422h2126v-117h-2126v117zM-39 774h2126v-115h-2126v115z" />
<glyph unicode="&#x2551;" d="M1262 1599v-2123h-119v2123h119zM905 1599v-2123h-119v2123h119z" />
<glyph unicode="&#x2552;" d="M965 774h1122v-115h-1004v-237h1004v-117h-1004v-829h-118v1298z" />
<glyph unicode="&#x2553;" d="M2087 598v-117h-825v-1005h-119v1005h-238v-1005h-119v1122h1301z" />
<glyph unicode="&#x2554;" d="M905 659v-1183h-119v1298h1301v-115h-1182zM1143 422h944v-117h-825v-829h-119v946z" />
<glyph unicode="&#x2555;" d="M965 305h-1004v117h1004v237h-1004v115h1122v-1290h-118v821z" />
<glyph unicode="&#x2556;" d="M1262 598v-1122h-119v1005h-238v-1005h-119v1005h-825v117h1301z" />
<glyph unicode="&#x2557;" d="M-39 774h1301v-1298h-119v1183h-1182v115zM786 -524v829h-825v117h944v-946h-119z" />
<glyph unicode="&#x2558;" d="M965 1599h118v-825h1004v-115h-1004v-237h1004v-117h-1122v1294z" />
<glyph unicode="&#x2559;" d="M905 1599v-1001h238v1001h119v-1001h825v-117h-1301v1118h119z" />
<glyph unicode="&#x255a;" d="M1262 1599v-825h825v-115h-944v940h119zM2087 305h-1301v1294h119v-1177h1182v-117z" />
<glyph unicode="&#x255b;" d="M-39 422h1004v237h-1004v115h1004v825h118v-1294h-1122v117z" />
<glyph unicode="&#x255c;" d="M786 598v1001h119v-1001h238v1001h119v-1118h-1301v117h825z" />
<glyph unicode="&#x255d;" d="M1143 422v1177h119v-1294h-1301v117h1182zM905 659h-944v115h825v825h119v-940z" />
<glyph unicode="&#x255e;" d="M965 1599h118v-825h1004v-115h-1004v-237h1004v-117h-1004v-829h-118v2123z" />
<glyph unicode="&#x255f;" d="M1262 1599v-1001h825v-117h-825v-1005h-119v2123h119zM786 -524v2123h119v-2123h-119z" />
<glyph unicode="&#x2560;" d="M1262 1599v-825h825v-115h-944v940h119zM1143 422h944v-117h-825v-829h-119v946zM786 -524v2123h119v-2123h-119z" />
<glyph unicode="&#x2561;" d="M965 305h-1004v117h1004v237h-1004v115h1004v825h118v-2123h-118v829z" />
<glyph unicode="&#x2562;" d="M1262 1599v-2123h-119v2123h119zM786 598v1001h119v-2123h-119v1005h-825v117h825z" />
<glyph unicode="&#x2563;" d="M905 659h-944v115h825v825h119v-940zM786 -524v829h-825v117h944v-946h-119zM1262 1599v-2123h-119v2123h119z" />
<glyph unicode="&#x2564;" d="M-39 774h2126v-115h-2126v115zM965 305h-1004v117h2126v-117h-1004v-829h-118v829z" />
<glyph unicode="&#x2565;" d="M2087 598v-117h-825v-1005h-119v1005h-238v-1005h-119v1005h-825v117h2126z" />
<glyph unicode="&#x2566;" d="M1143 422h944v-117h-825v-829h-119v946zM786 -524v829h-825v117h944v-946h-119zM2087 659h-2126v115h2126v-115z" />
<glyph unicode="&#x2567;" d="M-39 774h1004v825h118v-825h1004v-115h-2126v115zM2087 305h-2126v117h2126v-117z" />
<glyph unicode="&#x2568;" d="M786 598v1001h119v-1001h238v1001h119v-1001h825v-117h-2126v117h825z" />
<glyph unicode="&#x2569;" d="M1262 1599v-825h825v-115h-944v940h119zM905 659h-944v115h825v825h119v-940zM-39 305v117h2126v-117h-2126z" />
<glyph unicode="&#x256a;" d="M965 305h-1004v117h1004v237h-1004v115h1004v825h118v-825h1004v-115h-1004v-237h1004v-117h-1004v-829h-118v829z" />
<glyph unicode="&#x256b;" d="M786 598v1004h119v-1004h238v1004h119v-1004h825v-117h-825v-1005h-119v1005h-238v-1005h-119v1005h-825v117h825z" />
<glyph unicode="&#x256c;" d="M1143 422h944v-117h-825v-829h-119v946zM1262 1599v-825h825v-115h-944v940h119zM905 659h-944v115h825v825h119v-940zM786 -524v829h-825v117h944v-946h-119z" />
<glyph unicode="&#x2580;" d="M2087 1599v-1058h-2126v1058h2126z" />
<glyph unicode="&#x2584;" d="M2087 541v-1065h-2126v1065h2126z" />
<glyph unicode="&#x2588;" d="M2087 -524h-2126v2123h2126v-2123z" />
<glyph unicode="&#x258c;" d="M1024 1599v-2123h-1063v2123h1063z" />
<glyph unicode="&#x2590;" d="M2087 1599v-2123h-1063v2123h1063z" />
<glyph unicode="&#x2591;" d="M0 -143v342h340v-342h-340zM682 -143v342h342v-342h-342zM1366 -143v342h340v-342h-340zM1366 541v340h340v-340h-340zM1366 1223v342h340v-342h-340zM682 541v340h342v-340h-342zM0 541v340h340v-340h-340zM682 1223v342h342v-342h-342zM0 1223v342h340v-342h-340z" />
<glyph unicode="&#x2592;" d="M342 -483v340h340v-340h-340zM1024 -483v340h340v-340h-340zM1706 -483v340h342v-340h-342zM1706 199v342h342v-342h-342zM1706 881v342h342v-342h-342zM1366 -143v342h340v-342h-340zM682 -143v342h342v-342h-342zM0 -143v342h340v-342h-340zM1366 541v340h340v-340 h-340zM682 541v340h342v-340h-342zM0 541v340h340v-340h-340zM1366 1223v342h340v-342h-340zM682 1223v342h342v-342h-342zM0 1223v342h340v-342h-340zM1024 199v342h340v-342h-340zM342 199v342h340v-342h-340zM1024 881v342h340v-342h-340zM342 881v342h340v-342h-340z " />
<glyph unicode="&#x2593;" d="M1024 541v-342h342v342h-342zM1024 1223v-342h342v342h-342zM342 1223v-342h340v342h-340zM342 541v-342h340v342h-340zM1366 -143h-342v-381h-342v381h-340v-381h-342v2089h2087v-342h-381v-342h381v-340h-381v-342h381v-342h-381v-381h-340v381z" />
<glyph unicode="&#x25a0;" horiz-adv-x="1536" d="M51 1321h1434v-1432h-1434v1432z" />
<glyph unicode="&#x25a1;" d="M297 1270v-1458h1456v1458h-1456zM127 1438h1794v-1794h-1794v1794z" />
<glyph unicode="&#x25aa;" horiz-adv-x="1380" d="M170 164v1038h1040v-1038h-1040z" />
<glyph unicode="&#x25ab;" horiz-adv-x="1233" d="M180 123h873v872h-873v-872zM57 0v1118h1119v-1118h-1119z" />
<glyph unicode="&#x25ac;" horiz-adv-x="1939" d="M358 815h1223v-407h-1223v407z" />
<glyph unicode="&#x25b2;" horiz-adv-x="1233" d="M168 279l448 854l449 -854h-897z" />
<glyph unicode="&#x25ba;" horiz-adv-x="1233" d="M190 1133l852 -449l-852 -448v897z" />
<glyph unicode="&#x25bc;" horiz-adv-x="1233" d="M168 1087h897l-449 -851z" />
<glyph unicode="&#x25c4;" horiz-adv-x="1233" d="M1042 1133v-897l-852 448z" />
<glyph unicode="&#x25ca;" horiz-adv-x="1012" d="M506 1409l-385 -817l385 -825l385 825zM506 1653l500 -1061l-500 -1069l-500 1069z" />
<glyph unicode="&#x25cb;" horiz-adv-x="1606" d="M805 1245q-128 0 -247 -50t-212 -142q-90 -90 -139 -209t-49 -246q0 -268 188 -456.5t457 -188.5q267 0 456 189.5t189 455.5q0 268 -188.5 457.5t-454.5 189.5zM72 602q0 145 55 277t158 235q104 105 239 161t281 56q122 0 242.5 -43t218.5 -123q125 -102 196.5 -253 t71.5 -314q0 -145 -56 -280t-159 -238t-236 -158t-280 -55q-165 0 -312 69t-253 197q-82 98 -124 217.5t-42 251.5z" />
<glyph unicode="&#x25cf;" horiz-adv-x="1606" d="M72 602q0 145 55 277t158 235q104 105 239 161t281 56q122 0 242.5 -43t218.5 -123q125 -102 196.5 -253t71.5 -314q0 -145 -56 -280t-159 -238t-236 -158t-280 -55q-165 0 -312 69t-253 197q-82 98 -124 217.5t-42 251.5z" />
<glyph unicode="&#x25d8;" d="M0 -483v2048h2048v-2048h-2048zM1026 1051q-212 0 -362 -151t-150 -361q0 -212 148.5 -360t361.5 -148q211 0 360.5 149t149.5 359q0 211 -149.5 361.5t-358.5 150.5z" />
<glyph unicode="&#x25d9;" d="M434 541q0 245 173.5 418.5t418.5 173.5q244 0 417 -174t173 -418q0 -243 -173 -417.5t-419 -174.5t-418 172.5t-172 419.5zM1026 1272q-147 0 -282 -56t-238 -159t-158 -236t-55 -278q0 -132 42 -251.5t124 -217.5q106 -128 253 -197.5t312 -69.5q147 0 280 55t236 158 t159 238.5t56 280.5t-57 282.5t-158 237.5t-236.5 156.5t-277.5 56.5zM0 -483v2048h2048v-2048h-2048z" />
<glyph unicode="&#x25e6;" horiz-adv-x="1233" d="M815 610q0 82 -58.5 140.5t-140.5 58.5t-140 -58t-58 -141t58 -140.5t140 -57.5q83 0 141 58.5t58 139.5zM616 897q119 0 203 -83.5t84 -203.5q0 -118 -84.5 -203t-204.5 -85q-119 0 -202.5 84t-83.5 204t84.5 203.5t203.5 83.5z" />
<glyph unicode="&#x25fc;" horiz-adv-x="1090" d="M0 1090h1090v-1090h-1090v1090z" />
<glyph unicode="&#x263a;" horiz-adv-x="1796" d="M897 322q-114 0 -203 52t-157 158q-35 57 -59 121t-29 64q-12 0 -32 -31t-36 -31q-11 0 -17 7t-6 20q0 34 63 111t95 77q12 0 17.5 -3.5t5.5 -10.5q0 -9 -6.5 -35t-6.5 -43q0 -42 20.5 -97.5t55.5 -107.5q58 -84 129.5 -123.5t165.5 -39.5q89 0 156 33t123 104 q42 54 68 119.5t26 111.5q0 17 -7.5 43t-7.5 35q1 7 7 10.5t18 3.5q33 0 95.5 -77.5t62.5 -108.5q0 -15 -5.5 -22t-17.5 -7q-16 0 -36 31t-31 31q-6 0 -30 -64t-61 -121q-68 -106 -157 -158t-203 -52zM981 1022q0 35 12 51.5t37 16.5t36 -16t11 -52q0 -37 -11 -52.5 t-36 -15.5t-37 16.5t-12 51.5zM717 1022q0 35 12 51.5t37 16.5t37 -16.5t12 -51.5q0 -36 -11.5 -52t-37.5 -16q-25 0 -37 16.5t-12 51.5zM899 1343q-130 0 -251 -50.5t-216 -145.5q-93 -93 -142.5 -213.5t-49.5 -251.5q0 -274 191 -465.5t466 -191.5q274 0 466.5 192.5 t192.5 464.5q0 274 -192.5 467.5t-464.5 193.5zM166 686q0 144 56 277.5t159 236.5q104 104 238.5 159.5t281.5 55.5q124 0 244 -42.5t217 -121.5q125 -102 196.5 -253.5t71.5 -315.5q0 -144 -56.5 -279t-160.5 -239t-236 -158.5t-278 -54.5q-165 0 -312 69t-253 197 q-83 100 -125.5 219.5t-42.5 249.5z" />
<glyph unicode="&#x263b;" horiz-adv-x="1796" d="M436 688q8 0 27 -52.5t43 -94.5q69 -124 166 -185t225 -61q118 0 211 52.5t162 158.5q36 55 59.5 118.5t30.5 63.5q11 0 31.5 -30.5t38.5 -30.5q12 0 22 9.5t10 20.5q0 36 -73 124.5t-111 88.5q-13 0 -17.5 -5t-5.5 -19q0 -12 7.5 -36t7.5 -36q0 -32 -21.5 -85.5 t-58.5 -108.5q-56 -82 -127 -121t-166 -39t-166 39t-127 121q-36 52 -57 106t-21 88q0 12 6.5 36t6.5 36q0 14 -4.5 19t-16.5 5q-38 0 -111 -88.5t-73 -124.5q0 -11 10 -20.5t23 -9.5q17 0 37.5 30.5t31.5 30.5zM1044 1110q-33 0 -48 -20.5t-15 -67.5q0 -46 15.5 -67 t47.5 -21q33 0 48.5 21t15.5 67q0 47 -15 67.5t-49 20.5zM752 1110q-35 0 -49.5 -20t-14.5 -68q0 -46 15.5 -67t48.5 -21q32 0 47.5 21.5t15.5 66.5q0 46 -15 67t-48 21zM166 686q0 144 56 277.5t159 236.5q104 104 238.5 159.5t281.5 55.5q124 0 244 -42.5t217 -121.5 q126 -101 195 -249t69 -316q0 -170 -67.5 -316t-196.5 -253q-98 -82 -216 -124t-247 -42q-306 0 -519.5 214t-213.5 521z" />
<glyph unicode="&#x263c;" horiz-adv-x="1796" d="M934 1421v-239q80 -8 149.5 -38t137.5 -87l170 170l51 -51l-170 -170q54 -72 82.5 -142.5t32.5 -140.5h239v-74h-239q-4 -71 -32.5 -142.5t-82.5 -141.5l170 -170l-51 -52l-170 170q-65 -56 -133.5 -85.5t-153.5 -37.5v-241h-74v241q-84 8 -151.5 37.5t-133.5 85.5 l-169 -170l-52 52l170 170q-53 68 -82 140t-33 144h-239v74h239q4 70 32.5 140.5t82.5 142.5l-170 170l52 51l169 -170q67 57 135.5 87t149.5 38v239h74zM901 1114q-177 0 -301.5 -123.5t-124.5 -300.5t124.5 -301.5t301.5 -124.5q176 0 300 125.5t124 300.5t-124.5 299.5 t-299.5 124.5z" />
<glyph unicode="&#x2640;" horiz-adv-x="1683" d="M780 -90v256h-297v129h297v295q-177 23 -289 152t-112 309q0 195 136 333t329 138q191 0 329 -138.5t138 -332.5q0 -173 -118 -309t-284 -152v-295h297v-129h-297v-256h-129zM844 1401q-142 0 -243 -102.5t-101 -247.5t99 -245.5t243 -100.5t246 102t102 244 q0 143 -102 246.5t-244 103.5z" />
<glyph unicode="&#x2642;" horiz-adv-x="1683" d="M850 819l186 469q-69 -23 -154.5 -38t-179.5 -19l-18 78q109 19 228.5 67t246.5 123l47 -14q22 -115 77 -234.5t142 -240.5l-65 -43q-79 74 -133 144.5t-76 125.5l-182 -465q113 -64 175 -169t62 -234q0 -194 -133 -329.5t-332 -135.5q-197 0 -333 134.5t-136 330.5 q0 193 136 330t327 137q27 0 55 -4t60 -13zM739 715q-143 0 -244.5 -101t-101.5 -245q0 -145 101 -247t245 -102q145 0 245.5 103t100.5 246q0 142 -101.5 244t-244.5 102z" />
<glyph unicode="&#x2660;" horiz-adv-x="2019" d="M864 -96q54 59 79.5 143.5t25.5 202.5q0 70 -12.5 99.5t-41.5 29.5q-42 0 -71 -85q-15 -46 -27 -71q-36 -78 -100.5 -121t-145.5 -43q-115 0 -195.5 85.5t-80.5 211.5q0 96 46 196.5t171 260.5q32 40 102 126q260 319 396 538q137 -220 389 -529q76 -93 108 -135 q125 -160 171 -260.5t46 -196.5q0 -126 -80 -211.5t-196 -85.5q-79 0 -144 43.5t-102 120.5q-12 25 -27 71q-28 85 -71 85q-29 0 -41 -29.5t-12 -99.5q0 -116 26 -201t80 -145h-293z" />
<glyph unicode="&#x2663;" horiz-adv-x="2019" d="M840 -66q55 65 80.5 145t25.5 191q0 65 -15 103.5t-40 38.5q-29 0 -80 -68q-22 -29 -35 -45q-71 -85 -135.5 -120.5t-144.5 -35.5q-133 0 -215 100.5t-82 262.5q0 151 85.5 248.5t213.5 97.5q95 0 203 -67.5t128 -67.5q19 0 31 10t12 27q0 28 -93 108q-22 19 -34 29 q-48 42 -75 103t-27 128q0 144 98 227t269 83q172 0 269 -85t97 -235q0 -60 -27.5 -120t-74.5 -101q-12 -10 -33 -29q-94 -80 -94 -108q0 -17 12 -27t31 -10q20 0 128 67.5t204 67.5q129 0 214 -99t85 -255q0 -157 -82.5 -256t-214.5 -99q-80 0 -145 35.5t-136 120.5 q-15 18 -39 50q-48 63 -76 63q-23 0 -39 -36.5t-16 -92.5q0 -125 24.5 -204t82.5 -145h-340z" />
<glyph unicode="&#x2665;" horiz-adv-x="2019" d="M1010 -78q-164 258 -407 548l-50 60q-150 186 -204 304t-54 237q0 165 94 269t238 104q103 0 182.5 -58.5t124.5 -168.5q6 -15 16 -43q26 -76 60 -76q35 0 60 76q9 27 15 43q46 109 125.5 168t182.5 59q144 0 237.5 -104t93.5 -269q0 -119 -54 -237t-204 -304 q-13 -16 -48 -58q-235 -281 -408 -550z" />
<glyph unicode="&#x2666;" horiz-adv-x="2019" d="M1001 -92l-614 782l614 783l631 -783z" />
<glyph unicode="&#x266a;" horiz-adv-x="1090" d="M553 1032v-686q0 -108 -13.5 -162.5t-43.5 -95.5q-46 -58 -124 -95.5t-155 -37.5q-81 0 -130.5 44t-49.5 116q0 103 111 195.5t229 92.5q36 0 58 -5t42 -17v1083h76v-123q0 -113 132 -258l11 -12q138 -152 187 -260t49 -238q0 -49 -9.5 -114t-31.5 -170l-72 18 q17 72 25 131.5t8 112.5q0 163 -60 264.5t-239 216.5z" />
<glyph unicode="&#x266b;" horiz-adv-x="1470" d="M975 754q0 86 -67 168t-236 200v-112q0 -92 121.5 -196t181.5 -179v119zM672 1464v-69q0 -132 179 -307q33 -32 50 -50q101 -100 125.5 -157t24.5 -146v-774q0 -147 -14.5 -207.5t-49.5 -101.5q-45 -54 -122 -89.5t-150 -35.5q-81 0 -130.5 44.5t-49.5 117.5 q0 106 111.5 196t248.5 90q23 0 42 -5.5t38 -18.5v495q0 80 -66 157t-237 194v-435q0 -123 -13 -177.5t-45 -96.5q-43 -58 -122 -95.5t-156 -37.5q-81 0 -129.5 43.5t-48.5 116.5q0 104 111 196t237 92q27 0 47.5 -5.5t42.5 -18.5v1085h76z" />
<glyph unicode="&#xf004;" horiz-adv-x="1024" d="M506 -90l-47 -254q-23 -122 -106 -182t-236 -66l18 92q92 4 138 38.5t61 111.5h-154l49 260h277z" />
<glyph unicode="&#xf005;" horiz-adv-x="1024" d="M88 -430l47 123q71 -26 128 -37.5t112 -11.5q44 0 70 22.5t26 59.5q0 39 -36.5 54t-159.5 17l69 203h100l-30 -90h8q109 0 167 -44t58 -126q0 -107 -70 -166t-198 -59q-54 0 -128.5 14t-162.5 41z" />
<glyph unicode="&#xfb01;" horiz-adv-x="1200" d="M864 1217l45 256h287l-45 -256h-287zM645 0l193 1092h286l-192 -1092h-287zM20 0l154 887h-149l34 205h152l20 120q25 141 114 216t230 75q26 0 61.5 -4t86.5 -12l-39 -221q-29 6 -49.5 9t-36.5 3q-37 0 -56.5 -25t-31.5 -96l-12 -65h155l-35 -205h-155l-156 -887h-287z " />
<glyph unicode="&#xfb02;" horiz-adv-x="1200" d="M649 0l256 1473h285l-254 -1473h-287zM20 0l154 887h-149l34 205h152l20 120q25 141 114 216t230 75q26 0 61.5 -4t86.5 -12l-39 -221q-29 6 -49.5 9t-36.5 3q-37 0 -56.5 -25t-31.5 -96l-12 -65h155l-35 -205h-155l-156 -887h-287z" />
<glyph horiz-adv-x="532" d="M502 1223q-27 -140 -119.5 -223t-222.5 -84l16 96q81 12 128 59t63 129h-156l53 273h285z" />
<glyph horiz-adv-x="389" d="M465 1473l-47 -254q-23 -123 -106 -183.5t-234 -66.5l16 93q92 4 139 39t62 111h-154l49 261h275z" />
<glyph horiz-adv-x="551" d="M-194 -428l32 225h12q70 0 96.5 23t41.5 100l213 1172h284l-211 -1151q-39 -219 -119.5 -297t-263.5 -78q-14 0 -35.5 1.5t-49.5 4.5z" />
<glyph horiz-adv-x="336" d="M543 1473l-385 -371h-142l238 371h289z" />
<glyph horiz-adv-x="895" d="M582 1278l45 246h227l-45 -246h-227zM240 1278l43 246h223l-43 -246h-223z" />
<glyph horiz-adv-x="1024" d="M557 1219h-141l237 370h289z" />
<glyph horiz-adv-x="1024" d="M354 1554h181v-18q0 -77 25 -116.5t75 -39.5q59 0 104 46t66 128h176q-46 -155 -136.5 -229t-234.5 -74q-130 0 -194 62.5t-64 191.5q0 21 0.5 30.5t1.5 18.5z" />
</font>
</defs>
</svg>
