<?xml version="1.0" standalone="no"?>
<!DOCTYPE svg PUBLIC "-//W3C//DTD SVG 1.1//EN" "http://www.w3.org/Graphics/SVG/1.1/DTD/svg11.dtd" >
<svg xmlns="http://www.w3.org/2000/svg" xmlns:xlink="http://www.w3.org/1999/xlink" version="1.1">
<metadata></metadata>
<defs>
<font id="swis721_wgl4_btbold" horiz-adv-x="2048" >
<font-face units-per-em="2048" ascent="1556" descent="-492" />
<missing-glyph horiz-adv-x="582" />
<glyph unicode="&#xd;" horiz-adv-x="582" />
<glyph unicode=" "  horiz-adv-x="582" />
<glyph unicode="&#x09;" horiz-adv-x="582" />
<glyph unicode="&#xa0;" horiz-adv-x="582" />
<glyph unicode="!" horiz-adv-x="676" d="M262 410l-78 663v400h308v-400l-78 -663h-152zM188 0v295h297v-295h-297z" />
<glyph unicode="&#x22;" horiz-adv-x="678" d="M406 1438h192v-559h-192v559zM80 1438h192v-559h-192v559z" />
<glyph unicode="#" horiz-adv-x="1575" d="M709 848l-88 -244h251l86 244h-249zM709 1464h221l-146 -415h242l148 415h221l-148 -415h283l-74 -201h-280l-84 -242h290l-71 -200h-291l-148 -416h-221l148 416h-244l-149 -416h-220l146 416h-287l76 200h282l86 242h-299l74 201h297z" />
<glyph unicode="$" horiz-adv-x="1161" d="M641 186q82 11 125 59t43 128q0 71 -40.5 117.5t-127.5 72.5v-377zM522 870v340q-78 -10 -119 -53.5t-41 -116.5q0 -61 38.5 -102t121.5 -68zM522 -225v192q-226 14 -338 131t-112 338h268q5 -108 50.5 -170.5t131.5 -79.5v414q-232 59 -330 154t-98 260q0 183 116.5 295 t311.5 117v128h119v-128q195 -10 304 -117.5t120 -302.5h-272q-7 93 -44.5 142.5t-107.5 55.5v-364q247 -77 348 -176t101 -261q0 -191 -117.5 -305t-331.5 -133v-190h-119z" />
<glyph unicode="%" horiz-adv-x="1761" d="M1169 332q0 -67 45 -112.5t111 -45.5q64 0 110 46.5t46 111.5q0 64 -45.5 109.5t-110.5 45.5q-66 0 -111 -44.5t-45 -110.5zM952 332q0 156 108 263t265 107q154 0 262.5 -108.5t108.5 -261.5q0 -154 -109 -263.5t-262 -109.5q-157 0 -265 108t-108 265zM371 -41 l854 1473h161l-854 -1473h-161zM283 1059q0 -66 44.5 -111t110.5 -45q65 0 110.5 45.5t45.5 110.5q0 64 -45.5 109.5t-110.5 45.5q-66 0 -110.5 -44.5t-44.5 -110.5zM66 1059q0 156 108 264.5t264 108.5q154 0 262.5 -109.5t108.5 -263.5t-108.5 -262.5t-262.5 -108.5 q-157 0 -264.5 107t-107.5 264z" />
<glyph unicode="&#x26;" horiz-adv-x="1436" d="M553 643l-76 -55q-46 -32 -69 -77t-23 -101q0 -85 58 -143t145 -58q64 0 122.5 26.5t108.5 77.5zM633 958l35 25q48 33 71 74t23 94q0 51 -31.5 81t-85.5 30q-55 0 -87 -30.5t-32 -82.5q0 -28 15.5 -61t44.5 -70zM408 825l-58 76q-45 60 -64.5 112.5t-19.5 110.5 q0 160 102.5 254.5t278.5 94.5q169 0 267 -87t98 -235q0 -112 -57.5 -200.5t-180.5 -166.5l211 -260q30 49 47.5 110t24.5 136h260q-11 -130 -54 -241t-118 -203l268 -326h-340l-100 123q-88 -81 -193.5 -122.5t-220.5 -41.5q-204 0 -333.5 121t-129.5 309q0 140 72 241 t240 195z" />
<glyph unicode="'" horiz-adv-x="352" d="M80 1438h192v-559h-192v559z" />
<glyph unicode="(" horiz-adv-x="758" d="M739 1473q-138 -226 -205 -460t-67 -491q0 -256 67 -490t205 -460h-211q-175 239 -265.5 480.5t-90.5 469.5t90.5 470t265.5 481h211z" />
<glyph unicode=")" horiz-adv-x="758" d="M23 1473h213q174 -238 264 -479.5t90 -471.5q0 -229 -90 -471t-264 -479h-213q139 227 206.5 461.5t67.5 488.5q0 255 -67.5 489t-206.5 462z" />
<glyph unicode="*" horiz-adv-x="1024" d="M512 889l-176 -248l-170 119l192 241l-280 78l65 203l269 -96v287h198v-287l269 94l67 -203l-280 -76l190 -239l-174 -125z" />
<glyph unicode="+" horiz-adv-x="1706" d="M752 1221h202v-510h498v-199h-498v-512h-202v512h-498v199h498v510z" />
<glyph unicode="," horiz-adv-x="582" d="M139 -346v117q84 24 124 74t40 130v25h-164v301h303v-289q0 -149 -76.5 -240t-226.5 -118z" />
<glyph unicode="-" horiz-adv-x="684" d="M61 408v274h562v-274h-562z" />
<glyph unicode="." horiz-adv-x="582" d="M139 0v301h301v-301h-301z" />
<glyph unicode="/" horiz-adv-x="649" d="M8 -190l496 1701h137l-498 -1701h-135z" />
<glyph unicode="0" horiz-adv-x="1161" d="M360 696q0 -261 52.5 -379t167.5 -118t168 119t53 378q0 260 -53 378t-168 118t-167.5 -117.5t-52.5 -378.5zM63 696q0 369 128.5 552.5t388.5 183.5q259 0 388.5 -184.5t129.5 -553.5t-128.5 -551t-389.5 -182q-260 0 -388.5 183t-128.5 552z" />
<glyph unicode="1" horiz-adv-x="1161" d="M504 0v979h-342v201h22q187 0 272.5 58t100.5 194h229v-1432h-282z" />
<glyph unicode="2" horiz-adv-x="1161" d="M48 0q2 192 82 325.5t284 270.5q31 21 90 58q270 173 270 333q0 95 -57 150t-156 55q-108 0 -166.5 -67.5t-58.5 -192.5v-12h-264q0 246 132 379t376 133q221 0 353 -120.5t132 -320.5q0 -143 -69 -248t-267 -239q-42 -29 -116 -76q-188 -121 -212 -184h650v-244h-1003z " />
<glyph unicode="3" horiz-adv-x="1161" d="M57 436h275q1 -120 58 -180.5t169 -60.5q108 0 166.5 56.5t58.5 162.5t-68.5 160.5t-203.5 54.5q-7 0 -21.5 -1t-21.5 -1v198h31q124 0 183.5 48.5t59.5 148.5q0 83 -50.5 131.5t-137.5 48.5q-95 0 -147 -56t-52 -159v-12h-270q5 220 129.5 337.5t351.5 117.5 q215 0 341 -105t126 -283q0 -94 -43 -165t-129 -117q110 -48 166.5 -132.5t56.5 -201.5q0 -215 -141 -341t-385 -126q-241 0 -371.5 122.5t-130.5 348.5v6z" />
<glyph unicode="4" horiz-adv-x="1161" d="M657 530v613l-389 -613h389zM651 0v309h-604v252l528 830h355v-854h166v-228h-166v-309h-279z" />
<glyph unicode="5" horiz-adv-x="1161" d="M52 385h280q7 -94 63 -145.5t150 -51.5q116 0 177.5 68t61.5 195q0 119 -63 187.5t-174 68.5q-62 0 -109 -25t-80 -74l-258 15l93 768h823v-242h-621l-37 -287q47 37 108 55.5t136 18.5q214 0 345.5 -130t131.5 -341q0 -231 -145 -368.5t-389 -137.5q-222 0 -353.5 113.5 t-139.5 312.5z" />
<glyph unicode="6" horiz-adv-x="1161" d="M369 455q0 -123 61.5 -195t167.5 -72q99 0 155 70t56 195q0 115 -58 179t-163 64q-103 0 -161 -64t-58 -177zM365 829q49 50 118 75.5t154 25.5q210 0 336.5 -128t126.5 -341q0 -226 -138 -365t-364 -139q-261 0 -396.5 180t-135.5 527q0 373 145 570.5t418 197.5 q190 0 306.5 -99t127.5 -268h-290q-10 69 -54 104t-123 35q-108 0 -166 -93.5t-65 -281.5z" />
<glyph unicode="7" horiz-adv-x="1161" d="M569 0h-299q16 293 141.5 581t358.5 566h-704v244h1015v-215q-236 -260 -362.5 -550t-149.5 -626z" />
<glyph unicode="8" horiz-adv-x="1161" d="M356 416q0 -105 58.5 -162t167.5 -57q104 0 163.5 58t59.5 161q0 99 -61 159t-162 60t-163.5 -61t-62.5 -158zM379 1030q0 -83 52 -127.5t149 -44.5t149.5 45t52.5 127q0 80 -54 126t-148 46q-92 0 -146.5 -47t-54.5 -125zM276 752q-90 50 -130 117t-40 171 q0 184 126 289t348 105q224 0 350.5 -104.5t126.5 -289.5q0 -99 -43 -171.5t-129 -116.5q105 -49 158 -135.5t53 -210.5q0 -209 -137.5 -328t-378.5 -119q-244 0 -379 118t-135 329q0 123 50.5 206.5t159.5 139.5z" />
<glyph unicode="9" horiz-adv-x="1161" d="M786 934q0 123 -61.5 194.5t-167.5 71.5q-100 0 -155.5 -69t-55.5 -193q0 -116 58 -181t163 -65q103 0 161 64t58 178zM791 561q-50 -50 -118 -75t-153 -25q-211 0 -338 127t-127 340q0 226 138 365t364 139q262 0 398.5 -180.5t136.5 -526.5q0 -372 -146 -570t-420 -198 q-189 0 -305 98.5t-127 268.5l289 -1q10 -69 54 -103t124 -34q108 0 165 94t65 281z" />
<glyph unicode=":" horiz-adv-x="629" d="M162 766v303h303v-303h-303zM162 0v301h303v-301h-303z" />
<glyph unicode=";" horiz-adv-x="629" d="M164 766v303h301v-303h-301zM164 -346v117q84 24 124 74t40 130v25h-166v301h303v-289q0 -150 -76 -240.5t-225 -117.5z" />
<glyph unicode="&#x3c;" horiz-adv-x="1706" d="M1442 1194v-219l-893 -365l893 -364v-219l-1178 485v199z" />
<glyph unicode="=" horiz-adv-x="1706" d="M254 496h1198v-199h-1198v199zM254 926h1198v-199h-1198v199z" />
<glyph unicode="&#x3e;" horiz-adv-x="1706" d="M264 1194l1178 -483v-199l-1178 -485v219l895 364l-895 365v219z" />
<glyph unicode="?" horiz-adv-x="1143" d="M438 428q0 11 -1 29.5t-1 27.5q0 88 19 146.5t61 109.5q32 38 95.5 87t82.5 71q40 45 55 81t15 79q0 95 -53 148t-148 53t-149.5 -63.5t-59.5 -178.5h-282v31q0 211 133.5 336.5t359.5 125.5q231 0 367.5 -118.5t136.5 -317.5q0 -70 -15.5 -125.5t-47.5 -101.5 q-41 -58 -126.5 -125.5t-103.5 -83.5q-38 -37 -54.5 -78t-16.5 -98q0 -5 1 -17t1 -18h-269zM424 0v293h295v-293h-295z" />
<glyph unicode="@" d="M1167 272q-55 -84 -127 -123.5t-170 -39.5q-158 0 -240.5 86t-82.5 254q0 239 139.5 401t343.5 162q80 0 139 -33t97 -98l53 98h178l-147 -598q-3 -11 -5 -22.5t-2 -18.5q0 -35 24 -52.5t71 -17.5q39 0 81.5 20t79.5 56q86 80 130.5 187t44.5 235q0 240 -185.5 394.5 t-478.5 154.5q-141 0 -262.5 -34t-220.5 -101q-170 -114 -261.5 -285t-91.5 -375q0 -307 207 -490.5t553 -183.5q162 0 316.5 49t287.5 142l82 -117q-153 -115 -324.5 -173t-357.5 -58q-192 0 -353 48.5t-286 143.5q-155 121 -232 279t-77 358q0 167 52.5 318.5t154.5 275.5 q148 181 356 274t463 93q169 0 317.5 -45.5t258.5 -128.5q135 -105 201.5 -239.5t66.5 -303.5q0 -165 -65.5 -304.5t-188.5 -238.5q-70 -56 -152.5 -85.5t-171.5 -29.5q-106 0 -159.5 42t-55.5 124zM1217 700q-13 81 -57.5 123.5t-117.5 42.5q-114 0 -198 -124t-84 -298 q0 -92 40.5 -140t117.5 -48q83 0 151.5 63t93.5 164z" />
<glyph unicode="A" horiz-adv-x="1405" d="M700 1178l-204 -627h409zM524 1473h350l531 -1473h-318l-100 303h-571l-97 -303h-319z" />
<glyph unicode="B" horiz-adv-x="1442" d="M442 266h359q127 0 185 46t58 145q0 103 -57 148.5t-188 45.5h-357v-385zM442 903h346q112 0 164 38.5t52 121.5q0 81 -50.5 117.5t-167.5 36.5h-344v-314zM152 0v1473h694q226 0 344.5 -95.5t118.5 -277.5q0 -112 -44 -187t-132 -116q114 -46 170.5 -132.5t56.5 -215.5 q0 -215 -140 -332t-397 -117h-671z" />
<glyph unicode="C" horiz-adv-x="1524" d="M1434 506q-17 -251 -193.5 -399t-460.5 -148q-327 0 -508.5 204t-181.5 572q0 376 185 576t532 200q282 0 445.5 -137.5t179.5 -388.5h-299q-19 125 -102 190.5t-224 65.5q-200 0 -304 -129t-104 -377q0 -240 103.5 -371t294.5 -131q138 0 226 70.5t114 202.5h297z" />
<glyph unicode="D" horiz-adv-x="1489" d="M449 266h243q211 0 305.5 110.5t94.5 358.5q0 247 -88 363t-275 116h-280v-948zM152 0v1473h577q339 0 505.5 -183t166.5 -555q0 -202 -61.5 -356t-178.5 -248q-88 -70 -200 -100.5t-314 -30.5h-495z" />
<glyph unicode="E" horiz-adv-x="1337" d="M152 0v1473h1069v-256h-770v-314h704v-252h-704v-379h806v-272h-1105z" />
<glyph unicode="F" horiz-adv-x="1225" d="M152 0v1473h1028v-256h-729v-334h639v-256h-639v-627h-299z" />
<glyph unicode="G" horiz-adv-x="1591" d="M1212 174q-82 -111 -186.5 -163t-245.5 -52q-309 0 -500.5 214.5t-191.5 563.5q0 352 191 563t509 211q277 0 452 -132.5t208 -364.5h-309q-28 115 -114.5 175t-225.5 60q-185 0 -290.5 -135.5t-105.5 -374.5q0 -240 110 -376t302 -136q144 0 241 85t120 233h-334v252 h610v-797h-203z" />
<glyph unicode="H" horiz-adv-x="1522" d="M152 0v1473h305v-549h608v549h305v-1473h-305v653h-608v-653h-305z" />
<glyph unicode="I" horiz-adv-x="629" d="M162 0v1473h303v-1473h-303z" />
<glyph unicode="J" horiz-adv-x="1133" d="M49 549h293v-178q0 -77 46 -117.5t132 -40.5q94 0 131 49t37 184v1027h303v-1041q0 -140 -16.5 -205.5t-54.5 -115.5q-58 -74 -159 -113t-237 -39q-125 0 -221 34t-160 101q-51 54 -72.5 120.5t-21.5 219.5v115z" />
<glyph unicode="K" horiz-adv-x="1440" d="M152 0v1473h303v-605l575 605h379l-588 -596l641 -877h-370l-480 674l-157 -156v-518h-303z" />
<glyph unicode="L" horiz-adv-x="1188" d="M152 0v1473h303v-1201h719v-272h-1022z" />
<glyph unicode="M" horiz-adv-x="1786" d="M152 0v1473h448l293 -1121l289 1121h450v-1473h-284v1188l-299 -1188h-310l-303 1188v-1188h-284z" />
<glyph unicode="N" horiz-adv-x="1518" d="M152 0v1473h317l598 -1012v1012h299v-1473h-313l-602 1012v-1012h-299z" />
<glyph unicode="O" horiz-adv-x="1616" d="M397 735q0 -243 108 -377.5t302 -134.5q196 0 305 134.5t109 377.5t-109 377.5t-305 134.5q-194 0 -302 -134t-108 -378zM88 735q0 357 194.5 566.5t524.5 209.5t525.5 -210t195.5 -566t-195.5 -566t-525.5 -210t-524.5 210t-194.5 566z" />
<glyph unicode="P" horiz-adv-x="1366" d="M457 791h293q119 0 173 50.5t54 162.5q0 105 -53 159t-158 54h-309v-426zM455 524v-524h-303v1473h655q232 0 351.5 -120.5t119.5 -353.5q0 -228 -117 -351.5t-334 -123.5h-372z" />
<glyph unicode="Q" horiz-adv-x="1616" d="M985 262l-156 152l166 172l160 -156q32 60 49 137t17 168q0 243 -109 377.5t-305 134.5q-194 0 -302 -134t-108 -378q0 -243 108 -377.5t302 -134.5q50 0 94.5 10t83.5 29zM1198 61q-75 -50 -174.5 -76t-216.5 -26q-330 0 -524.5 210t-194.5 566q0 357 194.5 566.5 t524.5 209.5t525.5 -210t195.5 -566q0 -156 -40 -285.5t-118 -226.5l160 -153l-164 -172z" />
<glyph unicode="R" horiz-adv-x="1462" d="M455 829h356q116 0 170.5 47t54.5 148q0 96 -53 145.5t-158 49.5h-370v-390zM152 0v1473h714q241 0 357 -103t116 -315q0 -135 -56.5 -225t-162.5 -123q96 -34 136.5 -104t46.5 -218l6 -174v-6q3 -132 57 -160v-45h-332q-16 31 -24.5 76.5t-10.5 108.5l-4 155 q-5 137 -51.5 185t-167.5 48h-321v-573h-303z" />
<glyph unicode="S" horiz-adv-x="1366" d="M84 455h299q17 -121 99 -179.5t237 -58.5q132 0 199 47t67 139q0 134 -385 222l-9 2q-10 2 -31 7q-206 45 -294 101q-78 50 -119 134.5t-41 199.5q0 215 146 329.5t422 114.5q258 0 403.5 -122t153.5 -344h-291q-8 107 -82 163t-211 56q-119 0 -183.5 -46.5t-64.5 -132.5 q0 -117 251 -175q68 -16 106 -25q161 -41 228.5 -64t117.5 -51q90 -50 135 -132.5t45 -197.5q0 -230 -155 -356.5t-437 -126.5q-278 0 -436 129t-170 367z" />
<glyph unicode="T" horiz-adv-x="1217" d="M457 0v1210h-437v263h1174v-263h-434v-1210h-303z" />
<glyph unicode="U" horiz-adv-x="1468" d="M143 1477h306v-924q0 -171 68 -249.5t216 -78.5q150 0 218.5 78t68.5 250v924h303v-957q0 -271 -151.5 -416t-436.5 -145q-287 0 -439.5 144.5t-152.5 416.5v957z" />
<glyph unicode="V" horiz-adv-x="1280" d="M498 0l-508 1473h336l313 -1102l319 1102h332l-502 -1473h-290z" />
<glyph unicode="W" horiz-adv-x="1913" d="M438 0l-422 1473h314l252 -1039l213 1039h323l213 -1039l252 1039h311l-421 -1473h-289l-228 1128l-229 -1128h-289z" />
<glyph unicode="X" horiz-adv-x="1282" d="M-10 0l463 752l-463 721h350l301 -515l299 515h352l-463 -719l463 -754h-350l-301 510l-301 -510h-350z" />
<glyph unicode="Y" horiz-adv-x="1274" d="M811 0h-303v549l-535 924h371l315 -635l291 635h346l-485 -924v-549z" />
<glyph unicode="Z" horiz-adv-x="1231" d="M37 0v256l801 950h-785v267h1153v-256l-803 -951h785v-266h-1151z" />
<glyph unicode="[" horiz-adv-x="782" d="M238 1473h505v-213h-235v-1483h235v-213h-505v1909z" />
<glyph unicode="\" horiz-adv-x="649" d="M504 -190l-496 1701h135l498 -1701h-137z" />
<glyph unicode="]" horiz-adv-x="782" d="M557 1473v-1909h-506v213h236v1483h-236v213h506z" />
<glyph unicode="^" d="M897 1460h252l481 -561h-235l-371 371l-373 -371h-235z" />
<glyph unicode="_" horiz-adv-x="1024" d="M0 -279h1024v-204h-1024v204z" />
<glyph unicode="`" horiz-adv-x="1024" d="M219 1587h258l197 -370h-142z" />
<glyph unicode="a" horiz-adv-x="1151" d="M750 135q-55 -85 -144 -129.5t-207 -44.5q-158 0 -243.5 90t-85.5 256q0 154 85.5 235t282.5 111q45 7 118 16q185 24 185 107q0 66 -41 94.5t-137 28.5q-88 0 -135 -35t-47 -100v-16h-272v20q0 167 118 262.5t326 95.5q228 0 349.5 -79t121.5 -228v-618q0 -68 14 -101.5 t47 -50.5v-49h-303q-15 28 -23 62t-9 73zM745 535q-71 -33 -163.5 -53t-95.5 -21q-77 -22 -107.5 -55t-30.5 -91q0 -60 39 -95.5t105 -35.5q118 0 185.5 66.5t67.5 181.5v103z" />
<glyph unicode="b" horiz-adv-x="1255" d="M133 1473h283v-521q54 85 135.5 128.5t185.5 43.5q197 0 322 -162.5t125 -422.5q0 -258 -125 -417t-326 -159q-105 0 -182.5 44t-140.5 140v-147h-277v1473zM895 551q0 150 -63 235.5t-173 85.5q-116 0 -179.5 -83.5t-63.5 -237.5q0 -166 60.5 -252t176.5 -86 q118 0 180 86.5t62 251.5z" />
<glyph unicode="c" horiz-adv-x="1128" d="M784 410h287q-18 -207 -151 -327t-342 -120q-237 0 -371.5 154.5t-134.5 427.5q0 272 137.5 426.5t378.5 154.5q211 0 338.5 -112t142.5 -312h-289q-12 87 -61 133t-129 46q-108 0 -161.5 -85t-53.5 -255q0 -157 55.5 -241.5t159.5 -84.5q81 0 130 49t64 146z" />
<glyph unicode="d" horiz-adv-x="1260" d="M1126 1473v-1473h-276v147q-63 -95 -141.5 -139.5t-184.5 -44.5q-201 0 -325.5 159t-124.5 417q0 260 124.5 422.5t321.5 162.5q105 0 187.5 -44t136.5 -128v521h282zM365 551q0 -165 62 -251.5t179 -86.5q116 0 177 86t61 252q0 154 -64 237.5t-180 83.5 q-109 0 -172 -85.5t-63 -235.5z" />
<glyph unicode="e" horiz-adv-x="1167" d="M797 330h290q-44 -172 -177.5 -269.5t-325.5 -97.5q-236 0 -374 158.5t-138 429.5q0 267 136 421t372 154q250 0 386 -151.5t136 -431.5q0 -31 -0.5 -46.5t-2.5 -29.5h-726q6 -128 62.5 -193t162.5 -65q75 0 123 29.5t76 91.5zM373 658h428q-4 110 -58.5 167.5 t-156.5 57.5q-95 0 -149.5 -58t-63.5 -167z" />
<glyph unicode="f" horiz-adv-x="664" d="M178 0v883h-155v204h155v101q0 152 78.5 223.5t247.5 71.5q31 0 65.5 -1.5t73.5 -5.5v-231h-76q-65 0 -85.5 -17t-20.5 -65v-76h182v-204h-180v-883h-285z" />
<glyph unicode="g" horiz-adv-x="1249" d="M365 561q0 -153 61.5 -235t175.5 -82q115 0 175.5 82t60.5 239q0 149 -62.5 230.5t-177.5 81.5q-111 0 -172 -83t-61 -233zM102 -105l318 1q14 -55 57.5 -82t116.5 -27q136 0 190 57.5t54 212.5v97q-46 -79 -119.5 -116.5t-183.5 -37.5q-211 0 -338 150.5t-127 400.5 q0 264 124.5 419.5t335.5 155.5q110 0 187.5 -42t126.5 -128v131h276v-1015q0 -171 -32 -261t-109 -151q-66 -51 -167.5 -77.5t-231.5 -26.5q-218 0 -343 89t-135 250z" />
<glyph unicode="h" horiz-adv-x="1233" d="M133 0v1473h289v-506q59 74 140.5 111.5t182.5 37.5q96 0 173.5 -33t125.5 -94q33 -41 46.5 -94t13.5 -170v-20v-705h-289v569q0 202 -37 253.5t-133 51.5q-103 0 -163 -61.5t-60 -167.5v-645h-289z" />
<glyph unicode="i" horiz-adv-x="557" d="M133 1208v265h291v-265h-291zM133 0v1087h291v-1087h-291z" />
<glyph unicode="j" horiz-adv-x="555" d="M133 1208v262h291v-262h-291zM6 -444v243h57q37 0 53.5 17.5t16.5 56.5v1214h291v-1261q0 -146 -82 -208t-281 -62h-55z" />
<glyph unicode="k" horiz-adv-x="1135" d="M133 0v1473h283v-773l346 387h350l-379 -403l402 -684h-349l-260 463l-110 -119v-344h-283z" />
<glyph unicode="l" horiz-adv-x="563" d="M137 0v1473h291v-1473h-291z" />
<glyph unicode="m" horiz-adv-x="1796" d="M127 0v1087h276v-120q61 75 136 113t166 38q103 0 176 -38.5t127 -121.5q57 80 135 120t174 40q164 0 260 -96t96 -262v-760h-287v700q0 79 -42.5 122.5t-118.5 43.5q-85 0 -135 -55.5t-50 -151.5v-659h-284v698q0 80 -41.5 124t-116.5 44q-85 0 -134.5 -56t-49.5 -153 v-657h-287z" />
<glyph unicode="n" horiz-adv-x="1223" d="M127 0v1087h285v-129q61 79 144 118.5t185 39.5q180 0 269.5 -93.5t89.5 -281.5v-741h-291v657q0 117 -39.5 167t-128.5 50q-103 0 -163 -61.5t-60 -167.5v-645h-291z" />
<glyph unicode="o" horiz-adv-x="1245" d="M367 545q0 -162 66.5 -250t189.5 -88q121 0 187.5 88t66.5 250q0 161 -66 248.5t-188 87.5q-123 0 -189.5 -87.5t-66.5 -248.5zM72 545q0 271 147 426t404 155q256 0 403.5 -155t147.5 -426q0 -272 -147.5 -427t-403.5 -155q-257 0 -404 155t-147 427z" />
<glyph unicode="p" horiz-adv-x="1255" d="M895 537q0 164 -62 250.5t-180 86.5q-116 0 -176.5 -86t-60.5 -251q0 -154 63.5 -238t179.5 -84q110 0 173 86t63 236zM133 -436v1523h277v-147q63 96 140.5 140t182.5 44q201 0 326 -158.5t125 -416.5q0 -261 -125 -423.5t-322 -162.5q-104 0 -185.5 44t-135.5 128v-571 h-283z" />
<glyph unicode="q" horiz-adv-x="1255" d="M360 551q0 -165 62 -251.5t180 -86.5q116 0 177 86t61 252q0 154 -64 237.5t-180 83.5q-109 0 -172.5 -85.5t-63.5 -235.5zM1124 1087v-1523h-284v577q-61 -91 -138.5 -134.5t-179.5 -43.5q-201 0 -325.5 159t-124.5 417q0 260 124.5 422.5t321.5 162.5 q106 0 188.5 -44.5t137.5 -131.5v139h280z" />
<glyph unicode="r" horiz-adv-x="786" d="M127 0v1087h270v-186q57 112 133 164.5t181 52.5q17 0 26.5 -0.5t15.5 -1.5l1 -295h-97q-119 0 -179 -62t-60 -184v-575h-291z" />
<glyph unicode="s" horiz-adv-x="1118" d="M66 354h290q4 -83 60 -123.5t168 -40.5q85 0 131.5 28.5t46.5 80.5q0 74 -174 111q-71 15 -113 26q-212 54 -294.5 128t-82.5 200q0 167 120.5 264.5t326.5 97.5q218 0 342.5 -97t132.5 -273h-283q-3 69 -52.5 107t-137.5 38q-83 0 -123.5 -25t-40.5 -75q0 -65 217 -115 q50 -11 79 -18q217 -51 296.5 -123t79.5 -203q0 -185 -130.5 -282t-379.5 -97q-225 0 -352 101t-127 278v12z" />
<glyph unicode="t" horiz-adv-x="651" d="M610 -8q-40 -1 -95.5 -3.5t-70.5 -2.5q-167 0 -228.5 62.5t-61.5 246.5v588h-144v204h144v297h288v-297h168v-204h-168v-602q0 -43 19 -56.5t78 -13.5h71v-219z" />
<glyph unicode="u" horiz-adv-x="1223" d="M1096 1087v-1087h-285v129q-62 -79 -144.5 -118.5t-185.5 -39.5q-179 0 -268.5 94t-89.5 281v741h291v-657q0 -116 39 -165.5t129 -49.5q102 0 162.5 61.5t60.5 167.5v643h291z" />
<glyph unicode="v" horiz-adv-x="1085" d="M395 0l-391 1087h322l223 -780l225 780h307l-389 -1087h-297z" />
<glyph unicode="w" horiz-adv-x="1567" d="M322 0l-308 1087h295l178 -753l150 753h297l158 -753l178 753h282l-305 -1087h-291l-174 778l-168 -778h-292z" />
<glyph unicode="x" horiz-adv-x="1057" d="M-8 0l366 555l-350 532h332l192 -327l191 327h321l-342 -528l363 -559h-340l-201 344l-198 -344h-334z" />
<glyph unicode="y" horiz-adv-x="1100" d="M170 -436v235q14 -2 29 -3t39 -1q86 0 129 40.5t43 121.5q0 6 -2 15t-4 15l-392 1100h320l229 -784l223 784h306l-447 -1282q-50 -144 -125 -196.5t-225 -52.5q-27 0 -58 2t-65 6z" />
<glyph unicode="z" horiz-adv-x="1036" d="M35 0v223l596 633h-561v231h909v-237l-588 -608h608v-242h-964z" />
<glyph unicode="{" horiz-adv-x="1024" d="M883 1477v-209q-9 0 -25 1t-22 1q-101 0 -136.5 -38.5t-35.5 -162.5v-240q0 -148 -45 -210t-162 -89q117 -27 162 -88t45 -209v-241q0 -123 35 -161t137 -38q6 0 22 1t25 1v-209q-14 0 -39 -1t-37 -1q-100 0 -167 12t-114 37q-57 34 -80.5 91.5t-23.5 199.5v252 q0 137 -51 194.5t-172 57.5q-6 0 -20 -1t-21 -1v209q7 0 21 -1t20 -1q120 0 171.5 58t51.5 196v250q0 143 23.5 201t80.5 92q47 25 114 37t167 12q12 0 37 -1t39 -1z" />
<glyph unicode="|" horiz-adv-x="1024" d="M410 1565h206v-2048h-206v2048z" />
<glyph unicode="}" horiz-adv-x="1024" d="M143 1477h68q110 0 177 -12t112 -38q57 -32 80.5 -91.5t23.5 -198.5v-252q0 -137 51 -194.5t172 -57.5q6 0 20 1t21 1v-209h-37q-125 0 -176 -56t-51 -194v-252q0 -143 -23.5 -201t-80.5 -90q-47 -25 -114 -37t-167 -12q-12 0 -37 1t-39 1v209q9 0 25 -1t22 -1 q101 0 136.5 38.5t35.5 160.5v239q0 150 45 211.5t162 87.5q-117 27 -162 89t-45 210v242q0 122 -35.5 160.5t-136.5 38.5q-6 0 -22 -1t-25 -1v209z" />
<glyph unicode="~" horiz-adv-x="1706" d="M1530 803v-221q-104 -71 -196.5 -104.5t-182.5 -33.5q-46 0 -92 8t-92 23q-24 8 -71 25q-219 75 -333 75q-85 0 -177.5 -37.5t-207.5 -119.5v221q107 72 204 107.5t183 35.5q117 0 291 -58l4 -1q18 -6 55 -19q155 -55 240 -55t175 37t200 117z" />
<glyph horiz-adv-x="1161" d="M115 571h-131l47 105h82q0 14 -1 37t-1 32v7q2 24 2 43h-158l47 104h113q26 303 164 457.5t385 154.5q212 0 334.5 -129t144.5 -376h-283q-3 125 -56.5 196.5t-144.5 71.5q-109 0 -172 -97t-69 -278h373l-48 -104h-333v-60v-59h280l-47 -105h-225q7 -179 68.5 -275.5 t168.5 -96.5q95 0 147 72t58 212h283q-22 -259 -144.5 -391.5t-341.5 -132.5q-239 0 -377 155t-165 457z" />
<glyph unicode="&#xa1;" horiz-adv-x="676" d="M485 1473v-295h-297v295h297zM414 1063l78 -666v-397h-308v397l78 666h152z" />
<glyph unicode="&#xa2;" horiz-adv-x="1161" d="M620 885q-19 2 -29.5 3t-19.5 1q-107 0 -162 -88t-55 -260q0 -99 22.5 -171t65.5 -116zM297 -246l68 244q-150 63 -227 201t-77 344q0 273 137.5 428t376.5 155q27 0 53 -2t52 -6l45 166h109l-54 -190q126 -39 197 -138.5t82 -253.5l-281 1q-5 49 -22.5 84.5t-50.5 62.5 l-179 -639q2 0 6 -1q30 -3 46 -3q88 0 137.5 49t66.5 154h281q-15 -207 -146.5 -328t-338.5 -121q-27 0 -55 2t-58 6l-59 -215h-109z" />
<glyph unicode="&#xa3;" horiz-adv-x="1161" d="M70 166q120 83 170.5 153t50.5 150q0 38 -12 80.5t-35 89.5h-176v111h108q-44 87 -64 155t-20 127q0 178 130.5 288t344.5 110q232 0 364 -119t144 -338h-276q-8 113 -65 173t-156 60q-94 0 -144.5 -49t-50.5 -141q0 -53 63 -192q22 -48 33 -74h285v-111h-244 q9 -38 13 -70t4 -59q0 -72 -44.5 -143.5t-150.5 -167.5q65 30 117.5 44.5t95.5 14.5q52 0 142 -23.5t128 -23.5q50 0 98.5 16t96.5 49l88 -217q-83 -49 -159 -74.5t-142 -25.5q-76 0 -205.5 40t-187.5 40q-61 0 -118.5 -20t-111.5 -60z" />
<glyph unicode="&#xa4;" horiz-adv-x="1241" d="M623 1161q-113 0 -195 -82t-82 -194q0 -114 81 -194.5t196 -80.5q113 0 194.5 80.5t81.5 194.5q0 112 -81.5 194t-194.5 82zM172 1438l205 -203q54 39 114 58.5t130 19.5t131.5 -19.5t115.5 -58.5l203 203l105 -107l-203 -205q38 -53 57 -113.5t19 -127.5t-19 -127 t-57 -115l203 -205l-105 -104l-203 203q-54 -40 -115 -59t-130 -19q-72 0 -132.5 19t-113.5 59l-205 -203l-104 104l202 205q-38 54 -56.5 113.5t-18.5 128.5q0 67 18.5 127.5t56.5 113.5l-202 205z" />
<glyph unicode="&#xa5;" horiz-adv-x="1229" d="M776 0h-289v518l-20 35h-449v113h383l-73 127h-310v112h244l-278 486h325l322 -631l299 631h305l-256 -486h233v-112h-292l-68 -127h360v-113h-419l-17 -35v-518z" />
<glyph unicode="&#xa6;" horiz-adv-x="1024" d="M410 408h206v-758h-206v758zM410 1432h206v-758h-206v758z" />
<glyph unicode="&#xa7;" horiz-adv-x="1024" d="M659 487q40 23 60 51t20 60q0 39 -23 66.5t-95 64.5l-265 137q-39 -23 -59.5 -52t-20.5 -62q0 -39 29.5 -68.5t130.5 -81.5zM115 160h247q8 -78 46.5 -116t109.5 -38q66 0 105 31.5t39 85.5q0 44 -29 76.5t-115 74.5l-239 121q-114 57 -170 131t-56 166q0 89 43.5 156.5 t128.5 112.5q-50 45 -74 98.5t-24 118.5q0 150 103 241.5t274 91.5q176 0 276 -90t103 -249h-236q-2 67 -39.5 102t-107.5 35q-62 0 -95.5 -27t-33.5 -76q0 -40 39.5 -74.5t142.5 -82.5l168 -78q128 -61 189 -135.5t61 -171.5q0 -91 -45.5 -158.5t-130.5 -104.5 q58 -51 87 -113t29 -136q0 -154 -110 -254.5t-283 -100.5q-190 0 -292 92t-111 271z" />
<glyph unicode="&#xa8;" horiz-adv-x="1024" d="M573 1276v246h226v-246h-226zM225 1276v246h226v-246h-226z" />
<glyph unicode="&#xa9;" horiz-adv-x="1706" d="M1212 897h-188q-8 70 -53 108.5t-119 38.5q-91 0 -143 -81.5t-52 -227.5q0 -147 52 -224t151 -77q73 0 117 42t53 119l193 1q-8 -139 -109 -223t-260 -84q-186 0 -293.5 118t-107.5 322q0 206 109.5 328.5t293.5 122.5q152 0 250.5 -78t105.5 -205zM854 1356 q-128 0 -239.5 -46t-198.5 -134q-89 -90 -136 -203.5t-47 -237.5q0 -125 47 -237t136 -201q88 -88 201 -135t237 -47t237.5 47t204.5 137q88 86 133.5 197t45.5 239q0 126 -46.5 238.5t-134.5 200.5q-89 89 -201 135.5t-239 46.5zM852 1479q152 0 287.5 -56t242.5 -163 q105 -105 160 -240.5t55 -286.5q0 -152 -54.5 -284t-160.5 -236q-111 -108 -248 -165.5t-282 -57.5q-147 0 -280.5 56.5t-241.5 164.5q-107 106 -163 240.5t-56 281.5q0 149 56 284.5t163 244.5q105 106 238 161.5t284 55.5z" />
<glyph unicode="&#xaa;" horiz-adv-x="864" d="M100 549h668v-125h-668v125zM551 1079q-53 -18 -139 -37q-140 -32 -140 -104q0 -40 25.5 -62t73.5 -22q84 0 132 44.5t48 121.5v59zM778 1290v-432q0 -45 11 -68t36 -34v-45h-243q-12 19 -18.5 38.5t-8.5 40.5q-36 -51 -101.5 -78.5t-152.5 -27.5q-124 0 -191 64.5 t-67 183.5q0 108 65 168.5t202 79.5q38 5 100 12q137 14 137 68q0 42 -27 59.5t-96 17.5q-63 0 -95 -22t-32 -66v-16h-225v18q0 123 91 191.5t253 68.5q176 0 269 -56.5t93 -164.5z" />
<glyph unicode="&#xab;" horiz-adv-x="915" d="M504 416v256l334 289v-238l-205 -178l205 -178v-240zM72 416v256l336 289v-238l-205 -178l205 -178v-240z" />
<glyph unicode="&#xac;" horiz-adv-x="1706" d="M254 864h1198v-502h-199v306h-999v196z" />
<glyph unicode="&#xad;" horiz-adv-x="684" d="M61 408v274h562v-274h-562z" />
<glyph unicode="&#xae;" horiz-adv-x="1706" d="M745 1034v-239h99q88 0 129 28t41 88q0 63 -44 93t-136 30h-89zM545 1161h323q176 0 264.5 -59.5t88.5 -177.5q0 -82 -48 -140t-133 -79l185 -369h-224l-157 338h-99v-338h-200v825zM854 1356q-127 0 -236 -44.5t-196 -131.5q-91 -91 -140 -206.5t-49 -238.5 q0 -124 46 -235.5t133 -198.5q89 -91 203 -139.5t237 -48.5q120 0 233.5 47t206.5 135q87 84 135 196t48 232q0 133 -44.5 245t-132.5 201q-90 93 -202.5 140t-241.5 47zM852 1479q154 0 290.5 -57.5t243.5 -166.5q103 -104 157 -238t54 -284q0 -152 -56 -287.5t-163 -238.5 q-107 -105 -243.5 -161t-282.5 -56q-149 0 -285 58t-243 167q-104 105 -158.5 238.5t-54.5 279.5q0 102 27 198.5t81 188.5q101 170 267 264.5t366 94.5z" />
<glyph unicode="&#xaf;" horiz-adv-x="1024" d="M0 1565h1024v-205h-1024v205z" />
<glyph unicode="&#xb0;" horiz-adv-x="674" d="M338 1335q-73 0 -124.5 -51t-51.5 -123q0 -74 51 -125t125 -51q72 0 123 52t51 124t-51 123t-123 51zM338 1464q126 0 214.5 -89.5t88.5 -215.5q0 -125 -89 -214t-216 -89q-126 0 -213.5 88t-87.5 215t88.5 216t214.5 89z" />
<glyph unicode="&#xb1;" horiz-adv-x="1706" d="M254 197h1198v-199h-1198v199zM752 1223h202v-326h498v-199h-498v-325h-202v325h-498v199h498v326z" />
<glyph unicode="&#xb2;" horiz-adv-x="766" d="M31 557q3 116 55.5 196t185.5 162q19 11 53 31q185 105 185 203q0 57 -37 90t-102 33q-72 0 -111 -40.5t-39 -115.5v-8h-174q0 148 87.5 227.5t248.5 79.5q145 0 232 -72t87 -192q0 -86 -45 -148t-176 -143q-30 -19 -84 -51q-118 -69 -133 -107h430v-145h-663z" />
<glyph unicode="&#xb3;" horiz-adv-x="766" d="M37 819h182q2 -73 39 -109t111 -36q71 0 110 34t39 97q0 64 -45 96.5t-135 32.5h-29v119h21q83 0 122.5 28.5t39.5 87.5q0 50 -34 79.5t-91 29.5q-63 0 -97 -33.5t-34 -95.5v-6h-178q2 130 84.5 201t232.5 71q142 0 224.5 -63t82.5 -170q0 -56 -28.5 -98.5t-84.5 -69.5 q73 -29 110.5 -80.5t37.5 -120.5q0 -130 -93.5 -205.5t-254.5 -75.5q-159 0 -245.5 74t-86.5 209v4z" />
<glyph unicode="&#xb4;" horiz-adv-x="1024" d="M805 1587l-313 -370h-142l197 370h258z" />
<glyph unicode="&#xb5;" horiz-adv-x="1249" d="M205 1092h289l-76 -435q-15 -80 -23 -151.5t-8 -116.5q0 -93 42 -138.5t128 -45.5q100 0 155.5 82t92.5 291l90 514h289l-193 -1092h-268l18 117q-42 -78 -93.5 -114t-121.5 -36q-67 0 -119 29.5t-94 91.5l-90 -526h-286z" />
<glyph unicode="&#xb6;" horiz-adv-x="1024" d="M983 1479v-111h-113v-1368h-151v1368h-158v-1368h-153v784q-167 6 -267 101t-100 245q0 158 107 253.5t284 95.5h551z" />
<glyph unicode="&#xb7;" horiz-adv-x="582" d="M135 702q0 65 45.5 110.5t110.5 45.5t110 -45t45 -111q0 -65 -45 -110t-110 -45q-66 0 -111 44.5t-45 110.5z" />
<glyph unicode="&#xb8;" horiz-adv-x="1024" d="M283 -438v129q80 -21 145 -32t111 -11q52 0 76 17.5t24 55.5t-28 54t-93 16q-23 0 -35 -0.5t-22 -1.5v211h102v-90h15q117 0 176 -48t59 -143q0 -100 -66 -150t-198 -50q-51 0 -119.5 11t-146.5 32z" />
<glyph unicode="&#xb9;" horiz-adv-x="766" d="M334 557v588h-228v121h17q122 0 178.5 34.5t67.5 114.5h151v-858h-186z" />
<glyph unicode="&#xba;" horiz-adv-x="934" d="M106 549h723v-125h-723v125zM467 1325q-87 0 -133.5 -59t-46.5 -168q0 -111 46 -169.5t134 -58.5q87 0 134.5 59.5t47.5 168.5q0 108 -48 167.5t-134 59.5zM467 1511q197 0 310.5 -110.5t113.5 -302.5q0 -194 -113 -304t-311 -110t-310 110t-112 304q0 193 112.5 303 t309.5 110z" />
<glyph unicode="&#xbb;" horiz-adv-x="915" d="M838 672v-256l-334 -289v238l205 180l-205 176v240zM408 672v-256l-336 -289v238l204 180l-204 176v240z" />
<glyph unicode="&#xbc;" horiz-adv-x="1806" d="M1487 297v342l-244 -342h244zM1483 0v174h-381v139l334 465h223v-477h104v-127h-104v-174h-176zM385 -41l870 1493h164l-872 -1493h-162zM317 612v549h-215v113h15q118 0 171.5 32t63.5 107h144v-801h-179z" />
<glyph unicode="&#xbd;" horiz-adv-x="1806" d="M1102 0q3 109 53.5 183.5t177.5 150.5q20 11 55 31q173 97 173 188q0 53 -36 84t-98 31q-68 0 -105.5 -38t-37.5 -108v-8h-166q0 138 83 212.5t237 74.5q140 0 223.5 -67t83.5 -179q0 -80 -43.5 -138.5t-169.5 -133.5q-27 -16 -74 -43q-117 -67 -132 -103h409v-137h-633z M385 -41l870 1493h164l-872 -1493h-162zM317 612v549h-215v113h15q118 0 171.5 32t63.5 107h144v-801h-179z" />
<glyph unicode="&#xbe;" horiz-adv-x="1804" d="M1487 297v342l-244 -342h244zM1483 0v174h-381v139l334 465h223v-477h104v-127h-104v-174h-176zM385 -41l870 1493h164l-872 -1493h-162zM37 856h171q3 -68 38.5 -101.5t105.5 -33.5q68 0 105 31.5t37 91.5t-43 90.5t-127 30.5q-6 0 -15 -1t-14 -1v112h20 q79 0 116.5 26.5t37.5 82.5q0 47 -32 74.5t-87 27.5q-60 0 -92.5 -31.5t-32.5 -89.5v-6h-171q2 123 81 188.5t223 65.5q135 0 214 -58.5t79 -158.5q0 -53 -27 -92.5t-81 -65.5q70 -27 105.5 -74.5t35.5 -113.5q0 -120 -89.5 -190t-242.5 -70q-152 0 -233.5 68.5t-81.5 195.5 v2z" />
<glyph unicode="&#xbf;" horiz-adv-x="1143" d="M719 1473v-295h-297v295h297zM705 1044q0 -10 1 -29t1 -28q0 -87 -19 -146t-61 -110q-33 -38 -96.5 -87t-81.5 -71q-39 -44 -54.5 -81t-15.5 -80q0 -96 52 -148.5t147 -52.5q94 0 149 63.5t60 178.5h284v-31q0 -212 -133.5 -337.5t-359.5 -125.5q-231 0 -367.5 119.5 t-136.5 318.5q0 73 15 128t46 100q40 56 126 122t106 84q38 37 54.5 78.5t16.5 100.5q0 5 -1 16.5t-1 17.5h269z" />
<glyph unicode="&#xc0;" horiz-adv-x="1405" d="M700 1178l-204 -627h409zM524 1473h350l531 -1473h-318l-100 303h-571l-97 -303h-319zM409 1972h258l197 -370h-142z" />
<glyph unicode="&#xc1;" horiz-adv-x="1405" d="M700 1178l-204 -627h409zM524 1473h350l531 -1473h-318l-100 303h-571l-97 -303h-319zM995 1972l-313 -370h-142l197 370h258z" />
<glyph unicode="&#xc2;" horiz-adv-x="1405" d="M700 1178l-204 -627h409zM524 1473h350l531 -1473h-318l-100 303h-571l-97 -303h-319zM387 1602l196 370h238l196 -370h-141l-174 217l-176 -217h-139z" />
<glyph unicode="&#xc3;" horiz-adv-x="1405" d="M700 1178l-204 -627h409zM524 1473h350l531 -1473h-318l-100 303h-571l-97 -303h-319zM1019 1923q-26 -125 -77 -184.5t-131 -59.5q-21 0 -39 2.5t-36 8.5l-87 26q-19 5 -35 7.5t-31 2.5q-34 0 -55 -18t-33 -59h-110q24 121 74 178t130 57q21 0 42 -3.5t44 -10.5l93 -25 q12 -4 25.5 -6t29.5 -2q32 0 53.5 21.5t32.5 64.5h110z" />
<glyph unicode="&#xc4;" horiz-adv-x="1405" d="M700 1178l-204 -627h409zM524 1473h350l531 -1473h-318l-100 303h-571l-97 -303h-319zM763 1661v246h226v-246h-226zM415 1661v246h226v-246h-226z" />
<glyph unicode="&#xc5;" horiz-adv-x="1405" d="M700 1835q-48 0 -82 -35.5t-34 -85.5q0 -49 33.5 -83t82.5 -34q50 0 85.5 34.5t35.5 82.5q0 49 -35.5 85t-85.5 36zM700 1972q108 0 183 -74.5t75 -181.5t-75 -181.5t-183 -74.5q-107 0 -180.5 74t-73.5 182t73.5 182t180.5 74zM508 1413h385l512 -1413h-318l-100 303 h-571l-97 -303h-319zM700 1178l-204 -627h409z" />
<glyph unicode="&#xc6;" horiz-adv-x="2052" d="M504 541h414v682h-166zM-14 0l581 1473h1366v-256h-723v-314h658v-252h-658v-379h760v-272h-1052v303h-500l-111 -303h-321z" />
<glyph unicode="&#xc7;" horiz-adv-x="1524" d="M1434 506q-14 -241 -174 -386t-429 -159v-51h15q117 0 176 -48t59 -143q0 -97 -65 -148.5t-189 -51.5q-59 0 -129.5 11t-148.5 32v129q79 -21 146 -32t112 -11q52 0 76 17.5t24 55.5q0 37 -26 52.5t-88 15.5h-41h-23v172q-301 16 -470 220t-169 554q0 375 185 575.5 t532 200.5q282 0 446.5 -138.5t178.5 -387.5h-299q-19 124 -102.5 190t-223.5 66q-200 0 -304 -129t-104 -377q0 -236 102.5 -369t284.5 -133q147 0 235 68.5t116 204.5h297z" />
<glyph unicode="&#xc8;" horiz-adv-x="1337" d="M152 0v1473h1069v-256h-770v-314h704v-252h-704v-379h806v-272h-1105zM395 1972h258l197 -370h-142z" />
<glyph unicode="&#xc9;" horiz-adv-x="1337" d="M152 0v1473h1069v-256h-770v-314h704v-252h-704v-379h806v-272h-1105zM981 1972l-313 -370h-142l197 370h258z" />
<glyph unicode="&#xca;" horiz-adv-x="1337" d="M152 0v1473h1069v-256h-770v-314h704v-252h-704v-379h806v-272h-1105zM373 1602l196 370h238l196 -370h-141l-174 217l-176 -217h-139z" />
<glyph unicode="&#xcb;" horiz-adv-x="1337" d="M152 0v1473h1069v-256h-770v-314h704v-252h-704v-379h806v-272h-1105zM749 1661v246h226v-246h-226zM401 1661v246h226v-246h-226z" />
<glyph unicode="&#xcc;" horiz-adv-x="629" d="M162 0v1473h303v-1473h-303zM22 1972h258l197 -370h-142z" />
<glyph unicode="&#xcd;" horiz-adv-x="629" d="M162 0v1473h303v-1473h-303zM608 1972l-313 -370h-142l197 370h258z" />
<glyph unicode="&#xce;" horiz-adv-x="629" d="M162 0v1473h303v-1473h-303zM0 1602l196 370h238l196 -370h-141l-174 217l-176 -217h-139z" />
<glyph unicode="&#xcf;" horiz-adv-x="629" d="M162 0v1473h303v-1473h-303zM376 1661v246h226v-246h-226zM28 1661v246h226v-246h-226z" />
<glyph unicode="&#xd0;" horiz-adv-x="1497" d="M455 266h243q212 0 307 111t95 358q0 246 -88.5 362.5t-276.5 116.5h-280v-327h323v-191h-323v-430zM158 0v696h-160v191h160v586h579q338 0 504 -182.5t166 -555.5q0 -203 -60.5 -357t-177.5 -247q-88 -70 -200.5 -100.5t-315.5 -30.5h-495z" />
<glyph unicode="&#xd1;" horiz-adv-x="1518" d="M152 0v1473h317l598 -1012v1012h299v-1473h-313l-602 1012v-1012h-299zM1085 1923q-26 -125 -77 -184.5t-131 -59.5q-21 0 -39 2.5t-36 8.5l-87 26q-19 5 -35 7.5t-31 2.5q-34 0 -55 -18t-33 -59h-110q24 121 74 178t130 57q21 0 42 -3.5t44 -10.5l93 -25q12 -4 25.5 -6 t29.5 -2q32 0 53.5 21.5t32.5 64.5h110z" />
<glyph unicode="&#xd2;" horiz-adv-x="1616" d="M397 735q0 -243 108 -377.5t302 -134.5q196 0 305 134.5t109 377.5t-109 377.5t-305 134.5q-194 0 -302 -134t-108 -378zM88 735q0 357 194.5 566.5t524.5 209.5t525.5 -210t195.5 -566t-195.5 -566t-525.5 -210t-524.5 210t-194.5 566zM516 1972h258l197 -370h-142z" />
<glyph unicode="&#xd3;" horiz-adv-x="1616" d="M397 735q0 -243 108 -377.5t302 -134.5q196 0 305 134.5t109 377.5t-109 377.5t-305 134.5q-194 0 -302 -134t-108 -378zM88 735q0 357 194.5 566.5t524.5 209.5t525.5 -210t195.5 -566t-195.5 -566t-525.5 -210t-524.5 210t-194.5 566zM1102 1972l-313 -370h-142 l197 370h258z" />
<glyph unicode="&#xd4;" horiz-adv-x="1616" d="M397 735q0 -243 108 -377.5t302 -134.5q196 0 305 134.5t109 377.5t-109 377.5t-305 134.5q-194 0 -302 -134t-108 -378zM88 735q0 357 194.5 566.5t524.5 209.5t525.5 -210t195.5 -566t-195.5 -566t-525.5 -210t-524.5 210t-194.5 566zM494 1602l196 370h238l196 -370 h-141l-174 217l-176 -217h-139z" />
<glyph unicode="&#xd5;" horiz-adv-x="1616" d="M397 735q0 -243 108 -377.5t302 -134.5q196 0 305 134.5t109 377.5t-109 377.5t-305 134.5q-194 0 -302 -134t-108 -378zM88 735q0 357 194.5 566.5t524.5 209.5t525.5 -210t195.5 -566t-195.5 -566t-525.5 -210t-524.5 210t-194.5 566zM1126 1923q-26 -125 -77 -184.5 t-131 -59.5q-21 0 -39 2.5t-36 8.5l-87 26q-19 5 -35 7.5t-31 2.5q-34 0 -55 -18t-33 -59h-110q24 121 74 178t130 57q21 0 42 -3.5t44 -10.5l93 -25q12 -4 25.5 -6t29.5 -2q32 0 53.5 21.5t32.5 64.5h110z" />
<glyph unicode="&#xd6;" horiz-adv-x="1616" d="M397 735q0 -243 108 -377.5t302 -134.5q196 0 305 134.5t109 377.5t-109 377.5t-305 134.5q-194 0 -302 -134t-108 -378zM88 735q0 357 194.5 566.5t524.5 209.5t525.5 -210t195.5 -566t-195.5 -566t-525.5 -210t-524.5 210t-194.5 566zM870 1661v246h226v-246h-226z M522 1661v246h226v-246h-226z" />
<glyph unicode="&#xd7;" horiz-adv-x="1706" d="M416 1202l450 -450l451 450l141 -139l-450 -453l450 -450l-141 -140l-451 451l-450 -451l-140 140l451 450l-451 453z" />
<glyph unicode="&#xd8;" horiz-adv-x="1616" d="M512 348q58 -63 131 -94t164 -31q196 0 305 134.5t109 377.5q0 99 -18 179.5t-52 140.5zM449 449l632 696q-53 51 -121 76.5t-153 25.5q-194 0 -302 -134t-108 -378q0 -90 12.5 -160t39.5 -126zM55 23l183 204q-76 103 -113 229.5t-37 278.5q0 357 194.5 566.5 t524.5 209.5q141 0 253.5 -36t207.5 -111l147 166l98 -88l-155 -168q85 -105 127.5 -239t42.5 -300q0 -356 -195 -566t-526 -210q-149 0 -268.5 42t-214.5 128l-172 -195z" />
<glyph unicode="&#xd9;" horiz-adv-x="1468" d="M143 1477h306v-924q0 -171 68 -249.5t216 -78.5q150 0 218.5 78t68.5 250v924h303v-957q0 -271 -151.5 -416t-436.5 -145q-287 0 -439.5 144.5t-152.5 416.5v957zM442 1972h258l197 -370h-142z" />
<glyph unicode="&#xda;" horiz-adv-x="1468" d="M143 1477h306v-924q0 -171 68 -249.5t216 -78.5q150 0 218.5 78t68.5 250v924h303v-957q0 -271 -151.5 -416t-436.5 -145q-287 0 -439.5 144.5t-152.5 416.5v957zM1028 1972l-313 -370h-142l197 370h258z" />
<glyph unicode="&#xdb;" horiz-adv-x="1468" d="M143 1477h306v-924q0 -171 68 -249.5t216 -78.5q150 0 218.5 78t68.5 250v924h303v-957q0 -271 -151.5 -416t-436.5 -145q-287 0 -439.5 144.5t-152.5 416.5v957zM420 1602l196 370h238l196 -370h-141l-174 217l-176 -217h-139z" />
<glyph unicode="&#xdc;" horiz-adv-x="1468" d="M143 1477h306v-924q0 -171 68 -249.5t216 -78.5q150 0 218.5 78t68.5 250v924h303v-957q0 -271 -151.5 -416t-436.5 -145q-287 0 -439.5 144.5t-152.5 416.5v957zM796 1661v246h226v-246h-226zM448 1661v246h226v-246h-226z" />
<glyph unicode="&#xdd;" horiz-adv-x="1274" d="M811 0h-303v549l-535 924h371l315 -635l291 635h346l-485 -924v-549zM930 1972l-313 -370h-142l197 370h258z" />
<glyph unicode="&#xde;" horiz-adv-x="1346" d="M451 1243h344q228 0 345 -112.5t117 -331.5q0 -214 -114.5 -329.5t-327.5 -115.5h-364v-354h-299v1473h299v-230zM453 600h292q120 0 174 47.5t54 151.5q0 97 -54 146.5t-159 49.5h-307v-395z" />
<glyph unicode="&#xdf;" horiz-adv-x="1229" d="M127 0v1112q0 166 129 268.5t344 102.5q219 0 343 -100t124 -275q0 -108 -36.5 -177t-112.5 -106q118 -47 177.5 -138t59.5 -224q0 -224 -129 -362t-338 -138q-29 0 -64.5 3t-76.5 9v234q13 -2 26.5 -3t40.5 -1q118 0 182 65.5t64 186.5q0 117 -69.5 178t-202.5 61h-27 l1 205q6 -1 13 -1.5t21 -0.5q89 0 135.5 44.5t46.5 129.5t-48.5 129.5t-141.5 44.5q-86 0 -131 -49.5t-45 -144.5v-1053h-285z" />
<glyph unicode="&#xe0;" horiz-adv-x="1151" d="M750 135q-55 -85 -144 -129.5t-207 -44.5q-158 0 -243.5 90t-85.5 256q0 154 85.5 235t282.5 111q45 7 118 16q185 24 185 107q0 66 -41 94.5t-137 28.5q-88 0 -135 -35t-47 -100v-16h-272v20q0 167 118 262.5t326 95.5q228 0 349.5 -79t121.5 -228v-618q0 -68 14 -101.5 t47 -50.5v-49h-303q-15 28 -23 62t-9 73zM745 535q-71 -33 -163.5 -53t-95.5 -21q-77 -22 -107.5 -55t-30.5 -91q0 -60 39 -95.5t105 -35.5q118 0 185.5 66.5t67.5 181.5v103zM268 1587h258l197 -370h-142z" />
<glyph unicode="&#xe1;" horiz-adv-x="1151" d="M750 135q-55 -85 -144 -129.5t-207 -44.5q-158 0 -243.5 90t-85.5 256q0 154 85.5 235t282.5 111q45 7 118 16q185 24 185 107q0 66 -41 94.5t-137 28.5q-88 0 -135 -35t-47 -100v-16h-272v20q0 167 118 262.5t326 95.5q228 0 349.5 -79t121.5 -228v-618q0 -68 14 -101.5 t47 -50.5v-49h-303q-15 28 -23 62t-9 73zM745 535q-71 -33 -163.5 -53t-95.5 -21q-77 -22 -107.5 -55t-30.5 -91q0 -60 39 -95.5t105 -35.5q118 0 185.5 66.5t67.5 181.5v103zM854 1587l-313 -370h-142l197 370h258z" />
<glyph unicode="&#xe2;" horiz-adv-x="1151" d="M750 135q-55 -85 -144 -129.5t-207 -44.5q-158 0 -243.5 90t-85.5 256q0 154 85.5 235t282.5 111q45 7 118 16q185 24 185 107q0 66 -41 94.5t-137 28.5q-88 0 -135 -35t-47 -100v-16h-272v20q0 167 118 262.5t326 95.5q228 0 349.5 -79t121.5 -228v-618q0 -68 14 -101.5 t47 -50.5v-49h-303q-15 28 -23 62t-9 73zM745 535q-71 -33 -163.5 -53t-95.5 -21q-77 -22 -107.5 -55t-30.5 -91q0 -60 39 -95.5t105 -35.5q118 0 185.5 66.5t67.5 181.5v103zM246 1217l196 370h238l196 -370h-141l-174 217l-176 -217h-139z" />
<glyph unicode="&#xe3;" horiz-adv-x="1151" d="M750 135q-55 -85 -144 -129.5t-207 -44.5q-158 0 -243.5 90t-85.5 256q0 154 85.5 235t282.5 111q45 7 118 16q185 24 185 107q0 66 -41 94.5t-137 28.5q-88 0 -135 -35t-47 -100v-16h-272v20q0 167 118 262.5t326 95.5q228 0 349.5 -79t121.5 -228v-618q0 -68 14 -101.5 t47 -50.5v-49h-303q-15 28 -23 62t-9 73zM745 535q-71 -33 -163.5 -53t-95.5 -21q-77 -22 -107.5 -55t-30.5 -91q0 -60 39 -95.5t105 -35.5q118 0 185.5 66.5t67.5 181.5v103zM878 1538q-26 -125 -77 -184.5t-131 -59.5q-21 0 -39 2.5t-36 8.5l-87 26q-19 5 -35 7.5t-31 2.5 q-34 0 -55 -18t-33 -59h-110q24 121 74 178t130 57q21 0 42 -3.5t44 -10.5l93 -25q12 -4 25.5 -6t29.5 -2q32 0 53.5 21.5t32.5 64.5h110z" />
<glyph unicode="&#xe4;" horiz-adv-x="1151" d="M750 135q-55 -85 -144 -129.5t-207 -44.5q-158 0 -243.5 90t-85.5 256q0 154 85.5 235t282.5 111q45 7 118 16q185 24 185 107q0 66 -41 94.5t-137 28.5q-88 0 -135 -35t-47 -100v-16h-272v20q0 167 118 262.5t326 95.5q228 0 349.5 -79t121.5 -228v-618q0 -68 14 -101.5 t47 -50.5v-49h-303q-15 28 -23 62t-9 73zM745 535q-71 -33 -163.5 -53t-95.5 -21q-77 -22 -107.5 -55t-30.5 -91q0 -60 39 -95.5t105 -35.5q118 0 185.5 66.5t67.5 181.5v103zM622 1276v246h226v-246h-226zM274 1276v246h226v-246h-226z" />
<glyph unicode="&#xe5;" horiz-adv-x="1151" d="M745 535q-71 -33 -163.5 -53t-95.5 -21q-77 -22 -107.5 -55t-30.5 -91q0 -60 39 -95.5t105 -35.5q118 0 185.5 66.5t67.5 181.5v103zM449 1427q0 -48 34.5 -82t83.5 -34q50 0 84.5 34t34.5 82q0 50 -35 85.5t-84 35.5t-83.5 -35.5t-34.5 -85.5zM311 1430 q0 107 74.5 181.5t181.5 74.5q108 0 182 -74.5t74 -181.5q0 -108 -74 -182t-182 -74q-107 0 -181.5 74t-74.5 182zM750 135q-55 -85 -144 -129.5t-207 -44.5q-158 0 -243.5 90t-85.5 256q0 154 85.5 235t282.5 111q45 7 118 16q185 24 185 107q0 66 -41 94.5t-137 28.5 q-88 0 -135 -35t-47 -100v-16h-272v20q0 167 118 262.5t326 95.5q228 0 349.5 -79t121.5 -228v-618q0 -68 14 -101.5t47 -50.5v-49h-303q-15 28 -23 62t-9 73z" />
<glyph unicode="&#xe6;" horiz-adv-x="1810" d="M1002 659h440v7q0 107 -59.5 168t-163.5 61q-97 0 -155.5 -63.5t-61.5 -172.5zM739 530q-72 -32 -177.5 -54t-132.5 -35q-38 -18 -57.5 -51t-19.5 -79q0 -62 40.5 -95.5t115.5 -33.5q96 0 163.5 62t67.5 147v139zM850 154q-68 -97 -176 -144t-264 -47q-165 0 -252.5 88.5 t-87.5 255.5q0 147 82.5 231t250.5 109q44 6 118 16q212 26 212 111q0 70 -38 95.5t-142 25.5q-83 0 -126.5 -35.5t-43.5 -103.5v-8h-274v22q0 167 120.5 261.5t335.5 94.5q111 0 201 -30t147 -86q62 60 140 88t182 28q242 0 375 -152.5t133 -430.5q0 -31 -0.5 -46.5 t-2.5 -29.5h-738q1 -128 62 -198t171 -70q70 0 121 33t84 100h291q-41 -174 -177.5 -271.5t-339.5 -97.5q-124 0 -216.5 48.5t-147.5 142.5z" />
<glyph unicode="&#xe7;" horiz-adv-x="1128" d="M784 410h287q-20 -207 -140 -320t-327 -119v-61h14q118 0 177 -48t59 -143q0 -97 -65 -148.5t-189 -51.5q-59 0 -128.5 10.5t-147.5 32.5v129q96 -24 156.5 -34.5t97.5 -10.5q52 0 77 18.5t25 56.5q0 37 -26.5 52.5t-88.5 15.5h-41h-22v180q-205 23 -317.5 173.5 t-112.5 400.5q0 274 137 428.5t379 154.5q210 0 338 -112.5t143 -311.5h-289q-12 87 -61 133t-129 46q-107 0 -161 -85.5t-54 -254.5q0 -156 54.5 -241t154.5 -85q86 0 135.5 48t64.5 147z" />
<glyph unicode="&#xe8;" horiz-adv-x="1167" d="M797 330h290q-44 -172 -177.5 -269.5t-325.5 -97.5q-236 0 -374 158.5t-138 429.5q0 267 136 421t372 154q250 0 386 -151.5t136 -431.5q0 -31 -0.5 -46.5t-2.5 -29.5h-726q6 -128 62.5 -193t162.5 -65q75 0 123 29.5t76 91.5zM373 658h428q-4 110 -58.5 167.5 t-156.5 57.5q-95 0 -149.5 -58t-63.5 -167zM291 1587h258l197 -370h-142z" />
<glyph unicode="&#xe9;" horiz-adv-x="1167" d="M797 330h290q-44 -172 -177.5 -269.5t-325.5 -97.5q-236 0 -374 158.5t-138 429.5q0 267 136 421t372 154q250 0 386 -151.5t136 -431.5q0 -31 -0.5 -46.5t-2.5 -29.5h-726q6 -128 62.5 -193t162.5 -65q75 0 123 29.5t76 91.5zM373 658h428q-4 110 -58.5 167.5 t-156.5 57.5q-95 0 -149.5 -58t-63.5 -167zM877 1587l-313 -370h-142l197 370h258z" />
<glyph unicode="&#xea;" horiz-adv-x="1167" d="M797 330h290q-44 -172 -177.5 -269.5t-325.5 -97.5q-236 0 -374 158.5t-138 429.5q0 267 136 421t372 154q250 0 386 -151.5t136 -431.5q0 -31 -0.5 -46.5t-2.5 -29.5h-726q6 -128 62.5 -193t162.5 -65q75 0 123 29.5t76 91.5zM373 658h428q-4 110 -58.5 167.5 t-156.5 57.5q-95 0 -149.5 -58t-63.5 -167zM269 1217l196 370h238l196 -370h-141l-174 217l-176 -217h-139z" />
<glyph unicode="&#xeb;" horiz-adv-x="1167" d="M797 330h290q-44 -172 -177.5 -269.5t-325.5 -97.5q-236 0 -374 158.5t-138 429.5q0 267 136 421t372 154q250 0 386 -151.5t136 -431.5q0 -31 -0.5 -46.5t-2.5 -29.5h-726q6 -128 62.5 -193t162.5 -65q75 0 123 29.5t76 91.5zM373 658h428q-4 110 -58.5 167.5 t-156.5 57.5q-95 0 -149.5 -58t-63.5 -167zM645 1276v246h226v-246h-226zM297 1276v246h226v-246h-226z" />
<glyph unicode="&#xec;" horiz-adv-x="557" d="M133 0v1087h291v-1087h-291zM-14 1587h258l197 -370h-142z" />
<glyph unicode="&#xed;" horiz-adv-x="557" d="M133 0v1087h291v-1087h-291zM572 1587l-313 -370h-142l197 370h258z" />
<glyph unicode="&#xee;" horiz-adv-x="557" d="M133 0v1087h291v-1087h-291zM-36 1217l196 370h238l196 -370h-141l-174 217l-176 -217h-139z" />
<glyph unicode="&#xef;" horiz-adv-x="557" d="M133 0v1087h291v-1087h-291zM340 1276v246h226v-246h-226zM-8 1276v246h226v-246h-226z" />
<glyph unicode="&#xf0;" horiz-adv-x="1247" d="M721 1004q-37 47 -87 92t-114 88l-289 -144l-57 117l219 109q-56 34 -189 97l-3 1l80 145q79 -24 166.5 -60.5t185.5 -86.5l289 141l57 -114l-223 -111q212 -151 317 -339t105 -419q0 -261 -147.5 -409t-407.5 -148q-259 0 -405 144t-146 399q0 237 135.5 386.5 t345.5 149.5q44 0 85.5 -9.5t82.5 -28.5zM367 520q0 -150 66.5 -231.5t189.5 -81.5q122 0 188 81t66 232q0 150 -66 230.5t-188 80.5q-123 0 -189.5 -81t-66.5 -230z" />
<glyph unicode="&#xf1;" horiz-adv-x="1223" d="M127 0v1087h285v-129q61 79 144 118.5t185 39.5q180 0 269.5 -93.5t89.5 -281.5v-741h-291v657q0 117 -39.5 167t-128.5 50q-103 0 -163 -61.5t-60 -167.5v-645h-291zM944 1538q-26 -125 -77 -184.5t-131 -59.5q-21 0 -39 2.5t-36 8.5l-87 26q-19 5 -35 7.5t-31 2.5 q-34 0 -55 -18t-33 -59h-110q24 121 74 178t130 57q21 0 42 -3.5t44 -10.5l93 -25q12 -4 25.5 -6t29.5 -2q32 0 53.5 21.5t32.5 64.5h110z" />
<glyph unicode="&#xf2;" horiz-adv-x="1245" d="M367 545q0 -162 66.5 -250t189.5 -88q121 0 187.5 88t66.5 250q0 161 -66 248.5t-188 87.5q-123 0 -189.5 -87.5t-66.5 -248.5zM72 545q0 271 147 426t404 155q256 0 403.5 -155t147.5 -426q0 -272 -147.5 -427t-403.5 -155q-257 0 -404 155t-147 427zM330 1587h258 l197 -370h-142z" />
<glyph unicode="&#xf3;" horiz-adv-x="1245" d="M367 545q0 -162 66.5 -250t189.5 -88q121 0 187.5 88t66.5 250q0 161 -66 248.5t-188 87.5q-123 0 -189.5 -87.5t-66.5 -248.5zM72 545q0 271 147 426t404 155q256 0 403.5 -155t147.5 -426q0 -272 -147.5 -427t-403.5 -155q-257 0 -404 155t-147 427zM916 1587 l-313 -370h-142l197 370h258z" />
<glyph unicode="&#xf4;" horiz-adv-x="1245" d="M367 545q0 -162 66.5 -250t189.5 -88q121 0 187.5 88t66.5 250q0 161 -66 248.5t-188 87.5q-123 0 -189.5 -87.5t-66.5 -248.5zM72 545q0 271 147 426t404 155q256 0 403.5 -155t147.5 -426q0 -272 -147.5 -427t-403.5 -155q-257 0 -404 155t-147 427zM308 1217l196 370 h238l196 -370h-141l-174 217l-176 -217h-139z" />
<glyph unicode="&#xf5;" horiz-adv-x="1245" d="M367 545q0 -162 66.5 -250t189.5 -88q121 0 187.5 88t66.5 250q0 161 -66 248.5t-188 87.5q-123 0 -189.5 -87.5t-66.5 -248.5zM72 545q0 271 147 426t404 155q256 0 403.5 -155t147.5 -426q0 -272 -147.5 -427t-403.5 -155q-257 0 -404 155t-147 427zM940 1538 q-26 -125 -77 -184.5t-131 -59.5q-21 0 -39 2.5t-36 8.5l-87 26q-19 5 -35 7.5t-31 2.5q-34 0 -55 -18t-33 -59h-110q24 121 74 178t130 57q21 0 42 -3.5t44 -10.5l93 -25q12 -4 25.5 -6t29.5 -2q32 0 53.5 21.5t32.5 64.5h110z" />
<glyph unicode="&#xf6;" horiz-adv-x="1245" d="M367 545q0 -162 66.5 -250t189.5 -88q121 0 187.5 88t66.5 250q0 161 -66 248.5t-188 87.5q-123 0 -189.5 -87.5t-66.5 -248.5zM72 545q0 271 147 426t404 155q256 0 403.5 -155t147.5 -426q0 -272 -147.5 -427t-403.5 -155q-257 0 -404 155t-147 427zM684 1276v246h226 v-246h-226zM336 1276v246h226v-246h-226z" />
<glyph unicode="&#xf7;" horiz-adv-x="1706" d="M854 369q62 0 107 -45t45 -107q0 -61 -45 -105t-107 -44q-63 0 -107.5 43t-44.5 106t44.5 107.5t107.5 44.5zM254 711h1198v-199h-1198v199zM854 1155q62 0 107 -44.5t45 -106.5q0 -63 -44.5 -107.5t-107.5 -44.5t-107.5 44.5t-44.5 107.5t44.5 107t107.5 44z" />
<glyph unicode="&#xf8;" horiz-adv-x="1245" d="M434 281q37 -43 81 -62.5t103 -19.5q130 0 198.5 89.5t68.5 260.5q0 47 -6.5 90.5t-20.5 83.5zM809 811q-38 39 -81.5 58.5t-94.5 19.5q-136 0 -205.5 -89t-69.5 -263q0 -44 7.5 -86.5t21.5 -83.5zM39 10l145 152q-58 79 -86 172.5t-28 210.5q0 270 150 426.5t409 156.5 q104 0 193 -30t167 -92l135 145l78 -74l-141 -149q57 -74 85 -168.5t28 -218.5q0 -268 -149.5 -424t-403.5 -156q-115 0 -204 29.5t-161 91.5l-139 -148z" />
<glyph unicode="&#xf9;" horiz-adv-x="1223" d="M1096 1087v-1087h-285v129q-62 -79 -144.5 -118.5t-185.5 -39.5q-179 0 -268.5 94t-89.5 281v741h291v-657q0 -116 39 -165.5t129 -49.5q102 0 162.5 61.5t60.5 167.5v643h291zM319 1587h258l197 -370h-142z" />
<glyph unicode="&#xfa;" horiz-adv-x="1223" d="M1096 1087v-1087h-285v129q-62 -79 -144.5 -118.5t-185.5 -39.5q-179 0 -268.5 94t-89.5 281v741h291v-657q0 -116 39 -165.5t129 -49.5q102 0 162.5 61.5t60.5 167.5v643h291zM905 1587l-313 -370h-142l197 370h258z" />
<glyph unicode="&#xfb;" horiz-adv-x="1223" d="M1096 1087v-1087h-285v129q-62 -79 -144.5 -118.5t-185.5 -39.5q-179 0 -268.5 94t-89.5 281v741h291v-657q0 -116 39 -165.5t129 -49.5q102 0 162.5 61.5t60.5 167.5v643h291zM297 1217l196 370h238l196 -370h-141l-174 217l-176 -217h-139z" />
<glyph unicode="&#xfc;" horiz-adv-x="1223" d="M1096 1087v-1087h-285v129q-62 -79 -144.5 -118.5t-185.5 -39.5q-179 0 -268.5 94t-89.5 281v741h291v-657q0 -116 39 -165.5t129 -49.5q102 0 162.5 61.5t60.5 167.5v643h291zM673 1276v246h226v-246h-226zM325 1276v246h226v-246h-226z" />
<glyph unicode="&#xfd;" horiz-adv-x="1100" d="M170 -436v235q14 -2 29 -3t39 -1q86 0 129 40.5t43 121.5q0 6 -2 15t-4 15l-392 1100h320l229 -784l223 784h306l-447 -1282q-50 -144 -125 -196.5t-225 -52.5q-27 0 -58 2t-65 6zM844 1587l-313 -370h-142l197 370h258z" />
<glyph unicode="&#xfe;" horiz-adv-x="1255" d="M895 537q0 164 -62 250.5t-180 86.5q-116 0 -176.5 -86t-60.5 -251q0 -154 63.5 -238t179.5 -84q110 0 173 86t63 236zM133 -436v1909h283v-527q60 91 137.5 134.5t179.5 43.5q201 0 326 -158.5t125 -416.5q0 -261 -125 -423.5t-322 -162.5q-104 0 -185.5 44t-135.5 128 v-571h-283z" />
<glyph unicode="&#xff;" horiz-adv-x="1100" d="M170 -436v235q14 -2 29 -3t39 -1q86 0 129 40.5t43 121.5q0 6 -2 15t-4 15l-392 1100h320l229 -784l223 784h306l-447 -1282q-50 -144 -125 -196.5t-225 -52.5q-27 0 -58 2t-65 6zM612 1276v246h226v-246h-226zM264 1276v246h226v-246h-226z" />
<glyph unicode="&#x100;" horiz-adv-x="1405" d="M700 1178l-204 -627h409zM524 1473h350l531 -1473h-318l-100 303h-571l-97 -303h-319zM415 1706v156h574v-156h-574z" />
<glyph unicode="&#x101;" horiz-adv-x="1151" d="M750 135q-55 -85 -144 -129.5t-207 -44.5q-158 0 -243.5 90t-85.5 256q0 154 85.5 235t282.5 111q45 7 118 16q185 24 185 107q0 66 -41 94.5t-137 28.5q-88 0 -135 -35t-47 -100v-16h-272v20q0 167 118 262.5t326 95.5q228 0 349.5 -79t121.5 -228v-618q0 -68 14 -101.5 t47 -50.5v-49h-303q-15 28 -23 62t-9 73zM745 535q-71 -33 -163.5 -53t-95.5 -21q-77 -22 -107.5 -55t-30.5 -91q0 -60 39 -95.5t105 -35.5q118 0 185.5 66.5t67.5 181.5v103zM274 1321v156h574v-156h-574z" />
<glyph unicode="&#x102;" horiz-adv-x="1405" d="M700 1178l-204 -627h409zM524 1473h350l531 -1473h-318l-100 303h-571l-97 -303h-319zM393 1937h123q6 -76 50.5 -111.5t135.5 -35.5q90 0 134 35t50 112h123q-11 -156 -85 -229.5t-222 -73.5q-147 0 -222.5 74t-86.5 229z" />
<glyph unicode="&#x103;" horiz-adv-x="1151" d="M750 135q-55 -85 -144 -129.5t-207 -44.5q-158 0 -243.5 90t-85.5 256q0 154 85.5 235t282.5 111q45 7 118 16q185 24 185 107q0 66 -41 94.5t-137 28.5q-88 0 -135 -35t-47 -100v-16h-272v20q0 167 118 262.5t326 95.5q228 0 349.5 -79t121.5 -228v-618q0 -68 14 -101.5 t47 -50.5v-49h-303q-15 28 -23 62t-9 73zM745 535q-71 -33 -163.5 -53t-95.5 -21q-77 -22 -107.5 -55t-30.5 -91q0 -60 39 -95.5t105 -35.5q118 0 185.5 66.5t67.5 181.5v103zM252 1552h123q6 -76 50.5 -111.5t135.5 -35.5q90 0 134 35t50 112h123q-11 -156 -85 -229.5 t-222 -73.5q-147 0 -222.5 74t-86.5 229z" />
<glyph unicode="&#x104;" horiz-adv-x="1405" d="M524 1473h350l531 -1473h-47q-61 -48 -94 -101.5t-33 -103.5q0 -40 20.5 -60t61.5 -20h102v-174h-106q-118 0 -178 46.5t-60 138.5q0 72 44.5 136t146.5 138h-175l-100 303h-571l-97 -303h-319zM700 1178l-204 -627h409z" />
<glyph unicode="&#x105;" horiz-adv-x="1151" d="M745 535q-76 -37 -204 -62q-39 -8 -56 -12q-72 -18 -104.5 -52.5t-32.5 -93.5q0 -60 39 -95.5t105 -35.5q118 0 185.5 66.5t67.5 181.5v103zM750 135q-54 -85 -143 -129.5t-208 -44.5q-157 0 -243 90t-86 256q0 154 84.5 234.5t283.5 111.5q45 7 118 16q185 23 185 107 q0 66 -41 94.5t-137 28.5q-88 0 -135 -35t-47 -100v-16h-272v24q0 166 118.5 260t325.5 94q227 0 349 -79t122 -228v-618q0 -67 14 -100.5t47 -51.5v-49h-47q-62 -50 -94.5 -102.5t-32.5 -102.5q0 -40 20.5 -60t61.5 -20h101v-174h-105q-117 0 -177 46.5t-60 138.5 q0 72 44.5 137t143.5 137h-158q-15 29 -23 61.5t-9 73.5z" />
<glyph unicode="&#x106;" horiz-adv-x="1524" d="M1434 506q-17 -251 -193.5 -399t-460.5 -148q-327 0 -508.5 204t-181.5 572q0 376 185 576t532 200q282 0 445.5 -137.5t179.5 -388.5h-299q-19 125 -102 190.5t-224 65.5q-200 0 -304 -129t-104 -377q0 -240 103.5 -371t294.5 -131q138 0 226 70.5t114 202.5h297z M1088 1972l-313 -370h-142l197 370h258z" />
<glyph unicode="&#x107;" horiz-adv-x="1128" d="M784 410h287q-18 -207 -151 -327t-342 -120q-237 0 -371.5 154.5t-134.5 427.5q0 272 137.5 426.5t378.5 154.5q211 0 338.5 -112t142.5 -312h-289q-12 87 -61 133t-129 46q-108 0 -161.5 -85t-53.5 -255q0 -157 55.5 -241.5t159.5 -84.5q81 0 130 49t64 146zM879 1587 l-313 -370h-142l197 370h258z" />
<glyph unicode="&#x108;" horiz-adv-x="1524" d="M1434 506q-17 -251 -193.5 -399t-460.5 -148q-327 0 -508.5 204t-181.5 572q0 376 185 576t532 200q282 0 445.5 -137.5t179.5 -388.5h-299q-19 125 -102 190.5t-224 65.5q-200 0 -304 -129t-104 -377q0 -240 103.5 -371t294.5 -131q138 0 226 70.5t114 202.5h297z M480 1602l196 370h238l196 -370h-141l-174 217l-176 -217h-139z" />
<glyph unicode="&#x109;" horiz-adv-x="1128" d="M784 410h287q-18 -207 -151 -327t-342 -120q-237 0 -371.5 154.5t-134.5 427.5q0 272 137.5 426.5t378.5 154.5q211 0 338.5 -112t142.5 -312h-289q-12 87 -61 133t-129 46q-108 0 -161.5 -85t-53.5 -255q0 -157 55.5 -241.5t159.5 -84.5q81 0 130 49t64 146zM271 1217 l196 370h238l196 -370h-141l-174 217l-176 -217h-139z" />
<glyph unicode="&#x10a;" horiz-adv-x="1524" d="M1434 506q-17 -251 -193.5 -399t-460.5 -148q-327 0 -508.5 204t-181.5 572q0 376 185 576t532 200q282 0 445.5 -137.5t179.5 -388.5h-299q-19 125 -102 190.5t-224 65.5q-200 0 -304 -129t-104 -377q0 -240 103.5 -371t294.5 -131q138 0 226 70.5t114 202.5h297z M678 1655v258h236v-258h-236z" />
<glyph unicode="&#x10b;" horiz-adv-x="1128" d="M784 410h287q-18 -207 -151 -327t-342 -120q-237 0 -371.5 154.5t-134.5 427.5q0 272 137.5 426.5t378.5 154.5q211 0 338.5 -112t142.5 -312h-289q-12 87 -61 133t-129 46q-108 0 -161.5 -85t-53.5 -255q0 -157 55.5 -241.5t159.5 -84.5q81 0 130 49t64 146zM469 1270 v258h236v-258h-236z" />
<glyph unicode="&#x10c;" horiz-adv-x="1524" d="M1434 506q-17 -251 -193.5 -399t-460.5 -148q-327 0 -508.5 204t-181.5 572q0 376 185 576t532 200q282 0 445.5 -137.5t179.5 -388.5h-299q-19 125 -102 190.5t-224 65.5q-200 0 -304 -129t-104 -377q0 -240 103.5 -371t294.5 -131q138 0 226 70.5t114 202.5h297z M480 1972h139l176 -219l174 219h141l-196 -370h-238z" />
<glyph unicode="&#x10d;" horiz-adv-x="1128" d="M784 410h287q-18 -207 -151 -327t-342 -120q-237 0 -371.5 154.5t-134.5 427.5q0 272 137.5 426.5t378.5 154.5q211 0 338.5 -112t142.5 -312h-289q-12 87 -61 133t-129 46q-108 0 -161.5 -85t-53.5 -255q0 -157 55.5 -241.5t159.5 -84.5q81 0 130 49t64 146zM271 1587 h139l176 -219l174 219h141l-196 -370h-238z" />
<glyph unicode="&#x10e;" horiz-adv-x="1489" d="M449 266h243q211 0 305.5 110.5t94.5 358.5q0 247 -88 363t-275 116h-280v-948zM152 0v1473h577q339 0 505.5 -183t166.5 -555q0 -202 -61.5 -356t-178.5 -248q-88 -70 -200 -100.5t-314 -30.5h-495zM430 1972h139l176 -219l174 219h141l-196 -370h-238z" />
<glyph unicode="&#x10f;" horiz-adv-x="1507" d="M1126 1473v-1473h-276v147q-63 -95 -141.5 -139.5t-184.5 -44.5q-201 0 -325.5 159t-124.5 417q0 260 124.5 422.5t321.5 162.5q105 0 187.5 -44t136.5 -128v521h282zM365 551q0 -165 62 -251.5t179 -86.5q116 0 177 86t61 252q0 154 -64 237.5t-180 83.5 q-109 0 -172 -85.5t-63 -235.5zM1260 1253v220h248v-191q0 -120 -57.5 -176t-186.5 -62v98q63 4 91 26t28 69v16h-123z" />
<glyph unicode="&#x110;" horiz-adv-x="1497" d="M455 266h243q212 0 307 111t95 358q0 246 -88.5 362.5t-276.5 116.5h-280v-327h323v-191h-323v-430zM158 0v696h-160v191h160v586h579q338 0 504 -182.5t166 -555.5q0 -203 -60.5 -357t-177.5 -247q-88 -70 -200.5 -100.5t-315.5 -30.5h-495z" />
<glyph unicode="&#x111;" horiz-adv-x="1266" d="M1126 1473v-109h140v-162h-140v-1202h-276v147q-65 -96 -142.5 -140t-183.5 -44q-200 0 -325 159.5t-125 416.5q0 260 125.5 422.5t320.5 162.5q105 0 187.5 -44t136.5 -128v250h-324v162h324v109h282zM365 551q0 -165 61.5 -251.5t179.5 -86.5q116 0 177 86t61 252 q0 153 -64 237t-180 84q-109 0 -172 -86t-63 -235z" />
<glyph unicode="&#x112;" horiz-adv-x="1337" d="M152 0v1473h1069v-256h-770v-314h704v-252h-704v-379h806v-272h-1105zM401 1706v156h574v-156h-574z" />
<glyph unicode="&#x113;" horiz-adv-x="1167" d="M797 330h290q-44 -172 -177.5 -269.5t-325.5 -97.5q-236 0 -374 158.5t-138 429.5q0 267 136 421t372 154q250 0 386 -151.5t136 -431.5q0 -31 -0.5 -46.5t-2.5 -29.5h-726q6 -128 62.5 -193t162.5 -65q75 0 123 29.5t76 91.5zM373 658h428q-4 110 -58.5 167.5 t-156.5 57.5q-95 0 -149.5 -58t-63.5 -167zM297 1321v156h574v-156h-574z" />
<glyph unicode="&#x114;" horiz-adv-x="1337" d="M152 0v1473h1069v-256h-770v-314h704v-252h-704v-379h806v-272h-1105zM379 1937h123q6 -76 50.5 -111.5t135.5 -35.5q90 0 134 35t50 112h123q-11 -156 -85 -229.5t-222 -73.5q-147 0 -222.5 74t-86.5 229z" />
<glyph unicode="&#x115;" horiz-adv-x="1167" d="M797 330h290q-44 -172 -177.5 -269.5t-325.5 -97.5q-236 0 -374 158.5t-138 429.5q0 267 136 421t372 154q250 0 386 -151.5t136 -431.5q0 -31 -0.5 -46.5t-2.5 -29.5h-726q6 -128 62.5 -193t162.5 -65q75 0 123 29.5t76 91.5zM373 658h428q-4 110 -58.5 167.5 t-156.5 57.5q-95 0 -149.5 -58t-63.5 -167zM275 1552h123q6 -76 50.5 -111.5t135.5 -35.5q90 0 134 35t50 112h123q-11 -156 -85 -229.5t-222 -73.5q-147 0 -222.5 74t-86.5 229z" />
<glyph unicode="&#x116;" horiz-adv-x="1337" d="M152 0v1473h1069v-256h-770v-314h704v-252h-704v-379h806v-272h-1105zM571 1655v258h236v-258h-236z" />
<glyph unicode="&#x117;" horiz-adv-x="1167" d="M797 330h290q-44 -172 -177.5 -269.5t-325.5 -97.5q-236 0 -374 158.5t-138 429.5q0 267 136 421t372 154q250 0 386 -151.5t136 -431.5q0 -31 -0.5 -46.5t-2.5 -29.5h-726q6 -128 62.5 -193t162.5 -65q75 0 123 29.5t76 91.5zM373 658h428q-4 110 -58.5 167.5 t-156.5 57.5q-95 0 -149.5 -58t-63.5 -167zM467 1270v258h236v-258h-236z" />
<glyph unicode="&#x118;" horiz-adv-x="1337" d="M152 0v1473h1069v-256h-770v-314h704v-252h-704v-379h806v-272h-47q-62 -50 -94.5 -102.5t-32.5 -102.5q0 -40 20.5 -60t61.5 -20h103v-174h-107q-117 0 -177 46.5t-60 138.5q0 71 44.5 136t145.5 138h-962z" />
<glyph unicode="&#x119;" horiz-adv-x="1167" d="M797 330h290q-41 -171 -238 -309l-13 -9q-66 -46 -102 -101t-36 -108q0 -40 20.5 -59.5t61.5 -19.5h103v-173h-107q-118 0 -177.5 46.5t-59.5 138.5q0 67 37.5 125.5t113.5 109.5q-36 -4 -64.5 -6t-41.5 -2q-235 0 -373.5 158t-138.5 430q0 266 136.5 420.5t371.5 154.5 q249 0 385.5 -151.5t136.5 -427.5q0 -33 -0.5 -49.5t-2.5 -30.5h-726q5 -128 62 -193t163 -65q75 0 122.5 29t76.5 92zM373 658h428q-4 110 -58.5 167.5t-156.5 57.5q-95 0 -149.5 -58t-63.5 -167z" />
<glyph unicode="&#x11a;" horiz-adv-x="1337" d="M152 0v1473h1069v-256h-770v-314h704v-252h-704v-379h806v-272h-1105zM373 1972h139l176 -219l174 219h141l-196 -370h-238z" />
<glyph unicode="&#x11b;" horiz-adv-x="1167" d="M797 330h290q-44 -172 -177.5 -269.5t-325.5 -97.5q-236 0 -374 158.5t-138 429.5q0 267 136 421t372 154q250 0 386 -151.5t136 -431.5q0 -31 -0.5 -46.5t-2.5 -29.5h-726q6 -128 62.5 -193t162.5 -65q75 0 123 29.5t76 91.5zM373 658h428q-4 110 -58.5 167.5 t-156.5 57.5q-95 0 -149.5 -58t-63.5 -167zM269 1587h139l176 -219l174 219h141l-196 -370h-238z" />
<glyph unicode="&#x11c;" horiz-adv-x="1591" d="M1212 174q-82 -111 -186.5 -163t-245.5 -52q-309 0 -500.5 214.5t-191.5 563.5q0 352 191 563t509 211q277 0 452 -132.5t208 -364.5h-309q-28 115 -114.5 175t-225.5 60q-185 0 -290.5 -135.5t-105.5 -374.5q0 -240 110 -376t302 -136q144 0 241 85t120 233h-334v252 h610v-797h-203zM482 1602l196 370h238l196 -370h-141l-174 217l-176 -217h-139z" />
<glyph unicode="&#x11d;" horiz-adv-x="1249" d="M365 561q0 -153 61.5 -235t175.5 -82q115 0 175.5 82t60.5 239q0 149 -62.5 230.5t-177.5 81.5q-111 0 -172 -83t-61 -233zM102 -105l318 1q14 -55 57.5 -82t116.5 -27q136 0 190 57.5t54 212.5v97q-46 -79 -119.5 -116.5t-183.5 -37.5q-211 0 -338 150.5t-127 400.5 q0 264 124.5 419.5t335.5 155.5q110 0 187.5 -42t126.5 -128v131h276v-1015q0 -171 -32 -261t-109 -151q-66 -51 -167.5 -77.5t-231.5 -26.5q-218 0 -343 89t-135 250zM310 1217l196 370h238l196 -370h-141l-174 217l-176 -217h-139z" />
<glyph unicode="&#x11e;" horiz-adv-x="1591" d="M1212 174q-82 -111 -186.5 -163t-245.5 -52q-309 0 -500.5 214.5t-191.5 563.5q0 352 191 563t509 211q277 0 452 -132.5t208 -364.5h-309q-28 115 -114.5 175t-225.5 60q-185 0 -290.5 -135.5t-105.5 -374.5q0 -240 110 -376t302 -136q144 0 241 85t120 233h-334v252 h610v-797h-203zM488 1937h123q6 -76 50.5 -111.5t135.5 -35.5q90 0 134 35t50 112h123q-11 -156 -85 -229.5t-222 -73.5q-147 0 -222.5 74t-86.5 229z" />
<glyph unicode="&#x11f;" horiz-adv-x="1249" d="M365 561q0 -153 61.5 -235t175.5 -82q115 0 175.5 82t60.5 239q0 149 -62.5 230.5t-177.5 81.5q-111 0 -172 -83t-61 -233zM102 -105l318 1q14 -55 57.5 -82t116.5 -27q136 0 190 57.5t54 212.5v97q-46 -79 -119.5 -116.5t-183.5 -37.5q-211 0 -338 150.5t-127 400.5 q0 264 124.5 419.5t335.5 155.5q110 0 187.5 -42t126.5 -128v131h276v-1015q0 -171 -32 -261t-109 -151q-66 -51 -167.5 -77.5t-231.5 -26.5q-218 0 -343 89t-135 250zM316 1552h123q6 -76 50.5 -111.5t135.5 -35.5q90 0 134 35t50 112h123q-11 -156 -85 -229.5t-222 -73.5 q-147 0 -222.5 74t-86.5 229z" />
<glyph unicode="&#x120;" horiz-adv-x="1591" d="M1212 174q-82 -111 -186.5 -163t-245.5 -52q-309 0 -500.5 214.5t-191.5 563.5q0 352 191 563t509 211q277 0 452 -132.5t208 -364.5h-309q-28 115 -114.5 175t-225.5 60q-185 0 -290.5 -135.5t-105.5 -374.5q0 -240 110 -376t302 -136q144 0 241 85t120 233h-334v252 h610v-797h-203zM680 1655v258h236v-258h-236z" />
<glyph unicode="&#x121;" horiz-adv-x="1249" d="M365 561q0 -153 61.5 -235t175.5 -82q115 0 175.5 82t60.5 239q0 149 -62.5 230.5t-177.5 81.5q-111 0 -172 -83t-61 -233zM102 -105l318 1q14 -55 57.5 -82t116.5 -27q136 0 190 57.5t54 212.5v97q-46 -79 -119.5 -116.5t-183.5 -37.5q-211 0 -338 150.5t-127 400.5 q0 264 124.5 419.5t335.5 155.5q110 0 187.5 -42t126.5 -128v131h276v-1015q0 -171 -32 -261t-109 -151q-66 -51 -167.5 -77.5t-231.5 -26.5q-218 0 -343 89t-135 250zM508 1270v258h236v-258h-236z" />
<glyph unicode="&#x122;" horiz-adv-x="1591" d="M1212 174q-66 -95 -164.5 -147t-240.5 -66v-51h14q117 0 176.5 -48t59.5 -143q0 -97 -65.5 -148.5t-188.5 -51.5q-59 0 -130 11t-149 32v129q91 -23 151.5 -33t102.5 -10q56 0 80.5 17.5t24.5 55.5q0 37 -26.5 52.5t-88.5 15.5h-41h-22v172q-284 34 -450.5 243.5 t-166.5 532.5q0 352 191 563t509 211q277 0 453.5 -133.5t206.5 -363.5h-309q-28 115 -115 175t-225 60q-185 0 -290.5 -135.5t-105.5 -374.5t110.5 -375.5t301.5 -136.5q143 0 241 86t120 232h-334v252h610v-797h-203z" />
<glyph unicode="&#x123;" horiz-adv-x="1249" d="M365 561q0 -153 61.5 -235t175.5 -82q115 0 175.5 82t60.5 239q0 149 -62.5 230.5t-177.5 81.5q-111 0 -172 -83t-61 -233zM102 -105l318 1q14 -55 57.5 -82t116.5 -27q136 0 190 57.5t54 212.5v97q-46 -79 -119.5 -116.5t-183.5 -37.5q-211 0 -338 150.5t-127 400.5 q0 264 124.5 419.5t335.5 155.5q110 0 187.5 -42t126.5 -128v131h276v-1015q0 -171 -32 -261t-109 -151q-66 -51 -167.5 -77.5t-231.5 -26.5q-218 0 -343 89t-135 250zM918 1587l-313 -370h-142l197 370h258z" />
<glyph unicode="&#x124;" horiz-adv-x="1522" d="M152 0v1473h305v-549h608v549h305v-1473h-305v653h-608v-653h-305zM447 1602l196 370h238l196 -370h-141l-174 217l-176 -217h-139z" />
<glyph unicode="&#x125;" horiz-adv-x="1233" d="M133 0v1473h289v-506q59 74 140.5 111.5t182.5 37.5q96 0 173.5 -33t125.5 -94q33 -41 46.5 -94t13.5 -170v-20v-705h-289v569q0 202 -37 253.5t-133 51.5q-103 0 -163 -61.5t-60 -167.5v-645h-289zM-22 1602l196 370h238l196 -370h-141l-174 217l-176 -217h-139z" />
<glyph unicode="&#x126;" horiz-adv-x="1522" d="M457 1473v-177h608v177h305v-177h152v-209h-152v-1087h-305v653h-608v-653h-305v1087h-152v209h152v177h305zM1065 924v163h-608v-163h608z" />
<glyph unicode="&#x127;" horiz-adv-x="1233" d="M422 1473v-97h366v-172h-366v-241q64 76 145.5 114.5t177.5 38.5q94 0 173 -33.5t124 -93.5q34 -42 48 -95.5t14 -168.5v-20v-705h-291v569q0 201 -37.5 252t-134.5 51q-98 0 -158.5 -62t-60.5 -165v-645h-291v1204h-131v172h131v97h291z" />
<glyph unicode="&#x128;" horiz-adv-x="629" d="M162 0v1473h303v-1473h-303zM632 1923q-26 -125 -77 -184.5t-131 -59.5q-21 0 -39 2.5t-36 8.5l-87 26q-19 5 -35 7.5t-31 2.5q-34 0 -55 -18t-33 -59h-110q24 121 74 178t130 57q21 0 42 -3.5t44 -10.5l93 -25q12 -4 25.5 -6t29.5 -2q32 0 53.5 21.5t32.5 64.5h110z" />
<glyph unicode="&#x129;" horiz-adv-x="557" d="M133 0v1087h291v-1087h-291zM596 1538q-26 -125 -77 -184.5t-131 -59.5q-21 0 -39 2.5t-36 8.5l-87 26q-19 5 -35 7.5t-31 2.5q-34 0 -55 -18t-33 -59h-110q24 121 74 178t130 57q21 0 42 -3.5t44 -10.5l93 -25q12 -4 25.5 -6t29.5 -2q32 0 53.5 21.5t32.5 64.5h110z" />
<glyph unicode="&#x12a;" horiz-adv-x="629" d="M162 0v1473h303v-1473h-303zM28 1706v156h574v-156h-574z" />
<glyph unicode="&#x12b;" horiz-adv-x="557" d="M133 0v1087h291v-1087h-291zM-8 1321v156h574v-156h-574z" />
<glyph unicode="&#x12c;" horiz-adv-x="629" d="M162 0v1473h303v-1473h-303zM6 1937h123q6 -76 50.5 -111.5t135.5 -35.5q90 0 134 35t50 112h123q-11 -156 -85 -229.5t-222 -73.5q-147 0 -222.5 74t-86.5 229z" />
<glyph unicode="&#x12d;" horiz-adv-x="557" d="M133 0v1087h291v-1087h-291zM-30 1552h123q6 -76 50.5 -111.5t135.5 -35.5q90 0 134 35t50 112h123q-11 -156 -85 -229.5t-222 -73.5q-147 0 -222.5 74t-86.5 229z" />
<glyph unicode="&#x12e;" horiz-adv-x="629" d="M162 0v1473h303v-1473h-303zM430 0q-63 -51 -95 -102.5t-32 -102.5q0 -40 20 -60t62 -20h102v-174h-106q-118 0 -178 46.5t-60 138.5q0 71 45 136t145 138h97z" />
<glyph unicode="&#x12f;" horiz-adv-x="557" d="M133 1208v265h291v-265h-291zM133 0v1087h291v-1087h-291zM394 0q-63 -51 -95 -102.5t-32 -102.5q0 -40 20 -60t62 -20h102v-174h-106q-118 0 -178 46.5t-60 138.5q0 71 45 136t145 138h97z" />
<glyph unicode="&#x130;" horiz-adv-x="629" d="M162 0v1473h303v-1473h-303zM198 1655v258h236v-258h-236z" />
<glyph unicode="&#x131;" horiz-adv-x="557" d="M133 0v1087h291v-1087h-291z" />
<glyph unicode="&#x132;" horiz-adv-x="1626" d="M543 549h291v-178q0 -77 45.5 -117.5t132.5 -40.5q94 0 132 48.5t38 184.5v1027h303v-1041q0 -125 -12 -184t-39 -105q-55 -90 -160.5 -137t-255.5 -47q-138 0 -241.5 42.5t-164.5 123.5q-37 49 -53 106.5t-16 167.5v35v115zM162 0v1473h303v-1473h-303z" />
<glyph unicode="&#x133;" horiz-adv-x="1114" d="M565 -444v245h58q36 0 52.5 17.5t16.5 56.5v1212h291v-1261q0 -137 -77 -203.5t-236 -66.5h-49h-56zM692 1208v265h291v-265h-291zM133 1208v265h291v-265h-291zM133 0v1087h291v-1087h-291z" />
<glyph unicode="&#x134;" horiz-adv-x="1133" d="M49 549h293v-178q0 -77 46 -117.5t132 -40.5q94 0 131 49t37 184v1027h303v-1041q0 -140 -16.5 -205.5t-54.5 -115.5q-58 -74 -159 -113t-237 -39q-125 0 -221 34t-160 101q-51 54 -72.5 120.5t-21.5 219.5v115zM525 1602l196 370h238l196 -370h-141l-174 217l-176 -217 h-139z" />
<glyph unicode="&#x135;" horiz-adv-x="555" d="M6 -444v243h57q37 0 53.5 17.5t16.5 56.5v1214h291v-1261q0 -138 -76.5 -204t-234.5 -66h-52h-55zM-36 1217l196 370h238l196 -370h-141l-174 217l-176 -217h-139z" />
<glyph unicode="&#x136;" horiz-adv-x="1440" d="M152 0v1473h303v-605l575 605h379l-588 -596l641 -877h-370l-480 674l-157 -156v-518h-303zM596 -346v217h248v-190q0 -121 -57.5 -176.5t-186.5 -61.5v98q64 4 92.5 26.5t28.5 70.5v16h-125z" />
<glyph unicode="&#x137;" horiz-adv-x="1135" d="M133 0v1473h283v-773l346 387h350l-379 -403l402 -684h-349l-260 463l-110 -119v-344h-283zM442 -346v217h248v-190q0 -121 -57.5 -176.5t-186.5 -61.5v98q64 4 92.5 26.5t28.5 70.5v16h-125z" />
<glyph unicode="&#x138;" horiz-adv-x="1135" d="M133 0v1087h283v-387l346 387h350l-379 -403l402 -684h-349l-260 463l-110 -119v-344h-283z" />
<glyph unicode="&#x139;" horiz-adv-x="1188" d="M152 0v1473h303v-1201h719v-272h-1022zM619 1972l-313 -370h-142l197 370h258z" />
<glyph unicode="&#x13a;" horiz-adv-x="563" d="M137 0v1473h291v-1473h-291zM576 1972l-313 -370h-142l197 370h258z" />
<glyph unicode="&#x13b;" horiz-adv-x="1188" d="M152 0v1473h303v-1201h719v-272h-1022zM469 -346v217h248v-190q0 -121 -57.5 -176.5t-186.5 -61.5v98q64 4 92.5 26.5t28.5 70.5v16h-125z" />
<glyph unicode="&#x13c;" horiz-adv-x="563" d="M137 0v1473h291v-1473h-291zM158 -346v217h248v-190q0 -121 -57.5 -176.5t-186.5 -61.5v98q64 4 92.5 26.5t28.5 70.5v16h-125z" />
<glyph unicode="&#x13d;" horiz-adv-x="1188" d="M768 1253v220h246v-191q0 -120 -57.5 -176t-186.5 -62v98q64 4 92.5 26t28.5 69v16h-123zM152 0v1473h303v-1201h719v-272h-1022z" />
<glyph unicode="&#x13e;" horiz-adv-x="811" d="M137 0v1473h291v-1473h-291zM563 1253v220h248v-191q0 -120 -57.5 -176t-186.5 -62v98q63 4 91 26t28 69v16h-123z" />
<glyph unicode="&#x13f;" horiz-adv-x="1769" d="M152 0v1473h303v-1201h719v-272h-1022zM1323 702q0 65 45.5 110.5t110.5 45.5t110 -45t45 -111q0 -65 -45 -110t-110 -45q-66 0 -111 44.5t-45 110.5z" />
<glyph unicode="&#x140;" horiz-adv-x="1145" d="M137 0v1473h291v-1473h-291zM698 702q0 65 45.5 110.5t110.5 45.5t110 -45t45 -111q0 -65 -45 -110t-110 -45q-66 0 -111 44.5t-45 110.5z" />
<glyph unicode="&#x141;" horiz-adv-x="1196" d="M162 0v547l-115 -80l-110 160l225 155v691h303v-510l336 235l112 -158l-448 -313v-455h719v-272h-1022z" />
<glyph unicode="&#x142;" horiz-adv-x="575" d="M143 0v559l-104 -78l-102 135l206 156v701h291v-527l103 78l104 -135l-207 -154v-735h-291z" />
<glyph unicode="&#x143;" horiz-adv-x="1518" d="M152 0v1473h317l598 -1012v1012h299v-1473h-313l-602 1012v-1012h-299zM1061 1972l-313 -370h-142l197 370h258z" />
<glyph unicode="&#x144;" horiz-adv-x="1223" d="M127 0v1087h285v-129q61 79 144 118.5t185 39.5q180 0 269.5 -93.5t89.5 -281.5v-741h-291v657q0 117 -39.5 167t-128.5 50q-103 0 -163 -61.5t-60 -167.5v-645h-291zM920 1587l-313 -370h-142l197 370h258z" />
<glyph unicode="&#x145;" horiz-adv-x="1518" d="M152 0v1473h317l598 -1012v1012h299v-1473h-313l-602 1012v-1012h-299zM635 -346v217h248v-190q0 -121 -57.5 -176.5t-186.5 -61.5v98q64 4 92.5 26.5t28.5 70.5v16h-125z" />
<glyph unicode="&#x146;" horiz-adv-x="1223" d="M127 0v1087h285v-129q61 79 144 118.5t185 39.5q180 0 269.5 -93.5t89.5 -281.5v-741h-291v657q0 117 -39.5 167t-128.5 50q-103 0 -163 -61.5t-60 -167.5v-645h-291zM487 -346v217h248v-190q0 -121 -57.5 -176.5t-186.5 -61.5v98q64 4 92.5 26.5t28.5 70.5v16h-125z" />
<glyph unicode="&#x147;" horiz-adv-x="1518" d="M152 0v1473h317l598 -1012v1012h299v-1473h-313l-602 1012v-1012h-299zM453 1972h139l176 -219l174 219h141l-196 -370h-238z" />
<glyph unicode="&#x148;" horiz-adv-x="1223" d="M127 0v1087h285v-129q61 79 144 118.5t185 39.5q180 0 269.5 -93.5t89.5 -281.5v-741h-291v657q0 117 -39.5 167t-128.5 50q-103 0 -163 -61.5t-60 -167.5v-645h-291zM312 1587h139l176 -219l174 219h141l-196 -370h-238z" />
<glyph unicode="&#x149;" horiz-adv-x="1470" d="M0 1253v220h248v-191q0 -120 -57.5 -176t-186.5 -62v98q63 4 91 26t28 69v16h-123zM375 0v1087h285v-129q61 79 144 118.5t185 39.5q180 0 269.5 -93.5t89.5 -281.5v-741h-291v657q0 117 -39.5 167t-128.5 50q-103 0 -163 -61.5t-60 -167.5v-645h-291z" />
<glyph unicode="&#x14a;" horiz-adv-x="1518" d="M614 -365v230q56 -22 116 -32.5t126 -10.5q96 0 146 44.5t54 134.5l-605 1011v-1012h-299v1473h317l598 -1012v1012h299v-1473q0 -192 -127 -295.5t-362 -103.5q-63 0 -127.5 8.5t-135.5 25.5z" />
<glyph unicode="&#x14b;" horiz-adv-x="1223" d="M127 0v1087h285v-129q61 79 144 118.5t185 39.5q180 0 269.5 -93.5t89.5 -281.5v-802q0 -172 -105.5 -277.5t-273.5 -105.5q-55 0 -103 8.5t-92 25.5v177q34 -12 64.5 -17.5t56.5 -5.5q80 0 121 47t41 139v727q0 117 -39.5 167t-128.5 50q-103 0 -163 -61.5t-60 -167.5 v-645h-291z" />
<glyph unicode="&#x14c;" horiz-adv-x="1616" d="M397 735q0 -243 108 -377.5t302 -134.5q196 0 305 134.5t109 377.5t-109 377.5t-305 134.5q-194 0 -302 -134t-108 -378zM88 735q0 357 194.5 566.5t524.5 209.5t525.5 -210t195.5 -566t-195.5 -566t-525.5 -210t-524.5 210t-194.5 566zM522 1706v156h574v-156h-574z" />
<glyph unicode="&#x14d;" horiz-adv-x="1245" d="M367 545q0 -162 66.5 -250t189.5 -88q121 0 187.5 88t66.5 250q0 161 -66 248.5t-188 87.5q-123 0 -189.5 -87.5t-66.5 -248.5zM72 545q0 271 147 426t404 155q256 0 403.5 -155t147.5 -426q0 -272 -147.5 -427t-403.5 -155q-257 0 -404 155t-147 427zM336 1321v156h574 v-156h-574z" />
<glyph unicode="&#x14e;" horiz-adv-x="1616" d="M397 735q0 -243 108 -377.5t302 -134.5q196 0 305 134.5t109 377.5t-109 377.5t-305 134.5q-194 0 -302 -134t-108 -378zM88 735q0 357 194.5 566.5t524.5 209.5t525.5 -210t195.5 -566t-195.5 -566t-525.5 -210t-524.5 210t-194.5 566zM500 1937h123q6 -76 50.5 -111.5 t135.5 -35.5q90 0 134 35t50 112h123q-11 -156 -85 -229.5t-222 -73.5q-147 0 -222.5 74t-86.5 229z" />
<glyph unicode="&#x14f;" horiz-adv-x="1245" d="M367 545q0 -162 66.5 -250t189.5 -88q121 0 187.5 88t66.5 250q0 161 -66 248.5t-188 87.5q-123 0 -189.5 -87.5t-66.5 -248.5zM72 545q0 271 147 426t404 155q256 0 403.5 -155t147.5 -426q0 -272 -147.5 -427t-403.5 -155q-257 0 -404 155t-147 427zM314 1552h123 q6 -76 50.5 -111.5t135.5 -35.5q90 0 134 35t50 112h123q-11 -156 -85 -229.5t-222 -73.5q-147 0 -222.5 74t-86.5 229z" />
<glyph unicode="&#x150;" horiz-adv-x="1616" d="M397 735q0 -243 108 -377.5t302 -134.5q196 0 305 134.5t109 377.5t-109 377.5t-305 134.5q-194 0 -302 -134t-108 -378zM88 735q0 357 194.5 566.5t524.5 209.5t525.5 -210t195.5 -566t-195.5 -566t-525.5 -210t-524.5 210t-194.5 566zM860 1602l154 370h229l-270 -370 h-113zM592 1602l115 370h221l-232 -370h-104z" />
<glyph unicode="&#x151;" horiz-adv-x="1245" d="M367 545q0 -162 66.5 -250t189.5 -88q121 0 187.5 88t66.5 250q0 161 -66 248.5t-188 87.5q-123 0 -189.5 -87.5t-66.5 -248.5zM72 545q0 271 147 426t404 155q256 0 403.5 -155t147.5 -426q0 -272 -147.5 -427t-403.5 -155q-257 0 -404 155t-147 427zM674 1217l154 370 h229l-270 -370h-113zM406 1217l115 370h221l-232 -370h-104z" />
<glyph unicode="&#x152;" horiz-adv-x="2310" d="M1130 0v102q-88 -72 -184.5 -107.5t-208.5 -35.5q-290 0 -469.5 213.5t-179.5 562.5q0 351 179.5 564.5t471.5 213.5q111 0 207.5 -35t183.5 -108v103h1063v-256h-770v-314h705v-252h-705v-379h807v-272h-1100zM1130 346v778q-73 70 -151 103t-172 33q-204 0 -307 -132 t-103 -393q0 -258 103.5 -390t306.5 -132q95 0 173.5 32.5t149.5 100.5z" />
<glyph unicode="&#x153;" horiz-adv-x="1948" d="M1137 660h444q-3 113 -61.5 175t-163.5 62q-96 0 -156.5 -65t-62.5 -172zM362 553q0 -166 67.5 -260t184.5 -94q129 0 199 92t70 264q0 159 -68.5 248.5t-189.5 89.5q-127 0 -195 -88t-68 -252zM995 123q-67 -81 -161.5 -120.5t-221.5 -39.5q-255 0 -396.5 155 t-141.5 435q0 268 144.5 420.5t397.5 152.5q133 0 230 -40t162 -121q60 83 150 122t220 39q237 0 367.5 -153t130.5 -430q0 -31 -0.5 -46.5t-2.5 -29.5h-736q0 -125 58.5 -194.5t162.5 -69.5q79 0 132.5 30t82.5 91h289q-31 -162 -171.5 -261.5t-338.5 -99.5 q-116 0 -202 38.5t-155 121.5z" />
<glyph unicode="&#x154;" horiz-adv-x="1462" d="M455 829h356q116 0 170.5 47t54.5 148q0 96 -53 145.5t-158 49.5h-370v-390zM152 0v1473h714q241 0 357 -103t116 -315q0 -135 -56.5 -225t-162.5 -123q96 -34 136.5 -104t46.5 -218l6 -174v-6q3 -132 57 -160v-45h-332q-16 31 -24.5 76.5t-10.5 108.5l-4 155 q-5 137 -51.5 185t-167.5 48h-321v-573h-303zM1024 1972l-313 -370h-142l197 370h258z" />
<glyph unicode="&#x155;" horiz-adv-x="786" d="M127 0v1087h270v-186q57 112 133 164.5t181 52.5q17 0 26.5 -0.5t15.5 -1.5l1 -295h-97q-119 0 -179 -62t-60 -184v-575h-291zM686 1587l-313 -370h-142l197 370h258z" />
<glyph unicode="&#x156;" horiz-adv-x="1462" d="M455 829h356q116 0 170.5 47t54.5 148q0 96 -53 145.5t-158 49.5h-370v-390zM152 0v1473h714q241 0 357 -103t116 -315q0 -135 -56.5 -225t-162.5 -123q96 -34 136.5 -104t46.5 -218l6 -174v-6q3 -132 57 -160v-45h-332q-16 31 -24.5 76.5t-10.5 108.5l-4 155 q-5 137 -51.5 185t-167.5 48h-321v-573h-303zM606 -346v217h248v-190q0 -121 -57.5 -176.5t-186.5 -61.5v98q64 4 92.5 26.5t28.5 70.5v16h-125z" />
<glyph unicode="&#x157;" horiz-adv-x="786" d="M127 0v1087h270v-186q57 112 133 164.5t181 52.5q17 0 26.5 -0.5t15.5 -1.5l1 -295h-97q-119 0 -179 -62t-60 -184v-575h-291zM166 -346v217h248v-190q0 -121 -57.5 -176.5t-186.5 -61.5v98q64 4 92.5 26.5t28.5 70.5v16h-125z" />
<glyph unicode="&#x158;" horiz-adv-x="1462" d="M455 829h356q116 0 170.5 47t54.5 148q0 96 -53 145.5t-158 49.5h-370v-390zM152 0v1473h714q241 0 357 -103t116 -315q0 -135 -56.5 -225t-162.5 -123q96 -34 136.5 -104t46.5 -218l6 -174v-6q3 -132 57 -160v-45h-332q-16 31 -24.5 76.5t-10.5 108.5l-4 155 q-5 137 -51.5 185t-167.5 48h-321v-573h-303zM416 1972h139l176 -219l174 219h141l-196 -370h-238z" />
<glyph unicode="&#x159;" horiz-adv-x="786" d="M127 0v1087h270v-186q57 112 133 164.5t181 52.5q17 0 26.5 -0.5t15.5 -1.5l1 -295h-97q-119 0 -179 -62t-60 -184v-575h-291zM78 1587h139l176 -219l174 219h141l-196 -370h-238z" />
<glyph unicode="&#x15a;" horiz-adv-x="1366" d="M84 455h299q17 -121 99 -179.5t237 -58.5q132 0 199 47t67 139q0 134 -385 222l-9 2q-10 2 -31 7q-206 45 -294 101q-78 50 -119 134.5t-41 199.5q0 215 146 329.5t422 114.5q258 0 403.5 -122t153.5 -344h-291q-8 107 -82 163t-211 56q-119 0 -183.5 -46.5t-64.5 -132.5 q0 -117 251 -175q68 -16 106 -25q161 -41 228.5 -64t117.5 -51q90 -50 135 -132.5t45 -197.5q0 -230 -155 -356.5t-437 -126.5q-278 0 -436 129t-170 367zM977 1972l-313 -370h-142l197 370h258z" />
<glyph unicode="&#x15b;" horiz-adv-x="1118" d="M66 354h290q4 -83 60 -123.5t168 -40.5q85 0 131.5 28.5t46.5 80.5q0 74 -174 111q-71 15 -113 26q-212 54 -294.5 128t-82.5 200q0 167 120.5 264.5t326.5 97.5q218 0 342.5 -97t132.5 -273h-283q-3 69 -52.5 107t-137.5 38q-83 0 -123.5 -25t-40.5 -75q0 -65 217 -115 q50 -11 79 -18q217 -51 296.5 -123t79.5 -203q0 -185 -130.5 -282t-379.5 -97q-225 0 -352 101t-127 278v12zM852 1587l-313 -370h-142l197 370h258z" />
<glyph unicode="&#x15c;" horiz-adv-x="1366" d="M84 455h299q17 -121 99 -179.5t237 -58.5q132 0 199 47t67 139q0 134 -385 222l-9 2q-10 2 -31 7q-206 45 -294 101q-78 50 -119 134.5t-41 199.5q0 215 146 329.5t422 114.5q258 0 403.5 -122t153.5 -344h-291q-8 107 -82 163t-211 56q-119 0 -183.5 -46.5t-64.5 -132.5 q0 -117 251 -175q68 -16 106 -25q161 -41 228.5 -64t117.5 -51q90 -50 135 -132.5t45 -197.5q0 -230 -155 -356.5t-437 -126.5q-278 0 -436 129t-170 367zM369 1602l196 370h238l196 -370h-141l-174 217l-176 -217h-139z" />
<glyph unicode="&#x15d;" horiz-adv-x="1118" d="M66 354h290q4 -83 60 -123.5t168 -40.5q85 0 131.5 28.5t46.5 80.5q0 74 -174 111q-71 15 -113 26q-212 54 -294.5 128t-82.5 200q0 167 120.5 264.5t326.5 97.5q218 0 342.5 -97t132.5 -273h-283q-3 69 -52.5 107t-137.5 38q-83 0 -123.5 -25t-40.5 -75q0 -65 217 -115 q50 -11 79 -18q217 -51 296.5 -123t79.5 -203q0 -185 -130.5 -282t-379.5 -97q-225 0 -352 101t-127 278v12zM244 1217l196 370h238l196 -370h-141l-174 217l-176 -217h-139z" />
<glyph unicode="&#x15e;" horiz-adv-x="1366" d="M84 454l299 1q18 -122 100 -180t236 -58q132 0 199 47t67 139q0 80 -66 123t-327 99q-285 61 -385.5 158.5t-100.5 285.5q0 215 146.5 329.5t421.5 114.5q257 0 403 -122.5t154 -343.5h-291q-8 106 -82.5 162.5t-210.5 56.5q-118 0 -183 -47t-65 -132q0 -118 248 -174 q69 -16 109 -26q333 -83 430.5 -178t97.5 -275q0 -210 -146 -337t-392 -130l-1 -57h15q117 0 176 -48t59 -143q0 -97 -65 -148.5t-189 -51.5q-58 0 -128 10.5t-148 32.5v129q80 -21 145.5 -32t110.5 -11q52 0 76 17.5t24 55.5q0 37 -26 52.5t-88 15.5h-41h-23v178h-10 q-244 0 -391.5 131.5t-157.5 355.5z" />
<glyph unicode="&#x15f;" horiz-adv-x="1118" d="M66 354h290q3 -82 59.5 -123t168.5 -41q85 0 131.5 28.5t46.5 80.5q0 73 -179 112q-68 15 -108 25q-208 52 -292.5 127t-84.5 201q0 167 120.5 264.5t326.5 97.5q218 0 342.5 -97t132.5 -273h-283q-3 69 -52.5 107t-137.5 38q-84 0 -124 -24.5t-40 -75.5q0 -67 252 -123 q30 -7 44 -10q218 -50 297 -124.5t79 -211.5q0 -170 -121 -268.5t-330 -98.5v-55h21q112 0 171.5 -49t59.5 -142q0 -97 -65 -148.5t-189 -51.5q-58 0 -130 11t-148 32v129q79 -21 145 -32t111 -11q52 0 77 17.5t25 55.5q0 37 -26.5 52.5t-88.5 15.5h-41h-22v176 q-218 16 -328 112.5t-110 272.5v4z" />
<glyph unicode="&#x160;" horiz-adv-x="1366" d="M84 455h299q17 -121 99 -179.5t237 -58.5q132 0 199 47t67 139q0 134 -385 222l-9 2q-10 2 -31 7q-206 45 -294 101q-78 50 -119 134.5t-41 199.5q0 215 146 329.5t422 114.5q258 0 403.5 -122t153.5 -344h-291q-8 107 -82 163t-211 56q-119 0 -183.5 -46.5t-64.5 -132.5 q0 -117 251 -175q68 -16 106 -25q161 -41 228.5 -64t117.5 -51q90 -50 135 -132.5t45 -197.5q0 -230 -155 -356.5t-437 -126.5q-278 0 -436 129t-170 367zM369 1972h139l176 -219l174 219h141l-196 -370h-238z" />
<glyph unicode="&#x161;" horiz-adv-x="1118" d="M66 354h290q4 -83 60 -123.5t168 -40.5q85 0 131.5 28.5t46.5 80.5q0 74 -174 111q-71 15 -113 26q-212 54 -294.5 128t-82.5 200q0 167 120.5 264.5t326.5 97.5q218 0 342.5 -97t132.5 -273h-283q-3 69 -52.5 107t-137.5 38q-83 0 -123.5 -25t-40.5 -75q0 -65 217 -115 q50 -11 79 -18q217 -51 296.5 -123t79.5 -203q0 -185 -130.5 -282t-379.5 -97q-225 0 -352 101t-127 278v12zM244 1587h139l176 -219l174 219h141l-196 -370h-238z" />
<glyph unicode="&#x162;" horiz-adv-x="1217" d="M457 0v1210h-437v263h1174v-263h-434v-1210h-303zM483 -346v217h248v-190q0 -121 -57.5 -176.5t-186.5 -61.5v98q64 4 92.5 26.5t28.5 70.5v16h-125z" />
<glyph unicode="&#x163;" horiz-adv-x="651" d="M610 -8q-40 -1 -95.5 -3.5t-70.5 -2.5q-167 0 -228.5 62.5t-61.5 246.5v588h-144v204h144v297h288v-297h168v-204h-168v-602q0 -43 19 -56.5t78 -13.5h71v-219zM233 -346v217h248v-190q0 -121 -57.5 -176.5t-186.5 -61.5v98q64 4 92.5 26.5t28.5 70.5v16h-125z" />
<glyph unicode="&#x164;" horiz-adv-x="1217" d="M457 0v1210h-437v263h1174v-263h-434v-1210h-303zM293 1972h139l176 -219l174 219h141l-196 -370h-238z" />
<glyph unicode="&#x165;" horiz-adv-x="899" d="M610 -8q-40 -1 -95.5 -3.5t-70.5 -2.5q-167 0 -228.5 62.5t-61.5 246.5v588h-144v204h144v297h288v-297h168v-204h-168v-602q0 -43 19 -56.5t78 -13.5h71v-219zM651 1253v220h248v-191q0 -120 -57.5 -176t-186.5 -62v98q63 4 91 26t28 69v16h-123z" />
<glyph unicode="&#x166;" horiz-adv-x="1217" d="M1196 1473v-263h-436v-323h385v-209h-385v-678h-303v678h-385v209h385v323h-434v263h1173z" />
<glyph unicode="&#x167;" horiz-adv-x="651" d="M610 -8q-40 -1 -95.5 -3.5t-70.5 -2.5q-166 0 -228 62t-62 247v235h-156v199h156v154h-144v204h144v297h288v-297h168v-204h-168v-154h183v-199h-183v-249q0 -43 19 -56.5t78 -13.5h71v-219z" />
<glyph unicode="&#x168;" horiz-adv-x="1468" d="M143 1477h306v-924q0 -171 68 -249.5t216 -78.5q150 0 218.5 78t68.5 250v924h303v-957q0 -271 -151.5 -416t-436.5 -145q-287 0 -439.5 144.5t-152.5 416.5v957zM1052 1923q-26 -125 -77 -184.5t-131 -59.5q-21 0 -39 2.5t-36 8.5l-87 26q-19 5 -35 7.5t-31 2.5 q-34 0 -55 -18t-33 -59h-110q24 121 74 178t130 57q21 0 42 -3.5t44 -10.5l93 -25q12 -4 25.5 -6t29.5 -2q32 0 53.5 21.5t32.5 64.5h110z" />
<glyph unicode="&#x169;" horiz-adv-x="1223" d="M1096 1087v-1087h-285v129q-62 -79 -144.5 -118.5t-185.5 -39.5q-179 0 -268.5 94t-89.5 281v741h291v-657q0 -116 39 -165.5t129 -49.5q102 0 162.5 61.5t60.5 167.5v643h291zM929 1538q-26 -125 -77 -184.5t-131 -59.5q-21 0 -39 2.5t-36 8.5l-87 26q-19 5 -35 7.5 t-31 2.5q-34 0 -55 -18t-33 -59h-110q24 121 74 178t130 57q21 0 42 -3.5t44 -10.5l93 -25q12 -4 25.5 -6t29.5 -2q32 0 53.5 21.5t32.5 64.5h110z" />
<glyph unicode="&#x16a;" horiz-adv-x="1468" d="M143 1477h306v-924q0 -171 68 -249.5t216 -78.5q150 0 218.5 78t68.5 250v924h303v-957q0 -271 -151.5 -416t-436.5 -145q-287 0 -439.5 144.5t-152.5 416.5v957zM448 1706v156h574v-156h-574z" />
<glyph unicode="&#x16b;" horiz-adv-x="1223" d="M1096 1087v-1087h-285v129q-62 -79 -144.5 -118.5t-185.5 -39.5q-179 0 -268.5 94t-89.5 281v741h291v-657q0 -116 39 -165.5t129 -49.5q102 0 162.5 61.5t60.5 167.5v643h291zM325 1321v156h574v-156h-574z" />
<glyph unicode="&#x16c;" horiz-adv-x="1468" d="M143 1477h306v-924q0 -171 68 -249.5t216 -78.5q150 0 218.5 78t68.5 250v924h303v-957q0 -271 -151.5 -416t-436.5 -145q-287 0 -439.5 144.5t-152.5 416.5v957zM426 1937h123q6 -76 50.5 -111.5t135.5 -35.5q90 0 134 35t50 112h123q-11 -156 -85 -229.5t-222 -73.5 q-147 0 -222.5 74t-86.5 229z" />
<glyph unicode="&#x16d;" horiz-adv-x="1223" d="M1096 1087v-1087h-285v129q-62 -79 -144.5 -118.5t-185.5 -39.5q-179 0 -268.5 94t-89.5 281v741h291v-657q0 -116 39 -165.5t129 -49.5q102 0 162.5 61.5t60.5 167.5v643h291zM303 1552h123q6 -76 50.5 -111.5t135.5 -35.5q90 0 134 35t50 112h123q-11 -156 -85 -229.5 t-222 -73.5q-147 0 -222.5 74t-86.5 229z" />
<glyph unicode="&#x16e;" horiz-adv-x="1468" d="M143 1477h306v-924q0 -171 68 -249.5t216 -78.5q150 0 218.5 78t68.5 250v924h303v-957q0 -271 -151.5 -416t-436.5 -145q-287 0 -439.5 144.5t-152.5 416.5v957zM614 1827q0 -53 34.5 -88t86.5 -35t88.5 36t36.5 87q0 50 -37 86.5t-88 36.5q-52 0 -86.5 -35.5 t-34.5 -87.5zM471 1827q0 111 76.5 188.5t187.5 77.5q112 0 190 -77.5t78 -188.5q0 -112 -77.5 -189t-190.5 -77q-112 0 -188 76.5t-76 189.5z" />
<glyph unicode="&#x16f;" horiz-adv-x="1223" d="M1096 1087v-1087h-285v129q-62 -79 -144.5 -118.5t-185.5 -39.5q-179 0 -268.5 94t-89.5 281v741h291v-657q0 -116 39 -165.5t129 -49.5q102 0 162.5 61.5t60.5 167.5v643h291zM491 1442q0 -53 34.5 -88t86.5 -35t88.5 36t36.5 87q0 50 -37 86.5t-88 36.5 q-52 0 -86.5 -35.5t-34.5 -87.5zM348 1442q0 111 76.5 188.5t187.5 77.5q112 0 190 -77.5t78 -188.5q0 -112 -77.5 -189t-190.5 -77q-112 0 -188 76.5t-76 189.5z" />
<glyph unicode="&#x170;" horiz-adv-x="1468" d="M143 1477h306v-924q0 -171 68 -249.5t216 -78.5q150 0 218.5 78t68.5 250v924h303v-957q0 -271 -151.5 -416t-436.5 -145q-287 0 -439.5 144.5t-152.5 416.5v957zM786 1602l154 370h229l-270 -370h-113zM518 1602l115 370h221l-232 -370h-104z" />
<glyph unicode="&#x171;" horiz-adv-x="1223" d="M1096 1087v-1087h-285v129q-62 -79 -144.5 -118.5t-185.5 -39.5q-179 0 -268.5 94t-89.5 281v741h291v-657q0 -116 39 -165.5t129 -49.5q102 0 162.5 61.5t60.5 167.5v643h291zM663 1217l154 370h229l-270 -370h-113zM395 1217l115 370h221l-232 -370h-104z" />
<glyph unicode="&#x172;" horiz-adv-x="1468" d="M143 1477h306v-924q0 -172 68 -250t216 -78q150 0 218.5 77.5t68.5 250.5v924h303v-957q0 -192 -53.5 -295.5t-188.5 -185.5q-80 -68 -124 -132.5t-44 -115.5q0 -36 22.5 -56t61.5 -20h103v-174h-107q-117 0 -177 46.5t-60 138.5q0 68 36.5 125t135.5 137 q-43 -13 -88 -19t-105 -6q-293 0 -442.5 140.5t-149.5 416.5v957z" />
<glyph unicode="&#x173;" horiz-adv-x="1223" d="M1094 1087v-1087h-47q-63 -51 -96 -103.5t-33 -101.5q0 -39 21 -59.5t62 -20.5h101v-174h-105q-117 0 -177 46.5t-60 138.5q0 72 44.5 137t143.5 137h-139v129q-62 -79 -144.5 -118.5t-185.5 -39.5q-179 0 -268.5 94t-89.5 281v741h291v-657q0 -116 39 -165.5t129 -49.5 q102 0 162.5 62t60.5 167v643h291z" />
<glyph unicode="&#x174;" horiz-adv-x="1913" d="M438 0l-422 1473h314l252 -1039l213 1039h323l213 -1039l252 1039h311l-421 -1473h-289l-228 1128l-229 -1128h-289zM641 1602l196 370h238l196 -370h-141l-174 217l-176 -217h-139z" />
<glyph unicode="&#x175;" horiz-adv-x="1567" d="M322 0l-308 1087h295l178 -753l150 753h297l158 -753l178 753h282l-305 -1087h-291l-174 778l-168 -778h-292zM469 1217l196 370h238l196 -370h-141l-174 217l-176 -217h-139z" />
<glyph unicode="&#x176;" horiz-adv-x="1274" d="M811 0h-303v549l-535 924h371l315 -635l291 635h346l-485 -924v-549zM322 1602l196 370h238l196 -370h-141l-174 217l-176 -217h-139z" />
<glyph unicode="&#x177;" horiz-adv-x="1100" d="M170 -436v235q14 -2 29 -3t39 -1q86 0 129 40.5t43 121.5q0 6 -2 15t-4 15l-392 1100h320l229 -784l223 784h306l-447 -1282q-50 -144 -125 -196.5t-225 -52.5q-27 0 -58 2t-65 6zM236 1217l196 370h238l196 -370h-141l-174 217l-176 -217h-139z" />
<glyph unicode="&#x178;" horiz-adv-x="1274" d="M811 0h-303v549l-535 924h371l315 -635l291 635h346l-485 -924v-549zM698 1661v246h226v-246h-226zM350 1661v246h226v-246h-226z" />
<glyph unicode="&#x179;" horiz-adv-x="1231" d="M37 0v256l801 950h-785v267h1153v-256l-803 -951h785v-266h-1151zM909 1972l-313 -370h-142l197 370h258z" />
<glyph unicode="&#x17a;" horiz-adv-x="1036" d="M35 0v223l596 633h-561v231h909v-237l-588 -608h608v-242h-964zM811 1587l-313 -370h-142l197 370h258z" />
<glyph unicode="&#x17b;" horiz-adv-x="1231" d="M37 0v256l801 950h-785v267h1153v-256l-803 -951h785v-266h-1151zM499 1655v258h236v-258h-236z" />
<glyph unicode="&#x17c;" horiz-adv-x="1036" d="M35 0v223l596 633h-561v231h909v-237l-588 -608h608v-242h-964zM401 1270v258h236v-258h-236z" />
<glyph unicode="&#x17d;" horiz-adv-x="1231" d="M37 0v256l801 950h-785v267h1153v-256l-803 -951h785v-266h-1151zM301 1972h139l176 -219l174 219h141l-196 -370h-238z" />
<glyph unicode="&#x17e;" horiz-adv-x="1036" d="M35 0v223l596 633h-561v231h909v-237l-588 -608h608v-242h-964zM203 1587h139l176 -219l174 219h141l-196 -370h-238z" />
<glyph unicode="&#x17f;" horiz-adv-x="664" d="M178 0v883h-155v204h155v101q0 153 78.5 224t247.5 71q31 0 67 -1.5t76 -5.5v-231h-78q-65 0 -85.5 -17t-20.5 -65v-1163h-285z" />
<glyph unicode="&#x192;" horiz-adv-x="1161" d="M-10 -389l61 229q32 -15 58.5 -22.5t46.5 -7.5q60 0 90 38.5t47 145.5l127 790h-242v197h277l22 125q40 220 126.5 312.5t248.5 92.5q50 0 102.5 -10.5t110.5 -32.5l-57 -219q-30 15 -57.5 22t-51.5 7q-64 0 -96 -40t-47 -142l-19 -115h256v-197h-280l-97 -602 q-29 -191 -56 -295t-58 -155q-55 -88 -126 -128t-171 -40q-52 0 -105 11.5t-110 35.5z" />
<glyph unicode="&#x1fa;" horiz-adv-x="1405" d="M582 1950l110 198h264l-239 -198h-135zM700 1774q-36 0 -61 -25t-25 -61t25 -60t61 -24q37 0 60.5 24t23.5 60q0 38 -23 62t-61 24zM700 1907q89 0 152 -64t63 -153q0 -91 -62.5 -154t-152.5 -63q-89 0 -153 63.5t-64 153.5q0 89 64 153t153 64zM518 1436h367l520 -1436 h-318l-100 303h-571l-97 -303h-319zM700 1178l-204 -627h409z" />
<glyph unicode="&#x1fb;" horiz-adv-x="1151" d="M567 1606q89 0 152 -63t63 -152q0 -91 -62.5 -154t-152.5 -63q-89 0 -153 63.5t-64 153.5q0 88 64 151.5t153 63.5zM567 1475q-37 0 -62.5 -25t-25.5 -61t25.5 -60t62.5 -24t60.5 24t23.5 60q0 38 -23.5 62t-60.5 24zM449 1651l110 196h264l-241 -196h-133zM745 535 q-72 -35 -164 -54t-95 -20q-79 -23 -108.5 -55.5t-29.5 -90.5q0 -62 40 -96.5t112 -34.5q111 0 178 67.5t67 180.5v103zM750 135q-55 -85 -144 -129.5t-207 -44.5q-158 0 -243.5 90t-85.5 256q0 154 85.5 235t282.5 111q45 7 119 17q184 23 184 106q0 66 -41 94.5t-137 28.5 q-88 0 -135 -35t-47 -100v-16h-272v20q0 167 118 262.5t326 95.5q228 0 349.5 -79t121.5 -228v-618q0 -68 14 -101.5t47 -50.5v-49h-303q-16 33 -24 66.5t-8 68.5z" />
<glyph unicode="&#x1fc;" horiz-adv-x="2052" d="M504 541h414v682h-166zM-14 0l581 1473h1366v-256h-723v-314h658v-252h-658v-379h760v-272h-1052v303h-500l-111 -303h-321zM1319 1972l-313 -370h-142l197 370h258z" />
<glyph unicode="&#x1fd;" horiz-adv-x="1810" d="M1002 659h440v7q0 107 -59.5 168t-163.5 61q-97 0 -155.5 -63.5t-61.5 -172.5zM739 530q-72 -32 -177.5 -54t-132.5 -35q-38 -18 -57.5 -51t-19.5 -79q0 -62 40.5 -95.5t115.5 -33.5q96 0 163.5 62t67.5 147v139zM850 154q-68 -97 -176 -144t-264 -47q-165 0 -252.5 88.5 t-87.5 255.5q0 147 82.5 231t250.5 109q44 6 118 16q212 26 212 111q0 70 -38 95.5t-142 25.5q-83 0 -126.5 -35.5t-43.5 -103.5v-8h-274v22q0 167 120.5 261.5t335.5 94.5q111 0 201 -30t147 -86q62 60 140 88t182 28q242 0 375 -152.5t133 -430.5q0 -31 -0.5 -46.5 t-2.5 -29.5h-738q1 -128 62 -198t171 -70q70 0 121 33t84 100h291q-41 -174 -177.5 -271.5t-339.5 -97.5q-124 0 -216.5 48.5t-147.5 142.5zM1198 1587l-313 -370h-142l197 370h258z" />
<glyph unicode="&#x1fe;" horiz-adv-x="1616" d="M512 348q58 -63 131 -94t164 -31q196 0 305 134.5t109 377.5q0 99 -18 179.5t-52 140.5zM449 449l632 696q-53 51 -121 76.5t-153 25.5q-194 0 -302 -134t-108 -378q0 -90 12.5 -160t39.5 -126zM55 23l183 204q-76 103 -113 229.5t-37 278.5q0 357 194.5 566.5 t524.5 209.5q141 0 253.5 -36t207.5 -111l147 166l98 -88l-155 -168q85 -105 127.5 -239t42.5 -300q0 -356 -195 -566t-526 -210q-149 0 -268.5 42t-214.5 128l-172 -195zM1102 1972l-313 -370h-142l197 370h258z" />
<glyph unicode="&#x1ff;" horiz-adv-x="1245" d="M434 281q37 -43 81 -62.5t103 -19.5q130 0 198.5 89.5t68.5 260.5q0 47 -6.5 90.5t-20.5 83.5zM809 811q-38 39 -81.5 58.5t-94.5 19.5q-136 0 -205.5 -89t-69.5 -263q0 -44 7.5 -86.5t21.5 -83.5zM39 10l145 152q-58 79 -86 172.5t-28 210.5q0 270 150 426.5t409 156.5 q104 0 193 -30t167 -92l135 145l78 -74l-141 -149q57 -74 85 -168.5t28 -218.5q0 -268 -149.5 -424t-403.5 -156q-115 0 -204 29.5t-161 91.5l-139 -148zM916 1587l-313 -370h-142l197 370h258z" />
<glyph unicode="&#x2c6;" horiz-adv-x="1024" d="M197 1217l196 370h238l196 -370h-141l-174 217l-176 -217h-139z" />
<glyph unicode="&#x2c7;" horiz-adv-x="1024" d="M197 1587h139l176 -219l174 219h141l-196 -370h-238z" />
<glyph unicode="&#x2c9;" horiz-adv-x="1024" d="M225 1321v156h574v-156h-574z" />
<glyph unicode="&#x2d8;" horiz-adv-x="1024" d="M203 1552h123q6 -76 50.5 -111.5t135.5 -35.5q90 0 134 35t50 112h123q-11 -156 -85 -229.5t-222 -73.5q-147 0 -222.5 74t-86.5 229z" />
<glyph unicode="&#x2d9;" horiz-adv-x="1024" d="M395 1270v258h236v-258h-236z" />
<glyph unicode="&#x2da;" horiz-adv-x="1024" d="M391 1442q0 -53 34.5 -88t86.5 -35t88.5 36t36.5 87q0 50 -37 86.5t-88 36.5q-52 0 -86.5 -35.5t-34.5 -87.5zM248 1442q0 111 76.5 188.5t187.5 77.5q112 0 190 -77.5t78 -188.5q0 -112 -77.5 -189t-190.5 -77q-112 0 -188 76.5t-76 189.5z" />
<glyph unicode="&#x2db;" horiz-adv-x="1024" d="M627 0q-63 -51 -95 -102.5t-32 -102.5q0 -40 20 -60t62 -20h102v-174h-106q-118 0 -178 46.5t-60 138.5q0 71 45 136t145 138h97z" />
<glyph unicode="&#x2dc;" horiz-adv-x="1024" d="M829 1538q-26 -125 -77 -184.5t-131 -59.5q-21 0 -39 2.5t-36 8.5l-87 26q-19 5 -35 7.5t-31 2.5q-34 0 -55 -18t-33 -59h-110q24 121 74 178t130 57q21 0 42 -3.5t44 -10.5l93 -25q12 -4 25.5 -6t29.5 -2q32 0 53.5 21.5t32.5 64.5h110z" />
<glyph unicode="&#x2dd;" horiz-adv-x="1024" d="M563 1217l154 370h229l-270 -370h-113zM295 1217l115 370h221l-232 -370h-104z" />
<glyph unicode="&#x37e;" horiz-adv-x="629" d="M164 766v303h301v-303h-301zM164 -346v117q85 26 124.5 75.5t39.5 128.5v25h-166v301h303v-289q0 -150 -76 -240.5t-225 -117.5z" />
<glyph unicode="&#x384;" horiz-adv-x="739" d="M598 1587l-315 -370h-142l197 370h260z" />
<glyph unicode="&#x385;" horiz-adv-x="883" d="M621 1419h188v-202h-188v202zM74 1419h186v-202h-186v202zM547 1587l-35 -370h-143l-33 370h211z" />
<glyph unicode="&#x386;" horiz-adv-x="1405" d="M0 0l524 1473h350l531 -1473h-318l-100 303h-569l-99 -303h-319zM496 551h409l-205 627zM297 1473l-315 -371h-140l197 371h258z" />
<glyph unicode="&#x387;" horiz-adv-x="582" d="M135 702q0 65 45.5 110.5t110.5 45.5t110 -45t45 -111q0 -64 -45 -109.5t-110 -45.5q-66 0 -111 44.5t-45 110.5z" />
<glyph unicode="&#x388;" horiz-adv-x="1759" d="M385 1473l-315 -371h-140l197 371h258zM574 0v1473h1069v-256h-770v-314h704v-252h-704v-379h806v-272h-1105z" />
<glyph unicode="&#x389;" horiz-adv-x="1944" d="M385 1473l-315 -371h-140l197 371h258zM574 0v1473h305v-549h608v549h305v-1473h-305v653h-608v-653h-305z" />
<glyph unicode="&#x38a;" horiz-adv-x="1051" d="M385 1473l-315 -371h-140l197 371h258zM584 0v1473h303v-1473h-303z" />
<glyph unicode="&#x38c;" horiz-adv-x="1616" d="M397 735q0 -243 108 -377.5t302 -134.5q196 0 305 134.5t109 377.5q0 242 -109.5 377t-304.5 135q-194 0 -302 -134t-108 -378zM88 735q0 357 194.5 566.5t524.5 209.5t525.5 -210t195.5 -566t-195.5 -566t-525.5 -210t-524.5 210t-194.5 566zM129 1473l-315 -371h-140 l197 371h258z" />
<glyph unicode="&#x38e;" horiz-adv-x="1790" d="M385 1473l-315 -371h-140l197 371h258zM1327 0h-303v549l-535 924h371l315 -635l291 635h346l-485 -924v-549z" />
<glyph unicode="&#x38f;" horiz-adv-x="1575" d="M55 0v256h291q-126 121 -187 260t-61 303q0 313 188 501.5t500 188.5q313 0 501 -188.5t188 -501.5q0 -164 -61 -303t-187 -260h291v-256h-609v291q126 86 192 217.5t66 296.5q0 203 -101.5 319.5t-279.5 116.5q-177 0 -278.5 -116.5t-101.5 -319.5q0 -164 66 -296.5 t192 -217.5v-291h-609zM109 1473l-315 -371h-140l197 371h258z" />
<glyph unicode="&#x390;" horiz-adv-x="557" d="M133 0v1087h291v-1087h-291zM459 1419h188v-202h-188v202zM-88 1419h186v-202h-186v202zM385 1587l-35 -370h-143l-33 370h211z" />
<glyph unicode="&#x391;" horiz-adv-x="1405" d="M0 0l524 1473h350l531 -1473h-318l-100 303h-569l-99 -303h-319zM496 551h409l-205 627z" />
<glyph unicode="&#x392;" horiz-adv-x="1442" d="M442 266h359q126 0 184.5 46t58.5 145q0 102 -57 148t-188 46h-357v-385zM442 903h346q112 0 164 38.5t52 121.5q0 81 -51 117.5t-167 36.5h-344v-314zM152 0v1473h694q226 0 344.5 -95.5t118.5 -277.5q0 -111 -43.5 -185.5t-132.5 -117.5q114 -46 170.5 -132.5 t56.5 -215.5q0 -214 -140 -331.5t-397 -117.5h-671z" />
<glyph unicode="&#x393;" horiz-adv-x="1200" d="M152 0v1473h1026v-256h-723v-1217h-303z" />
<glyph unicode="&#x394;" horiz-adv-x="1427" d="M0 0l563 1473h301l563 -1473h-1427zM387 256h653l-327 854z" />
<glyph unicode="&#x395;" horiz-adv-x="1337" d="M152 0v1473h1069v-256h-770v-314h704v-252h-704v-379h806v-272h-1105z" />
<glyph unicode="&#x396;" horiz-adv-x="1231" d="M37 0v256l801 950h-785v267h1153v-256l-803 -951h785v-266h-1151z" />
<glyph unicode="&#x397;" horiz-adv-x="1522" d="M152 0v1473h305v-549h608v549h305v-1473h-305v653h-608v-653h-305z" />
<glyph unicode="&#x398;" horiz-adv-x="1616" d="M545 625v237h526v-237h-526zM88 735q0 357 194.5 566.5t524.5 209.5t525.5 -210t195.5 -566t-195.5 -566t-525.5 -210t-524.5 210t-194.5 566zM397 735q0 -243 108 -377.5t302 -134.5q196 0 305 134.5t109 377.5q0 242 -109.5 377t-304.5 135q-194 0 -302 -134t-108 -378 z" />
<glyph unicode="&#x399;" horiz-adv-x="629" d="M162 0v1473h303v-1473h-303z" />
<glyph unicode="&#x39a;" horiz-adv-x="1440" d="M152 0v1473h303v-605l575 605h379l-588 -596l641 -877h-370l-480 674l-157 -156v-518h-303z" />
<glyph unicode="&#x39b;" horiz-adv-x="1280" d="M-10 0l504 1473h290l506 -1473h-329l-322 1100l-322 -1100h-327z" />
<glyph unicode="&#x39c;" horiz-adv-x="1786" d="M152 0v1473h448l293 -1121l289 1121h450v-1473h-284v1188l-299 -1188h-310l-303 1188v-1188h-284z" />
<glyph unicode="&#x39d;" horiz-adv-x="1518" d="M152 0v1473h317l598 -1012v1012h299v-1473h-313l-602 1012v-1012h-299z" />
<glyph unicode="&#x39e;" horiz-adv-x="1266" d="M86 0v270h1092v-270h-1092zM1077 899v-270h-895v270h895zM1151 1473v-273h-1057v273h1057z" />
<glyph unicode="&#x39f;" horiz-adv-x="1616" d="M397 735q0 -243 108 -377.5t302 -134.5q196 0 305 134.5t109 377.5q0 242 -109.5 377t-304.5 135q-194 0 -302 -134t-108 -378zM88 735q0 357 194.5 566.5t524.5 209.5t525.5 -210t195.5 -566t-195.5 -566t-525.5 -210t-524.5 210t-194.5 566z" />
<glyph unicode="&#x3a0;" horiz-adv-x="1481" d="M152 0v1473h1175v-1473h-305v1217h-567v-1217h-303z" />
<glyph unicode="&#x3a1;" horiz-adv-x="1366" d="M457 791h293q119 0 173 50.5t54 162.5q0 105 -53 159t-158 54h-309v-426zM455 524v-524h-303v1473h655q231 0 351 -120.5t120 -353.5q0 -228 -117 -351.5t-334 -123.5h-372z" />
<glyph unicode="&#x3a3;" horiz-adv-x="1200" d="M45 0v205l539 559l-512 489v220h1052v-256h-620l444 -457l-469 -504h688v-256h-1122z" />
<glyph unicode="&#x3a4;" horiz-adv-x="1217" d="M457 0v1210h-437v263h1174v-263h-434v-1210h-303z" />
<glyph unicode="&#x3a5;" horiz-adv-x="1274" d="M811 0h-303v549l-535 924h371l315 -635l291 635h346l-485 -924v-549z" />
<glyph unicode="&#x3a6;" horiz-adv-x="1522" d="M891 1473v-177q254 -12 403.5 -163.5t149.5 -397.5q0 -245 -149 -396t-404 -163v-176h-260v176q-256 12 -405.5 163t-149.5 396q0 246 150 397.5t405 163.5v177h260zM891 414q130 10 203 96t73 227q0 142 -72.5 227t-203.5 97v-647zM631 414v647q-132 -13 -205.5 -98 t-73.5 -226t74 -227t205 -96z" />
<glyph unicode="&#x3a7;" horiz-adv-x="1282" d="M-10 0l463 752l-463 721h350l301 -515l299 515h352l-463 -719l463 -754h-350l-301 510l-301 -510h-350z" />
<glyph unicode="&#x3a8;" horiz-adv-x="1659" d="M965 1473v-916q187 2 250 76.5t63 376.5v463h270v-457q0 -283 -34.5 -397t-118.5 -189q-73 -64 -173.5 -96.5t-256.5 -40.5v-293h-271v293q-158 8 -259.5 40.5t-172.5 96.5q-83 75 -117 187t-34 399v457h270v-463q0 -302 63.5 -377t249.5 -76v916h271z" />
<glyph unicode="&#x3a9;" horiz-adv-x="1575" d="M55 0v256h291q-126 121 -187 260t-61 303q0 313 188 501.5t500 188.5q313 0 501 -188.5t188 -501.5q0 -164 -61 -303t-187 -260h291v-256h-609v291q126 86 192 217.5t66 296.5q0 203 -101.5 319.5t-279.5 116.5q-177 0 -278.5 -116.5t-101.5 -319.5q0 -164 66 -296.5 t192 -217.5v-291h-609z" />
<glyph unicode="&#x3aa;" horiz-adv-x="629" d="M162 0v1473h303v-1473h-303zM377 1661v246h225v-246h-225zM26 1661v246h226v-246h-226z" />
<glyph unicode="&#x3ab;" horiz-adv-x="1274" d="M811 0h-303v549l-535 924h371l315 -635l291 635h346l-485 -924v-549zM701 1661v246h225v-246h-225zM350 1661v246h226v-246h-226z" />
<glyph unicode="&#x3ac;" horiz-adv-x="1260" d="M1126 1087v-1087h-276v147q-65 -96 -142.5 -140t-183.5 -44q-201 0 -325.5 159t-124.5 417q0 260 125.5 422.5t320.5 162.5q105 0 187.5 -44t136.5 -128v135h282zM600 872q-110 0 -174 -86.5t-64 -238.5q0 -160 62.5 -247t175.5 -87q120 0 182 85.5t62 252.5 q0 153 -64 237t-180 84zM858 1587l-315 -370h-142l197 370h260z" />
<glyph unicode="&#x3ad;" horiz-adv-x="1071" d="M1032 348q-11 -190 -131 -287.5t-346 -97.5q-236 0 -358.5 85t-122.5 247q0 100 51.5 170.5t148.5 103.5q-84 53 -120.5 109t-36.5 131q0 146 116.5 232.5t313.5 86.5q208 0 330 -96t122 -258v-14h-264q-15 74 -57.5 110.5t-112.5 36.5q-84 0 -131 -33t-47 -92 q0 -61 54.5 -89.5t168.5 -28.5h49v-215h-67q-119 0 -171 -32.5t-52 -105.5q0 -62 46 -95.5t132 -33.5q95 0 141.5 38.5t56.5 127.5h287zM764 1587l-315 -370h-142l197 370h260z" />
<glyph unicode="&#x3ae;" horiz-adv-x="1235" d="M133 0v1087h289v-120q60 73 142 111t181 38q96 0 173.5 -33t125.5 -94q32 -41 46 -93t14 -155v-36v-1141h-289v1005q0 30 -1 65t-1 40q0 104 -40.5 152t-127.5 48q-103 0 -163 -61.5t-60 -167.5v-645h-289zM846 1587l-315 -370h-142l197 370h260z" />
<glyph unicode="&#x3af;" horiz-adv-x="557" d="M133 0v1087h291v-1087h-291zM508 1587l-315 -370h-142l197 370h260z" />
<glyph unicode="&#x3b0;" horiz-adv-x="1190" d="M119 1087h291v-507q0 -241 39.5 -306t146.5 -65q106 0 145 65t39 334v479h291v-481q0 -223 -11 -309t-38 -135q-57 -103 -160 -151t-266 -48t-266 48t-160 151q-28 51 -39.5 141.5t-11.5 302.5v481zM775 1419h188v-202h-188v202zM228 1419h186v-202h-186v202zM701 1587 l-35 -370h-143l-33 370h211z" />
<glyph unicode="&#x3b1;" horiz-adv-x="1260" d="M1126 1087v-1087h-276v147q-65 -96 -142.5 -140t-183.5 -44q-201 0 -325.5 159t-124.5 417q0 260 125.5 422.5t320.5 162.5q105 0 187.5 -44t136.5 -128v135h282zM600 872q-110 0 -174 -86.5t-64 -238.5q0 -160 62.5 -247t175.5 -87q120 0 182 85.5t62 252.5 q0 153 -64 237t-180 84z" />
<glyph unicode="&#x3b2;" horiz-adv-x="1231" d="M150 -436v1349q0 130 13 205.5t44 132.5q60 113 173 172.5t267 59.5q200 0 322.5 -104.5t122.5 -272.5q0 -99 -49.5 -178.5t-149.5 -143.5q140 -56 207 -152t67 -239q0 -201 -115.5 -316.5t-316.5 -115.5q-92 0 -164 28t-131 87v-512h-290zM440 647q0 -275 47.5 -360.5 t169.5 -85.5q100 0 156.5 58.5t56.5 160.5q0 110 -60.5 168.5t-174.5 58.5h-51v225h43q76 0 126 58.5t50 148.5q0 75 -47 121.5t-121 46.5q-110 0 -152.5 -72t-42.5 -303v-225z" />
<glyph unicode="&#x3b3;" horiz-adv-x="1063" d="M381 -436v493l-373 1030h301l230 -671l229 671h299l-395 -1030v-493h-291z" />
<glyph unicode="&#x3b4;" horiz-adv-x="1210" d="M686 805q-5 0 -15.5 1t-15.5 1q-135 0 -210.5 -82.5t-75.5 -228.5q0 -135 61.5 -213t167.5 -78q114 0 179 82.5t65 226.5q0 103 -40 177.5t-116 113.5zM547 1006q-94 75 -187.5 138t-187.5 113v216h877v-230h-465q311 -180 433 -342.5t122 -386.5q0 -250 -149 -401.5 t-394 -151.5q-237 0 -378.5 146.5t-141.5 394.5q0 224 125 364t325 140h21z" />
<glyph unicode="&#x3b5;" horiz-adv-x="1071" d="M1032 348q-11 -190 -131 -287.5t-346 -97.5q-236 0 -358.5 85t-122.5 247q0 100 51.5 170.5t148.5 103.5q-84 53 -120.5 109t-36.5 131q0 146 116.5 232.5t313.5 86.5q208 0 330 -96t122 -258v-14h-264q-15 74 -57.5 110.5t-112.5 36.5q-84 0 -131 -33t-47 -92 q0 -61 54.5 -89.5t168.5 -28.5h49v-215h-67q-119 0 -171 -32.5t-52 -105.5q0 -62 46 -95.5t132 -33.5q95 0 141.5 38.5t56.5 127.5h287z" />
<glyph unicode="&#x3b6;" horiz-adv-x="977" d="M621 -436q56 86 88 173.5t32 147.5q0 56 -27.5 77.5t-105.5 21.5h-108q-196 0 -302 115t-106 327q0 195 110 407t316 410h-354v230h794v-160q-259 -144 -418 -382t-159 -474q0 -120 65 -168.5t234 -48.5q173 0 245 -64.5t72 -212.5q0 -94 -29.5 -195t-86.5 -204h-260z " />
<glyph unicode="&#x3b7;" horiz-adv-x="1235" d="M133 0v1087h289v-120q60 73 142 111t181 38q96 0 173.5 -33t125.5 -94q32 -41 46 -93t14 -155v-36v-1141h-289v1005q0 30 -1 65t-1 40q0 104 -40.5 152t-127.5 48q-103 0 -163 -61.5t-60 -167.5v-645h-289z" />
<glyph unicode="&#x3b8;" horiz-adv-x="1219" d="M1118 723q0 -381 -127.5 -570.5t-382.5 -189.5t-381.5 189t-126.5 571q0 378 128.5 570t379.5 192q256 0 383 -190t127 -572zM831 641h-444v-23q0 -208 55 -310.5t166 -102.5q114 0 168.5 101t54.5 310v25zM387 856h442q0 198 -53.5 292.5t-167.5 94.5q-111 0 -166 -93 t-55 -284v-10z" />
<glyph unicode="&#x3b9;" horiz-adv-x="557" d="M133 0v1087h291v-1087h-291z" />
<glyph unicode="&#x3ba;" horiz-adv-x="1128" d="M418 0h-285v1087h285v-374l356 374h344l-379 -389l398 -698h-310l-278 500l-131 -131v-369z" />
<glyph unicode="&#x3bb;" horiz-adv-x="1008" d="M-4 0l348 1012l-151 461h290l535 -1473h-303l-213 647l-217 -647h-289z" />
<glyph unicode="&#x3bc;" horiz-adv-x="1208" d="M137 -436v1523h291v-493q0 -242 40 -307.5t140 -65.5q101 0 140.5 62t39.5 303v501h291v-1087h-250v98q-45 -57 -98.5 -85.5t-116.5 -28.5q-52 0 -98 19.5t-88 59.5v-499h-291z" />
<glyph unicode="&#x3bd;" horiz-adv-x="1085" d="M395 0l-391 1087h322l223 -780l225 780h307l-389 -1087h-297z" />
<glyph unicode="&#x3be;" horiz-adv-x="999" d="M655 -436q52 121 76.5 197.5t24.5 117.5q0 99 -200 102q-37 0 -59 1q-187 4 -303 114.5t-116 284.5q0 144 73 243t218 148q-100 43 -149.5 103t-49.5 139q0 71 40 131.5t112 97.5h-216v230h836v-230h-158q-185 0 -261.5 -41.5t-76.5 -138.5q0 -99 75.5 -142.5 t254.5 -43.5h105v-228h-111q-97 0 -166 -5t-98 -15q-62 -20 -100.5 -74t-38.5 -121q0 -98 57.5 -140.5t216.5 -49.5q219 -10 293 -70t74 -205q0 -93 -29 -196t-84 -209h-240z" />
<glyph unicode="&#x3bf;" horiz-adv-x="1245" d="M367 545q0 -162 66.5 -250t189.5 -88q121 0 187.5 88t66.5 250q0 161 -66.5 248.5t-187.5 87.5q-122 0 -189 -88t-67 -248zM72 545q0 271 147 426t404 155t404 -155t147 -426q0 -272 -147.5 -427t-403.5 -155q-258 0 -404.5 155t-146.5 427z" />
<glyph unicode="&#x3c0;" horiz-adv-x="1352" d="M203 0v860h-129v227h1218v-227h-129v-860h-289v860h-382v-860h-289z" />
<glyph unicode="&#x3c1;" horiz-adv-x="1249" d="M426 549q0 -162 59 -249t168 -87q110 0 169 86.5t59 249.5q0 162 -59 249t-169 87q-109 0 -168 -87t-59 -249zM131 537q0 281 137 435t385 154t386.5 -153.5t138.5 -427.5q0 -267 -135.5 -422.5t-364.5 -155.5q-77 0 -139 24t-127 79v-506h-281v973z" />
<glyph unicode="&#x3c2;" horiz-adv-x="1126" d="M682 -436q40 99 62 179.5t22 125.5q0 87 -192 132q-75 17 -119 30q-210 57 -294.5 180t-84.5 358q0 262 141.5 409.5t392.5 147.5q220 0 338 -120.5t123 -347.5l-268 -1q-14 116 -61.5 170t-135.5 54q-112 0 -173.5 -80t-61.5 -226q0 -131 44 -197t156 -99 q56 -17 157 -40q176 -40 228 -81q39 -31 57.5 -75.5t18.5 -105.5q0 -79 -25.5 -187.5t-72.5 -225.5h-252z" />
<glyph unicode="&#x3c3;" horiz-adv-x="1305" d="M1309 860h-205q36 -68 53 -145t17 -170q0 -272 -147 -427t-404 -155q-258 0 -404.5 155t-146.5 427t146.5 426.5t404.5 154.5q53 0 112.5 -9.5t130.5 -29.5h443v-227zM367 545q0 -162 66.5 -250t189.5 -88q121 0 187.5 88t66.5 250q0 161 -66.5 248.5t-187.5 87.5 q-122 0 -189 -88t-67 -248z" />
<glyph unicode="&#x3c4;" horiz-adv-x="901" d="M305 0v860h-305v227h901v-227h-305v-860h-291z" />
<glyph unicode="&#x3c5;" horiz-adv-x="1190" d="M119 1087h291v-507q0 -241 39.5 -306t146.5 -65q106 0 145 65t39 334v479h291v-481q0 -223 -11 -309t-38 -135q-57 -103 -160 -151t-266 -48t-266 48t-160 151q-28 51 -39.5 141.5t-11.5 302.5v481z" />
<glyph unicode="&#x3c6;" horiz-adv-x="1460" d="M854 876v-665q126 2 189 84.5t63 245.5q0 167 -62 249.5t-190 85.5zM602 -436v413q-254 19 -389 170t-135 416q0 220 101.5 355t299.5 178v-222q-62 -29 -94.5 -106t-32.5 -195q0 -181 62 -270t188 -92v909q40 3 76.5 4.5t71.5 1.5q296 0 464 -152.5t168 -420.5 q0 -245 -137 -394.5t-391 -181.5v-413h-252z" />
<glyph unicode="&#x3c7;" horiz-adv-x="1073" d="M-6 -436l379 776l-361 747h316l219 -503l213 503h309l-348 -741l377 -782h-307l-246 532l-236 -532h-315z" />
<glyph unicode="&#x3c8;" horiz-adv-x="1532" d="M637 -436v401q-287 16 -400.5 151t-113.5 472v499h285v-499q0 -254 45.5 -317t183.5 -66v1136h258v-1136q138 3 183.5 67t45.5 316v499h285v-499q0 -337 -113.5 -472t-400.5 -151v-401h-258z" />
<glyph unicode="&#x3c9;" horiz-adv-x="1569" d="M291 1087h280q-104 -166 -146 -293.5t-42 -263.5q0 -149 39 -231t110 -82q60 0 85.5 58t25.5 198v295h283v-295q0 -138 25.5 -198t82.5 -60q74 0 114 81.5t40 233.5q0 135 -42.5 261.5t-148.5 295.5h281q97 -135 143.5 -281t46.5 -312q0 -238 -113 -385.5t-292 -147.5 q-83 0 -151 37.5t-128 116.5q-59 -79 -127.5 -116.5t-150.5 -37.5q-179 0 -292.5 147t-113.5 386q0 166 47 312t144 281z" />
<glyph unicode="&#x3ca;" horiz-adv-x="557" d="M133 0v1087h291v-1087h-291zM342 1276v246h225v-246h-225zM-9 1276v246h226v-246h-226z" />
<glyph unicode="&#x3cb;" horiz-adv-x="1190" d="M119 1087h291v-507q0 -241 39.5 -306t146.5 -65q106 0 145 65t39 334v479h291v-481q0 -223 -11 -309t-38 -135q-57 -103 -160 -151t-266 -48t-266 48t-160 151q-28 51 -39.5 141.5t-11.5 302.5v481zM658 1276v246h225v-246h-225zM307 1276v246h226v-246h-226z" />
<glyph unicode="&#x3cc;" horiz-adv-x="1245" d="M367 545q0 -162 66.5 -250t189.5 -88q121 0 187.5 88t66.5 250q0 161 -66.5 248.5t-187.5 87.5q-122 0 -189 -88t-67 -248zM72 545q0 271 147 426t404 155t404 -155t147 -426q0 -272 -147.5 -427t-403.5 -155q-258 0 -404.5 155t-146.5 427zM852 1587l-315 -370h-142 l197 370h260z" />
<glyph unicode="&#x3cd;" horiz-adv-x="1190" d="M119 1087h291v-507q0 -241 39.5 -306t146.5 -65q106 0 145 65t39 334v479h291v-481q0 -223 -11 -309t-38 -135q-57 -103 -160 -151t-266 -48t-266 48t-160 151q-28 51 -39.5 141.5t-11.5 302.5v481zM823 1587l-315 -370h-142l197 370h260z" />
<glyph unicode="&#x3ce;" horiz-adv-x="1569" d="M291 1087h280q-104 -166 -146 -293.5t-42 -263.5q0 -149 39 -231t110 -82q60 0 85.5 58t25.5 198v295h283v-295q0 -138 25.5 -198t82.5 -60q74 0 114 81.5t40 233.5q0 135 -42.5 261.5t-148.5 295.5h281q97 -135 143.5 -281t46.5 -312q0 -238 -113 -385.5t-292 -147.5 q-83 0 -151 37.5t-128 116.5q-59 -79 -127.5 -116.5t-150.5 -37.5q-179 0 -292.5 147t-113.5 386q0 166 47 312t144 281zM1014 1587l-315 -370h-142l197 370h260z" />
<glyph unicode="&#x401;" horiz-adv-x="1337" d="M754 1907h225v-246h-225v246zM406 1907h225v-246h-225v246zM152 1473h1069v-256h-770v-314h704v-252h-704v-379h806v-272h-1105v1473z" />
<glyph unicode="&#x402;" horiz-adv-x="1632" d="M23 1210v263h1140v-263h-434v-327q67 75 156 113t200 38q213 0 332 -134.5t119 -377.5q0 -278 -106.5 -420.5t-313.5 -142.5q-35 0 -73 5.5t-78 17.5v247q27 -3 46 -4.5t31 -1.5q95 0 141 74.5t46 228.5q0 133 -55.5 195.5t-172.5 62.5q-128 0 -200 -61.5t-72 -171.5 v-551h-305v1210h-401z" />
<glyph unicode="&#x403;" horiz-adv-x="1188" d="M152 1473h1022v-256h-719v-1217h-303v1473zM629 1972h258l-313 -370h-142z" />
<glyph unicode="&#x404;" horiz-adv-x="1552" d="M1462 985h-305q-33 132 -124 194t-251 62q-164 0 -258.5 -86.5t-115.5 -255.5h596v-254h-607q13 -200 117 -307t287 -107q157 0 247 68.5t113 206.5h305q-30 -260 -211 -403.5t-479 -143.5q-322 0 -504 205.5t-182 570.5q0 373 184.5 574.5t524.5 201.5q283 0 456 -137 t207 -389z" />
<glyph unicode="&#x405;" horiz-adv-x="1366" d="M1231 1047h-291q-8 107 -82 163t-211 56q-118 0 -183 -47t-65 -132q0 -118 254 -176q65 -15 102 -24q333 -82 430 -176.5t97 -276.5q0 -223 -156.5 -349t-435.5 -126t-437 129.5t-169 366.5h299q18 -122 100 -180t236 -58q132 0 199 47t67 139q0 78 -61 119.5t-332 102.5 q-288 62 -387 159.5t-99 284.5q0 215 146.5 329.5t421.5 114.5q257 0 403 -122.5t154 -343.5z" />
<glyph unicode="&#x406;" horiz-adv-x="629" d="M162 1473h303v-1473h-303v1473z" />
<glyph unicode="&#x407;" horiz-adv-x="629" d="M377 1907h225v-246h-225v246zM27 1907h225v-246h-225v246zM162 1473h303v-1473h-303v1473z" />
<glyph unicode="&#x408;" horiz-adv-x="1133" d="M688 1473h303v-1041q0 -124 -12 -183.5t-39 -105.5q-53 -90 -159 -137t-257 -47q-137 0 -239.5 42t-165.5 124q-38 50 -54 109t-16 182v18v115h293v-162q0 -90 42.5 -132t133.5 -42q96 0 133 47.5t37 185.5v1027z" />
<glyph unicode="&#x409;" horiz-adv-x="2232" d="M1311 659v-393h309q127 0 186.5 47.5t59.5 149.5q0 101 -59.5 148.5t-186.5 47.5h-309zM211 1473h1100v-558h331q260 0 399.5 -118t139.5 -338q0 -221 -139.5 -340t-399.5 -119h-636v1217h-504v-828q0 -217 -88 -323.5t-269 -106.5q-29 0 -61.5 4t-71.5 12v248 q17 -1 32 -1.5t30 -0.5q76 0 106.5 43t30.5 156v1053z" />
<glyph unicode="&#x40a;" horiz-adv-x="2257" d="M1337 662v-396h310q126 0 184.5 47.5t58.5 149.5q0 101 -58.5 149t-185.5 50h-309zM152 1473h305v-558h573v558h307v-558h332q260 0 398.5 -118.5t138.5 -341.5q0 -218 -139.5 -336.5t-397.5 -118.5h-639v662h-573v-662h-305v1473z" />
<glyph unicode="&#x40b;" horiz-adv-x="1681" d="M23 1210v263h1140v-263h-434v-327q71 76 169 113.5t224 37.5q212 0 309 -98t97 -315v-621h-303v475q0 42 -2 90v15q0 104 -50.5 152t-160.5 48q-130 0 -206.5 -62t-76.5 -167v-551h-305v1210h-401z" />
<glyph unicode="&#x40c;" horiz-adv-x="1440" d="M152 1473h303v-605l575 605h379l-588 -596l641 -877h-370l-480 674l-157 -156v-518h-303v1473zM756 1972h258l-313 -370h-142z" />
<glyph unicode="&#x40e;" horiz-adv-x="1260" d="M-4 1473h313l359 -744l338 744h317l-606 -1233q-82 -167 -169 -226t-226 -59q-44 0 -92.5 6.5t-104.5 20.5v249q45 -7 80 -10.5t61 -3.5q73 0 117 30t78 103l49 105zM322 1937h184q3 -88 32.5 -129t90.5 -41q65 0 94 39t31 131h184q-12 -158 -85.5 -230.5t-221.5 -72.5 q-147 0 -222.5 74t-86.5 229z" />
<glyph unicode="&#x40f;" horiz-adv-x="1559" d="M152 1473h305v-1203h645v1203h305v-1473h-498v-301h-262v301h-495v1473z" />
<glyph unicode="&#x410;" horiz-adv-x="1405" d="M700 1178l-204 -627h409zM524 1473h350l531 -1473h-318l-100 303h-571l-97 -303h-319z" />
<glyph unicode="&#x411;" horiz-adv-x="1415" d="M152 0v1473h1022v-256h-725v-302h348q260 0 399 -118t139 -338q0 -221 -139.5 -340t-398.5 -119h-645zM449 662v-396h325q127 0 186.5 47.5t59.5 149.5t-59.5 150.5t-186.5 48.5h-325z" />
<glyph unicode="&#x412;" horiz-adv-x="1442" d="M442 651v-385h359q126 0 184.5 46t58.5 145q0 102 -57 148t-188 46h-357zM442 1217v-314h346q112 0 164 38.5t52 121.5q0 81 -51 117.5t-167 36.5h-344zM152 1473h694q226 0 344.5 -95.5t118.5 -277.5q0 -111 -43.5 -185.5t-132.5 -117.5q114 -46 170.5 -132.5 t56.5 -215.5q0 -214 -140 -331.5t-397 -117.5h-671v1473z" />
<glyph unicode="&#x413;" horiz-adv-x="1188" d="M152 1473h1022v-256h-719v-1217h-303v1473z" />
<glyph unicode="&#x414;" horiz-adv-x="1724" d="M481 1473h953v-1203h262v-571h-262v301h-1172v-301h-262v571h205q121 239 189 533t87 670zM739 1217q-22 -306 -80 -541t-155 -406h624v947h-389z" />
<glyph unicode="&#x415;" horiz-adv-x="1337" d="M152 1473h1069v-256h-770v-314h704v-252h-704v-379h806v-272h-1105v1473z" />
<glyph unicode="&#x416;" horiz-adv-x="2111" d="M913 0v526l-153 174l-441 -700h-344l580 905l-520 568h348l530 -629v629h285v-629l531 629h350l-523 -568l580 -905h-342l-442 700l-154 -174v-526h-285z" />
<glyph unicode="&#x417;" horiz-adv-x="1358" d="M961 774q148 -32 228.5 -119.5t80.5 -218.5q0 -219 -167.5 -348t-457.5 -129q-296 0 -460 123t-171 348h308q18 -99 102 -153t219 -54q148 0 234 58.5t86 156.5q0 104 -88 151.5t-281 47.5h-53v246h51q161 0 250.5 49t89.5 137t-68.5 133t-201.5 45q-143 0 -221.5 -58.5 t-78.5 -164.5v-8h-294v24q0 226 158.5 349.5t449.5 123.5q253 0 399 -107.5t146 -293.5q0 -120 -66.5 -206t-193.5 -132z" />
<glyph unicode="&#x418;" horiz-adv-x="1579" d="M152 1473h305v-924l663 829v95h307v-1473h-307v936l-663 -827v-109h-305v1473z" />
<glyph unicode="&#x419;" horiz-adv-x="1579" d="M479 1935h186q4 -89 32.5 -129.5t88.5 -40.5q67 0 96.5 41t31.5 129h184q-13 -157 -87 -230t-223 -73q-147 0 -222.5 74t-86.5 229zM152 1473h305v-924l663 829v95h307v-1473h-307v936l-663 -827v-109h-305v1473z" />
<glyph unicode="&#x41a;" horiz-adv-x="1440" d="M152 1473h303v-605l575 605h379l-588 -596l641 -877h-370l-480 674l-157 -156v-518h-303v1473z" />
<glyph unicode="&#x41b;" horiz-adv-x="1477" d="M201 1473h1124v-1471h-305v1215h-528v-828q0 -217 -88 -323.5t-269 -106.5q-29 0 -61.5 4t-71.5 12v248q17 -1 32 -1.5t29 -0.5q77 0 107.5 43t30.5 156v1053z" />
<glyph unicode="&#x41c;" horiz-adv-x="1786" d="M152 1473h448l293 -1121l289 1121h450v-1473h-284v1188l-299 -1188h-310l-303 1188v-1188h-284v1473z" />
<glyph unicode="&#x41d;" horiz-adv-x="1522" d="M152 1473h305v-549h608v549h305v-1473h-305v653h-608v-653h-305v1473z" />
<glyph unicode="&#x41e;" horiz-adv-x="1616" d="M807 1247q-194 0 -302 -134t-108 -378q0 -243 108 -377.5t302 -134.5q196 0 305 134.5t109 377.5q0 242 -109.5 377t-304.5 135zM807 1511q330 0 525.5 -210t195.5 -566t-195.5 -566t-525.5 -210t-524.5 210t-194.5 566q0 357 194.5 566.5t524.5 209.5z" />
<glyph unicode="&#x41f;" horiz-adv-x="1511" d="M152 1473h1232v-1473h-305v1217h-622v-1217h-305v1473z" />
<glyph unicode="&#x420;" horiz-adv-x="1366" d="M457 1217v-426h293q119 0 173 50.5t54 162.5q0 105 -53 159t-158 54h-309zM152 1473h655q231 0 351 -120.5t120 -353.5q0 -228 -117 -351.5t-334 -123.5h-372v-524h-303v1473z" />
<glyph unicode="&#x421;" horiz-adv-x="1524" d="M1432 985h-299q-19 124 -102.5 190t-223.5 66q-200 0 -304 -129t-104 -377q0 -241 103.5 -371.5t294.5 -130.5q137 0 225 71t115 202h297q-16 -249 -193.5 -398t-460.5 -149q-326 0 -508 204.5t-182 571.5q0 375 185 575.5t532 200.5q282 0 446.5 -138.5t178.5 -387.5z " />
<glyph unicode="&#x422;" horiz-adv-x="1217" d="M20 1473h1174v-263h-434v-1210h-303v1210h-437v263z" />
<glyph unicode="&#x423;" horiz-adv-x="1260" d="M-4 1473h313l359 -744l338 744h317l-606 -1233q-82 -167 -169 -226t-226 -59q-44 0 -92.5 6.5t-104.5 20.5v249q45 -7 80 -10.5t61 -3.5q73 0 117 30t78 103l49 105z" />
<glyph unicode="&#x424;" horiz-adv-x="1731" d="M1012 1061v-629q161 23 249.5 105t88.5 208q0 128 -89.5 211.5t-248.5 104.5zM717 1061q-160 -21 -249 -104.5t-89 -211.5t88 -210t250 -103v629zM713 1511h303v-219q285 -27 454.5 -176t169.5 -371t-169.5 -371.5t-454.5 -174.5v-240h-303v240q-285 25 -454 174.5 t-169 371.5t169 371t454 176v219z" />
<glyph unicode="&#x425;" horiz-adv-x="1282" d="M-10 1473h350l301 -515l299 515h352l-463 -719l463 -754h-350l-301 510l-301 -510h-350l463 752z" />
<glyph unicode="&#x426;" horiz-adv-x="1636" d="M152 1473h305v-1203h645v1203h305v-1203h264v-571h-264v301h-1255v1473z" />
<glyph unicode="&#x427;" horiz-adv-x="1466" d="M96 1473h307v-523q0 -164 60.5 -234.5t198.5 -70.5q96 0 181 22t167 68v738h305v-1473h-305v475q-111 -42 -212 -63t-194 -21q-236 0 -372 123t-136 338v621z" />
<glyph unicode="&#x428;" horiz-adv-x="2195" d="M152 1473h305v-1203h481v1203h305v-1203h496v1203h305v-1473h-1892v1473z" />
<glyph unicode="&#x429;" horiz-adv-x="2273" d="M152 1473h305v-1203h481v1203h305v-1203h496v1203h305v-1203h262v-571h-262v301h-1892v1473z" />
<glyph unicode="&#x42a;" horiz-adv-x="1724" d="M784 266h312q126 0 185.5 47.5t59.5 149.5t-59 150.5t-186 48.5h-312v-396zM14 1473h770v-558h349q260 0 399 -118t139 -338q0 -221 -139.5 -340t-398.5 -119h-646v1217h-473v256z" />
<glyph unicode="&#x42b;" horiz-adv-x="2015" d="M449 662v-396h325q127 0 186.5 47.5t59.5 149.5t-59.5 150.5t-186.5 48.5h-325zM1550 1473h303v-1473h-303v1473zM152 1473h297v-558h348q260 0 399 -118t139 -338q0 -221 -139.5 -340t-398.5 -119h-645v1473z" />
<glyph unicode="&#x42c;" horiz-adv-x="1389" d="M442 662v-396h332q127 0 186.5 47.5t59.5 149.5t-59.5 150.5t-186.5 48.5h-332zM152 1473h290v-558h355q260 0 399 -118t139 -338q0 -221 -139.5 -340t-398.5 -119h-645v1473z" />
<glyph unicode="&#x42d;" horiz-adv-x="1552" d="M86 506h303q23 -138 113 -206.5t248 -68.5q183 0 288 107.5t117 306.5h-608v254h598q-22 169 -117.5 255.5t-259.5 86.5q-161 0 -252 -62t-123 -194h-303q34 252 207 389t457 137q339 0 523.5 -201.5t184.5 -574.5q0 -365 -182.5 -570.5t-505.5 -205.5q-297 0 -477 143 t-211 404z" />
<glyph unicode="&#x42e;" horiz-adv-x="2167" d="M1358 1247q-195 0 -303.5 -134.5t-108.5 -377.5q0 -242 108.5 -377t303.5 -135t303 134.5t108 377.5t-108.5 377.5t-302.5 134.5zM653 924q57 282 239.5 434.5t465.5 152.5q330 0 524.5 -209.5t194.5 -566.5q0 -356 -194.5 -566t-524.5 -210q-313 0 -503.5 184.5 t-213.5 509.5h-184v-653h-305v1473h305v-549h196z" />
<glyph unicode="&#x42f;" horiz-adv-x="1462" d="M639 1219q-104 0 -158.5 -50t-54.5 -145q0 -101 54.5 -148t172.5 -47h357v390h-371zM598 1473h715v-1473h-305v573h-322q-119 0 -165.5 -47.5t-51.5 -185.5l-6 -156q-2 -75 -9.5 -114.5t-23.5 -69.5h-334v45q54 28 57 160q1 4 1 6l6 175q5 147 46 216.5t138 104.5 q-106 34 -163.5 124.5t-57.5 223.5q0 211 117.5 314.5t357.5 103.5z" />
<glyph unicode="&#x430;" horiz-adv-x="1151" d="M745 535q-75 -37 -205 -63q-38 -7 -55 -11q-72 -18 -104.5 -52.5t-32.5 -93.5q0 -62 40 -96.5t112 -34.5q112 0 178.5 67t66.5 181v103zM1024 819v-618q0 -68 14 -101.5t47 -50.5v-49h-303q-16 32 -24 65t-8 70q-55 -85 -144 -129.5t-207 -44.5q-155 0 -242 89t-87 249 q0 155 80 237.5t264 112.5q57 10 146 21q181 23 181 106q0 66 -41 94.5t-137 28.5q-88 0 -135 -35t-47 -100v-16h-272v24q0 166 118.5 260t325.5 94q227 0 349 -79t122 -228z" />
<glyph unicode="&#x431;" horiz-adv-x="1264" d="M631 881q-127 0 -195.5 -87.5t-68.5 -248.5q0 -162 68.5 -250t195.5 -88q125 0 194.5 89t69.5 249t-69.5 248t-194.5 88zM950 1511h193q-27 -260 -526 -286h-6q-170 -10 -274 -89.5t-140 -228.5q83 112 190.5 167.5t237.5 55.5q261 0 413 -157t152 -428 q0 -272 -149.5 -427t-411.5 -155q-277 0 -420 167t-143 488q0 360 126 564.5t375 249.5q59 10 164 15q172 9 219 64z" />
<glyph unicode="&#x432;" horiz-adv-x="1153" d="M401 678h232q78 0 110.5 21.5t32.5 70.5t-32 70.5t-111 21.5h-232v-184zM401 242h236q91 0 130.5 26t39.5 84t-41.5 85.5t-130.5 27.5h-234v-223zM127 1087h575q167 0 254.5 -70t87.5 -204q0 -87 -37 -145t-108 -80q89 -23 136.5 -87.5t47.5 -162.5q0 -162 -104 -250 t-295 -88h-557v1087z" />
<glyph unicode="&#x433;" horiz-adv-x="926" d="M113 1087h802v-227h-512v-860h-290v1087z" />
<glyph unicode="&#x434;" horiz-adv-x="1419" d="M377 1087h774v-843h250v-469h-250v225h-901v-225h-250v467h199q72 106 116.5 317t61.5 528zM618 862q-10 -203 -46 -356.5t-99 -263.5h387v620h-242z" />
<glyph unicode="&#x435;" horiz-adv-x="1167" d="M1099 467h-726q5 -128 62 -193t163 -65q75 0 122.5 29t76.5 92h290q-41 -171 -176 -269t-327 -98q-235 0 -373.5 158t-138.5 430q0 265 136.5 420t371.5 155q248 0 385 -152t137 -429q0 -31 -0.5 -47.5t-2.5 -30.5zM801 658q-5 110 -59.5 167.5t-155.5 57.5 q-95 0 -149.5 -58t-63.5 -167h428z" />
<glyph unicode="&#x436;" horiz-adv-x="1729" d="M16 1087h336l383 -456v456h258v-456l383 456h336l-420 -469l455 -618h-348l-316 455l-90 -93v-362h-258v358l-90 97l-315 -455h-348l454 618z" />
<glyph unicode="&#x437;" horiz-adv-x="1085" d="M25 317h288q26 -59 73.5 -83.5t137.5 -24.5q96 0 148.5 34.5t52.5 98.5q0 62 -56.5 87.5t-224.5 25.5h-41v215h56q131 0 188.5 27t57.5 87q0 46 -47 73.5t-126 27.5q-91 0 -139 -33t-53 -98h-272v20q0 169 121.5 261.5t342.5 92.5q217 0 331 -79t114 -230 q0 -97 -57 -159.5t-164 -83.5q122 -10 190 -77t68 -177q0 -170 -129.5 -264.5t-364.5 -94.5q-240 0 -364 88.5t-131 265.5z" />
<glyph unicode="&#x438;" horiz-adv-x="1253" d="M127 1087h283v-620l434 551v69h282v-1087h-282v627l-434 -543v-84h-283v1087z" />
<glyph unicode="&#x439;" horiz-adv-x="1253" d="M317 1552h185q3 -88 32.5 -129t90.5 -41q66 0 95.5 40t31.5 130h184q-12 -157 -86.5 -230t-222.5 -73t-223.5 74t-86.5 229zM127 1087h283v-620l434 551v69h282v-1087h-282v627l-434 -543v-84h-283v1087z" />
<glyph unicode="&#x43a;" horiz-adv-x="1137" d="M127 1087h291v-421l364 421h338l-422 -469l457 -618h-348l-303 416l-86 -92v-324h-291v1087z" />
<glyph unicode="&#x43b;" horiz-adv-x="1171" d="M1044 1087v-1085h-288v858h-322v-571q0 -157 -77.5 -238.5t-227.5 -81.5q-30 0 -61.5 5t-61.5 14v248q4 -1 13 -2q23 -3 30 -3q66 0 90.5 31t24.5 117v708h880z" />
<glyph unicode="&#x43c;" horiz-adv-x="1458" d="M371 915l16 -915h-260v1087h420l190 -772l170 772h424v-1087h-260l12 915l-219 -915h-262z" />
<glyph unicode="&#x43d;" horiz-adv-x="1204" d="M123 1087h291v-382h374v382h291v-1087h-291v461h-374v-461h-291v1087z" />
<glyph unicode="&#x43e;" horiz-adv-x="1245" d="M623 1126q257 0 404 -155t147 -426q0 -272 -147.5 -427t-403.5 -155q-258 0 -404.5 155t-146.5 427q0 271 147 426t404 155zM623 881q-122 0 -189 -88t-67 -248q0 -163 66.5 -250.5t189.5 -87.5q121 0 187.5 88t66.5 250q0 161 -66.5 248.5t-187.5 87.5z" />
<glyph unicode="&#x43f;" horiz-adv-x="1239" d="M127 1087h985v-1087h-291v860h-403v-860h-291v1087z" />
<glyph unicode="&#x440;" horiz-adv-x="1255" d="M653 874q-114 0 -175.5 -84t-61.5 -241q0 -162 62.5 -248t180.5 -86q110 0 173 86t63 236q0 165 -62 251t-180 86zM416 135v-571h-283v1523h277v-147q64 97 141 140.5t182 43.5q200 0 325.5 -159t125.5 -416q0 -260 -125.5 -423t-321.5 -163q-105 0 -186 43.5t-135 128.5 z" />
<glyph unicode="&#x441;" horiz-adv-x="1128" d="M1069 702h-289q-12 87 -61 133t-129 46q-107 0 -161 -85.5t-54 -254.5q0 -157 55.5 -241.5t159.5 -84.5q81 0 130 49t64 146h287q-17 -205 -150.5 -326t-342.5 -121q-237 0 -371.5 154.5t-134.5 427.5q0 272 137.5 426.5t378.5 154.5q209 0 337.5 -113t143.5 -311z" />
<glyph unicode="&#x442;" horiz-adv-x="922" d="M0 1087h922v-227h-318v-860h-289v860h-315v227z" />
<glyph unicode="&#x443;" horiz-adv-x="1100" d="M12 1087h320l229 -784l223 784h306l-447 -1282q-52 -147 -126.5 -198t-223.5 -51q-29 0 -59.5 2t-63.5 6v235q27 -2 41.5 -3t26.5 -1q74 0 112.5 27t52.5 88l13 41z" />
<glyph unicode="&#x444;" horiz-adv-x="1831" d="M776 102q-54 -71 -123 -105t-159 -34q-184 0 -303 162t-119 418q0 261 118.5 421t309.5 160q82 0 145.5 -30.5t130.5 -104.5v484h277v-484q68 73 132.5 104t145.5 31q190 0 309 -159.5t119 -415.5q0 -259 -119.5 -422.5t-304.5 -163.5q-90 0 -159 34t-123 105v-538h-277 v538zM776 348v383q-32 76 -80.5 113t-115.5 37q-108 0 -165 -88t-57 -256q0 -152 58.5 -239t158.5 -87q66 0 112.5 32t88.5 105zM1053 348q44 -74 91 -105.5t111 -31.5q101 0 159.5 87t58.5 239q0 166 -58 255t-166 89q-66 0 -115 -37.5t-81 -112.5v-383z" />
<glyph unicode="&#x445;" horiz-adv-x="1057" d="M8 1087h332l192 -327l191 327h321l-342 -528l363 -559h-340l-201 344l-198 -344h-334l366 555z" />
<glyph unicode="&#x446;" horiz-adv-x="1341" d="M127 1087h291v-843h403v843h291v-843h250v-469h-250v225h-985v1087z" />
<glyph unicode="&#x447;" horiz-adv-x="1165" d="M68 1087h288v-362q0 -121 39 -173t127 -52q60 0 114 16.5t105 50.5v520h291v-1087h-291v338q-79 -31 -154 -46.5t-145 -15.5q-175 0 -274.5 90.5t-99.5 249.5v471z" />
<glyph unicode="&#x448;" horiz-adv-x="1800" d="M135 0v1087h291v-843h330v843h291v-843h327v843h291v-1087h-1530z" />
<glyph unicode="&#x449;" horiz-adv-x="1892" d="M1665 244h250v-469h-250v225h-1530v1087h291v-843h330v843h291v-843h327v843h291v-843z" />
<glyph unicode="&#x44a;" horiz-adv-x="1407" d="M915 469h-260v-225h260q87 0 124.5 26.5t37.5 85.5q0 60 -37 86.5t-125 26.5zM655 696h314q191 0 294 -90.5t103 -257.5t-103 -257.5t-294 -90.5h-594v860h-375v227h655v-391z" />
<glyph unicode="&#x44b;" horiz-adv-x="1714" d="M1296 1087h291v-1087h-291v1087zM668 469h-260v-225h260q86 0 123.5 26.5t37.5 85.5q0 60 -37 86.5t-124 26.5zM408 696h313q192 0 294.5 -90.5t102.5 -257.5t-102.5 -257.5t-294.5 -90.5h-594v1087h281v-391z" />
<glyph unicode="&#x44c;" horiz-adv-x="1161" d="M668 469h-260v-225h260q86 0 123.5 26.5t37.5 85.5q0 60 -37 86.5t-124 26.5zM408 696h313q192 0 294.5 -90.5t102.5 -257.5t-102.5 -257.5t-294.5 -90.5h-594v1087h281v-391z" />
<glyph unicode="&#x44d;" horiz-adv-x="1167" d="M64 410h288q15 -99 70.5 -149t148.5 -50q111 0 170.5 63t59.5 183v16h-346v217h345q-9 95 -65.5 145t-154.5 50q-89 0 -143.5 -41.5t-78.5 -126.5h-292q17 193 153 301t363 108q241 0 378.5 -154.5t137.5 -428.5t-137 -428t-381 -154q-232 0 -369.5 119.5t-146.5 329.5z " />
<glyph unicode="&#x44e;" horiz-adv-x="1757" d="M1135 881q-122 0 -189 -88t-67 -248q0 -163 66.5 -250.5t189.5 -87.5q121 0 187.5 88t66.5 250q0 161 -66.5 248.5t-187.5 87.5zM598 705q46 204 184.5 312.5t352.5 108.5q257 0 404 -155t147 -426q0 -272 -147 -427t-404 -155q-242 0 -385 129t-166 369h-170v-461h-291 v1087h291v-382h184z" />
<glyph unicode="&#x44f;" horiz-adv-x="1128" d="M514 860q-79 0 -118.5 -28t-39.5 -84q0 -60 40.5 -87.5t127.5 -27.5h197v227h-207zM418 1087h583v-1087h-280v406h-180q-89 0 -123.5 -36t-38.5 -138l-4 -95q-2 -64 -8 -93t-19 -44h-299v49q38 19 41 108v13l6 114q6 115 35.5 164t99.5 74q-77 23 -120 91t-43 167 q0 157 85.5 232t264.5 75z" />
<glyph unicode="&#x451;" horiz-adv-x="1167" d="M639 1522h225v-246h-225v246zM291 1522h225v-246h-225v246zM801 658q-5 110 -59.5 167.5t-155.5 57.5q-95 0 -149.5 -58t-63.5 -167h428zM1099 467h-726q5 -128 62 -193t163 -65q75 0 122.5 29t76.5 92h290q-41 -171 -176 -269t-327 -98q-235 0 -373.5 158t-138.5 430 q0 265 136.5 420t371.5 155q248 0 385 -152t137 -429q0 -31 -0.5 -47.5t-2.5 -30.5z" />
<glyph unicode="&#x452;" horiz-adv-x="1233" d="M133 1174h-139v161h139v138h289v-138h323v-161h-323v-265q60 74 142 112t181 38q96 0 173.5 -33t125.5 -94q32 -41 46 -93.5t14 -154.5v-37v-618q0 -138 -76.5 -204.5t-234.5 -66.5h-52h-55v246h57q38 0 55 18t17 56v434q0 30 -1 64.5t-1 39.5q0 105 -40.5 153t-127.5 48 q-103 0 -163 -61.5t-60 -167.5v-588h-289v1174z" />
<glyph unicode="&#x453;" horiz-adv-x="926" d="M113 1087h802v-227h-512v-860h-290v1087zM498 1587h258l-313 -370h-142z" />
<glyph unicode="&#x454;" horiz-adv-x="1167" d="M1104 717h-295q-23 86 -76.5 127t-142.5 41q-100 0 -158 -50.5t-65 -144.5h346v-217h-344v-16q0 -118 59 -182t168 -64q93 0 147.5 49.5t71.5 149.5h289q-11 -211 -147.5 -330t-368.5 -119q-245 0 -380.5 153.5t-135.5 430.5q0 272 137.5 426.5t378.5 154.5 q226 0 361.5 -107.5t154.5 -301.5z" />
<glyph unicode="&#x455;" horiz-adv-x="1118" d="M1020 756h-283q-3 69 -52.5 107t-137.5 38q-84 0 -124 -24.5t-40 -75.5q0 -40 37 -61.5t170 -51.5l90 -20q210 -47 292.5 -120.5t82.5 -205.5q0 -185 -130.5 -282t-379.5 -97q-225 0 -352 101t-127 278v12h290q3 -82 59.5 -123t168.5 -41q85 0 131.5 28.5t46.5 80.5 q0 42 -25.5 62t-148.5 49l-113 26q-205 49 -291 125t-86 203q0 167 120.5 264.5t326.5 97.5q218 0 342.5 -97t132.5 -273z" />
<glyph unicode="&#x456;" horiz-adv-x="557" d="M133 1087h291v-1087h-291v1087zM133 1473h291v-265h-291v265z" />
<glyph unicode="&#x457;" horiz-adv-x="557" d="M340 1522h225v-246h-225v246zM-8 1522h225v-246h-225v246zM133 1087h291v-1087h-291v1087z" />
<glyph unicode="&#x458;" horiz-adv-x="555" d="M133 1087h291v-1261q0 -138 -76.5 -204t-234.5 -66h-52h-55v245h57q37 0 53.5 17.5t16.5 56.5v1212zM133 1473h291v-265h-291v265z" />
<glyph unicode="&#x459;" horiz-adv-x="1798" d="M1305 469h-261v-225h261q86 0 123.5 26.5t37.5 85.5q0 60 -37 86.5t-124 26.5zM164 1087h880v-391h314q192 0 294.5 -90.5t102.5 -257.5t-102.5 -257.5t-294.5 -90.5h-602v860h-318v-571q0 -157 -79 -239.5t-228 -82.5q-27 0 -57.5 5t-67.5 16v255q9 0 19 -0.5t24 -0.5 q66 0 90.5 30.5t24.5 116.5v698z" />
<glyph unicode="&#x45a;" horiz-adv-x="1833" d="M1346 471h-267v-227h267q87 0 124 26t37 86q0 59 -39 87t-122 28zM123 1087h291v-391h374v391h291v-391h314q196 0 296.5 -88.5t100.5 -261.5q0 -168 -102.5 -257t-294.5 -89h-605v471h-374v-471h-291v1087z" />
<glyph unicode="&#x45b;" horiz-adv-x="1233" d="M133 1174h-139v161h139v138h289v-138h323v-161h-323v-265q60 74 142 112t181 38q96 0 173.5 -33t125.5 -94q32 -41 46 -93.5t14 -154.5v-37v-647h-289v512q0 30 -1 64.5t-1 39.5q0 105 -40.5 153t-127.5 48q-103 0 -163 -61.5t-60 -167.5v-588h-289v1174z" />
<glyph unicode="&#x45c;" horiz-adv-x="1137" d="M127 1087h291v-421l364 421h338l-422 -469l457 -618h-348l-303 416l-86 -92v-324h-291v1087zM604 1587h258l-313 -370h-142z" />
<glyph unicode="&#x45e;" horiz-adv-x="1100" d="M12 1087h320l229 -784l223 784h306l-447 -1282q-52 -147 -126.5 -198t-223.5 -51q-29 0 -59.5 2t-63.5 6v235q27 -2 41.5 -3t26.5 -1q74 0 112.5 27t52.5 88l13 41zM242 1552h184q3 -88 32.5 -129t90.5 -41q65 0 94 39t31 131h184q-12 -158 -85.5 -230.5t-221.5 -72.5 q-147 0 -222.5 74t-86.5 229z" />
<glyph unicode="&#x45f;" horiz-adv-x="1239" d="M127 1087h291v-843h403v843h291v-1087h-369v-225h-249v225h-367v1087z" />
<glyph unicode="&#x490;" horiz-adv-x="1188" d="M905 1708h264v-491h-714v-1217h-303v1473h753v235z" />
<glyph unicode="&#x491;" horiz-adv-x="926" d="M674 1087v205h241v-432h-512v-860h-290v1087h561z" />
<glyph unicode="&#x1e80;" horiz-adv-x="1913" d="M438 0l-422 1473h314l252 -1039l213 1039h323l213 -1039l252 1039h311l-421 -1473h-289l-228 1128l-229 -1128h-289zM663 1972h258l197 -370h-142z" />
<glyph unicode="&#x1e81;" horiz-adv-x="1567" d="M322 0l-308 1087h295l178 -753l150 753h297l158 -753l178 753h282l-305 -1087h-291l-174 778l-168 -778h-292zM491 1587h258l197 -370h-142z" />
<glyph unicode="&#x1e82;" horiz-adv-x="1913" d="M438 0l-422 1473h314l252 -1039l213 1039h323l213 -1039l252 1039h311l-421 -1473h-289l-228 1128l-229 -1128h-289zM1249 1972l-313 -370h-142l197 370h258z" />
<glyph unicode="&#x1e83;" horiz-adv-x="1567" d="M322 0l-308 1087h295l178 -753l150 753h297l158 -753l178 753h282l-305 -1087h-291l-174 778l-168 -778h-292zM1077 1587l-313 -370h-142l197 370h258z" />
<glyph unicode="&#x1e84;" horiz-adv-x="1913" d="M438 0l-422 1473h314l252 -1039l213 1039h323l213 -1039l252 1039h311l-421 -1473h-289l-228 1128l-229 -1128h-289zM1017 1661v246h226v-246h-226zM669 1661v246h226v-246h-226z" />
<glyph unicode="&#x1e85;" horiz-adv-x="1567" d="M322 0l-308 1087h295l178 -753l150 753h297l158 -753l178 753h282l-305 -1087h-291l-174 778l-168 -778h-292zM845 1276v246h226v-246h-226zM497 1276v246h226v-246h-226z" />
<glyph unicode="&#x1ef2;" horiz-adv-x="1274" d="M811 0h-303v549l-535 924h371l315 -635l291 635h346l-485 -924v-549zM344 1972h258l197 -370h-142z" />
<glyph unicode="&#x1ef3;" horiz-adv-x="1100" d="M170 -436v235q14 -2 29 -3t39 -1q86 0 129 40.5t43 121.5q0 6 -2 15t-4 15l-392 1100h320l229 -784l223 784h306l-447 -1282q-50 -144 -125 -196.5t-225 -52.5q-27 0 -58 2t-65 6zM258 1587h258l197 -370h-142z" />
<glyph unicode="&#x2013;" horiz-adv-x="1024" d="M0 434v221h1024v-221h-1024z" />
<glyph unicode="&#x2014;" d="M0 655h2048v-221h-2048v221z" />
<glyph unicode="&#x2015;" d="M342 655h1364v-221h-1364v221z" />
<glyph unicode="&#x2017;" horiz-adv-x="1024" d="M0 -330h1024v-153h-1024v153zM0 -61h1024v-154h-1024v154z" />
<glyph unicode="&#x2018;" horiz-adv-x="532" d="M406 1214v-264h-279v258q0 127 78 212t201 91v-102q-76 -18 -113 -63.5t-37 -118.5v-13h150z" />
<glyph unicode="&#x2019;" horiz-adv-x="532" d="M127 1208v265h279v-261q0 -126 -78 -211.5t-201 -91.5v103q76 18 112.5 63.5t36.5 120.5v12h-149z" />
<glyph unicode="&#x201a;" horiz-adv-x="532" d="M127 0v264h279v-258q0 -126 -78 -211.5t-201 -91.5v102q75 20 112 65.5t37 117.5v12h-149z" />
<glyph unicode="&#x201b;" horiz-adv-x="532" d="M406 1214v-264h-279v258q0 127 78 212t201 91v-102q-76 -18 -113 -63.5t-37 -118.5v-13h150z" />
<glyph unicode="&#x201c;" horiz-adv-x="901" d="M809 1214v-264h-279v258q0 127 78 212t201 91v-102q-75 -18 -112.5 -62.5t-37.5 -115.5v-17h150zM369 1214v-264h-279v258q0 127 78 212t201 91v-102q-76 -18 -113 -63.5t-37 -118.5v-13h150z" />
<glyph unicode="&#x201d;" horiz-adv-x="901" d="M530 1208v265h279v-261q0 -126 -78 -211.5t-201 -91.5v103q75 18 112.5 63t37.5 117v16h-150zM90 1208v265h279v-261q0 -126 -78 -211.5t-201 -91.5v103q76 18 113 63.5t37 120.5v12h-150z" />
<glyph unicode="&#x201e;" horiz-adv-x="901" d="M530 0v264h279v-258q0 -126 -78 -211.5t-201 -91.5v102q76 19 113 64t37 119v12h-150zM90 0v264h279v-258q0 -126 -78 -211.5t-201 -91.5v102q76 20 113 65.5t37 117.5v12h-150z" />
<glyph unicode="&#x2020;" horiz-adv-x="1024" d="M393 -217v1069h-334v188h334v433h238v-433h334v-188h-334v-1069h-238z" />
<glyph unicode="&#x2021;" horiz-adv-x="1024" d="M393 -217v377h-334v190h334v551h-334v191h334v381h238v-381h334v-191h-334v-551h334v-190h-334v-377h-238z" />
<glyph unicode="&#x2022;" horiz-adv-x="1208" d="M307 762q0 123 87 209t210 86q122 0 208.5 -86.5t86.5 -208.5t-87.5 -209.5t-209.5 -87.5q-123 0 -209 87t-86 210z" />
<glyph unicode="&#x2026;" d="M190 0v301h301v-301h-301zM872 0v301h301v-301h-301zM1556 0v301h301v-301h-301z" />
<glyph unicode="&#x2030;" horiz-adv-x="2632" d="M2040 332q0 -67 45 -112.5t110 -45.5t110.5 46.5t45.5 111.5q0 64 -45.5 109.5t-110.5 45.5q-66 0 -110.5 -44.5t-44.5 -110.5zM1823 332q0 156 108 263t264 107q154 0 262.5 -108.5t108.5 -261.5q0 -154 -108.5 -263.5t-262.5 -109.5q-156 0 -264 108t-108 265z M1169 332q0 -67 45 -112.5t111 -45.5q64 0 110 46.5t46 111.5q0 64 -45.5 109.5t-110.5 45.5q-66 0 -111 -44.5t-45 -110.5zM952 332q0 156 108 263t265 107q154 0 262.5 -108.5t108.5 -261.5q0 -154 -109 -263.5t-262 -109.5q-157 0 -265 108t-108 265zM371 -41l854 1473 h161l-854 -1473h-161zM283 1059q0 -66 44.5 -111t110.5 -45q65 0 110.5 45.5t45.5 110.5q0 64 -45.5 109.5t-110.5 45.5q-66 0 -110.5 -44.5t-44.5 -110.5zM66 1059q0 156 108 264.5t264 108.5q154 0 262.5 -109.5t108.5 -263.5t-108.5 -262.5t-262.5 -108.5 q-157 0 -264.5 107t-107.5 264z" />
<glyph unicode="&#x2032;" horiz-adv-x="674" d="M283 1430h219l-209 -547h-111z" />
<glyph unicode="&#x2033;" horiz-adv-x="872" d="M575 1430h218l-209 -547h-109zM221 1430h219l-211 -547h-108z" />
<glyph unicode="&#x2039;" horiz-adv-x="485" d="M72 416v256l336 289v-238l-205 -178l205 -178v-240z" />
<glyph unicode="&#x203a;" horiz-adv-x="485" d="M412 672v-256l-334 -289v238l205 180l-205 176v240z" />
<glyph unicode="&#x203c;" horiz-adv-x="1352" d="M262 410l-78 663v400h308v-400l-78 -663h-152zM188 0v295h297v-295h-297zM938 410l-78 663v400h308v-400l-78 -663h-152zM864 0v295h297v-295h-297z" />
<glyph unicode="&#x203e;" horiz-adv-x="858" d="M141 1321v156h576v-156h-576z" />
<glyph unicode="&#x2044;" horiz-adv-x="342" d="M-346 -41l870 1493h164l-872 -1493h-162z" />
<glyph unicode="&#x207f;" horiz-adv-x="918" d="M96 711v762h213v-91q48 56 110 83.5t138 27.5q134 0 201 -66t67 -198v-518h-219v460q0 82 -29 117t-96 35q-78 0 -123 -42.5t-45 -117.5v-452h-217z" />
<glyph unicode="&#x20a3;" horiz-adv-x="2011" d="M152 0v1473h1028v-256h-729v-334h639v-256h-639v-627h-299zM1352 0v1087h270v-186q57 112 133 164.5t181 52.5q17 0 26.5 -0.5t15.5 -1.5l1 -295h-97q-119 0 -179 -62t-60 -184v-575h-291z" />
<glyph unicode="&#x20a4;" horiz-adv-x="1161" d="M1075 973h-276q-8 113 -65 173t-156 60q-95 0 -145 -49t-50 -141q0 -36 16.5 -83.5t57.5 -127.5h307v-105h-264q12 -37 20 -64.5t15 -53.5h229v-105h-229q-10 -62 -52.5 -124.5t-140.5 -153.5q67 30 118 44.5t95 14.5q52 0 142 -23.5t128 -23.5q50 0 98.5 16t96.5 49 l88 -217q-83 -49 -159 -74.5t-142 -25.5q-74 0 -204.5 40t-196.5 40q-55 0 -112.5 -21t-109.5 -59l-114 207q121 86 171 156t50 151v4h-223v105h200q-8 27 -21.5 54.5t-35.5 63.5h-143v105h84q-31 63 -45.5 117.5t-14.5 107.5q0 179 130 289.5t345 110.5q232 0 364.5 -119.5 t143.5 -337.5z" />
<glyph unicode="&#x20a7;" horiz-adv-x="1497" d="M322 1221v-465h71q148 0 203 54.5t55 186.5q0 123 -54.5 173.5t-195.5 50.5h-79zM1042 1313h242v-269h137v-157h-137v-602q0 -67 25.5 -90t95.5 -23h33l-1 -174q-60 -2 -94 -3t-65 -1q-132 0 -184 49.5t-52 212.5v631h-106v157h106v269zM80 1391h373q221 0 318 -92.5 t97 -297.5q0 -204 -107.5 -308.5t-316.5 -104.5h-122v-588h-242v1391z" />
<glyph unicode="&#x20ac;" horiz-adv-x="1161" d="M115 571h-131l47 105h82q0 14 -1 37t-1 32v7q2 24 2 43h-158l47 104h113q26 303 164 457.5t385 154.5q212 0 334.5 -129t144.5 -376h-283q-3 125 -56.5 196.5t-144.5 71.5q-109 0 -172 -97t-69 -278h373l-48 -104h-333v-60v-59h280l-47 -105h-225q7 -179 68.5 -275.5 t168.5 -96.5q95 0 147 72t58 212h283q-22 -259 -144.5 -391.5t-341.5 -132.5q-239 0 -377 155t-165 457z" />
<glyph unicode="&#x2105;" horiz-adv-x="1837" d="M1284 305q0 -90 42.5 -139t119.5 -49q76 0 118 49t42 139t-42 139.5t-118 49.5q-77 0 -119.5 -49.5t-42.5 -139.5zM1098 305q0 152 92.5 239t255.5 87q161 0 253.5 -87t92.5 -239t-92.5 -238.5t-253.5 -86.5q-163 0 -255.5 86.5t-92.5 238.5zM365 -41l870 1493h164 l-873 -1493h-161zM494 842h180q-11 -116 -94.5 -183t-214.5 -67q-150 0 -235 86.5t-85 239.5q0 152 87 238.5t239 86.5q132 0 213 -63.5t90 -173.5h-182q-8 48 -39.5 74t-81.5 26q-67 0 -101 -48t-34 -143q0 -88 34.5 -135t100.5 -47q52 0 82.5 27t40.5 82z" />
<glyph unicode="&#x2113;" horiz-adv-x="1161" d="M539 332q16 -81 32 -104t47 -23q37 0 73.5 33.5t90.5 121.5l172 -124q-71 -137 -161.5 -202t-210.5 -65q-87 0 -145 45t-83 131q-52 -51 -118.5 -104.5t-149.5 -112.5l-111 191q80 55 157.5 122.5t156.5 151.5q0 1 -1 4t-1 4q0 8 -5 43q-22 147 -22 281q0 344 125 556 t320 212q110 0 177.5 -80.5t67.5 -210.5q0 -190 -108 -419t-303 -451zM494 618q102 163 162.5 327t60.5 261q0 33 -12.5 55.5t-28.5 22.5q-53 0 -118.5 -186t-65.5 -402q0 -13 1 -39t1 -39z" />
<glyph unicode="&#x2116;" horiz-adv-x="2343" d="M1450 332h707v-199h-707v199zM1805 1122q-74 0 -115 -59.5t-41 -165.5t40.5 -164.5t114.5 -58.5t114 58t40 165t-40 165.5t-113 59.5zM1804 1305q178 0 279.5 -109t101.5 -299q0 -188 -101.5 -296.5t-279.5 -108.5t-280.5 108t-102.5 297q0 190 102.5 299t280.5 109z M479 950v-950h-282v1473h299l485 -977v977h281v-1473h-299z" />
<glyph unicode="&#x2122;" horiz-adv-x="1706" d="M803 1462h196l127 -332l123 332h197v-547h-135v410l-154 -410h-61l-158 410v-410h-135v547zM207 1462h485v-112h-168v-435h-149v435h-168v112z" />
<glyph unicode="&#x2126;" horiz-adv-x="1575" d="M1227 256h291v-256h-609v291q126 86 192 217.5t66 296.5q0 203 -101.5 319.5t-279.5 116.5q-177 0 -278.5 -116.5t-101.5 -319.5q0 -164 66 -296.5t192 -217.5v-291h-609v256h291q-126 121 -187 260t-61 303q0 313 188 501.5t500 188.5q313 0 501 -188.5t188 -501.5 q0 -164 -61 -303t-187 -260z" />
<glyph unicode="&#x212e;" horiz-adv-x="1561" d="M397 606v-47q0 -239 105 -365t303 -126q172 0 276 94.5t113 258.5l225 1q-15 -222 -179.5 -342.5t-451.5 -120.5q-330 0 -498.5 165.5t-168.5 489.5q0 332 168 497t508 165q322 0 482.5 -155.5t160.5 -467.5v-47h-1043zM1163 715v33q0 208 -94.5 313.5t-280.5 105.5 q-194 0 -287 -107.5t-104 -344.5h766z" />
<glyph unicode="&#x215b;" horiz-adv-x="1806" d="M1298 233q0 -59 37 -90.5t105 -31.5q66 0 103.5 32.5t37.5 89.5q0 56 -38.5 89.5t-102.5 33.5t-103 -34t-39 -89zM1313 578q0 -47 32 -72t93 -25q62 0 95.5 25t33.5 72q0 43 -35 69.5t-94 26.5q-58 0 -91.5 -26.5t-33.5 -69.5zM1247 422q-57 27 -81.5 64t-24.5 96 q0 104 78.5 162.5t218.5 58.5q141 0 221 -59t80 -162q0 -55 -27.5 -95t-81.5 -65q67 -29 100 -77.5t33 -117.5q0 -117 -86 -183.5t-239 -66.5q-154 0 -239 66t-85 184q0 69 32 116t101 79zM385 -41l870 1493h164l-872 -1493h-162zM317 612v549h-215v113h15q118 0 171.5 32 t63.5 107h144v-801h-179z" />
<glyph unicode="&#x215c;" horiz-adv-x="1804" d="M1298 233q0 -59 37 -90.5t105 -31.5q66 0 103.5 32.5t37.5 89.5q0 56 -38.5 89.5t-102.5 33.5t-103 -34t-39 -89zM1313 578q0 -47 32 -72t93 -25q62 0 95.5 25t33.5 72q0 43 -35 69.5t-94 26.5q-58 0 -91.5 -26.5t-33.5 -69.5zM1247 422q-57 27 -81.5 64t-24.5 96 q0 104 78.5 162.5t218.5 58.5q141 0 221 -59t80 -162q0 -55 -27.5 -95t-81.5 -65q67 -29 100 -77.5t33 -117.5q0 -117 -86 -183.5t-239 -66.5q-154 0 -239 66t-85 184q0 69 32 116t101 79zM385 -41l870 1493h164l-872 -1493h-162zM37 856h171q3 -68 38.5 -101.5t105.5 -33.5 q68 0 105 31.5t37 91.5t-43 90.5t-127 30.5q-6 0 -15 -1t-14 -1v112h20q79 0 116.5 26.5t37.5 82.5q0 47 -32 74.5t-87 27.5q-60 0 -92.5 -31.5t-32.5 -89.5v-6h-171q2 123 81 188.5t223 65.5q135 0 214 -58.5t79 -158.5q0 -53 -27 -92.5t-81 -65.5q70 -27 105.5 -74.5 t35.5 -113.5q0 -120 -89.5 -190t-242.5 -70q-152 0 -233.5 68.5t-81.5 195.5v2z" />
<glyph unicode="&#x215d;" horiz-adv-x="1804" d="M1298 233q0 -59 37 -90.5t105 -31.5q66 0 103.5 32.5t37.5 89.5q0 56 -38.5 89.5t-102.5 33.5t-103 -34t-39 -89zM1313 578q0 -47 32 -72t93 -25q62 0 95.5 25t33.5 72q0 43 -35 69.5t-94 26.5q-58 0 -91.5 -26.5t-33.5 -69.5zM1247 422q-57 27 -81.5 64t-24.5 96 q0 104 78.5 162.5t218.5 58.5q141 0 221 -59t80 -162q0 -55 -27.5 -95t-81.5 -65q67 -29 100 -77.5t33 -117.5q0 -117 -86 -183.5t-239 -66.5q-154 0 -239 66t-85 184q0 69 32 116t101 79zM385 -41l870 1493h164l-872 -1493h-162zM33 827h176q5 -52 40 -80t95 -28 q73 0 111.5 37.5t38.5 107.5q0 67 -40 105.5t-110 38.5q-39 0 -69 -14t-50 -42l-162 9l58 430h518v-136h-389l-25 -159q31 20 69 30.5t85 10.5q135 0 218 -73t83 -192q0 -129 -91 -205.5t-245 -76.5q-140 0 -222.5 63t-88.5 174z" />
<glyph unicode="&#x215e;" horiz-adv-x="1804" d="M1298 233q0 -59 37 -90.5t105 -31.5q66 0 103.5 32.5t37.5 89.5q0 56 -38.5 89.5t-102.5 33.5t-103 -34t-39 -89zM1313 578q0 -47 32 -72t93 -25q62 0 95.5 25t33.5 72q0 43 -35 69.5t-94 26.5q-58 0 -91.5 -26.5t-33.5 -69.5zM1247 422q-57 27 -81.5 64t-24.5 96 q0 104 78.5 162.5t218.5 58.5q141 0 221 -59t80 -162q0 -55 -27.5 -95t-81.5 -65q67 -29 100 -77.5t33 -117.5q0 -117 -86 -183.5t-239 -66.5q-154 0 -239 66t-85 184q0 69 32 116t101 79zM385 -41l870 1493h164l-872 -1493h-162zM358 612h-188q9 163 88 324.5t227 318.5 h-444v136h641v-121q-149 -144 -228.5 -306.5t-95.5 -351.5z" />
<glyph unicode="&#x2190;" d="M797 1061l71 -176l-428 -168h1479v-193h-1479l424 -166l-71 -176l-664 340v195z" />
<glyph unicode="&#x2191;" horiz-adv-x="1024" d="M410 1438h194l340 -664l-174 -69l-168 423v-1480h-190v1478l-170 -428l-174 74z" />
<glyph unicode="&#x2192;" d="M1253 1061l666 -344v-195l-664 -340l-71 176l426 166h-1481v193h1481l-430 168z" />
<glyph unicode="&#x2193;" horiz-adv-x="1024" d="M412 1434h190v-1479l168 424l174 -72l-340 -661h-194l-342 665l174 72l170 -428v1479z" />
<glyph unicode="&#x2194;" d="M797 1061l71 -176l-428 -168h1170l-430 168l73 176l666 -344v-195l-664 -340l-71 176l426 166h-1170l424 -166l-71 -176l-664 340v195z" />
<glyph unicode="&#x2195;" horiz-adv-x="1024" d="M401 1470h222l280 -632l-149 -72l-158 405v-1261l158 405l149 -71l-280 -633h-222l-278 633l149 71l156 -405v1261l-156 -405l-149 72z" />
<glyph unicode="&#x21a8;" horiz-adv-x="1024" d="M90 -297h846v-162h-846v162zM401 1540h222l280 -569l-149 -70l-158 369v-1198l156 368l151 -71l-280 -568h-222l-280 568l149 71l158 -368v1198l-156 -369l-151 70z" />
<glyph unicode="&#x2202;" horiz-adv-x="1094" d="M762 662q19 99 29 188.5t10 155.5q0 100 -26 157.5t-70 57.5t-146 -73t-160 -73q-42 0 -71 30t-29 73q0 64 86.5 118t210.5 54q192 0 309 -161.5t117 -432.5q0 -339 -156.5 -560t-396.5 -221q-171 0 -282 114.5t-111 291.5q0 198 116 329.5t287 131.5q102 0 170 -43.5 t113 -136.5zM700 518q0 116 -38.5 178t-110.5 62q-101 0 -167.5 -134t-66.5 -341q0 -117 38.5 -177.5t111.5 -60.5q101 0 167 133.5t66 339.5z" />
<glyph unicode="&#x2206;" horiz-adv-x="1427" d="M713 1110l-326 -854h653zM563 1473h301l563 -1473h-1427z" />
<glyph unicode="&#x220f;" horiz-adv-x="1612" d="M150 1473h1308v-1866h-344v1577h-620v-1577h-344v1866z" />
<glyph unicode="&#x2211;" horiz-adv-x="1470" d="M66 1473h1308v-265h-878l620 -645l-622 -690h933v-266h-1386v172l698 772l-673 690v232z" />
<glyph unicode="&#x2212;" horiz-adv-x="1706" d="M254 713h1198v-203h-1198v203z" />
<glyph unicode="&#x2215;" horiz-adv-x="342" d="M-346 -41l870 1493h164l-872 -1493h-162z" />
<glyph unicode="&#x2219;" horiz-adv-x="582" d="M135 702q0 65 45.5 110.5t110.5 45.5t110 -45t45 -111q0 -65 -45 -110t-110 -45q-66 0 -111 44.5t-45 110.5z" />
<glyph unicode="&#x221a;" horiz-adv-x="1346" d="M1141 1694h207v-129h-103l-592 -1606h-100l-311 858l-140 -51l-30 113l331 116l236 -661z" />
<glyph unicode="&#x221e;" horiz-adv-x="1706" d="M942 561q45 -75 106.5 -113t139.5 -38q94 0 152.5 55.5t58.5 144.5q0 87 -54 143t-135 56q-75 0 -138 -57.5t-130 -190.5zM766 659q-44 75 -105.5 112.5t-140.5 37.5q-94 0 -152.5 -56t-58.5 -145q0 -85 54 -141.5t135 -56.5q75 0 138 58t130 191zM858 457 q-68 -132 -146.5 -195t-174.5 -63q-140 0 -236 117.5t-96 293.5q0 184 85.5 297t223.5 113q92 0 170 -60t164 -198q68 132 148 196t175 64q139 0 235.5 -118.5t96.5 -293.5q0 -183 -86 -296t-223 -113q-93 0 -170.5 58.5t-165.5 197.5z" />
<glyph unicode="&#x221f;" horiz-adv-x="1706" d="M225 1300h197v-1105h1059v-195h-1256v1300z" />
<glyph unicode="&#x2229;" horiz-adv-x="1706" d="M1489 0h-207v684q0 229 -111.5 351t-318.5 122q-203 0 -314.5 -123.5t-111.5 -351.5v-682h-209v690q0 138 23.5 236.5t72.5 171.5q80 119 223.5 186.5t317.5 67.5q156 0 286 -53.5t216 -151.5q70 -82 101.5 -187.5t31.5 -269.5v-690z" />
<glyph unicode="&#x222b;" horiz-adv-x="1186" d="M342 -252q102 0 121 639q3 136 6 211q16 508 123 732t328 224q98 0 157.5 -49t59.5 -129q0 -60 -38 -96.5t-100 -36.5q-46 0 -77 24t-41 68q-5 20 -7 54q-3 46 -30 47q-99 0 -119 -633q-4 -116 -6 -178q-11 -296 -31 -444.5t-59 -250.5q-56 -148 -148.5 -225.5 t-214.5 -77.5q-96 0 -156.5 49t-60.5 127q0 62 39 99t105 37q50 0 85 -31.5t35 -71.5q0 -58 6 -73t23 -15z" />
<glyph unicode="&#x2248;" horiz-adv-x="1706" d="M1530 596v-219q-106 -72 -198 -105.5t-181 -33.5q-95 0 -286.5 66.5t-301.5 66.5q-84 0 -174.5 -37t-210.5 -121v219q111 73 206.5 108t180.5 35q124 0 315.5 -65.5t274.5 -65.5q86 0 174 35.5t201 116.5zM1530 1008v-220q-106 -71 -196.5 -104t-180.5 -33 q-94 0 -286 65.5t-304 65.5q-82 0 -170 -35t-215 -122v219q107 71 204 107t183 36q125 0 316.5 -65.5t273.5 -65.5q84 0 171 35t204 117z" />
<glyph unicode="&#x2260;" horiz-adv-x="1706" d="M1198 1233l148 -119l-154 -192h260v-191h-389l-191 -239h580v-193h-707l-245 -309l-148 119l154 190h-252v193h377l190 239h-567v191h696z" />
<glyph unicode="&#x2261;" horiz-adv-x="1706" d="M254 322h1198v-187h-1198v187zM254 705h1198v-189h-1198v189zM254 1085h1198v-186h-1198v186z" />
<glyph unicode="&#x2264;" horiz-adv-x="1706" d="M258 195h1192v-197h-1192v197zM1448 1241v-209l-834 -264l834 -262v-209l-1190 385v174z" />
<glyph unicode="&#x2265;" horiz-adv-x="1706" d="M258 195h1192v-197h-1192v197zM260 1241l1188 -385v-174l-1188 -385v209l832 262l-832 264v209z" />
<glyph unicode="&#x2302;" horiz-adv-x="1778" d="M160 98h1460v674l-731 625l-729 -625v-674zM59 0v819l830 703l829 -703v-819h-1659z" />
<glyph unicode="&#x2310;" horiz-adv-x="1706" d="M254 864h1198v-196h-999v-306h-199v502z" />
<glyph unicode="&#x2320;" horiz-adv-x="1298" d="M772 -483h-252v336q0 932 117.5 1317.5t390.5 385.5q95 0 153 -50t58 -130q0 -63 -40.5 -103t-104.5 -40q-65 0 -97 33.5t-32 101.5v27q0 24 -8 36.5t-23 12.5q-87 0 -124.5 -367t-37.5 -1247v-313z" />
<glyph unicode="&#x2321;" horiz-adv-x="1298" d="M520 1565h252v-336q0 -926 -118.5 -1315t-391.5 -389q-95 0 -153 49.5t-58 128.5q0 63 41.5 103t106.5 40q64 0 95.5 -33.5t31.5 -101.5v-24q0 -23 8.5 -36t23.5 -13q88 0 125 362t37 1251v314z" />
<glyph unicode="&#x2500;" d="M-39 598h2126v-117h-2126v117z" />
<glyph unicode="&#x2502;" d="M965 1599h118v-2123h-118v2123z" />
<glyph unicode="&#x250c;" d="M965 598h1122v-117h-1004v-1005h-118v1122z" />
<glyph unicode="&#x2510;" d="M965 481h-1002v117h1120v-1122h-118v1005z" />
<glyph unicode="&#x2514;" d="M965 1599h118v-1001h1004v-117h-1122v1118z" />
<glyph unicode="&#x2518;" d="M-39 598h1004v1001h118v-1118h-1122v117z" />
<glyph unicode="&#x251c;" d="M965 1599h118v-1001h1004v-117h-1004v-1005h-118v2123z" />
<glyph unicode="&#x2524;" d="M965 481h-1004v117h1004v1001h118v-2123h-118v1005z" />
<glyph unicode="&#x252c;" d="M965 481h-1004v117h2126v-117h-1004v-1005h-118v1005z" />
<glyph unicode="&#x2534;" d="M-39 598h1004v1001h118v-1001h1004v-117h-2126v117z" />
<glyph unicode="&#x253c;" d="M965 481h-1004v117h1004v1001h118v-1001h1004v-117h-1004v-1005h-118v1005z" />
<glyph unicode="&#x2550;" d="M-39 422h2126v-117h-2126v117zM-39 774h2126v-115h-2126v115z" />
<glyph unicode="&#x2551;" d="M1262 1599v-2123h-119v2123h119zM905 1599v-2123h-119v2123h119z" />
<glyph unicode="&#x2552;" d="M965 774h1122v-115h-1004v-237h1004v-117h-1004v-829h-118v1298z" />
<glyph unicode="&#x2553;" d="M2087 598v-117h-825v-1005h-119v1005h-238v-1005h-119v1122h1301z" />
<glyph unicode="&#x2554;" d="M905 659v-1183h-119v1298h1301v-115h-1182zM1143 422h944v-117h-825v-829h-119v946z" />
<glyph unicode="&#x2555;" d="M965 305h-1004v117h1004v237h-1004v115h1122v-1290h-118v821z" />
<glyph unicode="&#x2556;" d="M1262 598v-1122h-119v1005h-238v-1005h-119v1005h-825v117h1301z" />
<glyph unicode="&#x2557;" d="M-39 774h1301v-1298h-119v1183h-1182v115zM786 -524v829h-825v117h944v-946h-119z" />
<glyph unicode="&#x2558;" d="M965 1599h118v-825h1004v-115h-1004v-237h1004v-117h-1122v1294z" />
<glyph unicode="&#x2559;" d="M905 1599v-1001h238v1001h119v-1001h825v-117h-1301v1118h119z" />
<glyph unicode="&#x255a;" d="M1262 1599v-825h825v-115h-944v940h119zM2087 305h-1301v1294h119v-1177h1182v-117z" />
<glyph unicode="&#x255b;" d="M-39 422h1004v237h-1004v115h1004v825h118v-1294h-1122v117z" />
<glyph unicode="&#x255c;" d="M786 598v1001h119v-1001h238v1001h119v-1118h-1301v117h825z" />
<glyph unicode="&#x255d;" d="M1143 422v1177h119v-1294h-1301v117h1182zM905 659h-944v115h825v825h119v-940z" />
<glyph unicode="&#x255e;" d="M965 1599h118v-825h1004v-115h-1004v-237h1004v-117h-1004v-829h-118v2123z" />
<glyph unicode="&#x255f;" d="M1262 1599v-1001h825v-117h-825v-1005h-119v2123h119zM786 -524v2123h119v-2123h-119z" />
<glyph unicode="&#x2560;" d="M1262 1599v-825h825v-115h-944v940h119zM1143 422h944v-117h-825v-829h-119v946zM786 -524v2123h119v-2123h-119z" />
<glyph unicode="&#x2561;" d="M965 305h-1004v117h1004v237h-1004v115h1004v825h118v-2123h-118v829z" />
<glyph unicode="&#x2562;" d="M1262 1599v-2123h-119v2123h119zM786 598v1001h119v-2123h-119v1005h-825v117h825z" />
<glyph unicode="&#x2563;" d="M905 659h-944v115h825v825h119v-940zM786 -524v829h-825v117h944v-946h-119zM1262 1599v-2123h-119v2123h119z" />
<glyph unicode="&#x2564;" d="M-39 774h2126v-115h-2126v115zM965 305h-1004v117h2126v-117h-1004v-829h-118v829z" />
<glyph unicode="&#x2565;" d="M2087 598v-117h-825v-1005h-119v1005h-238v-1005h-119v1005h-825v117h2126z" />
<glyph unicode="&#x2566;" d="M1143 422h944v-117h-825v-829h-119v946zM786 -524v829h-825v117h944v-946h-119zM2087 659h-2126v115h2126v-115z" />
<glyph unicode="&#x2567;" d="M-39 774h1004v825h118v-825h1004v-115h-2126v115zM2087 305h-2126v117h2126v-117z" />
<glyph unicode="&#x2568;" d="M786 598v1001h119v-1001h238v1001h119v-1001h825v-117h-2126v117h825z" />
<glyph unicode="&#x2569;" d="M1262 1599v-825h825v-115h-944v940h119zM905 659h-944v115h825v825h119v-940zM-39 305v117h2126v-117h-2126z" />
<glyph unicode="&#x256a;" d="M965 305h-1004v117h1004v237h-1004v115h1004v825h118v-825h1004v-115h-1004v-237h1004v-117h-1004v-829h-118v829z" />
<glyph unicode="&#x256b;" d="M786 598v1004h119v-1004h238v1004h119v-1004h825v-117h-825v-1005h-119v1005h-238v-1005h-119v1005h-825v117h825z" />
<glyph unicode="&#x256c;" d="M1143 422h944v-117h-825v-829h-119v946zM1262 1599v-825h825v-115h-944v940h119zM905 659h-944v115h825v825h119v-940zM786 -524v829h-825v117h944v-946h-119z" />
<glyph unicode="&#x2580;" d="M2087 1599v-1058h-2126v1058h2126z" />
<glyph unicode="&#x2584;" d="M2087 541v-1065h-2126v1065h2126z" />
<glyph unicode="&#x2588;" d="M2087 -524h-2126v2123h2126v-2123z" />
<glyph unicode="&#x258c;" d="M1024 1599v-2123h-1063v2123h1063z" />
<glyph unicode="&#x2590;" d="M2087 1599v-2123h-1063v2123h1063z" />
<glyph unicode="&#x2591;" d="M0 -143v342h340v-342h-340zM682 -143v342h342v-342h-342zM1366 -143v342h340v-342h-340zM1366 541v340h340v-340h-340zM1366 1223v342h340v-342h-340zM682 541v340h342v-340h-342zM0 541v340h340v-340h-340zM682 1223v342h342v-342h-342zM0 1223v342h340v-342h-340z" />
<glyph unicode="&#x2592;" d="M342 -483v340h340v-340h-340zM1024 -483v340h340v-340h-340zM1706 -483v340h342v-340h-342zM1706 199v342h342v-342h-342zM1706 881v342h342v-342h-342zM1366 -143v342h340v-342h-340zM682 -143v342h342v-342h-342zM0 -143v342h340v-342h-340zM1366 541v340h340v-340 h-340zM682 541v340h342v-340h-342zM0 541v340h340v-340h-340zM1366 1223v342h340v-342h-340zM682 1223v342h342v-342h-342zM0 1223v342h340v-342h-340zM1024 199v342h340v-342h-340zM342 199v342h340v-342h-340zM1024 881v342h340v-342h-340zM342 881v342h340v-342h-340z " />
<glyph unicode="&#x2593;" d="M1024 541v-342h342v342h-342zM1024 1223v-342h342v342h-342zM342 1223v-342h340v342h-340zM342 541v-342h340v342h-340zM1366 -143h-342v-381h-342v381h-340v-381h-342v2089h2087v-342h-381v-342h381v-340h-381v-342h381v-342h-381v-381h-340v381z" />
<glyph unicode="&#x25a0;" horiz-adv-x="1536" d="M51 1321h1434v-1432h-1434v1432z" />
<glyph unicode="&#x25a1;" d="M297 1270v-1458h1456v1458h-1456zM127 1438h1794v-1794h-1794v1794z" />
<glyph unicode="&#x25aa;" horiz-adv-x="1380" d="M170 164v1038h1040v-1038h-1040z" />
<glyph unicode="&#x25ab;" horiz-adv-x="1233" d="M180 123h873v872h-873v-872zM57 0v1118h1119v-1118h-1119z" />
<glyph unicode="&#x25ac;" horiz-adv-x="1939" d="M358 815h1223v-407h-1223v407z" />
<glyph unicode="&#x25b2;" horiz-adv-x="1233" d="M168 279l448 854l449 -854h-897z" />
<glyph unicode="&#x25ba;" horiz-adv-x="1233" d="M190 1133l852 -449l-852 -448v897z" />
<glyph unicode="&#x25bc;" horiz-adv-x="1233" d="M168 1087h897l-449 -851z" />
<glyph unicode="&#x25c4;" horiz-adv-x="1233" d="M1042 1133v-897l-852 448z" />
<glyph unicode="&#x25ca;" horiz-adv-x="1012" d="M506 1409l-385 -817l385 -825l385 825zM506 1653l500 -1061l-500 -1069l-500 1069z" />
<glyph unicode="&#x25cb;" horiz-adv-x="1606" d="M805 1245q-128 0 -247 -50t-212 -142q-90 -90 -139 -209t-49 -246q0 -268 188 -456.5t457 -188.5q267 0 456 189.5t189 455.5q0 268 -188.5 457.5t-454.5 189.5zM72 602q0 145 55 277t158 235q104 105 239 161t281 56q122 0 242.5 -43t218.5 -123q125 -102 196.5 -253 t71.5 -314q0 -145 -56 -280t-159 -238t-236 -158t-280 -55q-165 0 -312 69t-253 197q-82 98 -124 217.5t-42 251.5z" />
<glyph unicode="&#x25cf;" horiz-adv-x="1606" d="M72 602q0 145 55 277t158 235q104 105 239 161t281 56q122 0 242.5 -43t218.5 -123q125 -102 196.5 -253t71.5 -314q0 -145 -56 -280t-159 -238t-236 -158t-280 -55q-165 0 -312 69t-253 197q-82 98 -124 217.5t-42 251.5z" />
<glyph unicode="&#x25d8;" d="M0 -483v2048h2048v-2048h-2048zM1026 1051q-212 0 -362 -151t-150 -361q0 -212 148.5 -360t361.5 -148q211 0 360.5 149t149.5 359q0 211 -149.5 361.5t-358.5 150.5z" />
<glyph unicode="&#x25d9;" d="M434 541q0 245 173.5 418.5t418.5 173.5q244 0 417 -174t173 -418q0 -243 -173 -417.5t-419 -174.5t-418 172.5t-172 419.5zM1026 1272q-147 0 -282 -56t-238 -159t-158 -236t-55 -278q0 -132 42 -251.5t124 -217.5q106 -128 253 -197.5t312 -69.5q147 0 280 55t236 158 t159 238.5t56 280.5t-57 282.5t-158 237.5t-236.5 156.5t-277.5 56.5zM0 -483v2048h2048v-2048h-2048z" />
<glyph unicode="&#x25e6;" horiz-adv-x="1233" d="M815 610q0 82 -58.5 140.5t-140.5 58.5t-140 -58t-58 -141t58 -140.5t140 -57.5q83 0 141 58.5t58 139.5zM616 897q119 0 203 -83.5t84 -203.5q0 -118 -84.5 -203t-204.5 -85q-119 0 -202.5 84t-83.5 204t84.5 203.5t203.5 83.5z" />
<glyph unicode="&#x25fc;" horiz-adv-x="1085" d="M0 1085h1085v-1085h-1085v1085z" />
<glyph unicode="&#x263a;" horiz-adv-x="1796" d="M897 322q-114 0 -203 52t-157 158q-35 57 -59 121t-29 64q-12 0 -32 -31t-36 -31q-11 0 -17 7t-6 20q0 34 63 111t95 77q12 0 17.5 -3.5t5.5 -10.5q0 -9 -6.5 -35t-6.5 -43q0 -42 20.5 -97.5t55.5 -107.5q58 -84 129.5 -123.5t165.5 -39.5q89 0 156 33t123 104 q42 54 68 119.5t26 111.5q0 17 -7.5 43t-7.5 35q1 7 7 10.5t18 3.5q33 0 95.5 -77.5t62.5 -108.5q0 -15 -5.5 -22t-17.5 -7q-16 0 -36 31t-31 31q-6 0 -30 -64t-61 -121q-68 -106 -157 -158t-203 -52zM981 1022q0 35 12 51.5t37 16.5t36 -16t11 -52q0 -37 -11 -52.5 t-36 -15.5t-37 16.5t-12 51.5zM717 1022q0 35 12 51.5t37 16.5t37 -16.5t12 -51.5q0 -36 -11.5 -52t-37.5 -16q-25 0 -37 16.5t-12 51.5zM899 1343q-130 0 -251 -50.5t-216 -145.5q-93 -93 -142.5 -213.5t-49.5 -251.5q0 -274 191 -465.5t466 -191.5q274 0 466.5 192.5 t192.5 464.5q0 274 -192.5 467.5t-464.5 193.5zM166 686q0 144 56 277.5t159 236.5q104 104 238.5 159.5t281.5 55.5q124 0 244 -42.5t217 -121.5q125 -102 196.5 -253.5t71.5 -315.5q0 -144 -56.5 -279t-160.5 -239t-236 -158.5t-278 -54.5q-165 0 -312 69t-253 197 q-83 100 -125.5 219.5t-42.5 249.5z" />
<glyph unicode="&#x263b;" horiz-adv-x="1796" d="M436 688q8 0 27 -52.5t43 -94.5q69 -124 166 -185t225 -61q118 0 211 52.5t162 158.5q36 55 59.5 118.5t30.5 63.5q11 0 31.5 -30.5t38.5 -30.5q12 0 22 9.5t10 20.5q0 36 -73 124.5t-111 88.5q-13 0 -17.5 -5t-5.5 -19q0 -12 7.5 -36t7.5 -36q0 -32 -21.5 -85.5 t-58.5 -108.5q-56 -82 -127 -121t-166 -39t-166 39t-127 121q-36 52 -57 106t-21 88q0 12 6.5 36t6.5 36q0 14 -4.5 19t-16.5 5q-38 0 -111 -88.5t-73 -124.5q0 -11 10 -20.5t23 -9.5q17 0 37.5 30.5t31.5 30.5zM1044 1110q-33 0 -48 -20.5t-15 -67.5q0 -46 15.5 -67 t47.5 -21q33 0 48.5 21t15.5 67q0 47 -15 67.5t-49 20.5zM752 1110q-35 0 -49.5 -20t-14.5 -68q0 -46 15.5 -67t48.5 -21q32 0 47.5 21.5t15.5 66.5q0 46 -15 67t-48 21zM166 686q0 144 56 277.5t159 236.5q104 104 238.5 159.5t281.5 55.5q124 0 244 -42.5t217 -121.5 q126 -101 195 -249t69 -316q0 -170 -67.5 -316t-196.5 -253q-98 -82 -216 -124t-247 -42q-306 0 -519.5 214t-213.5 521z" />
<glyph unicode="&#x263c;" horiz-adv-x="1796" d="M934 1421v-239q80 -8 149.5 -38t137.5 -87l170 170l51 -51l-170 -170q54 -72 82.5 -142.5t32.5 -140.5h239v-74h-239q-4 -71 -32.5 -142.5t-82.5 -141.5l170 -170l-51 -52l-170 170q-65 -56 -133.5 -85.5t-153.5 -37.5v-241h-74v241q-84 8 -151.5 37.5t-133.5 85.5 l-169 -170l-52 52l170 170q-53 68 -82 140t-33 144h-239v74h239q4 70 32.5 140.5t82.5 142.5l-170 170l52 51l169 -170q67 57 135.5 87t149.5 38v239h74zM901 1114q-177 0 -301.5 -123.5t-124.5 -300.5t124.5 -301.5t301.5 -124.5q176 0 300 125.5t124 300.5t-124.5 299.5 t-299.5 124.5z" />
<glyph unicode="&#x2640;" horiz-adv-x="1683" d="M780 -90v256h-297v129h297v295q-177 23 -289 152t-112 309q0 195 136 333t329 138q191 0 329 -138.5t138 -332.5q0 -173 -118 -309t-284 -152v-295h297v-129h-297v-256h-129zM844 1401q-142 0 -243 -102.5t-101 -247.5t99 -245.5t243 -100.5t246 102t102 244 q0 143 -102 246.5t-244 103.5z" />
<glyph unicode="&#x2642;" horiz-adv-x="1683" d="M850 819l186 469q-69 -23 -154.5 -38t-179.5 -19l-18 78q109 19 228.5 67t246.5 123l47 -14q22 -115 77 -234.5t142 -240.5l-65 -43q-79 74 -133 144.5t-76 125.5l-182 -465q113 -64 175 -169t62 -234q0 -194 -133 -329.5t-332 -135.5q-197 0 -333 134.5t-136 330.5 q0 193 136 330t327 137q27 0 55 -4t60 -13zM739 715q-143 0 -244.5 -101t-101.5 -245q0 -145 101 -247t245 -102q145 0 245.5 103t100.5 246q0 142 -101.5 244t-244.5 102z" />
<glyph unicode="&#x2660;" horiz-adv-x="2019" d="M864 -96q54 59 79.5 143.5t25.5 202.5q0 70 -12.5 99.5t-41.5 29.5q-42 0 -71 -85q-15 -46 -27 -71q-36 -78 -100.5 -121t-145.5 -43q-115 0 -195.5 85.5t-80.5 211.5q0 96 46 196.5t171 260.5q32 40 102 126q260 319 396 538q137 -220 389 -529q76 -93 108 -135 q125 -160 171 -260.5t46 -196.5q0 -126 -80 -211.5t-196 -85.5q-79 0 -144 43.5t-102 120.5q-12 25 -27 71q-28 85 -71 85q-29 0 -41 -29.5t-12 -99.5q0 -116 26 -201t80 -145h-293z" />
<glyph unicode="&#x2663;" horiz-adv-x="2019" d="M840 -66q55 65 80.5 145t25.5 191q0 65 -15 103.5t-40 38.5q-29 0 -80 -68q-22 -29 -35 -45q-71 -85 -135.5 -120.5t-144.5 -35.5q-133 0 -215 100.5t-82 262.5q0 151 85.5 248.5t213.5 97.5q95 0 203 -67.5t128 -67.5q19 0 31 10t12 27q0 28 -93 108q-22 19 -34 29 q-48 42 -75 103t-27 128q0 144 98 227t269 83q172 0 269 -85t97 -235q0 -60 -27.5 -120t-74.5 -101q-12 -10 -33 -29q-94 -80 -94 -108q0 -17 12 -27t31 -10q20 0 128 67.5t204 67.5q129 0 214 -99t85 -255q0 -157 -82.5 -256t-214.5 -99q-80 0 -145 35.5t-136 120.5 q-15 18 -39 50q-48 63 -76 63q-23 0 -39 -36.5t-16 -92.5q0 -125 24.5 -204t82.5 -145h-340z" />
<glyph unicode="&#x2665;" horiz-adv-x="2019" d="M1010 -78q-164 258 -407 548l-50 60q-150 186 -204 304t-54 237q0 165 94 269t238 104q103 0 182.5 -58.5t124.5 -168.5q6 -15 16 -43q26 -76 60 -76q35 0 60 76q9 27 15 43q46 109 125.5 168t182.5 59q144 0 237.5 -104t93.5 -269q0 -119 -54 -237t-204 -304 q-13 -16 -48 -58q-235 -281 -408 -550z" />
<glyph unicode="&#x2666;" horiz-adv-x="2019" d="M1001 -92l-614 782l614 783l631 -783z" />
<glyph unicode="&#x266a;" horiz-adv-x="1090" d="M553 1032v-686q0 -108 -13.5 -162.5t-43.5 -95.5q-46 -58 -124 -95.5t-155 -37.5q-81 0 -130.5 44t-49.5 116q0 103 111 195.5t229 92.5q36 0 58 -5t42 -17v1083h76v-123q0 -113 132 -258l11 -12q138 -152 187 -260t49 -238q0 -49 -9.5 -114t-31.5 -170l-72 18 q17 72 25 131.5t8 112.5q0 163 -60 264.5t-239 216.5z" />
<glyph unicode="&#x266b;" horiz-adv-x="1470" d="M975 754q0 86 -67 168t-236 200v-112q0 -92 121.5 -196t181.5 -179v119zM672 1464v-69q0 -132 179 -307q33 -32 50 -50q101 -100 125.5 -157t24.5 -146v-774q0 -147 -14.5 -207.5t-49.5 -101.5q-45 -54 -122 -89.5t-150 -35.5q-81 0 -130.5 44.5t-49.5 117.5 q0 106 111.5 196t248.5 90q23 0 42 -5.5t38 -18.5v495q0 80 -66 157t-237 194v-435q0 -123 -13 -177.5t-45 -96.5q-43 -58 -122 -95.5t-156 -37.5q-81 0 -129.5 43.5t-48.5 116.5q0 104 111 196t237 92q27 0 47.5 -5.5t42.5 -18.5v1085h76z" />
<glyph unicode="&#xf004;" horiz-adv-x="1024" d="M387 -346v217h248v-190q0 -121 -57.5 -176.5t-186.5 -61.5v98q64 4 92.5 26.5t28.5 70.5v16h-125z" />
<glyph unicode="&#xf005;" horiz-adv-x="1024" d="M283 -438v129q80 -21 145 -32t111 -11q52 0 76 17.5t24 55.5t-28 54t-93 16q-23 0 -35 -0.5t-22 -1.5v211h102v-90h15q117 0 176 -48t59 -143q0 -100 -66 -150t-198 -50q-51 0 -119.5 11t-146.5 32z" />
<glyph unicode="&#xfb01;" horiz-adv-x="1196" d="M776 1208v265h285v-265h-285zM776 0v1087h285v-1087h-285zM178 0v883h-155v204h155v101q0 152 78.5 223.5t247.5 71.5q31 0 65.5 -1.5t73.5 -5.5v-231h-76q-65 0 -85.5 -17t-20.5 -65v-76h182v-204h-180v-883h-285z" />
<glyph unicode="&#xfb02;" horiz-adv-x="1194" d="M776 0v1473h285v-1473h-285zM178 0v883h-155v204h155v101q0 152 78.5 223.5t247.5 71.5q31 0 65.5 -1.5t73.5 -5.5v-231h-76q-65 0 -85.5 -17t-20.5 -65v-76h182v-204h-180v-883h-285z" />
<glyph horiz-adv-x="532" d="M127 1473h279v-261q0 -125 -79.5 -211.5t-199.5 -90.5v102q75 17 112 62t37 118v16h-149v265z" />
<glyph horiz-adv-x="248" d="M0 1253v220h248v-191q0 -120 -57.5 -176t-186.5 -62v98q63 4 91 26t28 69v16h-123z" />
<glyph horiz-adv-x="555" d="M6 -444v243h57q37 0 53.5 17.5t16.5 56.5v1214h291v-1261q0 -138 -76.5 -204t-234.5 -66h-52h-55z" />
<glyph horiz-adv-x="303" d="M385 1473l-315 -371h-140l197 371h258z" />
<glyph horiz-adv-x="858" d="M492 1276v246h225v-246h-225zM141 1276v246h226v-246h-226z" />
<glyph horiz-adv-x="1024" d="M547 1587h258l-313 -370h-142z" />
<glyph horiz-adv-x="1024" d="M203 1552h184q3 -88 32.5 -129t90.5 -41q65 0 94 39t31 131h184q-12 -158 -85.5 -230.5t-221.5 -72.5q-147 0 -222.5 74t-86.5 229z" />
</font>
</defs>
</svg>
