<?xml version="1.0" standalone="no"?>
<!DOCTYPE svg PUBLIC "-//W3C//DTD SVG 1.1//EN" "http://www.w3.org/Graphics/SVG/1.1/DTD/svg11.dtd" >
<svg xmlns="http://www.w3.org/2000/svg" xmlns:xlink="http://www.w3.org/1999/xlink" version="1.1">
<metadata></metadata>
<defs>
<font id="swis721_cn_btitalic" horiz-adv-x="1024" >
<font-face units-per-em="2048" ascent="1556" descent="-492" />
<missing-glyph horiz-adv-x="510" />
<glyph unicode="&#xd;" horiz-adv-x="510" />
<glyph unicode=" "  horiz-adv-x="510" />
<glyph unicode="&#x09;" horiz-adv-x="510" />
<glyph unicode="&#xa0;" horiz-adv-x="510" />
<glyph unicode="!" horiz-adv-x="530" d="M47 201h191l-39 -201h-191zM137 385l107 709l100 446h188l-102 -465l-205 -690h-88z" />
<glyph unicode="&#x22;" horiz-adv-x="614" d="M524 1436v-555h-139v555h139zM229 1436v-555h-139v555h139z" />
<glyph unicode="#" horiz-adv-x="1575" d="M969 858h-260l-93 -264h261zM924 1458l-162 -454h256l164 454h164l-160 -454h301l-51 -146h-303l-93 -262h322l-51 -147h-322l-162 -453h-165l161 453h-258l-162 -453h-165l159 453h-309l53 147h310l92 262h-330l51 146h332l162 454h166z" />
<glyph unicode="$" horiz-adv-x="1020" d="M502 885l102 491h-4q-111 0 -181.5 -78.5t-70.5 -199.5q0 -81 35 -130t119 -83zM551 690l-115 -549h19q124 0 200 88t76 230q0 89 -44 145.5t-136 85.5zM57 477h148v-53q0 -110 36 -177t109 -91l117 567q-145 57 -207.5 137.5t-62.5 208.5q0 205 114 324.5t310 119.5h14 l31 132h86l-31 -144q124 -33 188 -120.5t64 -221.5q0 -18 -0.5 -26.5t-1.5 -15.5l-146 -1v10q0 101 -31 155.5t-102 80.5l-108 -514q172 -63 238.5 -144t66.5 -227q0 -219 -126 -348t-341 -129h-14l-43 -205h-91l45 217q-130 39 -198 140t-68 258q0 22 4 63v4z" />
<glyph unicode="%" horiz-adv-x="1430" d="M1053 629q-76 0 -108 -59.5t-32 -211.5q0 -122 34 -178.5t106 -56.5t106.5 64t34.5 200q0 122 -35 182t-106 60zM774 383q0 185 69 277t208 92q145 0 214.5 -90.5t69.5 -278.5q0 -186 -72 -284.5t-208 -98.5q-145 0 -213 93t-68 290zM373 1399q-76 0 -106.5 -58.5 t-30.5 -212.5q0 -123 32.5 -179t104.5 -56t106.5 64t34.5 200q0 122 -35 182t-106 60zM94 1153q0 185 69 277t208 92q144 0 214 -90.5t70 -276.5q0 -187 -72.5 -286t-209.5 -99q-144 0 -211.5 92.5t-67.5 290.5zM305 -29l694 1579h117l-692 -1579h-119z" />
<glyph unicode="&#x26;" horiz-adv-x="1178" d="M508 971q101 51 154 119.5t53 146.5q0 74 -37 116t-103 42q-65 0 -106 -47.5t-41 -122.5q0 -51 18.5 -110.5t61.5 -143.5zM750 119q-68 -74 -159.5 -114t-191.5 -40q-174 0 -285.5 117t-111.5 303q0 162 95 287.5t280 208.5q-56 92 -84.5 178t-28.5 164q0 138 91 229.5 t225 91.5q128 0 213.5 -82t85.5 -209q0 -130 -80 -235.5t-232 -175.5l232 -453q44 58 72 122.5t42 139.5h162q-31 -122 -83 -223t-126 -182l125 -246h-182zM684 258l-250 500q-135 -72 -201.5 -160.5t-66.5 -196.5q0 -115 72 -192.5t178 -77.5q73 0 140.5 32t127.5 95z" />
<glyph unicode="'" horiz-adv-x="317" d="M229 1436v-555h-139v555h139z" />
<glyph unicode="(" horiz-adv-x="653" d="M459 -410h-105q-95 176 -143.5 371t-48.5 397q0 327 132 635t376 547h123q-222 -235 -342.5 -566.5t-120.5 -705.5q0 -183 33 -357.5t96 -320.5z" />
<glyph unicode=")" horiz-adv-x="653" d="M182 1540h105q95 -176 143.5 -370t48.5 -396q0 -327 -132.5 -636t-375.5 -548h-125q222 236 342.5 567.5t120.5 704.5q0 186 -32.5 360t-94.5 318z" />
<glyph unicode="*" d="M602 1057l-178 -260l-117 84l199 245l-293 80l43 137l283 -102v299h125v-299l280 98l49 -131l-297 -82l201 -245l-115 -84z" />
<glyph unicode="+" horiz-adv-x="1706" d="M924 1221v-541h528v-139h-528v-541h-142v541h-528v139h528v541h142z" />
<glyph unicode="," horiz-adv-x="510" d="M63 203h189l-53 -252q-21 -101 -84.5 -165t-157.5 -79l14 86q64 23 97 72t42 135h-90z" />
<glyph unicode="-" horiz-adv-x="674" d="M37 504l33 162h512l-43 -162h-502z" />
<glyph unicode="." horiz-adv-x="510" d="M197 0h-191l43 205h193z" />
<glyph unicode="/" horiz-adv-x="569" d="M588 1577l-549 -1767h-111l547 1767h113z" />
<glyph unicode="0" horiz-adv-x="1020" d="M612 1393q-96 0 -158.5 -73.5t-111.5 -248.5q-58 -211 -90.5 -399t-32.5 -301q0 -130 48 -194t145 -64q84 0 144.5 65.5t107.5 208.5q20 64 42 155.5t44 198.5q28 148 42.5 252t14.5 164q0 113 -51 174.5t-144 61.5zM49 373q0 101 16.5 230.5t49.5 277.5q25 117 52.5 206 t59.5 160q68 144 167 218.5t222 74.5q171 0 263 -110t92 -316q0 -76 -13.5 -176.5t-44.5 -249.5q-28 -138 -56.5 -239t-59.5 -175q-66 -152 -167 -230.5t-233 -78.5q-169 0 -258.5 105t-89.5 303z" />
<glyph unicode="1" horiz-adv-x="1020" d="M504 0h-164l240 1202q-54 -18 -107.5 -27.5t-105.5 -9.5q-29 0 -56.5 1.5t-54.5 5.5l25 116q158 8 250 65t157 187h129z" />
<glyph unicode="2" horiz-adv-x="1020" d="M807 0h-839q4 201 121 371.5t347 310.5l142 86q119 72 179 163t60 202q0 127 -57.5 195.5t-163.5 68.5q-113 0 -176.5 -83t-85.5 -259h-166q20 231 132.5 359t299.5 128q181 0 285 -106t104 -289q0 -171 -72 -288t-243 -220l-158 -94q-159 -95 -251.5 -197.5 t-104.5 -195.5h680z" />
<glyph unicode="3" horiz-adv-x="1020" d="M39 477h160q-1 -19 -1.5 -36t-0.5 -33q0 -154 53 -223.5t168 -69.5q127 0 207 104.5t80 269.5q0 121 -78 183.5t-228 62.5h-6l27 131h29q182 0 272 80.5t90 243.5q0 101 -48.5 153t-144.5 52q-92 0 -153 -64.5t-84 -185.5h-156q22 186 127.5 291.5t268.5 105.5 q167 0 263.5 -96.5t96.5 -263.5q0 -152 -81 -261t-214 -137q97 -55 142.5 -132t45.5 -183q0 -217 -127 -359.5t-325 -142.5q-183 0 -289 107.5t-106 292.5q0 26 3 53.5t9 56.5z" />
<glyph unicode="4" horiz-adv-x="1020" d="M602 545l158 751l-580 -751h422zM651 0h-159l75 401h-565l33 160l766 979h160l-199 -995h153l-30 -144h-154z" />
<glyph unicode="5" horiz-adv-x="1020" d="M274 743h-141l227 775h633l-32 -148h-494l-125 -432q45 33 97.5 49.5t111.5 16.5q157 0 247.5 -110t90.5 -302q0 -278 -135 -455.5t-346 -177.5q-173 0 -274 99.5t-101 269.5q0 19 2.5 41.5t8.5 52.5h159q-1 -11 -2 -29q-2 -35 -2 -47q0 -108 54.5 -170.5t147.5 -62.5 q139 0 229.5 138.5t90.5 346.5q0 126 -59 200t-156 74q-69 0 -135 -36.5t-97 -92.5z" />
<glyph unicode="6" horiz-adv-x="1020" d="M520 852q-123 0 -201.5 -129.5t-78.5 -335.5q0 -133 50.5 -201.5t147.5 -68.5q70 0 119 31.5t88 101.5q36 65 58 151t22 160q0 151 -49.5 221t-155.5 70zM295 844q58 72 124 106.5t144 34.5q154 0 246 -111.5t92 -300.5q0 -263 -132.5 -436.5t-334.5 -173.5 q-178 0 -270 120t-92 353q0 197 49.5 420t126.5 379q77 158 177.5 231.5t238.5 73.5q148 0 235.5 -92t87.5 -248v-16v-3q-2 -16 -2 -28h-153q-4 127 -47.5 187.5t-131.5 60.5q-125 0 -213.5 -138t-144.5 -419z" />
<glyph unicode="7" horiz-adv-x="1020" d="M377 0h-174q51 362 223.5 712t447.5 650h-630l28 156h781l-23 -142q-264 -305 -432 -659.5t-221 -716.5z" />
<glyph unicode="8" horiz-adv-x="1020" d="M475 756q-110 0 -186 -111t-76 -276q0 -121 60 -188.5t167 -67.5q116 0 194.5 115.5t78.5 285.5q0 115 -62.5 178.5t-175.5 63.5zM618 1401q-99 0 -163 -83.5t-64 -211.5q0 -102 51.5 -159.5t141.5 -57.5q100 0 163.5 86t63.5 223q0 95 -51.5 149t-141.5 54zM365 854 q-73 55 -104.5 118t-31.5 156q0 185 108.5 299.5t283.5 114.5q165 0 261.5 -96t96.5 -262q0 -154 -67.5 -251t-200.5 -132q87 -38 132.5 -122t45.5 -208q0 -220 -127.5 -363t-325.5 -143q-188 0 -291.5 109t-103.5 307q0 185 90.5 317t233.5 156z" />
<glyph unicode="9" horiz-adv-x="1020" d="M514 655q123 0 202 129t79 334q0 133 -51 202t-148 69q-71 0 -119.5 -31t-87.5 -101q-36 -65 -58 -151t-22 -160q0 -150 49.5 -220.5t155.5 -70.5zM739 664q-59 -73 -124.5 -108.5t-143.5 -35.5q-153 0 -245.5 111.5t-92.5 300.5q0 264 133 437t334 173q178 0 270.5 -120 t92.5 -353q0 -197 -49.5 -418.5t-127.5 -378.5q-77 -158 -178 -232.5t-237 -74.5q-148 0 -236 93t-88 249v17v2q2 14 2 26h154q3 -125 46.5 -185.5t131.5 -60.5q125 0 214 138t144 420z" />
<glyph unicode=":" horiz-adv-x="512" d="M379 922h-191l43 202h193zM205 0h-191l43 205h193z" />
<glyph unicode=";" horiz-adv-x="512" d="M377 922h-191l43 202h193zM57 203h191l-53 -252q-21 -101 -84.5 -165t-157.5 -79l14 86q64 23 97 72t42 135h-92z" />
<glyph unicode="&#x3c;" horiz-adv-x="1706" d="M1442 1006l-969 -396l969 -393v-154l-1178 484v129l1178 483v-153z" />
<glyph unicode="=" horiz-adv-x="1706" d="M1452 481v-139h-1198v139h1198zM1452 879v-140h-1198v140h1198z" />
<glyph unicode="&#x3e;" horiz-adv-x="1706" d="M1442 676v-129l-1178 -484v154l971 393l-971 396v153z" />
<glyph unicode="?" horiz-adv-x="1020" d="M410 0h-191l39 201h191zM457 391h-156q12 170 65 274t197 214l111 84q54 41 87.5 112.5t33.5 151.5q0 92 -54.5 147.5t-144.5 55.5q-102 0 -163.5 -74t-66.5 -203h-167q7 189 117.5 305.5t281.5 116.5q174 0 275.5 -97.5t101.5 -263.5q0 -125 -61 -229.5t-183 -185.5 l-72 -49q-99 -67 -144 -146.5t-58 -212.5z" />
<glyph unicode="@" horiz-adv-x="2048" d="M1284 854l57 115h132l-146 -576q-4 -16 -6 -31t-2 -28q0 -46 25.5 -70t74.5 -24q48 0 102.5 26.5t106.5 75.5q80 76 125 186.5t45 233.5q0 259 -190.5 420t-499.5 161q-133 0 -246 -28t-211 -86q-191 -114 -296 -299.5t-105 -409.5q0 -177 61.5 -308t192.5 -230 q100 -77 236.5 -118.5t287.5 -41.5q169 0 328.5 49t292.5 141l55 -82q-148 -111 -314.5 -167t-349.5 -56q-190 0 -348 47t-280 140q-154 118 -230 274t-76 354q0 165 52 313t151 269q146 178 351.5 270t455.5 92q163 0 310 -45t253 -127q130 -100 197.5 -231t67.5 -283 q0 -175 -63.5 -315t-184.5 -236q-68 -54 -149.5 -83t-166.5 -29q-99 0 -149.5 39.5t-50.5 117.5v19q-55 -89 -129 -131.5t-172 -42.5q-153 0 -233.5 85t-80.5 247q0 235 138 394t339 159q85 0 145.5 -37.5t96.5 -112.5zM1190 475l59 236q-17 88 -68.5 136t-129.5 48 q-138 0 -232 -130t-94 -319q0 -105 48.5 -162t137.5 -57q97 0 174.5 69t104.5 179z" />
<glyph unicode="A" horiz-adv-x="1053" d="M324 590h397l-23 831zM53 0h-184l739 1540h211l88 -1540h-166l-16 434h-473z" />
<glyph unicode="B" horiz-adv-x="1143" d="M186 147h234q183 0 267.5 85.5t84.5 269.5q0 128 -73 180.5t-287 52.5h-103zM340 883h90q260 0 353.5 68t93.5 233q0 115 -57 164t-193 49h-181zM-20 0l319 1540h342q215 0 316.5 -85t101.5 -265q0 -161 -82 -265t-229 -130q102 -38 155 -120.5t53 -201.5 q0 -228 -143.5 -350.5t-413.5 -122.5h-419z" />
<glyph unicode="C" horiz-adv-x="1182" d="M850 508h158q-43 -257 -181 -401t-342 -144q-202 0 -306.5 124t-104.5 366q0 189 52 417.5t132 395.5q77 158 191 235.5t270 77.5q187 0 288 -103.5t101 -295.5q0 -28 -2.5 -64t-7.5 -83h-164q3 35 4.5 65.5t1.5 56.5q0 140 -60 212.5t-175 72.5q-107 0 -185 -71 t-129 -214q-23 -63 -45.5 -149.5t-42.5 -186.5q-24 -116 -36.5 -221t-12.5 -180q0 -155 61.5 -234.5t182.5 -79.5q127 0 220.5 107t131.5 297z" />
<glyph unicode="D" horiz-adv-x="1210" d="M184 154h197q190 0 269.5 43.5t142.5 154.5q64 119 102.5 300.5t38.5 379.5q0 194 -78 274t-268 80h-146zM-23 0l322 1540h330q253 0 372 -126t119 -392q0 -229 -60 -451.5t-153 -351.5q-87 -120 -199.5 -169.5t-351.5 -49.5h-379z" />
<glyph unicode="E" horiz-adv-x="979" d="M-23 0l322 1540h674l-33 -151h-496l-106 -508h534l-32 -152h-533l-121 -573h586l-31 -156h-764z" />
<glyph unicode="F" horiz-adv-x="909" d="M973 1540l-31 -156h-498l-106 -503h489l-30 -152h-490l-151 -729h-176l319 1540h674z" />
<glyph unicode="G" horiz-adv-x="1204" d="M895 621h-332l29 145h504l-154 -766h-127l19 160q-47 -95 -131 -145t-199 -50q-201 0 -315.5 130t-114.5 360q0 82 14 187.5t41 229.5q28 125 60 221.5t69 170.5q80 159 195.5 237t269.5 78q188 0 289.5 -104t101.5 -295q0 -29 -2.5 -64.5t-7.5 -82.5l-166 -1q1 15 3 41 q5 63 5 84q0 136 -62 207.5t-179 71.5q-106 0 -181 -68.5t-129 -212.5q-65 -180 -102 -376t-37 -361q0 -154 68.5 -238t193.5 -84q155 0 256.5 140t120.5 385z" />
<glyph unicode="H" horiz-adv-x="1190" d="M156 0h-176l319 1540h176l-131 -637h557l131 637h178l-321 -1540h-176l155 743h-557z" />
<glyph unicode="I" horiz-adv-x="461" d="M160 0h-183l322 1540h180z" />
<glyph unicode="J" horiz-adv-x="877" d="M641 322q-42 -201 -127 -279t-246 -78q-154 0 -232.5 78.5t-78.5 232.5q0 38 6 87t19 108h161q-10 -63 -15 -113t-5 -84q0 -81 36 -120t111 -39q84 0 129.5 52.5t83.5 238.5l236 1134h176z" />
<glyph unicode="K" horiz-adv-x="1042" d="M328 840l647 700h227l-596 -622l307 -918h-182l-260 772l-203 -207l-114 -565h-177l320 1540h176z" />
<glyph unicode="L" horiz-adv-x="885" d="M-20 0l319 1540h176l-289 -1384h598l-28 -156h-776z" />
<glyph unicode="M" horiz-adv-x="1513" d="M152 0h-175l324 1540h268l72 -1309l612 1309h277l-313 -1540h-173l322 1454l-690 -1454h-160l-82 1452z" />
<glyph unicode="N" horiz-adv-x="1190" d="M154 0h-177l322 1540h229l246 -1341l260 1341h176l-321 -1540h-234l-241 1356z" />
<glyph unicode="O" horiz-adv-x="1223" d="M715 1430q-109 0 -187 -65.5t-131 -201.5q-24 -64 -47.5 -148t-44.5 -181q-29 -141 -42 -243t-13 -185q0 -140 70.5 -216.5t197.5 -76.5q105 0 180.5 62.5t126.5 191.5q24 58 48 144.5t47 195.5q29 143 45 261t16 185q0 130 -70.5 203.5t-195.5 73.5zM74 440 q0 86 14.5 195t42.5 235q28 122 60 220t69 174q79 157 193 235t266 78q211 0 321.5 -122t110.5 -355q0 -86 -14.5 -193t-42.5 -233q-27 -117 -59.5 -217t-67.5 -176q-77 -159 -192.5 -237.5t-270.5 -78.5q-211 0 -320.5 121.5t-109.5 353.5z" />
<glyph unicode="P" horiz-adv-x="1085" d="M326 809h157q249 0 336.5 77.5t87.5 270.5q0 131 -59.5 185.5t-210.5 54.5h-193zM156 0h-176l319 1540h348q229 0 330.5 -93t101.5 -296q0 -249 -138.5 -368t-428.5 -119h-217z" />
<glyph unicode="Q" horiz-adv-x="1223" d="M623 389l147 -139q32 40 58.5 106t54.5 176q47 191 73.5 358t26.5 263q0 131 -71 204t-199 73q-109 0 -187 -65.5t-131 -201.5q-23 -60 -45.5 -143.5t-44.5 -185.5q-28 -132 -41.5 -233t-13.5 -181q0 -150 66.5 -230.5t189.5 -80.5q59 0 97.5 10t62.5 33l-140 137z M780 45q-51 -42 -125.5 -64t-165.5 -22q-196 0 -306.5 125.5t-110.5 349.5q0 85 14.5 194t44.5 240q29 132 59.5 228t65.5 168q78 156 193.5 234.5t269.5 78.5q211 0 321.5 -121.5t110.5 -355.5q0 -143 -33.5 -327t-91.5 -355q-30 -89 -65 -157t-78 -120l133 -125l-103 -100 z" />
<glyph unicode="R" horiz-adv-x="1137" d="M332 844h162q269 0 361.5 72.5t92.5 254.5q0 123 -63 174.5t-226 51.5h-213zM-20 0l321 1540h365q239 0 345.5 -89t106.5 -286q0 -175 -86 -281t-244 -124q83 -16 132 -81.5t49 -160.5q0 -27 -4 -62t-15 -96l-39 -210q0 -4 -2 -14q-4 -22 -4 -34q0 -24 8.5 -44t28.5 -42 v-16h-199q-8 23 -12 46.5t-4 51.5q0 15 3 38t9 59l41 208q6 31 9.5 60.5t3.5 52.5q0 101 -59 141.5t-222 40.5h-211l-145 -698h-176z" />
<glyph unicode="S" horiz-adv-x="1106" d="M35 471h164v-25q0 -172 64 -251.5t202 -79.5q150 0 235.5 88t85.5 239q0 175 -263 280q-44 18 -68 28q-143 57 -204 139t-61 213q0 213 127.5 343t335.5 130q186 0 296 -101.5t110 -275.5q0 -19 -0.5 -28.5t-2.5 -18.5h-163v20q0 121 -62.5 186.5t-177.5 65.5 q-131 0 -209.5 -81.5t-78.5 -213.5q0 -154 261 -263q19 -9 29 -13q192 -82 251 -164.5t59 -224.5q0 -224 -140 -362t-368 -138q-201 0 -313.5 115.5t-112.5 320.5q0 24 3 66q1 4 1 6z" />
<glyph unicode="T" horiz-adv-x="834" d="M342 0h-176l289 1395h-373l29 145h870l-31 -145h-319z" />
<glyph unicode="U" horiz-adv-x="1188" d="M262 496q-1 -5 -2 -13q-20 -99 -20 -155q0 -109 69 -163t207 -54q118 0 180.5 63t96.5 223l243 1143h178l-235 -1118q-51 -247 -163 -353t-314 -106q-210 0 -321 92t-111 264q0 40 8.5 110t23.5 144l199 967h178z" />
<glyph unicode="V" horiz-adv-x="1059" d="M434 0h-209l-92 1540h166l66 -1345l616 1345h190z" />
<glyph unicode="W" horiz-adv-x="1630" d="M422 0h-199l-86 1540h170l45 -1329l475 1329h209l43 -1329l475 1329h177l-580 -1540h-207l-47 1305z" />
<glyph unicode="X" horiz-adv-x="1004" d="M68 0h-199l530 807l-288 733h184l215 -567l369 567h194l-491 -749l311 -791h-188l-234 614z" />
<glyph unicode="Y" horiz-adv-x="938" d="M250 0l127 621l-334 919h188l250 -739l418 739h199l-539 -899l-135 -641h-174z" />
<glyph unicode="Z" horiz-adv-x="918" d="M780 0h-848l29 154l801 1241h-621l35 145h807l-27 -145l-794 -1241h655z" />
<glyph unicode="[" horiz-adv-x="653" d="M319 -387h-333l409 1927h320l-17 -110h-166l-360 -1706h176z" />
<glyph unicode="\" horiz-adv-x="569" d="M268 -190l-104 1767h110l103 -1767h-109z" />
<glyph unicode="]" horiz-adv-x="653" d="M260 1540h334l-410 -1927h-319l16 113h166l361 1706h-177z" />
<glyph unicode="^" horiz-adv-x="2048" d="M1116 1458l510 -557h-180l-422 420l-424 -420h-180l510 557h186z" />
<glyph unicode="_" d="M1024 -340v-143h-1024v143h1024z" />
<glyph unicode="`" d="M766 1272h-98l-299 260h194z" />
<glyph unicode="a" horiz-adv-x="909" d="M578 586q-29 -14 -60 -25t-74 -20l-92 -21q-113 -24 -164 -86t-51 -172q0 -74 39 -117t107 -43q107 0 168 79t106 298zM522 141q-60 -94 -122.5 -133t-149.5 -39q-129 0 -201 79.5t-72 223.5q0 156 76 243.5t250 127.5l191 45q79 19 111 74.5t32 165.5q0 53 -43.5 86 t-118.5 33q-92 0 -137.5 -47.5t-51.5 -149.5h-150q9 158 99 243t248 85q155 0 234.5 -65t79.5 -191q0 -28 -5 -62t-18 -92l-104 -522q-6 -30 -8.5 -48.5t-2.5 -29.5q0 -33 21.5 -46t79.5 -13l-19 -109q-19 -10 -38.5 -14t-45.5 -4q-70 0 -104.5 29.5t-34.5 90.5q0 8 3 29 q1 7 1 10z" />
<glyph unicode="b" horiz-adv-x="997" d="M549 1042q-64 0 -119.5 -47t-97.5 -137q-48 -101 -81.5 -252t-33.5 -262q0 -108 42.5 -167.5t119.5 -59.5q83 0 144 56.5t106 174.5q39 102 63.5 233t24.5 234q0 108 -44.5 167.5t-123.5 59.5zM117 0h-154l328 1536h166l-103 -489q51 61 114 94t132 33q135 0 210 -101 t75 -285q0 -150 -42 -319.5t-106 -280.5q-61 -106 -143 -160.5t-182 -54.5q-98 0 -165.5 52.5t-90.5 146.5z" />
<glyph unicode="c" horiz-adv-x="938" d="M780 393q-13 -202 -118.5 -316t-278.5 -114q-171 0 -257.5 98t-86.5 291q0 139 32.5 294t86.5 274q60 136 149 200t217 64q163 0 246.5 -93t83.5 -276q0 -20 -0.5 -30.5t-1.5 -20.5h-156v67q0 102 -45 154.5t-133 52.5q-77 0 -129 -44.5t-88 -141.5 q-43 -117 -69.5 -257.5t-26.5 -242.5q0 -121 48.5 -181t145.5 -60q101 0 157 69t73 213h151z" />
<glyph unicode="d" horiz-adv-x="991" d="M367 111q81 0 141.5 56t103.5 173q37 99 60.5 229t23.5 232q0 114 -47 174.5t-135 60.5q-70 0 -125.5 -50t-95.5 -150t-67 -238.5t-27 -241.5q0 -118 43.5 -181.5t124.5 -63.5zM578 115q-47 -67 -115 -104.5t-144 -37.5q-136 0 -211 104t-75 294q0 156 39.5 321 t101.5 273q60 101 146 155t188 54q87 0 150 -48t98 -141l116 551h158l-325 -1536h-154z" />
<glyph unicode="e" horiz-adv-x="938" d="M252 696h414q6 45 9 82t3 66q0 100 -43 151.5t-127 51.5q-95 0 -157 -84t-99 -267zM760 377q-30 -195 -134.5 -305.5t-256.5 -110.5q-161 0 -247.5 103.5t-86.5 295.5q0 136 34 297t85 269q58 126 148.5 191t211.5 65q160 0 238.5 -89.5t78.5 -271.5q0 -54 -8 -120.5 t-24 -141.5h-574q-13 -70 -18.5 -118t-5.5 -87q0 -121 44.5 -181t133.5 -60t147 66t84 198h150z" />
<glyph unicode="f" horiz-adv-x="522" d="M-10 0l219 1024h-135l26 123h136l47 199q29 119 76 162.5t135 43.5q24 0 59 -4t86 -12l-29 -131q-6 0 -18 1q-37 3 -49 3q-52 0 -76.5 -26t-40.5 -99l-29 -137h158l-25 -123h-159l-221 -1024h-160z" />
<glyph unicode="g" horiz-adv-x="1006" d="M803 1147h153l-235 -1110q-55 -259 -147.5 -351t-276.5 -92q-156 0 -238 74.5t-82 216.5v21h158v-17q0 -79 43.5 -121t126.5 -42q112 0 171.5 83t92.5 295q-51 -62 -114 -94.5t-133 -32.5q-134 0 -208.5 102t-74.5 286q0 154 42 322t105 278q63 107 144.5 161t181.5 54 q97 0 165 -53.5t91 -147.5zM375 109q63 0 118.5 47.5t98.5 138.5q47 101 81 251t34 261q0 108 -43.5 167.5t-120.5 59.5q-82 0 -141.5 -55.5t-106.5 -175.5q-40 -104 -64 -233t-24 -236q0 -106 45 -165.5t123 -59.5z" />
<glyph unicode="h" horiz-adv-x="969" d="M127 0h-164l328 1536h162l-107 -506q67 70 143.5 105.5t157.5 35.5q114 0 176 -53.5t62 -152.5q0 -32 -3.5 -63.5t-11.5 -64.5l-180 -837h-162l177 830q9 45 12.5 68.5t3.5 33.5q0 52 -35.5 83.5t-95.5 31.5q-79 0 -153.5 -50.5t-129.5 -140.5z" />
<glyph unicode="i" horiz-adv-x="418" d="M254 1352l41 198h166l-43 -198h-164zM131 0h-166l244 1147h166z" />
<glyph unicode="j" horiz-adv-x="422" d="M262 1352l43 198h164l-41 -198h-166zM115 -111q-38 -175 -88.5 -235t-141.5 -60q-26 1 -51 2.5t-49 4.5l27 131h34q71 0 96 115l1 3l276 1297h164z" />
<glyph unicode="k" horiz-adv-x="854" d="M-33 0l320 1536h166l-197 -903l473 514h201l-430 -440l221 -707h-170l-174 588l-164 -168l-86 -420h-160z" />
<glyph unicode="l" horiz-adv-x="418" d="M-33 0l326 1536h164l-326 -1536h-164z" />
<glyph unicode="m" horiz-adv-x="1532" d="M123 0h-162l244 1147h153l-28 -131q71 77 150.5 116t164.5 39q103 0 161.5 -41.5t72.5 -125.5q86 88 165 127.5t166 39.5q114 0 175 -53.5t61 -152.5q0 -32 -3.5 -63.5t-10.5 -63.5l-179 -838h-161l176 830q7 34 10.5 61t3.5 41q0 52 -35 83.5t-94 31.5 q-79 0 -153.5 -50.5t-129.5 -140.5l-182 -856h-162l176 829q7 34 11 61.5t4 41.5q0 52 -35 83.5t-94 31.5q-82 0 -158.5 -54.5t-124.5 -136.5z" />
<glyph unicode="n" horiz-adv-x="967" d="M123 0h-162l244 1147h153l-28 -131q71 77 150.5 116t164.5 39q114 0 176 -53.5t62 -152.5q0 -29 -4 -59.5t-13 -67.5l-178 -838h-162l176 829q7 34 11 61.5t4 41.5q0 52 -35 83.5t-94 31.5q-82 0 -158.5 -54.5t-124.5 -136.5z" />
<glyph unicode="o" horiz-adv-x="997" d="M520 1038q-72 0 -125 -45t-92 -141q-47 -117 -76.5 -257t-29.5 -245q0 -118 49.5 -178.5t146.5 -60.5q87 0 143.5 51.5t94.5 165.5q42 130 67 262.5t25 218.5q0 111 -52.5 170t-150.5 59zM31 354q0 138 34 293.5t91 274.5q62 131 152 196.5t210 65.5q181 0 276 -99.5 t95 -287.5q0 -145 -38.5 -314.5t-94.5 -279.5q-61 -121 -153.5 -180.5t-217.5 -59.5q-177 0 -265.5 97.5t-88.5 293.5z" />
<glyph unicode="p" horiz-adv-x="997" d="M549 1040q-83 0 -143 -57t-101 -174q-39 -116 -63.5 -248t-24.5 -215q0 -110 47.5 -169.5t134.5 -59.5q72 0 126.5 49t95.5 149q40 103 67 242.5t27 253.5q0 109 -43.5 169t-122.5 60zM338 1036q47 68 115 106t143 38q137 0 212 -105.5t75 -300.5q0 -349 -133.5 -573 t-341.5 -224q-88 0 -152.5 48.5t-93.5 136.5l-117 -551h-162l328 1536h154z" />
<glyph unicode="q" horiz-adv-x="997" d="M803 1147h153l-325 -1536h-166l104 493q-51 -61 -115 -94t-135 -33q-134 0 -206 98.5t-72 282.5q0 161 40.5 328t104.5 279q62 106 144.5 160.5t181.5 54.5q97 0 165 -53.5t91 -147.5zM371 109q63 0 118.5 47.5t98.5 138.5q47 101 80.5 251t33.5 261q0 108 -43 167.5 t-120 59.5q-82 0 -141.5 -55.5t-106.5 -175.5q-40 -104 -64 -233t-24 -236q0 -106 45 -165.5t123 -59.5z" />
<glyph unicode="r" horiz-adv-x="616" d="M-35 0l244 1147h149l-41 -184q55 99 136 153.5t172 54.5q15 0 30.5 -2t30.5 -6l-31 -165q-18 5 -32 7.5t-27 2.5q-122 0 -206.5 -90t-121.5 -261l-139 -657h-164z" />
<glyph unicode="s" horiz-adv-x="901" d="M-4 340h156q0 -6 -1 -18.5t-1 -18.5q0 -99 48.5 -148t147.5 -49q95 0 152 58.5t57 154.5q0 75 -30.5 117t-121.5 80q-179 79 -230.5 145t-51.5 175q0 161 93 254.5t253 93.5q150 0 240 -75t90 -198q0 -16 -4 -55v-6h-146v6q0 94 -46 142.5t-136 48.5q-84 0 -133 -52 t-49 -139q0 -106 178 -186q43 -20 67 -31q105 -49 150 -117t45 -174q0 -179 -105.5 -284t-281.5 -105q-160 0 -252 82.5t-92 224.5q0 5 1.5 30t2.5 44z" />
<glyph unicode="t" horiz-adv-x="530" d="M205 254q-4 -20 -6 -37t-2 -24q0 -40 18.5 -59t58.5 -19q21 0 66 6q21 3 30 4l-30 -143q-23 -7 -47.5 -10t-54.5 -3q-104 0 -157.5 44.5t-53.5 129.5q0 34 15 107q5 22 7 32l160 742h-135l26 123h136l65 305h162l-66 -305h174l-26 -123h-174z" />
<glyph unicode="u" horiz-adv-x="967" d="M186 315q-7 -35 -10.5 -61t-3.5 -39q0 -52 35 -83.5t94 -31.5q79 0 154 49.5t129 139.5l182 858h162l-244 -1147h-154l29 129q-72 -78 -150 -117t-163 -39q-114 0 -176 54t-62 153q0 32 3.5 63.5t11.5 64.5l178 839h161z" />
<glyph unicode="v" horiz-adv-x="829" d="M332 0h-170l-78 1147h160l41 -957l411 957h181z" />
<glyph unicode="w" horiz-adv-x="1296" d="M301 0h-172l-39 1147h156l8 -940l367 940h170v-940l380 940h172l-512 -1147h-167l6 938z" />
<glyph unicode="x" horiz-adv-x="803" d="M336 449l-293 -449h-186l407 606l-170 541h168l123 -402l272 402h189l-395 -561l194 -586h-166z" />
<glyph unicode="y" horiz-adv-x="834" d="M328 -49q-99 -213 -175.5 -286t-185.5 -73q-25 0 -52 5t-58 16l34 124q16 -5 30.5 -7t35.5 -2q44 0 76 22t57 70l80 155l-84 1172h162l55 -926l397 926h181z" />
<glyph unicode="z" horiz-adv-x="795" d="M582 0h-697l29 141l680 867h-467l37 139h657l-28 -131l-678 -869h497z" />
<glyph unicode="{" d="M866 1327h-41q-120 0 -161 -44.5t-41 -184.5v-242q0 -160 -44.5 -228t-156.5 -98q113 -28 157 -96t44 -229v-242q0 -141 41.5 -185t162.5 -44h39v-148h-43q-108 0 -169 11.5t-103 37.5q-55 34 -77.5 97t-22.5 211v245q0 149 -54.5 210t-185.5 61q-7 0 -21.5 -1t-21.5 -1 v149q8 0 23 -1t22 -1q130 0 184 60.5t54 207.5v246q0 148 22.5 210.5t77.5 96.5q45 28 108.5 40t169.5 12h37v-150z" />
<glyph unicode="|" d="M588 1565v-2048h-150v2048h150z" />
<glyph unicode="}" d="M575 1118v-246q0 -147 54 -207.5t184 -60.5q7 0 22 1t23 1v-149q-7 0 -22 1t-21 1q-132 0 -186 -60.5t-54 -210.5v-245q0 -148 -22.5 -211t-77.5 -97q-42 -26 -103 -37.5t-169 -11.5h-43v148h39q120 0 162 45t42 186v240q0 160 44.5 228t156.5 97q-112 30 -156.5 98 t-44.5 228v242q0 140 -42 184.5t-162 44.5h-39v150h37q107 0 171 -12.5t107 -39.5q55 -34 77.5 -96.5t22.5 -210.5z" />
<glyph unicode="~" horiz-adv-x="1706" d="M1530 614q-104 -72 -199 -106.5t-190 -34.5q-93 0 -256 58q-22 8 -34 12l-15 5q-176 60 -273 60q-84 0 -175 -37t-210 -120v155q106 72 202 108t185 36q62 0 127.5 -13.5t163.5 -48.5q16 -5 47 -17q159 -57 240 -57q88 0 179.5 37t207.5 119v-156z" />
<glyph unicode="&#xa1;" horiz-adv-x="530" d="M406 1155l-107 -709l-100 -446h-191l105 467l204 688h89zM496 1341h-193l41 199h188z" />
<glyph unicode="&#xa2;" horiz-adv-x="1020" d="M825 426q-13 -209 -118.5 -320.5t-288.5 -111.5l-56 -264h-114l57 278q-113 32 -168 124.5t-55 252.5q0 183 50.5 375t121.5 297q57 83 132 122.5t177 41.5l45 209h115l-45 -222q107 -28 164 -119t57 -235q0 -22 -0.5 -34t-1.5 -21h-154q0 7 1 20t1 19q0 118 -46 177.5 t-138 59.5q-78 0 -130.5 -45.5t-88.5 -142.5q-42 -116 -68 -256t-26 -246q0 -122 48 -182t146 -60q102 0 158.5 68.5t73.5 214.5h151z" />
<glyph unicode="&#xa3;" horiz-adv-x="1020" d="M102 -35l-41 170q96 57 154.5 186t58.5 281q0 18 -1 35t-5 41h-166l23 102h131q-17 99 -25 168.5t-8 120.5q0 215 110.5 343t293.5 128q166 0 264 -93.5t98 -252.5q0 -29 -4 -66t-12 -86l-164 1q7 57 9.5 89t2.5 58q0 102 -53.5 157.5t-151.5 55.5q-111 0 -167 -85 t-56 -253q0 -47 7 -113t24 -172h326l-25 -102h-296q0 -7 0.5 -15t0.5 -22q0 -157 -65 -293t-177 -213l2 -12q60 30 109.5 43.5t101.5 13.5q76 0 179 -29.5t135 -29.5q42 0 81.5 20.5t88.5 69.5l6 -6l-66 -213q-29 -16 -58 -23.5t-65 -7.5q-69 0 -194.5 43t-200.5 43 q-61 0 -111 -20t-94 -62z" />
<glyph unicode="&#xa4;" horiz-adv-x="1020" d="M815 872h-436q-5 -19 -10 -41.5t-9 -42.5q-4 -21 -8.5 -46.5t-7.5 -44.5l399 -1l-38 -94h-375q-10 -75 -14 -172q0 -8 -1 -12v-25q0 -140 50.5 -210t150.5 -70q97 0 162 82.5t96 244.5h154q-45 -229 -155.5 -352t-270.5 -123q-173 0 -265 118t-92 341v29l1 3q4 94 10 146 h-140l39 94h113q6 37 15.5 88t17.5 88h-135l36 95h121q78 307 199 440t301 133q154 0 237.5 -96t83.5 -264v-39.5t-2 -24.5h-159q0 7 1 21.5t1 21.5q0 120 -44 177t-136 57q-190 0 -303 -417l-2 -9h454z" />
<glyph unicode="&#xa5;" horiz-adv-x="1020" d="M295 0l127 641h-402l23 98h348l-63 170h-250l22 101h189l-199 512h186l254 -731l406 731h197l-312 -512h213l-20 -101h-258l-99 -170h320l-21 -98h-358l-135 -641h-168z" />
<glyph unicode="&#xa6;" d="M588 408v-758h-150v758h150zM588 1432v-758h-150v758h150z" />
<glyph unicode="&#xa7;" d="M539 307q102 36 150 92.5t48 141.5q0 71 -50.5 148.5t-242.5 262.5q-102 -36 -150 -92t-48 -141q0 -72 50.5 -149t242.5 -263zM616 217q37 -51 55.5 -104.5t18.5 -110.5q0 -138 -96.5 -227.5t-247.5 -89.5q-138 0 -225.5 89.5t-87.5 231.5q0 16 0.5 24.5t1.5 14.5h162 q0 -5 -1 -16t-1 -17q0 -88 40.5 -134t118.5 -46q76 0 122 44t46 116q0 52 -33.5 105.5t-150.5 170.5q-170 170 -216 252.5t-46 169.5q0 123 73 211.5t218 140.5q-37 51 -55.5 105t-18.5 110q0 138 96.5 229t247.5 91q138 0 224.5 -89.5t86.5 -234.5q0 -15 -0.5 -23t-1.5 -15 l-162 -1q0 5 1 16.5t1 16.5q0 89 -40.5 134.5t-118.5 45.5q-76 0 -122 -44t-46 -115q0 -51 33 -104t153 -173q167 -167 213.5 -250t46.5 -172q0 -123 -72.5 -211.5t-216.5 -140.5z" />
<glyph unicode="&#xa8;" d="M705 1296l38 187h164l-39 -187h-163zM385 1296l39 187h164l-39 -187h-164z" />
<glyph unicode="&#xa9;" horiz-adv-x="1706" d="M1053 907q-13 77 -66 118.5t-139 41.5q-105 0 -165 -90.5t-60 -249.5q0 -157 62 -244.5t173 -87.5q82 0 136.5 47t68.5 129h145q-9 -130 -107.5 -211t-248.5 -81q-182 0 -285.5 120t-103.5 334q0 200 109 322.5t286 122.5q142 0 236.5 -75t105.5 -196h-147zM1493 727 q0 130 -47.5 246.5t-136.5 206.5q-93 92 -209 140t-246 48q-129 0 -243.5 -47t-204.5 -137q-93 -93 -143 -211.5t-50 -245.5q0 -126 49 -242t141 -209q92 -91 207.5 -139.5t243.5 -48.5q125 0 242 49t213 142q90 88 137 202.5t47 245.5zM852 1464q152 0 285.5 -54.5 t238.5 -160.5q104 -103 159.5 -238.5t55.5 -283.5q0 -149 -54.5 -281.5t-158.5 -234.5q-110 -107 -245.5 -164t-280.5 -57t-278.5 56t-239.5 163q-106 105 -161.5 238.5t-55.5 279.5q0 147 56 281.5t163 242.5q104 104 236 158.5t280 54.5z" />
<glyph unicode="&#xaa;" horiz-adv-x="682" d="M434 1147q-26 -11 -51 -18.5t-50 -12.5l-69 -14q-85 -18 -123.5 -61t-38.5 -119q0 -52 30 -82.5t81 -30.5q80 0 125.5 55t79.5 209zM391 836q-44 -65 -90.5 -92t-112.5 -27q-97 0 -150.5 55t-53.5 156q0 108 56.5 169.5t186.5 90.5l144 31q58 12 82 51.5t24 115.5 q0 38 -32.5 61t-88.5 23q-69 0 -103.5 -33.5t-37.5 -102.5l-113 -1q7 110 74.5 170t185.5 60q116 0 176 -46t60 -135q0 -17 -3 -39t-13 -67l-80 -366q-3 -17 -4.5 -31t-1.5 -25q0 -23 15.5 -32t57.5 -9l-12 -76q-14 -6 -28.5 -9t-34.5 -3q-54 0 -79.5 20.5t-25.5 63.5 q0 4 1 12.5t1 14.5z" />
<glyph unicode="&#xab;" horiz-adv-x="1004" d="M805 393l-35 -149l-278 280l32 160l375 240l-29 -176l-258 -162zM369 393l-35 -149l-277 280l33 160l373 240l-29 -176l-258 -162z" />
<glyph unicode="&#xac;" horiz-adv-x="1706" d="M1452 860v-502h-137v363h-1061v139h1198z" />
<glyph unicode="&#xad;" horiz-adv-x="674" d="M37 504l33 162h512l-43 -162h-502z" />
<glyph unicode="&#xae;" horiz-adv-x="1706" d="M844 1057h-129v-277h133q113 0 162 31.5t49 101.5q0 76 -51 110t-164 34zM872 1159q174 0 261.5 -57.5t87.5 -171.5q0 -89 -50 -148t-141 -77l187 -381h-177l-170 356h-155v-356h-158v835h315zM1493 721q0 134 -46.5 251t-135.5 206q-92 93 -208.5 141.5t-248.5 48.5 q-130 0 -245 -47t-201 -135q-94 -95 -144.5 -214t-50.5 -245q0 -125 48.5 -240.5t139.5 -207.5q90 -92 206.5 -141.5t240.5 -49.5q130 0 246.5 48t212.5 140q90 88 138 202.5t48 242.5zM852 1464q151 0 286 -56t240 -163q103 -104 158 -238t55 -280q0 -151 -55 -283.5 t-160 -234.5q-109 -106 -244.5 -162.5t-279.5 -56.5q-147 0 -280.5 56.5t-239.5 164.5q-105 106 -160 238.5t-55 277.5q0 146 57.5 282.5t165.5 245.5q101 103 231.5 156t280.5 53z" />
<glyph unicode="&#xaf;" d="M385 1327l29 127h493l-26 -127h-496z" />
<glyph unicode="&#xb0;" horiz-adv-x="674" d="M530 1169q0 81 -55.5 137t-136.5 56t-138 -56t-57 -137t57 -138.5t138 -57.5t136.5 57.5t55.5 138.5zM338 1456q118 0 202.5 -84.5t84.5 -204.5q0 -119 -84 -202.5t-205 -83.5t-204 83t-83 203t84.5 204.5t204.5 84.5z" />
<glyph unicode="&#xb1;" horiz-adv-x="1706" d="M1452 170v-141h-1198v141h1198zM924 1192v-340h528v-139h-528v-340h-142v340h-528v139h528v340h142z" />
<glyph unicode="&#xb2;" horiz-adv-x="674" d="M532 602h-554q3 121 80.5 223t230.5 187l92 51q79 42 118.5 97t39.5 122q0 76 -38 117t-108 41q-74 0 -116 -50t-56 -155h-110q13 139 87 216t197 77q120 0 189 -63.5t69 -174.5q0 -102 -48 -172.5t-161 -132.5l-104 -55q-105 -59 -165.5 -120t-70.5 -118h451z" />
<glyph unicode="&#xb3;" horiz-adv-x="674" d="M27 889l104 -1q-1 -12 -1.5 -22t-0.5 -20q0 -91 35.5 -132.5t111.5 -41.5q84 0 136.5 62.5t52.5 160.5q0 72 -51.5 109.5t-149.5 37.5h-4l16 80h21q120 0 179 48.5t59 146.5q0 60 -32.5 91.5t-94.5 31.5q-61 0 -101 -39t-55 -113h-102q13 112 82.5 176t177.5 64 q110 0 173.5 -58.5t63.5 -158.5q0 -91 -53 -156t-141 -82q64 -34 94.5 -80t30.5 -110q0 -130 -84.5 -215.5t-214.5 -85.5q-121 0 -191 64.5t-70 174.5q0 19 2 35t7 33z" />
<glyph unicode="&#xb4;" d="M602 1272h-100l200 260h185z" />
<glyph unicode="&#xb5;" horiz-adv-x="1151" d="M385 1071l-129 -600q-7 -32 -10.5 -64.5t-3.5 -68.5q0 -99 52 -153t148 -54q132 0 208.5 92.5t123.5 311.5l115 536h178l-156 -732q-1 -6 -4 -20q-18 -87 -18 -112q0 -37 16.5 -52.5t55.5 -15.5q12 0 18.5 0.5t13.5 1.5l-31 -143q-24 -5 -50 -7.5t-58 -2.5q-63 0 -97 29 t-52 100q-45 -66 -112.5 -98.5t-158.5 -32.5q-82 0 -143 27.5t-113 88.5l-110 -530h-181l318 1499h180z" />
<glyph unicode="&#xb6;" d="M958 1393h-120v-1393h-111v1393h-176v-1393h-113v782q-170 8 -271 102.5t-101 245.5q0 157 107.5 253t285.5 96h499v-86z" />
<glyph unicode="&#xb7;" horiz-adv-x="510" d="M131 762q0 53 38.5 91t92.5 38q56 0 93.5 -37t37.5 -92t-38.5 -93t-92.5 -38t-92.5 38t-38.5 93z" />
<glyph unicode="&#xb8;" d="M111 -430l36 94q61 -16 106 -24.5t73 -8.5q71 0 103 23.5t32 75.5q0 43 -40 61.5t-138 18.5h-21l66 190h75l-34 -102h22q105 0 159 -42.5t54 -123.5q0 -98 -65 -151.5t-185 -53.5q-42 0 -99.5 10t-143.5 33z" />
<glyph unicode="&#xb9;" horiz-adv-x="672" d="M332 602h-109l158 721q-37 -11 -71.5 -16.5t-67.5 -6.5q-15 0 -31.5 1t-42.5 4l17 69q103 5 164 39.5t104 112.5h86z" />
<glyph unicode="&#xba;" horiz-adv-x="748" d="M391 1464q-54 0 -94 -31.5t-70 -99.5q-35 -81 -57.5 -179t-22.5 -171q0 -83 37.5 -125.5t110.5 -42.5q65 0 107 35.5t71 116.5q32 91 51 183.5t19 154.5q0 77 -39.5 118t-112.5 41zM23 985q0 96 25.5 205t68.5 192q46 93 114 139t158 46q135 0 207 -70.5t72 -202.5 q0 -99 -29 -217.5t-72 -197.5q-46 -85 -115 -126.5t-163 -41.5q-132 0 -199 69t-67 205z" />
<glyph unicode="&#xbb;" horiz-adv-x="1004" d="M571 774l35 152l277 -283l-33 -160l-373 -239l29 178l258 160zM135 774l35 152l279 -283l-33 -160l-375 -239l29 178l258 160z" />
<glyph unicode="&#xbc;" horiz-adv-x="1624" d="M1362 305l100 420l-366 -420h266zM1393 0h-101l49 225h-356l21 88l481 549h100l-125 -557h99l-21 -80h-96zM426 -35h-125l899 1575h125zM317 662h-102l152 673q-33 -10 -66.5 -15t-69.5 -5q-29 0 -43.5 0.5t-25.5 1.5l16 65q99 5 157 37t99 105h82z" />
<glyph unicode="&#xbd;" horiz-adv-x="1624" d="M1491 0h-528q3 113 77 209t217 172l91 49q75 40 112 91t37 114q0 72 -35.5 109.5t-103.5 37.5q-71 0 -110.5 -46t-53.5 -146h-104q11 130 82 202t190 72q113 0 178.5 -59t65.5 -162q0 -97 -45.5 -162.5t-153.5 -122.5l-98 -53q-101 -53 -159.5 -110.5t-66.5 -110.5h428z M426 -35h-125l899 1575h125zM317 662h-102l152 673q-33 -10 -66.5 -15t-69.5 -5q-29 0 -43.5 0.5t-25.5 1.5l16 65q99 5 157 37t99 105h82z" />
<glyph unicode="&#xbe;" horiz-adv-x="1624" d="M1362 305l100 420l-366 -420h266zM1393 0h-101l49 225h-356l21 88l481 549h100l-125 -557h99l-21 -80h-96zM426 -35h-125l899 1575h125zM25 928l100 -1q-1 -9 -1.5 -18.5t-0.5 -19.5q0 -86 34 -125t107 -39q80 0 130 59t50 152q0 68 -48.5 102.5t-143.5 34.5h-4l16 74h19 q115 0 171 44.5t56 135.5q0 57 -30.5 86t-90.5 29q-58 0 -96 -35.5t-53 -103.5h-99q14 104 80.5 163.5t169.5 59.5q106 0 166.5 -54.5t60.5 -148.5q0 -84 -51 -145t-135 -78q61 -31 90 -73.5t29 -102.5q0 -122 -80 -201.5t-205 -79.5q-115 0 -182.5 60.5t-67.5 162.5 q0 18 2 33t7 29z" />
<glyph unicode="&#xbf;" horiz-adv-x="1020" d="M557 1149h156q-12 -170 -65 -274t-197 -213l-111 -84q-54 -42 -87.5 -113.5t-33.5 -151.5q0 -92 54.5 -147t144.5 -55q102 0 164.5 74t67.5 202h165q-8 -189 -118.5 -305.5t-280.5 -116.5q-174 0 -274.5 97.5t-100.5 263.5q0 126 60 229t182 186l71 50q99 66 144 145.5 t59 212.5zM604 1540h191l-39 -199h-191z" />
<glyph unicode="&#xc0;" horiz-adv-x="1053" d="M324 590h397l-23 831zM53 0h-184l739 1540h211l88 -1540h-166l-16 434h-473zM889 1665h-98l-299 260h194z" />
<glyph unicode="&#xc1;" horiz-adv-x="1053" d="M324 590h397l-23 831zM53 0h-184l739 1540h211l88 -1540h-166l-16 434h-473zM725 1665h-100l200 260h185z" />
<glyph unicode="&#xc2;" horiz-adv-x="1053" d="M324 590h397l-23 831zM53 0h-184l739 1540h211l88 -1540h-166l-16 434h-473zM1012 1665h-98l-138 153l-213 -153h-112l245 260h172z" />
<glyph unicode="&#xc3;" horiz-adv-x="1053" d="M324 590h397l-23 831zM53 0h-184l739 1540h211l88 -1540h-166l-16 434h-473zM1053 1902q-31 -95 -78.5 -141.5t-112.5 -46.5q-15 0 -34.5 4t-47.5 12l-51 17q-16 5 -30 7.5t-27 2.5q-33 0 -56.5 -19t-31.5 -52l-94 -1q24 94 72.5 144.5t115.5 50.5q15 0 33.5 -3t40.5 -9 l55 -17q29 -9 41.5 -11.5t22.5 -2.5q29 0 50 15.5t38 49.5h94z" />
<glyph unicode="&#xc4;" horiz-adv-x="1053" d="M324 590h397l-23 831zM53 0h-184l739 1540h211l88 -1540h-166l-16 434h-473zM828 1689l38 187h164l-39 -187h-163zM508 1689l39 187h164l-39 -187h-164z" />
<glyph unicode="&#xc5;" horiz-adv-x="1053" d="M633 1780q0 -39 30 -69t68 -30q40 0 70 30t30 69t-30 68.5t-70 29.5q-39 0 -68.5 -29.5t-29.5 -68.5zM539 1780q0 80 56 136t136 56q81 0 137 -56t56 -136t-56.5 -136.5t-136.5 -56.5t-136 56.5t-56 136.5zM324 590h397l-23 831zM53 0h-184l737 1534h213l88 -1534h-166 l-16 434h-473z" />
<glyph unicode="&#xc6;" horiz-adv-x="1624" d="M82 0h-203l901 1540h836l-29 -145h-500l-106 -514h537l-33 -152h-535l-121 -573h586l-29 -156h-765l102 465h-387zM418 616h330l159 779h-53z" />
<glyph unicode="&#xc7;" horiz-adv-x="1182" d="M850 508h158q-43 -257 -181 -401t-342 -144q-202 0 -306.5 124t-104.5 366q0 189 52 417.5t132 395.5q77 158 191 235.5t270 77.5q187 0 288 -103.5t101 -295.5q0 -28 -2.5 -64t-7.5 -83h-164q3 35 4.5 65.5t1.5 56.5q0 140 -60 212.5t-175 72.5q-107 0 -185 -71 t-129 -214q-23 -63 -45.5 -149.5t-42.5 -186.5q-24 -116 -36.5 -221t-12.5 -180q0 -155 61.5 -234.5t182.5 -79.5q127 0 220.5 107t131.5 297zM217 -430l36 94q61 -16 106 -24.5t73 -8.5q71 0 103 23.5t32 75.5q0 43 -40 61.5t-138 18.5h-21l66 190h75l-34 -102h22 q105 0 159 -42.5t54 -123.5q0 -98 -65 -151.5t-185 -53.5q-42 0 -99.5 10t-143.5 33z" />
<glyph unicode="&#xc8;" horiz-adv-x="979" d="M-23 0l322 1540h674l-33 -151h-496l-106 -508h534l-32 -152h-533l-121 -573h586l-31 -156h-764zM805 1665h-98l-299 260h194z" />
<glyph unicode="&#xc9;" horiz-adv-x="979" d="M-23 0l322 1540h674l-33 -151h-496l-106 -508h534l-32 -152h-533l-121 -573h586l-31 -156h-764zM641 1665h-100l200 260h185z" />
<glyph unicode="&#xca;" horiz-adv-x="979" d="M-23 0l322 1540h674l-33 -151h-496l-106 -508h534l-32 -152h-533l-121 -573h586l-31 -156h-764zM928 1665h-98l-138 153l-213 -153h-112l245 260h172z" />
<glyph unicode="&#xcb;" horiz-adv-x="979" d="M-23 0l322 1540h674l-33 -151h-496l-106 -508h534l-32 -152h-533l-121 -573h586l-31 -156h-764zM744 1689l38 187h164l-39 -187h-163zM424 1689l39 187h164l-39 -187h-164z" />
<glyph unicode="&#xcc;" horiz-adv-x="461" d="M160 0h-183l322 1540h180zM563 1665h-98l-299 260h194z" />
<glyph unicode="&#xcd;" horiz-adv-x="461" d="M160 0h-183l322 1540h180zM399 1665h-100l200 260h185z" />
<glyph unicode="&#xce;" horiz-adv-x="461" d="M160 0h-183l322 1540h180zM686 1665h-98l-138 153l-213 -153h-112l245 260h172z" />
<glyph unicode="&#xcf;" horiz-adv-x="461" d="M160 0h-183l322 1540h180zM502 1689l38 187h164l-39 -187h-163zM182 1689l39 187h164l-39 -187h-164z" />
<glyph unicode="&#xd0;" horiz-adv-x="1229" d="M205 154h194q191 0 270.5 43.5t141.5 154.5q65 119 103 300.5t38 379.5q0 194 -78 274t-268 80h-143l-105 -491h304l-31 -143h-303zM-4 0l158 752h-166l30 143h166l133 645h330q253 0 372.5 -126t119.5 -392q0 -229 -60 -451.5t-153 -351.5q-87 -120 -199.5 -169.5 t-351.5 -49.5h-379z" />
<glyph unicode="&#xd1;" horiz-adv-x="1190" d="M154 0h-177l322 1540h229l246 -1341l260 1341h176l-321 -1540h-234l-241 1356zM1108 1902q-31 -95 -78.5 -141.5t-112.5 -46.5q-15 0 -34.5 4t-47.5 12l-51 17q-16 5 -30 7.5t-27 2.5q-33 0 -56.5 -19t-31.5 -52l-94 -1q24 94 72.5 144.5t115.5 50.5q15 0 33.5 -3 t40.5 -9l55 -17q29 -9 41.5 -11.5t22.5 -2.5q29 0 50 15.5t38 49.5h94z" />
<glyph unicode="&#xd2;" horiz-adv-x="1223" d="M715 1430q-109 0 -187 -65.5t-131 -201.5q-24 -64 -47.5 -148t-44.5 -181q-29 -141 -42 -243t-13 -185q0 -140 70.5 -216.5t197.5 -76.5q105 0 180.5 62.5t126.5 191.5q24 58 48 144.5t47 195.5q29 143 45 261t16 185q0 130 -70.5 203.5t-195.5 73.5zM74 440 q0 86 14.5 195t42.5 235q28 122 60 220t69 174q79 157 193 235t266 78q211 0 321.5 -122t110.5 -355q0 -86 -14.5 -193t-42.5 -233q-27 -117 -59.5 -217t-67.5 -176q-77 -159 -192.5 -237.5t-270.5 -78.5q-211 0 -320.5 121.5t-109.5 353.5zM948 1665h-98l-299 260h194z" />
<glyph unicode="&#xd3;" horiz-adv-x="1223" d="M715 1430q-109 0 -187 -65.5t-131 -201.5q-24 -64 -47.5 -148t-44.5 -181q-29 -141 -42 -243t-13 -185q0 -140 70.5 -216.5t197.5 -76.5q105 0 180.5 62.5t126.5 191.5q24 58 48 144.5t47 195.5q29 143 45 261t16 185q0 130 -70.5 203.5t-195.5 73.5zM74 440 q0 86 14.5 195t42.5 235q28 122 60 220t69 174q79 157 193 235t266 78q211 0 321.5 -122t110.5 -355q0 -86 -14.5 -193t-42.5 -233q-27 -117 -59.5 -217t-67.5 -176q-77 -159 -192.5 -237.5t-270.5 -78.5q-211 0 -320.5 121.5t-109.5 353.5zM784 1665h-100l200 260h185z" />
<glyph unicode="&#xd4;" horiz-adv-x="1223" d="M715 1430q-109 0 -187 -65.5t-131 -201.5q-24 -64 -47.5 -148t-44.5 -181q-29 -141 -42 -243t-13 -185q0 -140 70.5 -216.5t197.5 -76.5q105 0 180.5 62.5t126.5 191.5q24 58 48 144.5t47 195.5q29 143 45 261t16 185q0 130 -70.5 203.5t-195.5 73.5zM74 440 q0 86 14.5 195t42.5 235q28 122 60 220t69 174q79 157 193 235t266 78q211 0 321.5 -122t110.5 -355q0 -86 -14.5 -193t-42.5 -233q-27 -117 -59.5 -217t-67.5 -176q-77 -159 -192.5 -237.5t-270.5 -78.5q-211 0 -320.5 121.5t-109.5 353.5zM1071 1665h-98l-138 153 l-213 -153h-112l245 260h172z" />
<glyph unicode="&#xd5;" horiz-adv-x="1223" d="M715 1430q-109 0 -187 -65.5t-131 -201.5q-24 -64 -47.5 -148t-44.5 -181q-29 -141 -42 -243t-13 -185q0 -140 70.5 -216.5t197.5 -76.5q105 0 180.5 62.5t126.5 191.5q24 58 48 144.5t47 195.5q29 143 45 261t16 185q0 130 -70.5 203.5t-195.5 73.5zM74 440 q0 86 14.5 195t42.5 235q28 122 60 220t69 174q79 157 193 235t266 78q211 0 321.5 -122t110.5 -355q0 -86 -14.5 -193t-42.5 -233q-27 -117 -59.5 -217t-67.5 -176q-77 -159 -192.5 -237.5t-270.5 -78.5q-211 0 -320.5 121.5t-109.5 353.5zM1112 1902q-31 -95 -78.5 -141.5 t-112.5 -46.5q-15 0 -34.5 4t-47.5 12l-51 17q-16 5 -30 7.5t-27 2.5q-33 0 -56.5 -19t-31.5 -52l-94 -1q24 94 72.5 144.5t115.5 50.5q15 0 33.5 -3t40.5 -9l55 -17q29 -9 41.5 -11.5t22.5 -2.5q29 0 50 15.5t38 49.5h94z" />
<glyph unicode="&#xd6;" horiz-adv-x="1223" d="M715 1430q-109 0 -187 -65.5t-131 -201.5q-24 -64 -47.5 -148t-44.5 -181q-29 -141 -42 -243t-13 -185q0 -140 70.5 -216.5t197.5 -76.5q105 0 180.5 62.5t126.5 191.5q24 58 48 144.5t47 195.5q29 143 45 261t16 185q0 130 -70.5 203.5t-195.5 73.5zM74 440 q0 86 14.5 195t42.5 235q28 122 60 220t69 174q79 157 193 235t266 78q211 0 321.5 -122t110.5 -355q0 -86 -14.5 -193t-42.5 -233q-27 -117 -59.5 -217t-67.5 -176q-77 -159 -192.5 -237.5t-270.5 -78.5q-211 0 -320.5 121.5t-109.5 353.5zM887 1689l38 187h164l-39 -187 h-163zM567 1689l39 187h164l-39 -187h-164z" />
<glyph unicode="&#xd7;" horiz-adv-x="1706" d="M860 709l469 469l98 -99l-469 -469l469 -469l-98 -96l-469 467l-469 -467l-98 96l469 469l-469 469l98 99z" />
<glyph unicode="&#xd8;" horiz-adv-x="1221" d="M313 195q38 -42 89 -62t116 -20q116 0 195 75.5t133 237.5q22 67 43.5 156t42.5 200q24 134 36.5 231t12.5 152q0 16 -1.5 35t-4.5 41zM119 -115l-80 54l115 184q-40 49 -60 130.5t-20 195.5q0 88 13.5 193t41.5 228q30 129 61.5 225t67.5 169q78 156 193 234.5t266 78.5 q87 0 162 -23.5t133 -68.5l92 145l86 -49l-111 -174q38 -67 55 -140.5t17 -166.5q0 -83 -15 -190t-44 -236q-29 -125 -61 -224t-66 -169q-77 -159 -192 -237.5t-269 -78.5q-80 0 -151.5 20.5t-131.5 61.5zM262 297l664 1049q-40 41 -93.5 62.5t-117.5 21.5 q-110 0 -188.5 -66t-131.5 -201q-64 -166 -104.5 -376t-40.5 -373q0 -26 3 -55.5t9 -61.5z" />
<glyph unicode="&#xd9;" horiz-adv-x="1188" d="M262 496q-1 -5 -2 -13q-20 -99 -20 -155q0 -109 69 -163t207 -54q118 0 180.5 63t96.5 223l243 1143h178l-235 -1118q-51 -247 -163 -353t-314 -106q-210 0 -321 92t-111 264q0 40 8.5 110t23.5 144l199 967h178zM932 1665h-98l-299 260h194z" />
<glyph unicode="&#xda;" horiz-adv-x="1188" d="M262 496q-1 -5 -2 -13q-20 -99 -20 -155q0 -109 69 -163t207 -54q118 0 180.5 63t96.5 223l243 1143h178l-235 -1118q-51 -247 -163 -353t-314 -106q-210 0 -321 92t-111 264q0 40 8.5 110t23.5 144l199 967h178zM768 1665h-100l200 260h185z" />
<glyph unicode="&#xdb;" horiz-adv-x="1188" d="M262 496q-1 -5 -2 -13q-20 -99 -20 -155q0 -109 69 -163t207 -54q118 0 180.5 63t96.5 223l243 1143h178l-235 -1118q-51 -247 -163 -353t-314 -106q-210 0 -321 92t-111 264q0 40 8.5 110t23.5 144l199 967h178zM1055 1665h-98l-138 153l-213 -153h-112l245 260h172z " />
<glyph unicode="&#xdc;" horiz-adv-x="1188" d="M262 496q-1 -5 -2 -13q-20 -99 -20 -155q0 -109 69 -163t207 -54q118 0 180.5 63t96.5 223l243 1143h178l-235 -1118q-51 -247 -163 -353t-314 -106q-210 0 -321 92t-111 264q0 40 8.5 110t23.5 144l199 967h178zM871 1689l38 187h164l-39 -187h-163zM551 1689l39 187 h164l-39 -187h-164z" />
<glyph unicode="&#xdd;" horiz-adv-x="938" d="M250 0l127 621l-334 919h188l250 -739l418 739h199l-539 -899l-135 -641h-174zM639 1665h-100l200 260h185z" />
<glyph unicode="&#xde;" horiz-adv-x="1085" d="M-20 0l319 1540h182l-59 -283h166q228 0 330 -92.5t102 -296.5q0 -248 -139 -367.5t-428 -119.5h-217l-80 -381h-176zM266 526h158q249 0 336.5 77.5t87.5 270.5q0 131 -59.5 185.5t-210.5 54.5h-189z" />
<glyph unicode="&#xdf;" horiz-adv-x="1010" d="M-33 0l252 1196q40 185 131 268.5t252 83.5q145 0 240.5 -97t95.5 -247q0 -146 -70 -245t-180 -107q86 -42 128 -113.5t42 -177.5q0 -110 -32.5 -228t-86.5 -204q-50 -81 -114 -120.5t-146 -39.5q-56 0 -108 20t-97 58l35 152q45 -42 79 -59t69 -17q59 0 98 32t68 105 q30 75 47.5 165t17.5 171q0 109 -50 160t-171 63l23 125q10 -1 27 -3q46 -5 63 -5q88 0 143 82t55 213q0 87 -49 134.5t-137 47.5q-94 0 -146.5 -68t-103.5 -309l-215 -1036h-160z" />
<glyph unicode="&#xe0;" horiz-adv-x="909" d="M578 586q-29 -14 -60 -25t-74 -20l-92 -21q-113 -24 -164 -86t-51 -172q0 -74 39 -117t107 -43q107 0 168 79t106 298zM522 141q-60 -94 -122.5 -133t-149.5 -39q-129 0 -201 79.5t-72 223.5q0 156 76 243.5t250 127.5l191 45q79 19 111 74.5t32 165.5q0 53 -43.5 86 t-118.5 33q-92 0 -137.5 -47.5t-51.5 -149.5h-150q9 158 99 243t248 85q155 0 234.5 -65t79.5 -191q0 -28 -5 -62t-18 -92l-104 -522q-6 -30 -8.5 -48.5t-2.5 -29.5q0 -33 21.5 -46t79.5 -13l-19 -109q-19 -10 -38.5 -14t-45.5 -4q-70 0 -104.5 29.5t-34.5 90.5q0 8 3 29 q1 7 1 10zM674 1272h-98l-299 260h194z" />
<glyph unicode="&#xe1;" horiz-adv-x="909" d="M578 586q-29 -14 -60 -25t-74 -20l-92 -21q-113 -24 -164 -86t-51 -172q0 -74 39 -117t107 -43q107 0 168 79t106 298zM522 141q-60 -94 -122.5 -133t-149.5 -39q-129 0 -201 79.5t-72 223.5q0 156 76 243.5t250 127.5l191 45q79 19 111 74.5t32 165.5q0 53 -43.5 86 t-118.5 33q-92 0 -137.5 -47.5t-51.5 -149.5h-150q9 158 99 243t248 85q155 0 234.5 -65t79.5 -191q0 -28 -5 -62t-18 -92l-104 -522q-6 -30 -8.5 -48.5t-2.5 -29.5q0 -33 21.5 -46t79.5 -13l-19 -109q-19 -10 -38.5 -14t-45.5 -4q-70 0 -104.5 29.5t-34.5 90.5q0 8 3 29 q1 7 1 10zM510 1272h-100l200 260h185z" />
<glyph unicode="&#xe2;" horiz-adv-x="909" d="M578 586q-29 -14 -60 -25t-74 -20l-92 -21q-113 -24 -164 -86t-51 -172q0 -74 39 -117t107 -43q107 0 168 79t106 298zM522 141q-60 -94 -122.5 -133t-149.5 -39q-129 0 -201 79.5t-72 223.5q0 156 76 243.5t250 127.5l191 45q79 19 111 74.5t32 165.5q0 53 -43.5 86 t-118.5 33q-92 0 -137.5 -47.5t-51.5 -149.5h-150q9 158 99 243t248 85q155 0 234.5 -65t79.5 -191q0 -28 -5 -62t-18 -92l-104 -522q-6 -30 -8.5 -48.5t-2.5 -29.5q0 -33 21.5 -46t79.5 -13l-19 -109q-19 -10 -38.5 -14t-45.5 -4q-70 0 -104.5 29.5t-34.5 90.5q0 8 3 29 q1 7 1 10zM797 1272h-98l-138 153l-213 -153h-112l245 260h172z" />
<glyph unicode="&#xe3;" horiz-adv-x="909" d="M578 586q-29 -14 -60 -25t-74 -20l-92 -21q-113 -24 -164 -86t-51 -172q0 -74 39 -117t107 -43q107 0 168 79t106 298zM522 141q-60 -94 -122.5 -133t-149.5 -39q-129 0 -201 79.5t-72 223.5q0 156 76 243.5t250 127.5l191 45q79 19 111 74.5t32 165.5q0 53 -43.5 86 t-118.5 33q-92 0 -137.5 -47.5t-51.5 -149.5h-150q9 158 99 243t248 85q155 0 234.5 -65t79.5 -191q0 -28 -5 -62t-18 -92l-104 -522q-6 -30 -8.5 -48.5t-2.5 -29.5q0 -33 21.5 -46t79.5 -13l-19 -109q-19 -10 -38.5 -14t-45.5 -4q-70 0 -104.5 29.5t-34.5 90.5q0 8 3 29 q1 7 1 10zM838 1509q-31 -95 -78.5 -141.5t-112.5 -46.5q-15 0 -34.5 4t-47.5 12l-51 17q-16 5 -30 7.5t-27 2.5q-33 0 -56.5 -19t-31.5 -52l-94 -1q24 94 72.5 144.5t115.5 50.5q15 0 33.5 -3t40.5 -9l55 -17q29 -9 41.5 -11.5t22.5 -2.5q29 0 50 15.5t38 49.5h94z" />
<glyph unicode="&#xe4;" horiz-adv-x="909" d="M578 586q-29 -14 -60 -25t-74 -20l-92 -21q-113 -24 -164 -86t-51 -172q0 -74 39 -117t107 -43q107 0 168 79t106 298zM522 141q-60 -94 -122.5 -133t-149.5 -39q-129 0 -201 79.5t-72 223.5q0 156 76 243.5t250 127.5l191 45q79 19 111 74.5t32 165.5q0 53 -43.5 86 t-118.5 33q-92 0 -137.5 -47.5t-51.5 -149.5h-150q9 158 99 243t248 85q155 0 234.5 -65t79.5 -191q0 -28 -5 -62t-18 -92l-104 -522q-6 -30 -8.5 -48.5t-2.5 -29.5q0 -33 21.5 -46t79.5 -13l-19 -109q-19 -10 -38.5 -14t-45.5 -4q-70 0 -104.5 29.5t-34.5 90.5q0 8 3 29 q1 7 1 10zM613 1296l38 187h164l-39 -187h-163zM293 1296l39 187h164l-39 -187h-164z" />
<glyph unicode="&#xe5;" horiz-adv-x="909" d="M522 141q-60 -94 -122.5 -133t-149.5 -39q-129 0 -201 79.5t-72 223.5q0 156 76 243.5t250 127.5l191 45q79 19 111 74.5t32 165.5q0 53 -43.5 86t-118.5 33q-92 0 -137.5 -47.5t-51.5 -149.5h-150q9 158 99 243t248 85q155 0 234.5 -65t79.5 -191q0 -28 -5 -62t-18 -92 l-104 -522q-6 -30 -8.5 -48.5t-2.5 -29.5q0 -33 21.5 -46t79.5 -13l-19 -109q-19 -10 -38.5 -14t-45.5 -4q-70 0 -104.5 29.5t-34.5 90.5q0 8 3 29q1 7 1 10zM578 586q-29 -14 -60 -25t-74 -20l-92 -21q-113 -24 -164 -86t-51 -172q0 -74 39 -117t107 -43q107 0 168 79 t106 298zM455 1427q0 -38 30 -69t68 -31q39 0 69.5 30.5t30.5 69.5q0 40 -30 69.5t-70 29.5q-39 0 -68.5 -29.5t-29.5 -69.5zM360 1427q0 80 56.5 136.5t136.5 56.5q81 0 136.5 -56t55.5 -137q0 -80 -56.5 -137t-135.5 -57q-80 0 -136.5 57t-56.5 137z" />
<glyph unicode="&#xe6;" horiz-adv-x="1473" d="M610 145q-62 -92 -149 -141t-189 -49q-135 0 -211.5 82.5t-76.5 226.5q0 161 83.5 246.5t339.5 142.5l13 3q237 54 237 241q0 65 -43 102t-118 37q-95 0 -141 -44t-60 -146h-156q13 158 106 239.5t261 81.5q103 0 172 -32.5t94 -94.5q48 71 115 105.5t157 34.5 q163 0 241.5 -88.5t78.5 -272.5q0 -54 -8.5 -120.5t-24.5 -141.5h-573q-13 -63 -19 -116.5t-6 -98.5q0 -115 45.5 -173t134.5 -58t147.5 66.5t84.5 197.5h147q-32 -198 -134.5 -306t-258.5 -108q-113 0 -182.5 44.5t-106.5 139.5zM784 694h414q8 60 11 92.5t3 55.5 q0 99 -43.5 150.5t-128.5 51.5q-95 0 -156 -83.5t-100 -266.5zM594 592q-50 -41 -183 -72q-58 -13 -87 -22q-105 -32 -144 -86.5t-39 -161.5q0 -70 41.5 -114t110.5 -44q125 0 201.5 126.5t99.5 373.5z" />
<glyph unicode="&#xe7;" horiz-adv-x="938" d="M780 393q-13 -202 -118.5 -316t-278.5 -114q-171 0 -257.5 98t-86.5 291q0 139 32.5 294t86.5 274q60 136 149 200t217 64q163 0 246.5 -93t83.5 -276q0 -20 -0.5 -30.5t-1.5 -20.5h-156v67q0 102 -45 154.5t-133 52.5q-77 0 -129 -44.5t-88 -141.5 q-43 -117 -69.5 -257.5t-26.5 -242.5q0 -121 48.5 -181t145.5 -60q101 0 157 69t73 213h151zM144 -430l36 94q61 -16 106 -24.5t73 -8.5q71 0 103 23.5t32 75.5q0 43 -40 61.5t-138 18.5h-21l66 190h75l-34 -102h22q105 0 159 -42.5t54 -123.5q0 -98 -65 -151.5t-185 -53.5 q-42 0 -99.5 10t-143.5 33z" />
<glyph unicode="&#xe8;" horiz-adv-x="938" d="M252 696h414q6 45 9 82t3 66q0 100 -43 151.5t-127 51.5q-95 0 -157 -84t-99 -267zM760 377q-30 -195 -134.5 -305.5t-256.5 -110.5q-161 0 -247.5 103.5t-86.5 295.5q0 136 34 297t85 269q58 126 148.5 191t211.5 65q160 0 238.5 -89.5t78.5 -271.5q0 -54 -8 -120.5 t-24 -141.5h-574q-13 -70 -18.5 -118t-5.5 -87q0 -121 44.5 -181t133.5 -60t147 66t84 198h150zM700 1272h-98l-299 260h194z" />
<glyph unicode="&#xe9;" horiz-adv-x="938" d="M252 696h414q6 45 9 82t3 66q0 100 -43 151.5t-127 51.5q-95 0 -157 -84t-99 -267zM760 377q-30 -195 -134.5 -305.5t-256.5 -110.5q-161 0 -247.5 103.5t-86.5 295.5q0 136 34 297t85 269q58 126 148.5 191t211.5 65q160 0 238.5 -89.5t78.5 -271.5q0 -54 -8 -120.5 t-24 -141.5h-574q-13 -70 -18.5 -118t-5.5 -87q0 -121 44.5 -181t133.5 -60t147 66t84 198h150zM536 1272h-100l200 260h185z" />
<glyph unicode="&#xea;" horiz-adv-x="938" d="M252 696h414q6 45 9 82t3 66q0 100 -43 151.5t-127 51.5q-95 0 -157 -84t-99 -267zM760 377q-30 -195 -134.5 -305.5t-256.5 -110.5q-161 0 -247.5 103.5t-86.5 295.5q0 136 34 297t85 269q58 126 148.5 191t211.5 65q160 0 238.5 -89.5t78.5 -271.5q0 -54 -8 -120.5 t-24 -141.5h-574q-13 -70 -18.5 -118t-5.5 -87q0 -121 44.5 -181t133.5 -60t147 66t84 198h150zM823 1272h-98l-138 153l-213 -153h-112l245 260h172z" />
<glyph unicode="&#xeb;" horiz-adv-x="938" d="M252 696h414q6 45 9 82t3 66q0 100 -43 151.5t-127 51.5q-95 0 -157 -84t-99 -267zM760 377q-30 -195 -134.5 -305.5t-256.5 -110.5q-161 0 -247.5 103.5t-86.5 295.5q0 136 34 297t85 269q58 126 148.5 191t211.5 65q160 0 238.5 -89.5t78.5 -271.5q0 -54 -8 -120.5 t-24 -141.5h-574q-13 -70 -18.5 -118t-5.5 -87q0 -121 44.5 -181t133.5 -60t147 66t84 198h150zM639 1296l38 187h164l-39 -187h-163zM319 1296l39 187h164l-39 -187h-164z" />
<glyph unicode="&#xec;" horiz-adv-x="418" d="M131 0h-166l244 1147h166zM473 1272h-98l-299 260h194z" />
<glyph unicode="&#xed;" horiz-adv-x="418" d="M131 0h-166l244 1147h166zM309 1272h-100l200 260h185z" />
<glyph unicode="&#xee;" horiz-adv-x="418" d="M131 0h-166l244 1147h166zM596 1272h-98l-138 153l-213 -153h-112l245 260h172z" />
<glyph unicode="&#xef;" horiz-adv-x="418" d="M131 0h-166l244 1147h166zM412 1296l38 187h164l-39 -187h-163zM92 1296l39 187h164l-39 -187h-164z" />
<glyph unicode="&#xf0;" horiz-adv-x="997" d="M713 762q0 111 -53 169t-152 58q-72 0 -124.5 -42.5t-88.5 -129.5q-45 -110 -71.5 -239.5t-26.5 -233.5q0 -116 50 -174.5t148 -58.5q84 0 140 49.5t94 158.5t61 233t23 210zM688 1036q-23 75 -62 134.5t-94 101.5l-225 -117l-37 66l195 110q-36 30 -79.5 55.5 t-96.5 47.5l28 94q59 -22 125 -58t140 -86l247 142l37 -74l-219 -121q118 -103 175 -235t57 -303q0 -167 -36 -333t-93 -276q-61 -114 -147.5 -168.5t-207.5 -54.5q-185 0 -275.5 95t-90.5 288q0 132 32 276.5t84 251.5q60 121 149 184.5t198 63.5q58 0 105 -20t91 -64z" />
<glyph unicode="&#xf1;" horiz-adv-x="967" d="M123 0h-162l244 1147h153l-28 -131q71 77 150.5 116t164.5 39q114 0 176 -53.5t62 -152.5q0 -29 -4 -59.5t-13 -67.5l-178 -838h-162l176 829q7 34 11 61.5t4 41.5q0 52 -35 83.5t-94 31.5q-82 0 -158.5 -54.5t-124.5 -136.5zM901 1509q-31 -95 -78.5 -141.5 t-112.5 -46.5q-15 0 -34.5 4t-47.5 12l-51 17q-16 5 -30 7.5t-27 2.5q-33 0 -56.5 -19t-31.5 -52l-94 -1q24 94 72.5 144.5t115.5 50.5q15 0 33.5 -3t40.5 -9l55 -17q29 -9 41.5 -11.5t22.5 -2.5q29 0 50 15.5t38 49.5h94z" />
<glyph unicode="&#xf2;" horiz-adv-x="997" d="M520 1038q-72 0 -125 -45t-92 -141q-47 -117 -76.5 -257t-29.5 -245q0 -118 49.5 -178.5t146.5 -60.5q87 0 143.5 51.5t94.5 165.5q42 130 67 262.5t25 218.5q0 111 -52.5 170t-150.5 59zM31 354q0 138 34 293.5t91 274.5q62 131 152 196.5t210 65.5q181 0 276 -99.5 t95 -287.5q0 -145 -38.5 -314.5t-94.5 -279.5q-61 -121 -153.5 -180.5t-217.5 -59.5q-177 0 -265.5 97.5t-88.5 293.5zM739 1272h-98l-299 260h194z" />
<glyph unicode="&#xf3;" horiz-adv-x="997" d="M520 1038q-72 0 -125 -45t-92 -141q-47 -117 -76.5 -257t-29.5 -245q0 -118 49.5 -178.5t146.5 -60.5q87 0 143.5 51.5t94.5 165.5q42 130 67 262.5t25 218.5q0 111 -52.5 170t-150.5 59zM31 354q0 138 34 293.5t91 274.5q62 131 152 196.5t210 65.5q181 0 276 -99.5 t95 -287.5q0 -145 -38.5 -314.5t-94.5 -279.5q-61 -121 -153.5 -180.5t-217.5 -59.5q-177 0 -265.5 97.5t-88.5 293.5zM575 1272h-100l200 260h185z" />
<glyph unicode="&#xf4;" horiz-adv-x="997" d="M520 1038q-72 0 -125 -45t-92 -141q-47 -117 -76.5 -257t-29.5 -245q0 -118 49.5 -178.5t146.5 -60.5q87 0 143.5 51.5t94.5 165.5q42 130 67 262.5t25 218.5q0 111 -52.5 170t-150.5 59zM31 354q0 138 34 293.5t91 274.5q62 131 152 196.5t210 65.5q181 0 276 -99.5 t95 -287.5q0 -145 -38.5 -314.5t-94.5 -279.5q-61 -121 -153.5 -180.5t-217.5 -59.5q-177 0 -265.5 97.5t-88.5 293.5zM862 1272h-98l-138 153l-213 -153h-112l245 260h172z" />
<glyph unicode="&#xf5;" horiz-adv-x="997" d="M520 1038q-72 0 -125 -45t-92 -141q-47 -117 -76.5 -257t-29.5 -245q0 -118 49.5 -178.5t146.5 -60.5q87 0 143.5 51.5t94.5 165.5q42 130 67 262.5t25 218.5q0 111 -52.5 170t-150.5 59zM31 354q0 138 34 293.5t91 274.5q62 131 152 196.5t210 65.5q181 0 276 -99.5 t95 -287.5q0 -145 -38.5 -314.5t-94.5 -279.5q-61 -121 -153.5 -180.5t-217.5 -59.5q-177 0 -265.5 97.5t-88.5 293.5zM903 1509q-31 -95 -78.5 -141.5t-112.5 -46.5q-15 0 -34.5 4t-47.5 12l-51 17q-16 5 -30 7.5t-27 2.5q-33 0 -56.5 -19t-31.5 -52l-94 -1 q24 94 72.5 144.5t115.5 50.5q15 0 33.5 -3t40.5 -9l55 -17q29 -9 41.5 -11.5t22.5 -2.5q29 0 50 15.5t38 49.5h94z" />
<glyph unicode="&#xf6;" horiz-adv-x="997" d="M520 1038q-72 0 -125 -45t-92 -141q-47 -117 -76.5 -257t-29.5 -245q0 -118 49.5 -178.5t146.5 -60.5q87 0 143.5 51.5t94.5 165.5q42 130 67 262.5t25 218.5q0 111 -52.5 170t-150.5 59zM31 354q0 138 34 293.5t91 274.5q62 131 152 196.5t210 65.5q181 0 276 -99.5 t95 -287.5q0 -145 -38.5 -314.5t-94.5 -279.5q-61 -121 -153.5 -180.5t-217.5 -59.5q-177 0 -265.5 97.5t-88.5 293.5zM678 1296l38 187h164l-39 -187h-163zM358 1296l39 187h164l-39 -187h-164z" />
<glyph unicode="&#xf7;" horiz-adv-x="1706" d="M854 367q51 0 88 -37t37 -88q0 -52 -36.5 -88.5t-88.5 -36.5q-53 0 -89 36t-36 89q0 51 37 88t88 37zM1452 680v-139h-1198v139h1198zM854 1106q51 0 88 -37.5t37 -89.5q0 -51 -36.5 -88t-88.5 -37t-88.5 36.5t-36.5 88.5t37 89.5t88 37.5z" />
<glyph unicode="&#xf8;" horiz-adv-x="997" d="M719 860l-481 -684q26 -35 60.5 -50t88.5 -15q91 0 147.5 50.5t94.5 168.5q42 127 67 255t25 206q0 24 -0.5 39t-1.5 30zM199 285l479 684q-31 35 -68 51t-90 16q-86 0 -141 -52t-96 -173q-40 -117 -63 -244t-23 -223q0 -17 1 -37t1 -22zM78 115q-25 50 -36 103t-11 122 q0 145 33.5 304t89.5 278q63 135 155.5 199.5t225.5 64.5q73 0 130.5 -20t108.5 -64l98 145l78 -55l-114 -166q26 -36 38.5 -92t12.5 -137q0 -150 -37.5 -317.5t-93.5 -276.5q-63 -122 -157.5 -182t-221.5 -60q-81 0 -141 20.5t-93 59.5l-112 -162l-78 55z" />
<glyph unicode="&#xf9;" horiz-adv-x="967" d="M186 315q-7 -35 -10.5 -61t-3.5 -39q0 -52 35 -83.5t94 -31.5q79 0 154 49.5t129 139.5l182 858h162l-244 -1147h-154l29 129q-72 -78 -150 -117t-163 -39q-114 0 -176 54t-62 153q0 32 3.5 63.5t11.5 64.5l178 839h161zM737 1272h-98l-299 260h194z" />
<glyph unicode="&#xfa;" horiz-adv-x="967" d="M186 315q-7 -35 -10.5 -61t-3.5 -39q0 -52 35 -83.5t94 -31.5q79 0 154 49.5t129 139.5l182 858h162l-244 -1147h-154l29 129q-72 -78 -150 -117t-163 -39q-114 0 -176 54t-62 153q0 32 3.5 63.5t11.5 64.5l178 839h161zM573 1272h-100l200 260h185z" />
<glyph unicode="&#xfb;" horiz-adv-x="967" d="M186 315q-7 -35 -10.5 -61t-3.5 -39q0 -52 35 -83.5t94 -31.5q79 0 154 49.5t129 139.5l182 858h162l-244 -1147h-154l29 129q-72 -78 -150 -117t-163 -39q-114 0 -176 54t-62 153q0 32 3.5 63.5t11.5 64.5l178 839h161zM860 1272h-98l-138 153l-213 -153h-112l245 260 h172z" />
<glyph unicode="&#xfc;" horiz-adv-x="967" d="M186 315q-7 -35 -10.5 -61t-3.5 -39q0 -52 35 -83.5t94 -31.5q79 0 154 49.5t129 139.5l182 858h162l-244 -1147h-154l29 129q-72 -78 -150 -117t-163 -39q-114 0 -176 54t-62 153q0 32 3.5 63.5t11.5 64.5l178 839h161zM676 1296l38 187h164l-39 -187h-163zM356 1296 l39 187h164l-39 -187h-164z" />
<glyph unicode="&#xfd;" horiz-adv-x="834" d="M328 -49q-99 -213 -175.5 -286t-185.5 -73q-25 0 -52 5t-58 16l34 124q16 -5 30.5 -7t35.5 -2q44 0 76 22t57 70l80 155l-84 1172h162l55 -926l397 926h181zM508 1272h-100l200 260h185z" />
<glyph unicode="&#xfe;" horiz-adv-x="997" d="M549 1040q-83 0 -143 -57t-101 -174q-39 -115 -63.5 -247t-24.5 -218q0 -110 47.5 -169.5t134.5 -59.5q71 0 126 49.5t96 150.5q40 101 67 241.5t27 254.5q0 109 -43.5 169t-122.5 60zM293 1536h162l-101 -479q43 57 108 90t134 33q137 0 212 -105.5t75 -300.5 q0 -349 -133.5 -573t-341.5 -224q-88 0 -153.5 49.5t-92.5 135.5l-117 -551h-162z" />
<glyph unicode="&#xff;" horiz-adv-x="834" d="M328 -49q-99 -213 -175.5 -286t-185.5 -73q-25 0 -52 5t-58 16l34 124q16 -5 30.5 -7t35.5 -2q44 0 76 22t57 70l80 155l-84 1172h162l55 -926l397 926h181zM611 1296l38 187h164l-39 -187h-163zM291 1296l39 187h164l-39 -187h-164z" />
<glyph unicode="&#x106;" horiz-adv-x="1182" d="M850 508h158q-43 -257 -181 -401t-342 -144q-202 0 -306.5 124t-104.5 366q0 189 52 417.5t132 395.5q77 158 191 235.5t270 77.5q187 0 288 -103.5t101 -295.5q0 -28 -2.5 -64t-7.5 -83h-164q3 35 4.5 65.5t1.5 56.5q0 140 -60 212.5t-175 72.5q-107 0 -185 -71 t-129 -214q-23 -63 -45.5 -149.5t-42.5 -186.5q-24 -116 -36.5 -221t-12.5 -180q0 -155 61.5 -234.5t182.5 -79.5q127 0 220.5 107t131.5 297zM731 1665h-100l200 260h185z" />
<glyph unicode="&#x107;" horiz-adv-x="938" d="M780 393q-13 -202 -118.5 -316t-278.5 -114q-171 0 -257.5 98t-86.5 291q0 139 32.5 294t86.5 274q60 136 149 200t217 64q163 0 246.5 -93t83.5 -276q0 -20 -0.5 -30.5t-1.5 -20.5h-156v67q0 102 -45 154.5t-133 52.5q-77 0 -129 -44.5t-88 -141.5 q-43 -117 -69.5 -257.5t-26.5 -242.5q0 -121 48.5 -181t145.5 -60q101 0 157 69t73 213h151zM545 1272h-100l200 260h185z" />
<glyph unicode="&#x10c;" horiz-adv-x="1182" d="M850 508h158q-43 -257 -181 -401t-342 -144q-202 0 -306.5 124t-104.5 366q0 189 52 417.5t132 395.5q77 158 191 235.5t270 77.5q187 0 288 -103.5t101 -295.5q0 -28 -2.5 -64t-7.5 -83h-164q3 35 4.5 65.5t1.5 56.5q0 140 -60 212.5t-175 72.5q-107 0 -185 -71 t-129 -214q-23 -63 -45.5 -149.5t-42.5 -186.5q-24 -116 -36.5 -221t-12.5 -180q0 -155 61.5 -234.5t182.5 -79.5q127 0 220.5 107t131.5 297zM522 1925h99l137 -154l213 154h112l-245 -260h-172z" />
<glyph unicode="&#x10d;" horiz-adv-x="938" d="M780 393q-13 -202 -118.5 -316t-278.5 -114q-171 0 -257.5 98t-86.5 291q0 139 32.5 294t86.5 274q60 136 149 200t217 64q163 0 246.5 -93t83.5 -276q0 -20 -0.5 -30.5t-1.5 -20.5h-156v67q0 102 -45 154.5t-133 52.5q-77 0 -129 -44.5t-88 -141.5 q-43 -117 -69.5 -257.5t-26.5 -242.5q0 -121 48.5 -181t145.5 -60q101 0 157 69t73 213h151zM336 1532h99l137 -154l213 154h112l-245 -260h-172z" />
<glyph unicode="&#x111;" horiz-adv-x="1010" d="M367 111q81 0 141.5 56t103.5 173q37 99 60.5 229t23.5 232q0 114 -47 174.5t-135 60.5q-70 0 -125.5 -50t-95.5 -150t-67 -238.5t-27 -241.5q0 -118 43.5 -181.5t124.5 -63.5zM578 115q-47 -67 -115 -104.5t-144 -37.5q-136 0 -211 104t-75 294q0 156 39.5 321 t101.5 273q60 101 146 155t188 54q87 0 150 -48t98 -141l61 291h-258l23 98h256l34 162h158l-35 -162h164l-18 -98h-164l-272 -1276h-154z" />
<glyph unicode="&#x11e;" horiz-adv-x="1204" d="M895 621h-332l29 145h504l-154 -766h-127l19 160q-47 -95 -131 -145t-199 -50q-201 0 -315.5 130t-114.5 360q0 82 14 187.5t41 229.5q28 125 60 221.5t69 170.5q80 159 195.5 237t269.5 78q188 0 289.5 -104t101.5 -295q0 -29 -2.5 -64.5t-7.5 -82.5l-166 -1q1 15 3 41 q5 63 5 84q0 136 -62 207.5t-179 71.5q-106 0 -181 -68.5t-129 -212.5q-65 -180 -102 -376t-37 -361q0 -154 68.5 -238t193.5 -84q155 0 256.5 140t120.5 385zM569 1919h98q3 -61 37 -90t103 -29q79 0 131 29t84 90h102q-36 -122 -118.5 -185t-206.5 -63q-113 0 -171.5 57.5 t-58.5 167.5v23z" />
<glyph unicode="&#x11f;" horiz-adv-x="1006" d="M803 1147h153l-235 -1110q-55 -259 -147.5 -351t-276.5 -92q-156 0 -238 74.5t-82 216.5v21h158v-17q0 -79 43.5 -121t126.5 -42q112 0 171.5 83t92.5 295q-51 -62 -114 -94.5t-133 -32.5q-134 0 -208.5 102t-74.5 286q0 154 42 322t105 278q63 107 144.5 161t181.5 54 q97 0 165 -53.5t91 -147.5zM375 109q63 0 118.5 47.5t98.5 138.5q47 101 81 251t34 261q0 108 -43.5 167.5t-120.5 59.5q-82 0 -141.5 -55.5t-106.5 -175.5q-40 -104 -64 -233t-24 -236q0 -106 45 -165.5t123 -59.5zM391 1526h98q3 -61 37 -90t103 -29q79 0 131 29t84 90 h102q-36 -122 -118.5 -185t-206.5 -63q-113 0 -171.5 57.5t-58.5 167.5v23z" />
<glyph unicode="&#x130;" horiz-adv-x="461" d="M160 0h-183l322 1540h180zM336 1685l41 195h174l-43 -195h-172z" />
<glyph unicode="&#x131;" horiz-adv-x="418" d="M131 0h-166l244 1147h166z" />
<glyph unicode="&#x141;" horiz-adv-x="903" d="M-2 0l117 573l-154 -88l35 174l158 91l163 790h177l-142 -676l332 191l-39 -178l-328 -189l-112 -532h598l-29 -156h-776z" />
<glyph unicode="&#x142;" horiz-adv-x="465" d="M-10 0l147 698l-172 -100l29 125l172 102l149 711h166l-133 -633l172 101l-28 -125l-173 -103l-163 -776h-166z" />
<glyph unicode="&#x152;" horiz-adv-x="1792" d="M731 1436q-112 0 -197.5 -69.5t-140.5 -205.5q-67 -164 -110 -376t-43 -369q0 -149 70 -230.5t198 -81.5q111 0 194.5 65.5t135.5 192.5q23 61 47.5 147t48.5 196q33 152 50 268.5t17 181.5q0 126 -74.5 203.5t-195.5 77.5zM815 125q-51 -78 -135.5 -119t-196.5 -41 q-197 0 -301 130t-104 378q0 194 52.5 415.5t135.5 379.5q81 153 199 230t270 77q133 0 216.5 -58t115.5 -174l43 197h674l-31 -145h-498l-106 -514h534l-32 -152h-533l-121 -573h586l-29 -156h-766z" />
<glyph unicode="&#x153;" horiz-adv-x="1575" d="M715 160q-52 -97 -137.5 -148t-194.5 -51q-171 0 -261.5 105.5t-90.5 304.5q0 129 34.5 281.5t92.5 277.5q58 126 153.5 190t225.5 64q108 0 185.5 -47t111.5 -133q66 94 139 137t168 43q164 0 243.5 -90t79.5 -275q0 -60 -7.5 -126.5t-22.5 -135.5h-576 q-13 -70 -18.5 -118t-5.5 -87q0 -121 44.5 -181t133.5 -60q90 0 148.5 66.5t84.5 197.5h148q-32 -196 -136 -305t-258 -109q-113 0 -184 49.5t-100 149.5zM885 694h413q9 60 12 92.5t3 55.5q0 100 -43.5 150t-128.5 50q-97 0 -162.5 -88.5t-93.5 -259.5zM406 111 q87 0 146.5 52.5t94.5 162.5q34 104 58 248.5t24 240.5q0 108 -53.5 167.5t-151.5 59.5q-72 0 -126 -46t-93 -140q-46 -114 -75 -254.5t-29 -249.5q0 -118 52.5 -179.5t152.5 -61.5z" />
<glyph unicode="&#x15e;" horiz-adv-x="1106" d="M35 471h164v-25q0 -172 64 -251.5t202 -79.5q150 0 235.5 88t85.5 239q0 175 -263 280q-44 18 -68 28q-143 57 -204 139t-61 213q0 213 127.5 343t335.5 130q186 0 296 -101.5t110 -275.5q0 -19 -0.5 -28.5t-2.5 -18.5h-163v20q0 121 -62.5 186.5t-177.5 65.5 q-131 0 -209.5 -81.5t-78.5 -213.5q0 -154 261 -263q19 -9 29 -13q192 -82 251 -164.5t59 -224.5q0 -224 -140 -362t-368 -138q-201 0 -313.5 115.5t-112.5 320.5q0 24 3 66q1 4 1 6zM152 -430l36 94q61 -16 106 -24.5t73 -8.5q71 0 103 23.5t32 75.5q0 43 -40 61.5 t-138 18.5h-21l66 190h75l-34 -102h22q105 0 159 -42.5t54 -123.5q0 -98 -65 -151.5t-185 -53.5q-42 0 -99.5 10t-143.5 33z" />
<glyph unicode="&#x15f;" horiz-adv-x="901" d="M-4 340h156q0 -6 -1 -18.5t-1 -18.5q0 -99 48.5 -148t147.5 -49q95 0 152 58.5t57 154.5q0 75 -30.5 117t-121.5 80q-179 79 -230.5 145t-51.5 175q0 161 93 254.5t253 93.5q150 0 240 -75t90 -198q0 -16 -4 -55v-6h-146v6q0 94 -46 142.5t-136 48.5q-84 0 -133 -52 t-49 -139q0 -106 178 -186q43 -20 67 -31q105 -49 150 -117t45 -174q0 -179 -105.5 -284t-281.5 -105q-160 0 -252 82.5t-92 224.5q0 5 1.5 30t2.5 44zM50 -430l36 94q61 -16 106 -24.5t73 -8.5q71 0 103 23.5t32 75.5q0 43 -40 61.5t-138 18.5h-21l66 190h75l-34 -102h22 q105 0 159 -42.5t54 -123.5q0 -98 -65 -151.5t-185 -53.5q-42 0 -99.5 10t-143.5 33z" />
<glyph unicode="&#x160;" horiz-adv-x="1106" d="M35 471h164v-25q0 -172 64 -251.5t202 -79.5q150 0 235.5 88t85.5 239q0 175 -263 280q-44 18 -68 28q-143 57 -204 139t-61 213q0 213 127.5 343t335.5 130q186 0 296 -101.5t110 -275.5q0 -19 -0.5 -28.5t-2.5 -18.5h-163v20q0 121 -62.5 186.5t-177.5 65.5 q-131 0 -209.5 -81.5t-78.5 -213.5q0 -154 261 -263q19 -9 29 -13q192 -82 251 -164.5t59 -224.5q0 -224 -140 -362t-368 -138q-201 0 -313.5 115.5t-112.5 320.5q0 24 3 66q1 4 1 6zM514 1925h99l137 -154l213 154h112l-245 -260h-172z" />
<glyph unicode="&#x161;" horiz-adv-x="901" d="M-4 340h156q0 -6 -1 -18.5t-1 -18.5q0 -99 48.5 -148t147.5 -49q95 0 152 58.5t57 154.5q0 75 -30.5 117t-121.5 80q-179 79 -230.5 145t-51.5 175q0 161 93 254.5t253 93.5q150 0 240 -75t90 -198q0 -16 -4 -55v-6h-146v6q0 94 -46 142.5t-136 48.5q-84 0 -133 -52 t-49 -139q0 -106 178 -186q43 -20 67 -31q105 -49 150 -117t45 -174q0 -179 -105.5 -284t-281.5 -105q-160 0 -252 82.5t-92 224.5q0 5 1.5 30t2.5 44zM332 1532h99l137 -154l213 154h112l-245 -260h-172z" />
<glyph unicode="&#x178;" horiz-adv-x="938" d="M250 0l127 621l-334 919h188l250 -739l418 739h199l-539 -899l-135 -641h-174zM742 1689l38 187h164l-39 -187h-163zM422 1689l39 187h164l-39 -187h-164z" />
<glyph unicode="&#x17d;" horiz-adv-x="918" d="M780 0h-848l29 154l801 1241h-621l35 145h807l-27 -145l-794 -1241h655zM420 1925h99l137 -154l213 154h112l-245 -260h-172z" />
<glyph unicode="&#x17e;" horiz-adv-x="795" d="M582 0h-697l29 141l680 867h-467l37 139h657l-28 -131l-678 -869h497zM278 1532h99l137 -154l213 154h112l-245 -260h-172z" />
<glyph unicode="&#x192;" horiz-adv-x="1020" d="M422 838h-223v131h243l31 155q47 241 122 329.5t216 88.5q40 0 76.5 -8t75.5 -25l-37 -143q-46 18 -70 24.5t-41 6.5q-83 0 -125 -78.5t-80 -349.5h246v-131h-266l-98 -615q-64 -407 -141.5 -514.5t-233.5 -107.5q-40 0 -76.5 7.5t-75.5 24.5l37 142q38 -15 65.5 -22 t47.5 -7q137 0 203 415l2 12z" />
<glyph unicode="&#x2c6;" d="M889 1272h-98l-138 153l-213 -153h-112l245 260h172z" />
<glyph unicode="&#x2c7;" d="M393 1532h99l137 -154l213 154h112l-245 -260h-172z" />
<glyph unicode="&#x2d8;" d="M399 1526h98q3 -61 37 -90t103 -29q79 0 131 29t84 90h102q-36 -122 -118.5 -185t-206.5 -63q-113 0 -171.5 57.5t-58.5 167.5v23z" />
<glyph unicode="&#x2d9;" d="M539 1292l41 195h174l-43 -195h-172z" />
<glyph unicode="&#x2da;" d="M563 1466q0 -40 28.5 -68t67.5 -28q41 0 70 28.5t29 67.5q0 43 -28 71t-71 28q-41 0 -68.5 -28.5t-27.5 -70.5zM457 1468q0 84 60 143.5t145 59.5q82 0 142 -60t60 -143q0 -84 -59 -144t-143 -60q-86 0 -145.5 59.5t-59.5 144.5z" />
<glyph unicode="&#x2db;" d="M408 0q-73 -64 -105.5 -116.5t-32.5 -104.5q0 -43 21.5 -60.5t75.5 -17.5h75l-30 -143h-47q-113 0 -169.5 42t-56.5 126q0 64 41.5 126t145.5 148h82z" />
<glyph unicode="&#x2dc;" d="M930 1509q-31 -95 -78.5 -141.5t-112.5 -46.5q-15 0 -34.5 4t-47.5 12l-51 17q-16 5 -30 7.5t-27 2.5q-33 0 -56.5 -19t-31.5 -52l-94 -1q24 94 72.5 144.5t115.5 50.5q15 0 33.5 -3t40.5 -9l55 -17q29 -9 41.5 -11.5t22.5 -2.5q29 0 50 15.5t38 49.5h94z" />
<glyph unicode="&#x2dd;" d="M862 1532h162l-248 -260h-78zM586 1532h151l-211 -260h-73z" />
<glyph unicode="&#x3a9;" horiz-adv-x="1565" d="M1487 178v-178h-600v178q177 97 276 263t99 368q0 240 -132 385t-348 145t-348.5 -145.5t-132.5 -384.5q0 -202 99.5 -368t277.5 -263v-178h-600v178h319q-158 139 -230.5 288t-72.5 333q0 318 191.5 515t496.5 197q303 0 495.5 -196.5t192.5 -505.5q0 -194 -71 -342 t-232 -289h320z" />
<glyph unicode="&#x3c0;" horiz-adv-x="1206" d="M1159 913h-182l-105 -487q-15 -74 -22.5 -120t-7.5 -68q0 -58 23.5 -82.5t78.5 -24.5q17 0 40 2.5t60 7.5l-30 -141q-30 -8 -57.5 -12t-53.5 -4q-118 0 -178.5 51t-60.5 151q0 46 10.5 118t44.5 233l80 376h-326l-194 -913h-181l195 913h-41q-54 0 -84 -32t-39 -101h-160 q28 166 99.5 228.5t236.5 62.5h889z" />
<glyph unicode="&#x2013;" d="M-41 526l21 99h1024l-21 -99h-1024z" />
<glyph unicode="&#x2014;" horiz-adv-x="2048" d="M-41 526l21 99h2048l-21 -99h-2048z" />
<glyph unicode="&#x2018;" horiz-adv-x="502" d="M395 1079h-190l53 252q21 102 84.5 166.5t157.5 79.5l-15 -86q-63 -23 -96.5 -72.5t-41.5 -134.5h91z" />
<glyph unicode="&#x2019;" horiz-adv-x="502" d="M309 1540h191l-54 -252q-20 -101 -83.5 -165t-157.5 -79l14 86q64 23 97 72.5t42 134.5h-92z" />
<glyph unicode="&#x201a;" horiz-adv-x="502" d="M53 203h191l-54 -252q-20 -101 -83.5 -165t-157.5 -79l14 86q64 23 97 72.5t42 134.5h-92z" />
<glyph unicode="&#x201c;" horiz-adv-x="899" d="M393 1079h-188l51 252q20 101 84.5 166t159.5 80l-15 -86q-63 -23 -96.5 -72.5t-41.5 -134.5h89zM791 1079h-191l53 252q21 102 84.5 166.5t157.5 79.5l-14 -86q-64 -23 -97 -72t-42 -135h92z" />
<glyph unicode="&#x201d;" horiz-adv-x="899" d="M707 1540h188l-53 -252q-21 -101 -84 -165t-158 -79l14 86q64 23 97 72t42 135h-89zM309 1540h191l-54 -252q-20 -101 -83.5 -165t-157.5 -79l14 86q64 23 97 72.5t42 134.5h-92z" />
<glyph unicode="&#x201e;" horiz-adv-x="899" d="M451 203h188l-53 -252q-21 -101 -84 -165t-158 -79l14 86q64 23 97 72t42 135h-89zM53 203h191l-54 -252q-20 -101 -83.5 -165t-157.5 -79l14 86q64 23 97 72.5t42 134.5h-92z" />
<glyph unicode="&#x2020;" d="M223 -322l215 1219h-334l23 131h334l92 512h156l-91 -512h334l-22 -131h-334l-215 -1219h-158z" />
<glyph unicode="&#x2021;" d="M438 897h-334l23 131h334l92 512h156l-91 -512h334l-22 -131h-334l-102 -575h335l-22 -132h-336l-90 -512h-158l92 512h-335l24 132h334z" />
<glyph unicode="&#x2022;" horiz-adv-x="1208" d="M307 762q0 123 87 209t210 86q122 0 208.5 -86.5t86.5 -208.5t-87.5 -209.5t-209.5 -87.5q-123 0 -209 87t-86 210z" />
<glyph unicode="&#x2026;" horiz-adv-x="2048" d="M283 0h-191l43 205h193zM965 0h-191l43 205h193zM1649 0h-191l43 205h193z" />
<glyph unicode="&#x2030;" horiz-adv-x="2089" d="M1712 629q-76 0 -107.5 -59.5t-31.5 -211.5q0 -122 33.5 -178.5t105.5 -56.5q73 0 107 64t34 200q0 122 -34.5 182t-106.5 60zM1434 383q0 186 68 277.5t206 91.5q145 0 215 -90.5t70 -278.5q0 -186 -72.5 -284.5t-208.5 -98.5q-144 0 -211 92.5t-67 290.5zM1053 629 q-76 0 -108 -59.5t-32 -211.5q0 -122 34 -178.5t106 -56.5t106.5 64t34.5 200q0 122 -35 182t-106 60zM774 383q0 185 69 277t208 92q145 0 214.5 -90.5t69.5 -278.5q0 -186 -72 -284.5t-208 -98.5q-145 0 -213 93t-68 290zM373 1399q-76 0 -106.5 -58.5t-30.5 -212.5 q0 -123 32.5 -179t104.5 -56t106.5 64t34.5 200q0 122 -35 182t-106 60zM94 1153q0 185 69 277t208 92q144 0 214 -90.5t70 -276.5q0 -187 -72.5 -286t-209.5 -99q-144 0 -211.5 92.5t-67.5 290.5zM305 -29l694 1579h117l-692 -1579h-119z" />
<glyph unicode="&#x2039;" horiz-adv-x="569" d="M369 393l-35 -149l-277 280l33 160l373 240l-29 -176l-258 -162z" />
<glyph unicode="&#x203a;" horiz-adv-x="569" d="M135 774l35 152l279 -283l-33 -160l-375 -239l29 178l258 160z" />
<glyph unicode="&#x20a3;" horiz-adv-x="1526" d="M973 1540l-31 -156h-498l-106 -503h489l-30 -152h-490l-151 -729h-176l319 1540h674zM874 0l244 1147h149l-41 -184q55 99 136 153.5t172 54.5q15 0 30.5 -2t30.5 -6l-31 -165q-18 5 -32 7.5t-27 2.5q-122 0 -206.5 -90t-121.5 -261l-139 -657h-164z" />
<glyph unicode="&#x20ac;" horiz-adv-x="1020" d="M815 872h-436q-5 -19 -10 -41.5t-9 -42.5q-4 -21 -8.5 -46.5t-7.5 -44.5l399 -1l-38 -94h-375q-10 -75 -14 -172q0 -8 -1 -12v-25q0 -140 50.5 -210t150.5 -70q97 0 162 82.5t96 244.5h154q-45 -229 -155.5 -352t-270.5 -123q-173 0 -265 118t-92 341v29l1 3q4 94 10 146 h-140l39 94h113q6 37 15.5 88t17.5 88h-135l36 95h121q78 307 199 440t301 133q154 0 237.5 -96t83.5 -264v-39.5t-2 -24.5h-159q0 7 1 21.5t1 21.5q0 120 -44 177t-136 57q-190 0 -303 -417l-2 -9h454z" />
<glyph unicode="&#x2122;" horiz-adv-x="1706" d="M963 1458l151 -385l141 385h150v-538h-98v444l-166 -444h-56l-174 444v-444h-98v538h150zM694 1458v-80h-172v-458h-108v458h-172v80h452z" />
<glyph unicode="&#x2202;" horiz-adv-x="1059" d="M756 621q15 87 22.5 168.5t7.5 156.5q0 129 -36.5 194.5t-108.5 65.5q-55 0 -127 -58t-108 -58t-60 22t-24 53q0 62 72 111t173 49q180 0 287 -155t107 -418q0 -335 -144.5 -556t-357.5 -221q-152 0 -253.5 108t-101.5 271q0 198 110.5 326.5t272.5 128.5 q101 0 166 -45.5t103 -142.5zM707 494q0 116 -43.5 178.5t-122.5 62.5q-109 0 -179.5 -129t-70.5 -336q0 -116 43 -177.5t123 -61.5q109 0 179.5 130t70.5 333z" />
<glyph unicode="&#x2206;" horiz-adv-x="1370" d="M684 1262l-418 -1084h836zM573 1473h224l579 -1473h-1382z" />
<glyph unicode="&#x220f;" horiz-adv-x="1550" d="M156 1473h1237v-1866h-240v1661h-758v-1661h-239v1866z" />
<glyph unicode="&#x2211;" horiz-adv-x="1380" d="M55 1473h1258v-193h-959l672 -717l-694 -764h1007v-192h-1314v149l725 801l-695 739v177z" />
<glyph unicode="&#x2212;" horiz-adv-x="1706" d="M1452 682v-141h-1198v141h1198z" />
<glyph unicode="&#x2215;" horiz-adv-x="340" d="M-217 -35h-125l899 1575h125z" />
<glyph unicode="&#x2219;" horiz-adv-x="510" d="M131 762q0 53 38.5 91t92.5 38q56 0 93.5 -37t37.5 -92t-38.5 -93t-92.5 -38t-92.5 38t-38.5 93z" />
<glyph unicode="&#x221a;" horiz-adv-x="1305" d="M1116 1661h189v-96h-115l-594 -1606h-66l-319 883l-125 -45l-25 80l283 98l256 -709z" />
<glyph unicode="&#x221e;" horiz-adv-x="1706" d="M915 559q49 -88 116 -133t151 -45q101 0 165 67.5t64 172.5q0 101 -59 168t-148 67q-82 0 -148.5 -67.5t-140.5 -229.5zM793 666q-49 88 -115.5 132t-151.5 44q-102 0 -165.5 -66t-63.5 -172q0 -101 59 -168t148 -67q82 0 149 68t140 229zM864 483 q-70 -135 -148.5 -198.5t-172.5 -63.5q-136 0 -229 111.5t-93 277.5q0 175 83.5 283t217.5 108q95 0 171.5 -63t148.5 -201q68 138 147 203.5t176 65.5q134 0 228 -112.5t94 -279.5q0 -175 -83.5 -282t-217.5 -107q-94 0 -168.5 59.5t-153.5 198.5z" />
<glyph unicode="&#x222b;" horiz-adv-x="1067" d="M311 -262q106 0 120 688q2 108 3 165q12 515 107 737t297 222q80 0 130 -42t50 -107q0 -54 -32 -85.5t-87 -31.5q-42 0 -70 19t-40 54q-6 15 -10.5 51t-20.5 36q-107 0 -121 -619q-4 -193 -8 -303q-17 -479 -111.5 -686t-290.5 -207q-79 0 -129.5 41.5t-50.5 106.5 q0 56 34 87.5t95 31.5q33 0 57 -14.5t39 -42.5q10 -18 15 -59.5t24 -41.5z" />
<glyph unicode="&#x2248;" horiz-adv-x="1706" d="M1530 430q-105 -73 -199.5 -107t-189.5 -34t-285 67.5t-293 67.5q-82 0 -171.5 -36t-213.5 -122v156q108 73 204 109t183 36q115 0 305 -68.5t273 -68.5q88 0 177 35.5t210 120.5v-156zM1530 799q-105 -73 -199.5 -107.5t-189.5 -34.5t-285 68t-293 68q-83 0 -171.5 -36 t-213.5 -122v156q106 72 202 107.5t185 35.5q116 0 305.5 -67.5t272.5 -67.5q87 0 175 34.5t212 120.5v-155z" />
<glyph unicode="&#x2260;" horiz-adv-x="1706" d="M1313 1112l-187 -235h326v-136h-416l-205 -262h621v-135h-709l-249 -317l-105 84l184 233h-319v135h408l204 262h-612v136h702l252 317z" />
<glyph unicode="&#x2264;" horiz-adv-x="1706" d="M1446 162v-139h-1184v139h1184zM1444 1059l-936 -309l936 -306v-149l-1182 395v121l1182 395v-147z" />
<glyph unicode="&#x2265;" horiz-adv-x="1706" d="M1446 162v-139h-1184v139h1184zM1446 811v-121l-1184 -395v149l938 306l-938 309v147z" />
<glyph unicode="&#x25ca;" horiz-adv-x="1012" d="M506 1409l-385 -817l385 -825l385 825zM506 1653l500 -1061l-500 -1069l-500 1069z" />
<glyph unicode="&#x25fc;" horiz-adv-x="1145" d="M0 1145h1145v-1145h-1145v1145z" />
<glyph unicode="&#xf000;" horiz-adv-x="1618" d="M836 1216q-1 6 -1.5 14t-0.5 23q0 124 95 229.5t236 131.5q1 -10 1.5 -23t0.5 -39q0 -131 -103.5 -234.5t-203.5 -103.5h-8q-3 0 -7.5 1t-8.5 1zM1505 403q-114 -247 -205 -342.5t-204 -95.5q-50 0 -131.5 33t-122.5 33q-45 0 -131 -33t-127 -33q-64 0 -128.5 44 t-129.5 132q-102 140 -157.5 295.5t-55.5 300.5q0 219 125 356.5t323 137.5q68 0 155 -34t124 -34q34 0 121.5 35t152.5 35q110 0 198 -40t161 -124q-102 -65 -151.5 -145.5t-49.5 -182.5q0 -113 60 -200t173 -138z" />
<glyph unicode="&#xfb01;" horiz-adv-x="915" d="M629 0h-166l244 1147h165zM752 1352l41 200h165l-43 -200h-163zM-10 0l219 1024h-135l26 123h136l47 199q29 119 76 162.5t135 43.5q24 0 59 -4t86 -12l-29 -131q-6 0 -18 1q-37 3 -49 3q-52 0 -76.5 -26t-40.5 -99l-29 -137h158l-27 -123h-157l-221 -1024h-160z" />
<glyph unicode="&#xfb02;" horiz-adv-x="915" d="M629 0h-162l326 1536h161zM-10 0l219 1024h-135l26 123h136l47 199q29 119 76 162.5t135 43.5q24 0 59 -4t86 -12l-29 -131q-6 0 -18 1q-37 3 -49 3q-52 0 -76.5 -26t-40.5 -99l-29 -137h158l-27 -123h-157l-221 -1024h-160z" />
</font>
</defs>
</svg>
